<?xml version="1.0" standalone="no"?>
<!DOCTYPE svg PUBLIC "-//W3C//DTD SVG 1.1//EN" "http://www.w3.org/Graphics/SVG/1.1/DTD/svg11.dtd" >
<svg xmlns="http://www.w3.org/2000/svg">
<metadata></metadata>
<defs>
<font id="anonymous_pro_minusBdIt" horiz-adv-x="1118" >
<font-face units-per-em="2048" ascent="1675" descent="-373" />
<missing-glyph horiz-adv-x="500" />
<glyph />
<glyph />
<glyph unicode="&#xd;" />
<glyph unicode=" " />
<glyph unicode="!" d="M242 0l53 252h252l-53 -252h-252zM360 373l148 932h272l-250 -932h-170z" />
<glyph unicode="&#x22;" d="M272 805l62 500h248l-152 -500h-158zM645 805l62 500h247l-151 -500h-158z" />
<glyph unicode="#" d="M-58 187l39 186h187l39 187h-187l41 186h187l39 187h186l-39 -187h186l39 187h187l-39 -187h186l-41 -186h-186l-39 -187h186l-39 -186h-186l-41 -186h-186l41 186h-187l-41 -186h-186l41 186h-187zM354 373h186l39 187h-186z" />
<glyph unicode="$" d="M-41 373l199 30q-4 -192 151 -231l94 438q-59 27 -116.5 57.5t-97 75.5t-56 105.5t1.5 144.5q27 127 137.5 217t282.5 111l35 170h186l-37 -174q78 -14 133.5 -49t90 -85t47 -112.5t2.5 -130.5l-199 -22q12 165 -115 208l-77 -374q61 -27 120.5 -60t101.5 -81 t60.5 -113.5t-0.5 -157.5q-14 -66 -52 -125t-95.5 -107.5t-133 -80t-165.5 -43.5l-37 -170h-187l37 170q-170 22 -248.5 126.5t-62.5 262.5zM342 995q-12 -59 19.5 -98t87.5 -70l65 306q-70 -13 -115 -46.5t-57 -91.5zM496 172q79 14 131.5 55t68.5 113q15 72 -22 116 t-101 79z" />
<glyph unicode="%" d="M-106 47l1114 1303l114 -93l-1112 -1298zM103.5 974q-11.5 46 0.5 99q11 51 41.5 98.5t71.5 81t91 54t104 20.5q51 0 94 -20.5t69.5 -54t37 -81t-0.5 -98.5q-12 -53 -41.5 -99t-70.5 -80t-92.5 -54.5t-102.5 -20.5q-53 0 -95 20.5t-68.5 54.5t-38 80zM254 1075 q-8 -43 15.5 -73.5t66.5 -30.5t81 30.5t46 73.5q10 43 -14.5 74t-67.5 31t-80 -31t-47 -74zM401.5 132q-10.5 46 1.5 99q11 52 41.5 99t71.5 80.5t91 54t104 20.5q51 0 94 -20.5t69.5 -54t37 -80.5t-0.5 -99q-12 -53 -42.5 -99t-71.5 -80t-92.5 -54.5t-102.5 -20.5 q-53 0 -95 20.5t-68.5 54.5t-37 80zM553 233q-10 -43 14.5 -73.5t67.5 -30.5t80 30.5t47 73.5q8 43 -15.5 74t-66.5 31t-81 -31t-46 -74z" />
<glyph unicode="&#x26;" d="M-53.5 193.5q-16.5 64.5 0.5 140.5q28 131 93.5 214t145.5 142q-41 72 -56 144.5t1 156.5q16 76 56 138.5t93.5 106.5t118 67.5t131.5 23.5q68 0 123.5 -20.5t91 -58.5t49 -92t-0.5 -124q-15 -67 -49.5 -120.5t-82 -96.5t-102.5 -79t-108 -68l227 -269q35 50 64.5 104 t56.5 109l178 -47q-31 -73 -77 -150t-109 -149l127 -145l-160 -148l-119 146q-86 -66 -180 -104t-199 -38q-82 0 -147.5 28t-107.5 76t-58.5 112.5zM160 358q-19 -86 26 -140t129 -54q60 0 114 22.5t106 61.5l-248 305h-2q-45 -39 -79 -87t-46 -108zM328 892q0 -44 26 -95 q43 24 81 48.5t69 53.5t52.5 62.5t29.5 74.5q10 47 -15.5 76t-70.5 29q-60 0 -104 -43t-58 -107q-10 -55 -10 -99z" />
<glyph unicode="'" d="M459 805l61 500h248l-152 -500h-157z" />
<glyph unicode="(" d="M182 301q-2 131 27 266t87 266.5t140 252t187.5 227t230.5 190.5l98 -127q-106 -71 -197 -164.5t-163 -198t-122 -218t-75 -228.5q-24 -114 -22 -228t28.5 -218.5t78.5 -197.5t128 -165l-153 -127q-88 84 -148.5 190.5t-91.5 227.5t-33 252z" />
<glyph unicode=")" d="M25 -244q108 72 199 165t163 197.5t121 218.5t74 228q24 115 23 228.5t-28.5 218t-79 198t-128.5 164.5l153 127q90 -84 148.5 -190.5t90.5 -227t34 -252t-27 -266.5t-86 -266t-140 -252t-187.5 -227.5t-229.5 -190.5z" />
<glyph unicode="*" d="M-17 320l340 146l-276 147l135 174l240 -196l45 342h198l-102 -342l326 196l61 -174l-342 -147l279 -146l-136 -174l-239 197l-45 -342h-199l103 342l-326 -197z" />
<glyph unicode="+" d="M-16 385l38 187h373l80 372h186l-79 -372h372l-39 -187h-372l-80 -372h-187l80 372h-372z" />
<glyph unicode="," d="M70 -373l305 559h246l-394 -559h-157z" />
<glyph unicode="-" d="M-16 385l38 187h932l-39 -187h-931z" />
<glyph unicode="." d="M242 0l53 252h252l-53 -252h-252z" />
<glyph unicode="/" d="M-123 -176l1092 1542l137 -76l-1094 -1542z" />
<glyph unicode="0" d="M-20 400.5q0 121.5 26 252.5q29 131 82 253t133 215t186.5 149.5t241.5 56.5t219 -56.5t124 -149.5t41 -215t-27 -253q-27 -131 -80.5 -252.5t-132 -216t-186 -151t-245.5 -56.5q-137 0 -220 56.5t-122.5 151t-39.5 216zM188 475l621 514q-21 68 -67 110t-132 42 q-143 0 -245.5 -129t-151.5 -359q-18 -92 -25 -178zM205 307q22 -65 67 -104t131 -39q89 0 153.5 43t112.5 112.5t79.5 157.5t50.5 176q18 84 22 164z" />
<glyph unicode="1" d="M53 0l39 186h211l158 742q-25 -49 -68 -87t-96 -63.5t-115.5 -39t-126.5 -13.5l43 207q68 0 137.5 22.5t130 68.5t107.5 115.5t68 166.5h207l-238 -1119h209l-39 -186h-627z" />
<glyph unicode="2" d="M-55 0l41 195l632 503q82 70 126 131.5t57 118.5q10 51 -1.5 88t-37 60.5t-62 34t-75.5 10.5q-123 0 -209 -72t-117 -213h-195q48 221 192 346t368 125q84 0 155.5 -24.5t119.5 -71.5t67.5 -119t1.5 -164q-21 -92 -90.5 -188t-174.5 -182l-489 -392h383l37 179h186 l-76 -365h-839z" />
<glyph unicode="3" d="M14 410l201 32q-16 -129 42 -203.5t175 -74.5q98 0 168 52t88 138q25 117 -39.5 167t-255.5 50l39 187q68 0 128.5 13t108.5 39t80.5 62.5t43.5 85.5q16 82 -22 132.5t-132 50.5q-123 0 -203 -66.5t-110 -212.5h-197q25 115 76 202t122.5 145.5t161 88t189.5 29.5 q84 0 151.5 -25.5t111.5 -73.5t60.5 -116t-2.5 -154q-12 -55 -39.5 -104t-68.5 -87t-94.5 -61.5t-112.5 -27.5q66 -6 112 -35t72.5 -73t32.5 -100t-6 -116q-18 -86 -67.5 -155.5t-118 -118.5t-151.5 -76t-167 -27q-94 0 -171 26t-128 78t-72.5 134t-5.5 195z" />
<glyph unicode="4" d="M-25 348l39 187l641 770h242l-164 -770h213l-39 -187h-213l-35 -162h213l-38 -186h-627l39 186h209l34 162h-514zM201 535h327l113 526z" />
<glyph unicode="5" d="M-12 387l202 29q-14 -113 35 -182.5t172 -69.5q64 0 117 21.5t96 58.5t72 87t41 107q29 131 -23.5 204t-162.5 73q-72 0 -138.5 -30t-115.5 -97h-207l151 717h817l-38 -187h-611l-73 -338q118 121 294 121q84 0 153 -32.5t114 -92t60 -145.5t-7 -193q-21 -96 -77 -180 t-136 -146.5t-175 -98.5t-192 -36q-94 0 -167.5 28t-123 80t-71 128t-6.5 174z" />
<glyph unicode="6" d="M-1 398q3 122 32 253q28 133 86.5 255t146.5 216.5t201 149.5t252 55q98 0 179 -29.5t134 -87.5l-145 -151q-41 45 -91.5 63.5t-115.5 18.5q-84 0 -156.5 -34t-130 -95.5t-97.5 -145.5t-63 -184q54 104 154 170t242 66q84 0 151.5 -36t111.5 -98.5t59.5 -149.5t-5.5 -190 q-24 -108 -77.5 -194t-129 -146.5t-168 -93.5t-188.5 -33q-148 0 -230.5 56.5t-118.5 149.5t-33 215zM198 341q5 -52 30.5 -92t73.5 -62.5t122 -22.5q111 0 198 73.5t115 206.5q25 123 -24 206t-176 83q-123 0 -213.5 -76.5t-116.5 -201.5q-14 -62 -9 -114z" />
<glyph unicode="7" d="M141 899l86 406h883l-39 -187q-151 -133 -252.5 -251.5t-170 -246.5t-118 -277.5t-90.5 -342.5h-211q39 182 94.5 332.5t132 284t183 255t250.5 246.5h-516l-47 -219h-185z" />
<glyph unicode="8" d="M-31.5 191.5q-21.5 72.5 0.5 175.5q11 53 41.5 107t77.5 100.5t105.5 77t123.5 38.5q-53 6 -90 35t-58.5 69t-27.5 86t2 89q19 88 68 155.5t118.5 112.5t151.5 67.5t166 22.5t158 -22.5t123 -67.5t69.5 -112.5t1.5 -155.5q-8 -43 -34.5 -89t-64.5 -86t-88 -69t-107 -35 q61 -8 107 -38.5t72.5 -77t36 -100.5t-0.5 -107q-23 -103 -75 -175.5t-127 -120.5t-167 -71t-191 -23q-100 0 -181 23t-135 71t-75.5 120.5zM178 379q-12 -55 1.5 -96t44 -68t76.5 -39t101 -12q56 0 106 12t93 39t72.5 68t42.5 96q12 59 -1.5 100t-44 66.5t-76.5 37 t-101 11.5q-56 0 -106 -11.5t-93 -37t-73 -66.5t-42 -100zM348 956q-18 -82 26 -129t156 -47q113 0 177.5 47t83.5 129q18 86 -30 135.5t-153 49.5q-104 0 -172.5 -49.5t-87.5 -135.5z" />
<glyph unicode="9" d="M-20 94l145 152q41 -45 92 -63.5t117 -18.5q84 0 156.5 33.5t129 95t97.5 145.5t61 185q-53 -105 -152.5 -170.5t-240.5 -65.5q-84 0 -152.5 36t-112.5 98.5t-59.5 149.5t7.5 189q22 109 76.5 195t129 146.5t166.5 93t189 32.5q147 0 231 -56.5t119 -150.5t32 -215 t-32 -252q-29 -133 -87 -255t-145.5 -216t-202 -149.5t-251.5 -55.5q-98 0 -179 30t-134 87zM274 860q-26 -123 24 -206t177 -83q123 0 213 77t117 202q12 61 7 113.5t-30.5 92.5t-72.5 62.5t-121 22.5q-111 0 -198 -74t-116 -207z" />
<glyph unicode=":" d="M242 0l53 252h252l-53 -252h-252zM385 680l53 252h252l-53 -252h-252z" />
<glyph unicode=";" d="M70 -373l305 559h246l-394 -559h-157zM385 680l53 252h252l-53 -252h-252z" />
<glyph unicode="&#x3c;" d="M203 480l620 512l92 -121l-473 -391l307 -392l-145 -120z" />
<glyph unicode="=" d="M-57 199l41 186h931l-41 -186h-931zM22 572l39 186h932l-39 -186h-932z" />
<glyph unicode="&#x3e;" d="M22 88l476 392l-310 391l146 121l403 -512l-622 -512z" />
<glyph unicode="?" d="M242 0l53 252h252l-53 -252h-252zM274 965q54 168 171.5 265t293.5 97q166 0 241 -88t44 -235q-16 -74 -54 -129.5t-87 -102.5t-105.5 -89t-104.5 -87t-87 -99.5t-54 -123.5h-213q19 82 59 146.5t92 116.5t107.5 96t105.5 87t86 88t48 99q14 65 -17.5 100t-97.5 35 q-98 0 -154 -54.5t-87 -150.5z" />
<glyph unicode="@" d="M-19 480q6 84 25 171q28 133 81 255.5t133 216t187 149t243 55.5q90 0 157 -25.5t113 -70.5t72.5 -106t37 -132.5t5.5 -150t-22 -158.5q-15 -68 -41 -138t-66.5 -126.5t-96.5 -92.5t-130 -36q-27 0 -51 10.5t-41 30t-24.5 46.5t-0.5 59l3 10q-16 -33 -39 -61.5 t-50.5 -49.5t-58 -33t-62.5 -12q-61 0 -96.5 29t-50.5 77t-12.5 109t16.5 125q15 74 46 141.5t74.5 119t97 82t114.5 30.5q18 0 36 -6t32 -18.5t23.5 -31.5t11.5 -44l17 81h161l-105 -495q-7 -32 0.5 -46t24.5 -14q22 0 41.5 20t37 54.5t32 81t25.5 98.5q22 105 22.5 200 t-28 167t-90 114.5t-161.5 42.5q-101 0 -180.5 -43.5t-139 -118.5t-100.5 -176.5t-66 -218.5q-24 -115 -26 -216t25.5 -176t88.5 -118.5t162 -43.5q82 0 153 29t135 78l38 -98q-155 -129 -351 -129q-92 0 -159 25.5t-113 71.5t-72 109t-35 138t-3 159zM366 541.5 q-1 -36.5 7 -58.5t24 -31t39 -9q25 0 50 17.5t45.5 45.5t36 62.5t22.5 69.5l34 158q-10 38 -32 54t-47 16q-30 0 -56 -18t-47 -49.5t-37 -74.5t-26 -92q-12 -54 -13 -90.5z" />
<glyph unicode="A" d="M-158 0l684 1305h238l131 -1305h-217l-29 311h-432l-158 -311h-217zM311 494h322l-45 538z" />
<glyph unicode="B" d="M-49 0l276 1305h394q81 0 157 -13.5t130 -50.5t80 -103q13 -35 14 -81q0 -41 -11 -92q-22 -99 -89.5 -181t-176.5 -118q117 -39 163 -109q29 -44 29 -112q0 -40 -10 -87q-39 -178 -178 -268t-362 -90h-416zM197 186h209q122 0 201 47.5t100 145.5q5 25 5 47q0 63 -44 98 q-58 47 -181 47h-208zM317 758h187q43 0 86 6t81 25.5t67.5 55.5t41.5 93q6 27 6 49q0 25 -8 44q-14 36 -43.5 55.5t-69.5 25.5t-83 6h-187z" />
<glyph unicode="C" d="M-8 400.5q0 121.5 26 252.5q29 131 81.5 253t132 215t183 149.5t236.5 56.5q43 0 85 -11t75 -33.5t54.5 -55.5t25.5 -76l33 154h186l-104 -494h-187q10 49 10 97q0 12 -1 24q-3 60 -25.5 105.5t-66.5 74.5t-111 29q-88 0 -153.5 -43t-114 -113t-81 -157t-51.5 -175 q-18 -88 -23 -176q-1 -20 -1 -39q0 -64 13 -118q17 -70 66.5 -113t137.5 -43q127 0 212 81t156 218l152 -64q-45 -96 -101.5 -174t-126 -133t-152.5 -85t-181 -30q-137 0 -220 56.5t-124 151t-41 216z" />
<glyph unicode="D" d="M-49 0l276 1305h424q133 0 217 -53.5t125 -142.5t45 -207v-30q0 -105 -24 -219q-27 -131 -80 -249.5t-132 -208t-185.5 -142.5t-241.5 -53h-424zM197 186h217q141 0 243.5 122t149.5 345q24 111 24 196q0 89 -26 149q-51 120 -193 120h-217z" />
<glyph unicode="E" d="M-49 0l276 1305h834l-39 -187h-627l-78 -360h490l-39 -187h-489l-82 -385h626l-39 -186h-833z" />
<glyph unicode="F" d="M-49 0l276 1305h834l-39 -187h-627l-78 -360h490l-39 -187h-489l-121 -571h-207z" />
<glyph unicode="G" d="M-9 398v8q0 119 27 245q29 131 81.5 253t133 216t187 150.5t244.5 56.5q38 0 77 -11t71 -33.5t53.5 -55.5t25.5 -76l33 154h186l-98 -463h-187q8 39 8 75q0 21 -3 41q-7 54 -33.5 95t-70.5 64.5t-101 23.5q-88 0 -153.5 -44t-115 -114t-81 -157t-50.5 -175 q-18 -88 -23 -175q-1 -20 -1 -39q0 -64 13 -117q17 -70 66.5 -113t137.5 -43q127 0 221 81t160 251h-275l39 186h465l-6 -33q-29 -133 -81 -254t-132 -214t-187.5 -148.5t-244.5 -55.5t-220 56.5t-124 149.5t-42 215z" />
<glyph unicode="H" d="M-49 0l276 1305h207l-117 -547h420l117 547h207l-277 -1305h-206l120 571h-419l-121 -571h-207z" />
<glyph unicode="I" d="M57 0l39 186h207l199 932h-207l39 187h627l-39 -187h-213l-199 -932h213l-39 -186h-627z" />
<glyph unicode="J" d="M-29 342l201 70q4 -117 56.5 -182.5t162.5 -65.5q68 0 116 27.5t83 73.5t56.5 106.5t35.5 126.5l172 807h207l-172 -807q-53 -248 -187.5 -384.5t-351.5 -136.5q-174 0 -272 91.5t-107 273.5z" />
<glyph unicode="K" d="M-49 0l276 1305h207l-108 -512l514 512h266l-569 -541l290 -764h-241l-213 608l-109 -102l-106 -506h-207z" />
<glyph unicode="L" d="M-49 0l276 1305h207l-237 -1119h626l-39 -186h-833z" />
<glyph unicode="M" d="M-49 0l276 1305h246l45 -590l295 590h248l-277 -1305h-206l186 883l-232 -469h-159l-29 469l-186 -883h-207z" />
<glyph unicode="N" d="M-49 0l276 1305h260l177 -899l190 899h207l-277 -1305h-239l-187 946l-200 -946h-207z" />
<glyph unicode="O" d="M-20 400.5q0 121.5 26 252.5q29 131 82 253t133 215t186.5 149.5t241.5 56.5t219 -56.5t124 -149.5t41 -215v-8q0 -118 -27 -245q-27 -131 -80.5 -252.5t-132 -216t-186 -151t-245.5 -56.5q-137 0 -220 56.5t-122.5 151t-39.5 216zM190 477q-1 -21 -2 -41q0 -64 14 -116 q18 -70 65.5 -113t135.5 -43q89 0 153.5 43t112.5 112.5t79.5 157.5t50.5 176q18 88 24 175q1 22 1 42q0 62 -13 115q-18 70 -66.5 113t-134.5 43q-143 0 -245.5 -129t-151.5 -359q-17 -88 -23 -176z" />
<glyph unicode="P" d="M-49 0l276 1305h430q215 -1 313 -99q70 -70 69 -188q0 -47 -11 -103q-43 -196 -182 -291.5t-352 -95.5h-226l-110 -528h-207zM309 715h226q112 0 188 50t98 153q6 28 6 52q1 62 -39 98q-54 50 -167 50h-226z" />
<glyph unicode="Q" d="M-20 428q2 109 26 225q29 131 82 253t133 215t186.5 149.5t241.5 56.5t219 -56.5t124 -149.5t41 -215v-8q0 -119 -27 -245q-25 -121 -70 -232.5t-113.5 -201.5t-159 -152.5t-204.5 -80.5q-1 -14 -1 -26q0 -78 54 -110q63 -36 197 -36q18 0 39.5 1t44.5 1l-39 -185 q-29 -2 -55.5 -3t-51.5 -1q-203 0 -309 93q-94 81 -94 229q0 21 2 43q-99 24 -158 86.5t-85 151.5q-24 81 -24 179q0 9 1 19zM190 477q-2 -21 -2 -41q0 -64 14 -116q17 -70 65 -113t136 -43q89 0 153.5 43t112.5 112.5t79.5 157.5t50.5 176q18 88 24 175q1 22 1 42 q0 62 -13 115q-18 70 -66.5 113t-134.5 43q-143 0 -245.5 -129t-151.5 -359q-18 -88 -23 -176z" />
<glyph unicode="R" d="M-49 0l276 1305h430q215 -1 313 -99q70 -70 69 -188q0 -47 -11 -103q-18 -86 -59 -151.5t-99.5 -112.5t-129 -74.5t-148.5 -37.5l260 -539h-262l-228 528h-94l-110 -528h-207zM309 715h223q115 0 191 50t98 153q6 28 6 52q1 62 -39 98q-54 50 -170 50h-223z" />
<glyph unicode="S" d="M-72 0l90 426h187q-8 -35 -8 -65q-1 -25 5 -48q12 -49 42 -82.5t75.5 -51t100.5 -17.5q92 0 158.5 43t87.5 137q5 24 5 44q1 22 -5 40q-10 35 -37 62.5t-70 48t-96 43.5q-68 24 -132.5 54t-110.5 74t-68 108q-11 33 -10 74q0 40 10 89q18 86 63 150.5t107.5 108.5 t136 66.5t151.5 22.5q90 0 146.5 -38t79.5 -101l24 117h187l-86 -406h-187q9 40 9 74q0 63 -31 105q-47 64 -150 65q-90 0 -158.5 -42t-83.5 -118q-5 -19 -5 -35q-1 -18 5 -32q10 -28 35 -50t66 -41.5t96 -42.5q68 -26 133.5 -59t113.5 -81t70 -116q12 -36 13 -82 q0 -40 -10 -86q-21 -90 -66 -160.5t-108.5 -119.5t-141.5 -75t-160 -26q-92 0 -158.5 33t-103.5 109l-24 -119h-187z" />
<glyph unicode="T" d="M57 0l39 186h207l199 932h-178l-62 -289h-184l100 476h930l-100 -476h-185l62 289h-176l-199 -932h207l-39 -186h-621z" />
<glyph unicode="U" d="M31 265q-1 18 -1 37q0 76 19 165l178 838h207l-178 -840q-10 -49 -14 -101q-1 -14 -1 -28q0 -37 8 -70q11 -45 48 -73.5t104 -28.5q68 0 115 28.5t80 72.5t51.5 97.5t28.5 102.5l178 840h207l-178 -840q-25 -111 -68 -201t-108.5 -153.5t-151.5 -98.5t-195 -35 q-108 0 -178.5 35t-107.5 98.5t-43 154.5z" />
<glyph unicode="V" d="M119 1305h217l90 -1033l526 1033h217l-684 -1305h-235z" />
<glyph unicode="W" d="M41 0l74 1305h215l-66 -879l201 506h199l-15 -506l309 879h216l-480 -1305h-213l4 563l-231 -563h-213z" />
<glyph unicode="X" d="M-121 0l39 186h113l354 473l-152 459h-94l39 187h414l-39 -187h-84l72 -289l196 289h-82l39 187h416l-39 -187h-100l-348 -459l153 -473h117l-39 -186h-426l39 186h74l-76 295l-199 -295h74l-39 -186h-422z" />
<glyph unicode="Y" d="M55 0l39 186h209l74 346l-164 586h-94l39 187h411l-39 -187h-90l84 -383l246 383h-90l39 187h411l-38 -187h-95l-413 -586l-74 -346h209l-39 -186h-625z" />
<glyph unicode="Z" d="M-49 0l39 184l782 934h-397l-62 -284h-186l100 471h817l-38 -187l-766 -932h401l61 287h183l-101 -473h-833z" />
<glyph unicode="[" d="M195 -373l395 1864h434l-39 -186h-248l-317 -1491h248l-39 -187h-434z" />
<glyph unicode="\" d="M186 1290l170 76l439 -1542l-170 -76z" />
<glyph unicode="]" d="M-53 -373l39 187h247l318 1491h-248l39 186h434l-395 -1864h-434z" />
<glyph unicode="^" d="M-39 559l561 746h248l245 -746h-228l-180 562l-418 -562h-228z" />
<glyph unicode="_" d="M-137 -186l39 186h932l-40 -186h-931z" />
<glyph unicode="`" d="M389 1225l154 180l344 -287l-119 -137z" />
<glyph unicode="a" d="M-47 268q18 82 75.5 143.5t137.5 102.5t176 61.5t193 20.5q53 0 91 -2t76 -6l7 37q4 18 4 34q0 48 -37 75q-49 36 -141 36q-84 0 -175.5 -23.5t-179.5 -68.5l-49 162q102 53 215 83.5t229 30.5q76 0 146 -17t120 -56q49 -39 71 -101q11 -32 11 -71q0 -38 -10 -84 l-131 -625h-204l28 137q-65 -76 -169.5 -118t-215.5 -42q-67 0 -123.5 18.5t-92.5 55.5t-51 91q-8 28 -8 61q0 31 7 65zM160 279q-3 -14 -3 -27q0 -90 156 -90q62 0 118 15.5t103.5 43t79 66.5t41.5 86l9 35q-48 8 -91 9t-75 1q-152 0 -238 -40t-100 -99z" />
<glyph unicode="b" d="M-49 0l276 1305h207l-98 -457q72 53 138.5 79.5t143.5 26.5q91 0 159.5 -36.5t110.5 -101t54 -154.5q4 -32 4 -66q0 -62 -14 -131q-23 -107 -74 -197t-119.5 -154.5t-153.5 -100.5t-175 -36q-78 0 -132.5 28t-103.5 81l-16 -86h-207zM209 248q29 -41 82 -62.5t106 -21.5 q117 0 208 83t120 218q10 46 10 86q1 78 -37 133q-56 84 -174 84q-53 0 -114.5 -21.5t-108.5 -62.5z" />
<glyph unicode="c" d="M-28 264q-7 37 -7 78q0 58 15 123q22 106 77.5 196.5t129 155t163.5 101t182 36.5q97 0 158.5 -40t77.5 -117l29 135h184l-92 -434h-184q9 40 9 76q0 70 -35 120q-52 74 -161 74q-43 0 -93 -17.5t-98 -54.5t-86 -94t-55 -137q-9 -44 -9 -81q-1 -30 5 -54q12 -56 45 -92.5 t85.5 -55t111.5 -18.5q100 0 181 31.5t145 83.5l75 -146q-108 -90 -214.5 -123t-223.5 -33t-205 35t-140 98.5t-70 153.5z" />
<glyph unicode="d" d="M-12 268q-4 32 -5 65q0 62 15 132q22 106 73.5 196.5t120 155t153.5 101t175 36.5q78 0 133.5 -26.5t102.5 -79.5l59 270h-180l39 187h387l-277 -1305h-206l16 86q-70 -53 -137.5 -81t-145.5 -28q-90 0 -158.5 36t-110.5 100.5t-54 154.5zM205 465q-10 -46 -10 -86 q-1 -78 37 -132q56 -83 174 -83q53 0 115.5 21.5t107.5 62.5l92 436q-27 41 -81 62.5t-108 21.5q-116 0 -207.5 -84t-119.5 -219z" />
<glyph unicode="e" d="M-24 267q-9 40 -10 84q0 54 14 114q22 106 76.5 195.5t133 155t177 102t206.5 36.5q113 0 196 -38.5t133 -111.5q50 -72 64 -178q5 -37 6 -78q0 -75 -18 -161h-780q-1 -8 -1 -16q1 -85 59 -143q64 -64 192 -64q100 0 181 31.5t145 83.5l75 -146q-108 -90 -215.5 -123 t-226.5 -33q-109 0 -194 36t-139 100.5t-74 153.5zM221 569h539v5q0 86 -64 140q-66 54 -164 54t-187 -54.5t-124 -144.5z" />
<glyph unicode="f" d="M57 0l39 186h207l119 559h-207l39 187h207q41 192 180 293.5t340 101.5q31 0 64.5 -3t66.5 -7l-39 -182q-57 6 -106 6q-80 0 -131.5 -11.5t-85 -37t-52 -65.5t-30.5 -95h362l-39 -187h-362l-119 -559h213l-39 -186h-627z" />
<glyph unicode="g" d="M-127 -248l129 160q119 -123 293 -123q106 0 182 52.5t101 164.5l22 100q-76 -55 -141.5 -81.5t-143.5 -26.5q-90 0 -158.5 38t-109.5 103.5t-54 152.5q-5 34 -5 70q0 56 12 115q20 98 70.5 185.5t120 152t154.5 102t175 37.5q78 0 133.5 -26.5t102.5 -79.5l18 84h207 l-195 -922q-20 -96 -69 -171t-120 -127t-158 -79.5t-185 -27.5q-244 0 -381 147zM201 360q8 -53 34.5 -92t70.5 -61.5t102 -22.5q55 0 117.5 22.5t109.5 63.5l86 414q-27 41 -81 62.5t-110 21.5q-116 0 -206.5 -82t-116.5 -209q-9 -40 -9 -76q0 -21 3 -41z" />
<glyph unicode="h" d="M-49 0l276 1305h207l-129 -607q57 121 155.5 188.5t221.5 67.5q144 0 204 -93q36 -55 36 -146q0 -62 -17 -140l-121 -575h-206l120 575q10 46 10 79q0 47 -19 72q-32 42 -109 42q-115 0 -207 -93t-127 -257l-88 -418h-207z" />
<glyph unicode="i" d="M57 0l39 186h207l119 559h-207l39 187h414l-158 -746h213l-39 -186h-627zM465 1053l53 252h252l-53 -252h-252z" />
<glyph unicode="j" d="M-147 -236l149 138q37 -56 84 -83.5t115 -27.5q104 0 166.5 57.5t83.5 151.5l157 745h-211l39 187h418l-197 -932q-20 -90 -65 -163t-110.5 -125t-147.5 -79.5t-174 -27.5q-213 0 -307 159zM651 1053l54 252h251l-53 -252h-252z" />
<glyph unicode="k" d="M-49 0l276 1305h207l-164 -768l457 395h285l-520 -428l339 -504h-268l-231 377l-115 -96l-59 -281h-207z" />
<glyph unicode="l" d="M59 0l39 186h205l199 932h-205l39 187h412l-238 -1119h215l-39 -186h-627z" />
<glyph unicode="m" d="M-98 0l196 932h209l-28 -135q38 77 90.5 117t124.5 40q59 0 91.5 -36.5t32.5 -100.5q52 70 97 103.5t123 33.5q96 0 132 -70q19 -38 19 -97q0 -51 -14 -117l-141 -670h-207l135 639q9 44 9 73q0 14 -2 24q-7 32 -42 32q-61 0 -92 -69.5t-60 -202.5l-104 -496h-207 l135 639q10 42 10 70q1 15 -3 27q-8 32 -44 32q-61 0 -90.5 -69.5t-58.5 -202.5l-104 -496h-207z" />
<glyph unicode="n" d="M-49 0l196 932h207l-49 -234q57 121 155.5 188.5t221.5 67.5q144 0 204 -93q36 -55 36 -146q0 -62 -17 -140l-121 -575h-206l120 575q10 46 10 79q0 47 -19 72q-32 42 -109 42q-115 0 -207 -93t-127 -257l-88 -418h-207z" />
<glyph unicode="o" d="M-28 267q-7 35 -7 74q0 58 15 124q22 106 76.5 196.5t132 156t176 101t206.5 35.5q111 0 193 -35.5t133 -101t67 -155.5q6 -36 6 -76q0 -58 -14 -121q-24 -109 -77.5 -198t-131 -153.5t-176 -100.5t-209.5 -36q-108 0 -190 36t-133 100.5t-67 153.5zM180 345 q8 -54 35 -95t75 -63.5t113 -22.5q66 0 122.5 22.5t102.5 63.5t76.5 95t45.5 120q8 40 8 77q0 22 -3 42q-7 56 -36 96.5t-76 64t-113 23.5q-65 0 -122.5 -23.5t-101.5 -63.5t-75.5 -96.5t-44.5 -119.5q-9 -42 -9 -79q0 -21 3 -41z" />
<glyph unicode="p" d="M-127 -373l274 1305h207l-18 -84q72 53 138.5 79.5t143.5 26.5q91 0 159.5 -36.5t110.5 -101t54 -154.5q4 -32 4 -66q0 -62 -14 -131q-23 -107 -74 -197t-119.5 -154.5t-153.5 -100.5t-175 -36q-78 0 -132.5 28t-103.5 81l-96 -459h-205zM209 250q29 -41 82 -63.5 t106 -22.5q117 0 208 83t120 218q10 46 10 86q0 77 -37 133q-57 84 -174 84q-53 0 -114.5 -21.5t-108.5 -62.5z" />
<glyph unicode="q" d="M-12 268q-5 32 -5 65q0 63 15 132q22 106 73.5 196.5t120 155t153.5 101t175 36.5q78 0 133.5 -26.5t102.5 -79.5l18 84h207l-276 -1305h-207l96 459q-70 -53 -137.5 -81t-145.5 -28q-90 0 -158.5 36t-110.5 100.5t-54 154.5zM205 465q-10 -46 -10 -86q0 -77 37 -132 q57 -83 174 -83q53 0 115.5 21.5t107.5 62.5l92 436q-27 41 -81 62.5t-108 21.5q-116 0 -207.5 -84t-119.5 -219z" />
<glyph unicode="r" d="M-98 0l39 186h211l118 559h-211l39 187h418l-49 -234q80 140 192.5 198t249.5 58q43 0 88 -9t84 -32l-120 -202q-33 18 -70 27.5t-86 9.5q-70 0 -134.5 -20.5t-117.5 -61.5t-90 -102.5t-55 -145.5l-50 -232h209l-39 -186h-626z" />
<glyph unicode="s" d="M-86 111l123 170q96 -64 182 -90.5t178 -26.5q125 0 187.5 26.5t72.5 73.5q5 23 -8.5 38t-47.5 27.5t-91 25t-145 26.5q-70 12 -130.5 29.5t-102.5 49.5t-62 81q-11 28 -11 63q0 27 7 60q16 75 67 130.5t121 91.5t151.5 52t159.5 16q111 0 208 -28.5t163 -81.5l-117 -160 q-65 49 -136 66.5t-159 17.5q-37 0 -77.5 -4t-76.5 -15.5t-62.5 -31t-33.5 -47.5q-1 -4 -1 -8q-1 -30 53 -52q60 -24 215 -47q84 -12 150.5 -30.5t110.5 -50.5q44 -30 62 -80q10 -26 10 -58q0 -30 -8 -65q-18 -91 -71.5 -148t-125 -92t-154.5 -48.5t-159 -13.5 q-127 0 -244.5 37t-197.5 97z" />
<glyph unicode="t" d="M59 745l39 187h211l80 373h207l-80 -373h391l-39 -187h-391l-86 -403q-6 -31 -6 -56q1 -49 23 -78q34 -44 106 -44q88 0 141.5 51t77.5 123l172 -41q-47 -147 -164.5 -233.5t-267.5 -86.5q-82 0 -143.5 27t-99.5 75q-38 47 -50 115q-5 30 -5 62q0 41 9 86l86 403h-211z " />
<glyph unicode="u" d="M25 356l122 576h207l-123 -576q-9 -44 -9 -76q0 -49 20 -74q32 -42 110 -42q115 0 207 93t127 257l88 418h207l-197 -932h-206l49 233q-58 -120 -156 -188t-221 -68q-144 -1 -204 93q-36 57 -36 150q0 60 15 136z" />
<glyph unicode="v" d="M98 932h221l97 -705l393 705h221l-541 -932h-243z" />
<glyph unicode="w" d="M12 0l58 932h202l-49 -623l232 623h219l-31 -623l213 623h203l-336 -932h-256l20 561l-219 -561h-256z" />
<glyph unicode="x" d="M-119 0l39 186h135l271 287l-142 272h-125l39 187h420l-39 -187h-65l73 -180l154 180h-74l39 187h424l-39 -187h-121l-256 -272l148 -287h133l-39 -186h-442l39 186h82l-86 195l-166 -195h75l-39 -186h-438z" />
<glyph unicode="y" d="M-174 -358l82 190q39 -16 73.5 -22.5t63.5 -6.5q92 0 145 82l56 90l-154 957h215l107 -705l387 705h221l-637 -1114q-72 -121 -167 -166t-214 -45q-41 0 -86 8t-92 27z" />
<glyph unicode="z" d="M-49 0l39 184l649 561h-348l-41 -188h-182l79 375h816l-39 -187l-652 -559h369l39 185h182l-78 -371h-833z" />
<glyph unicode="{" d="M186 465l39 186q92 0 144.5 23.5t70.5 107.5l90 426q13 62 44.5 113t76.5 89t100.5 59.5t116.5 21.5h154l-39 -186h-154q-53 0 -77.5 -21.5t-34.5 -75.5l-90 -426q-21 -94 -90.5 -152.5t-147.5 -72.5q37 -6 66.5 -23.5t49 -47t28 -68.5t-2.5 -84l-90 -426 q-12 -53 3.5 -74.5t68.5 -21.5h154l-39 -185h-154q-61 0 -108.5 20.5t-76 58.5t-37.5 89t3 113l90 426q18 82 -23.5 106.5t-134.5 24.5z" />
<glyph unicode="|" d="M233 -186l357 1677h186l-356 -1677h-187z" />
<glyph unicode="}" d="M-51 -373l39 185h153q54 0 77.5 21.5t35.5 74.5l92 430q8 45 32.5 84t56.5 68.5t70 47t77 23.5q-72 14 -117 72.5t-25 152.5l90 426q13 54 -2.5 73.5t-68.5 19.5h-154l39 186h154q61 0 108 -20.5t76 -57.5t39 -88t-4 -113l-90 -426q-19 -84 24 -107.5t135 -23.5l-41 -186 q-92 0 -144 -24.5t-69 -106.5l-92 -430q-12 -62 -43.5 -113t-77 -89t-100.5 -58.5t-117 -20.5h-153z" />
<glyph unicode="~" d="M-47 267q26 88 64 165.5t88.5 134t114 89t138.5 32.5q82 0 120 -39.5t56.5 -87t33 -87t46.5 -39.5q54 0 90.5 57t81.5 190l193 -14q-25 -90 -62.5 -167t-89 -133t-115 -89t-139.5 -33q-82 0 -118.5 39t-56 87t-33 87t-48.5 39q-53 0 -89 -56.5t-81 -189.5z" />
<glyph unicode="&#xa0;" />
<glyph unicode="&#xa1;" d="M418 0l248 932h170l-146 -932h-272zM651 1053l54 252h251l-53 -252h-252z" />
<glyph unicode="&#xa2;" d="M18 653q41 193 172.5 319t323.5 158l37 175h186l-37 -168q95 -9 170.5 -42.5t137.5 -109.5l-138 -145q-34 41 -85.5 69.5t-122.5 38.5l-127 -592q77 11 140.5 40.5t115.5 70.5l75 -145q-94 -78 -184 -112t-186 -42l-35 -168h-187l37 176q-178 33 -256 159t-37 318z M225 653q-24 -116 13.5 -185t113.5 -97l121 565q-88 -29 -155.5 -97.5t-92.5 -185.5z" />
<glyph unicode="&#xa3;" d="M-98 0l39 186h61q35 0 60.5 12.5t45 32t32 44t16.5 47.5l51 237h-187l39 186h187l49 230q16 76 56 141.5t96.5 111.5t123 72.5t134.5 26.5q122 0 194 -65.5t68 -186.5l-197 -45q-6 111 -104 111q-58 0 -102 -38t-62 -128l-49 -230h186l-39 -186h-186l-41 -186 q-15 -66 -50.5 -115t-80.5 -72h172q67 0 117.5 8.5t91.5 29t75.5 56t75.5 91.5l152 -90q-97 -142 -241 -211.5t-310 -69.5h-473z" />
<glyph unicode="&#xa4;" d="M-106 246l141 119q-27 59 -32 130.5t13 155.5q35 164 142 285l-95 121l148 121l92 -119q137 82 305 82q84 0 150.5 -21.5t118.5 -60.5l145 119l94 -121l-143 -119q26 -59 32.5 -131t-12.5 -156q-18 -84 -55 -155.5t-88 -130.5l94 -119l-147 -121l-92 119 q-134 -80 -304 -80t-270 80l-145 -119zM217 531.5q8 -54.5 36 -95.5t75 -63.5t112 -22.5q66 0 123.5 22.5t102.5 63.5t75.5 95.5t44.5 119.5q15 64 6.5 120t-36 96t-74.5 63.5t-113 23.5q-65 0 -122.5 -23.5t-102.5 -63.5t-75.5 -96t-45.5 -120q-14 -65 -6 -119.5z" />
<glyph unicode="&#xa5;" d="M-20 373l40 186h365v4l-45 182h-281l39 187h197l-88 373h215l106 -555l342 555h215l-249 -373h194l-39 -187h-278l-121 -182v-4h360l-41 -186h-360l-78 -373h-207l78 373h-364z" />
<glyph unicode="&#xa6;" d="M223 -186l162 764h207l-162 -764h-207zM418 727l162 764h206l-161 -764h-207z" />
<glyph unicode="&#xa7;" d="M-41 178l197 47q6 -104 65.5 -164.5t192.5 -60.5q82 0 151.5 48t89.5 136q17 78 -22 123t-104.5 76t-143.5 58.5t-140.5 71.5t-95 113.5t-8.5 186.5q17 74 60 141.5t96 110.5q-39 41 -54.5 97.5t3.5 142.5q20 94 66 163.5t110.5 115.5t141.5 68.5t159 22.5 q80 0 150.5 -21.5t123 -65.5t79 -110.5t18.5 -158.5l-199 -33q8 115 -46 159t-165 44q-74 0 -141.5 -40t-83.5 -118q-15 -67 24 -109t103.5 -74t142.5 -62.5t140.5 -74.5t96 -110.5t11.5 -171.5q-21 -96 -63 -160.5t-101 -122.5q39 -40 54.5 -98.5t-1.5 -142.5 q-20 -92 -68 -164t-115 -123t-147.5 -77.5t-162.5 -26.5q-86 0 -160 21.5t-130 65.5t-90 112.5t-34 164.5zM352 831q-14 -61 12.5 -102t74.5 -70.5t110.5 -54t122.5 -55.5q35 26 57.5 59t34.5 86q14 68 -11.5 110t-73.5 70.5t-109.5 50t-125.5 46.5q-75 -58 -92 -140z" />
<glyph unicode="&#xa8;" d="M279 1053l53 252h252l-54 -252h-251zM651 1053l54 252h251l-53 -252h-252z" />
<glyph unicode="&#xa9;" d="M57.5 516q-24.5 102 1.5 229q25 115 90.5 217.5t157.5 178.5t204 120t228 44q113 0 204 -42t151.5 -118t84 -178.5t-0.5 -221.5q-25 -110 -88.5 -211.5t-153.5 -178t-201.5 -123t-232.5 -46.5q-109 0 -202 40t-155.5 114t-87 176zM121.5 551q19.5 -90 73 -156.5 t135.5 -104.5t186 -38q100 0 198.5 38t178.5 104.5t138.5 156.5t80.5 194q21 101 2.5 190t-71 156.5t-134.5 107.5t-184 40t-200.5 -38t-180.5 -104.5t-139.5 -156.5t-79.5 -195q-23 -104 -3.5 -194zM256 601.5q-12 66.5 4 146.5q16 75 55 140.5t96.5 115t130 78t158.5 28.5 q205 0 269 -147l-162 -99q-27 82 -141 82q-84 0 -143.5 -56t-78.5 -142q-18 -86 16 -142.5t120 -56.5q114 0 178 82l121 -99q-129 -147 -334 -147q-80 0 -141.5 26.5t-98.5 75t-49 115z" />
<glyph unicode="&#xaa;" d="M-57 199l39 186h745l-39 -186h-745zM57 780q17 70 62 119t109.5 78t140 42t153.5 13h49.5t32.5 -2t30.5 -4t41.5 -6l14 59q10 49 -32 73t-117 24q-72 0 -153 -16.5t-155 -53.5l-34 129q69 41 163.5 64.5t208.5 23.5q72 0 133.5 -13.5t104.5 -43t61.5 -75.5t6.5 -112 l-111 -520h-186l22 109q-59 -52 -136 -89.5t-181 -37.5q-135 0 -191.5 67.5t-36.5 171.5zM236 780q-7 -35 15.5 -63.5t108.5 -28.5q41 0 87.5 11.5t86 28.5t67.5 40t32 45l14 66q-51 8 -85 9t-70 1q-232 0 -256 -109z" />
<glyph unicode="&#xab;" d="M53 651l393 330l95 -121l-248 -209l160 -207l-146 -120zM424 651l393 330l94 -121l-247 -209l159 -207l-145 -120z" />
<glyph unicode="&#xac;" d="M-16 385l38 187h932l-119 -559h-186l80 372h-745z" />
<glyph unicode="&#xad;" d="M-16 385l38 187h932l-39 -187h-931z" />
<glyph unicode="&#xae;" d="M97.5 702.5q-25.5 102.5 0.5 229.5q25 115 90.5 217t157.5 178t204 120t228 44q113 0 205 -42t152.5 -118t84 -178t-2.5 -221q-23 -111 -86.5 -212.5t-153.5 -178t-202.5 -122.5t-233.5 -46q-109 0 -202 40t-154.5 113.5t-87 176zM161.5 737q20.5 -90 73 -156.5 t134.5 -104.5t186 -38q100 0 198.5 38t179.5 104.5t138 156.5t80 195q23 100 3.5 189t-72 157t-134.5 107.5t-184 39.5t-199.5 -37.5t-179.5 -104t-140.5 -157t-80.5 -194.5q-23 -105 -2.5 -195zM354 596l144 676h268q51 0 96 -13.5t75 -41t41 -70.5t-1 -100 q-16 -80 -57 -130.5t-129 -87.5l102 -233h-207l-74 227h-34l-50 -227h-174zM608 965h94q41 0 69 24.5t34 57.5q10 45 -8.5 65.5t-59.5 20.5h-94z" />
<glyph unicode="&#xaf;" d="M309 1044l37 175h559l-37 -175h-559z" />
<glyph unicode="&#xb0;" d="M136.5 972.5q-15.5 67.5 2.5 145.5q15 76 60 144.5t105.5 119t134 80t151.5 29.5q76 0 138.5 -29.5t102 -80t54 -119t0.5 -144.5q-19 -78 -63 -145.5t-104.5 -117.5t-135 -80t-150.5 -30q-78 0 -139.5 30t-101 80t-55 117.5zM278.5 1027q10.5 -42 34 -72.5t62.5 -49 t86 -18.5t92 18.5t83 49t64.5 72.5t36.5 89q11 47 1.5 89t-34 73t-62.5 49.5t-85 18.5t-93 -18.5t-83 -49.5t-64.5 -73t-37.5 -89q-11 -47 -0.5 -89z" />
<glyph unicode="&#xb1;" d="M-137 -186l39 186h931l-38 -186h-932zM-16 385l38 187h373l80 372h186l-79 -372h372l-39 -187h-372l-70 -323h-186l69 323h-372z" />
<glyph unicode="&#xb2;" d="M102 745l27 127l260 209q21 17 31 30t14 34q4 18 -8 28.5t-31 10.5q-33 0 -52 -21.5t-32 -79.5h-153q49 232 266 232q37 0 71.5 -10.5t60.5 -31t36 -51t2 -73.5q-10 -43 -36 -79t-62 -64l-168 -134h204l-26 -127h-404z" />
<glyph unicode="&#xb3;" d="M125 940l156 14q-11 -84 51 -84q20 0 37.5 13.5t21.5 36.5q8 38 -10.5 53.5t-65.5 15.5l21 98q80 0 92 56q8 41 -37 41q-22 0 -41.5 -20.5t-27.5 -61.5h-150q23 104 94 158q68 49 160 49q88 0 130 -44t28 -114q-17 -74 -86 -109q61 -53 47 -127q-17 -67 -83.5 -119.5 t-154.5 -52.5q-203 0 -182 197z" />
<glyph unicode="&#xb4;" d="M330 1118l463 287l79 -180l-485 -244z" />
<glyph unicode="&#xb5;" d="M-127 -373l274 1305h209l-123 -578q-22 -108 10.5 -149t110.5 -41q115 0 206 92t126 256l88 420h207l-197 -932h-206l49 231q-58 -120 -149 -187t-177 -67q-98 0 -135 54l-86 -404h-207z" />
<glyph unicode="&#xb6;" d="M96 915q39 193 179.5 291.5t355.5 98.5h479l-276 -1305h-207l110 526h-155l-111 -526h-207l113 532q-160 23 -239 118t-42 265zM303 915q-16 -73 12.5 -131.5t100.5 -66.5l84 397q-37 -4 -70 -21.5t-59.5 -45t-44 -61.5t-23.5 -71zM621 713h155l88 405h-155z" />
<glyph unicode="&#xb7;" d="M315 352l54 252h252l-54 -252h-252z" />
<glyph unicode="&#xb8;" d="M63 -371l39 178q88 0 138.5 40t64.5 112l10 41h177l-11 -41q-14 -70 -51 -130t-91 -104t-124 -70t-152 -26z" />
<glyph unicode="&#xb9;" d="M123 1047l29 135q26 0 57 9t58.5 25.5t49 39t27.5 49.5h158l-92 -433h90l-27 -127h-338l27 127h90l49 234q-20 -19 -64 -39t-114 -20z" />
<glyph unicode="&#xba;" d="M-57 199l39 186h745l-39 -186h-745zM72.5 768q-13.5 72 5.5 162q18 88 62 161.5t107.5 125t142.5 80t165 28.5t152.5 -28.5t106.5 -80t53.5 -125t-5.5 -161.5q-18 -86 -62 -159t-106.5 -124t-141.5 -79.5t-165 -28.5t-152.5 27.5t-107.5 78.5t-54.5 123zM254 930 q-25 -115 21.5 -177.5t144.5 -62.5t170 62.5t96 177.5q25 114 -21.5 179t-142.5 65t-169.5 -65t-98.5 -179z" />
<glyph unicode="&#xbb;" d="M102 444l246 207l-158 209l144 121l254 -330l-393 -327zM473 444l246 207l-158 209l144 121l253 -330l-393 -327z" />
<glyph unicode="&#xbc;" d="M-106 47l1114 1303l114 -93l-1112 -1298zM123 1047l29 135q26 0 57 9t58.5 25.5t49 39t27.5 49.5h158l-92 -433h90l-27 -127h-338l27 127h90l49 234q-20 -19 -64 -39t-114 -20zM422 113l33 151l276 295h141l-67 -317h90l-29 -129h-90l-22 -113h-156l23 113h-199zM569 242 h80l21 104z" />
<glyph unicode="&#xbd;" d="M-106 47l1114 1303l114 -93l-1112 -1298zM123 1047l29 135q26 0 57 9t58.5 25.5t49 39t27.5 49.5h158l-92 -433h90l-27 -127h-338l27 127h90l49 234q-20 -19 -64 -39t-114 -20zM440 0l27 127l258 209q23 16 33 29.5t14 33.5q4 19 -8 29t-31 10q-33 0 -52 -21.5t-32 -78.5 h-153q49 231 266 231q37 0 70.5 -10t59.5 -30.5t37 -51.5t1 -74q-8 -43 -35 -78.5t-64 -64.5l-165 -133h204l-26 -127h-404z" />
<glyph unicode="&#xbe;" d="M-106 47l1114 1303l114 -93l-1112 -1298zM125 940l156 14q-11 -84 51 -84q20 0 37.5 13.5t21.5 36.5q8 38 -10.5 53.5t-65.5 15.5l21 98q80 0 92 56q8 41 -37 41q-22 0 -41.5 -20.5t-27.5 -61.5h-150q23 104 94 158q68 49 160 49q88 0 130 -44t28 -114q-17 -74 -86 -109 q61 -53 47 -127q-17 -67 -83.5 -119.5t-154.5 -52.5q-203 0 -182 197zM422 113l33 151l276 295h141l-67 -317h90l-29 -129h-90l-22 -113h-156l23 113h-199zM569 242h80l21 104z" />
<glyph unicode="&#xbf;" d="M174 301q14 74 53 129t88.5 102.5t104.5 89.5t104 87t87 99t53 124h213q-19 -84 -59 -147.5t-92 -116t-107.5 -96.5t-105.5 -87t-86 -88t-46 -98q-14 -66 17.5 -100.5t97.5 -34.5q98 0 154.5 54t86.5 151l187 -29q-56 -168 -173.5 -265.5t-293.5 -97.5q-166 0 -241 88.5 t-42 235.5zM651 1053l54 252h251l-53 -252h-252z" />
<glyph unicode="&#xc0;" d="M-158 0l684 1305h238l131 -1305h-217l-29 311h-432l-158 -311h-217zM311 494h322l-45 538zM469 1596l154 180l344 -287l-119 -137z" />
<glyph unicode="&#xc1;" d="M-158 0l684 1305h238l131 -1305h-217l-29 311h-432l-158 -311h-217zM311 494h322l-45 538zM410 1489l463 287l79 -180l-485 -244z" />
<glyph unicode="&#xc2;" d="M-158 0l684 1305h238l131 -1305h-217l-29 311h-432l-158 -311h-217zM311 494h322l-45 538zM354 1452l392 318l256 -314l-101 -102l-198 205l-291 -207z" />
<glyph unicode="&#xc3;" d="M-158 0l684 1305h238l131 -1305h-217l-29 311h-432l-158 -311h-217zM264 1479q68 94 148 148.5t172 54.5q49 0 79.5 -18.5t56.5 -40t51.5 -40t62.5 -18.5q51 0 93 31.5t87 89.5l106 -70q-67 -96 -147 -150.5t-172 -54.5q-49 0 -80 18.5t-56.5 40t-51 40t-62.5 18.5 q-51 0 -93 -31.5t-87 -87.5zM311 494h322l-45 538z" />
<glyph unicode="&#xc4;" d="M-158 0l684 1305h238l131 -1305h-217l-29 311h-432l-158 -311h-217zM311 494h322l-45 538zM359 1424l53 252h252l-54 -252h-251zM731 1424l54 252h251l-53 -252h-252z" />
<glyph unicode="&#xc5;" d="M-158 0l664 1266q-37 30 -52.5 78.5t-2.5 105.5q10 47 35.5 88t63.5 71.5t82 48t91 17.5t85 -17.5t61.5 -48t32.5 -71.5t-1 -88q-12 -57 -48 -105.5t-85 -78.5l127 -1266h-217l-29 311h-432l-158 -311h-217zM311 494h322l-45 538zM584 1450q-9 -39 11.5 -65.5t59.5 -26.5 t72 26.5t41 65.5t-12.5 65.5t-59.5 26.5t-71.5 -26.5t-40.5 -65.5z" />
<glyph unicode="&#xc6;" d="M-162 0l641 1305h631l-39 -187h-330l-77 -360h280l-39 -187h-280l-82 -385h329l-38 -186h-537l65 311h-169l-142 -311h-213zM274 494h127l109 516z" />
<glyph unicode="&#xc7;" d="M-7 415.5q1 114.5 25 237.5q29 131 81.5 253t132 215t183 149.5t236.5 56.5q43 0 85 -11t75 -33.5t54.5 -55.5t25.5 -76l33 154h186l-104 -494h-187q12 61 9 120.5t-25.5 105.5t-66.5 75t-111 29q-88 0 -153.5 -43t-114 -113t-81 -157t-51.5 -175q-18 -88 -23 -176 t12 -157.5t66.5 -112.5t137.5 -43q127 0 212 81t156 218l152 -64q-78 -163 -188.5 -273t-262.5 -138l-6 -29q-14 -70 -51 -130t-91 -104t-124 -70t-152 -26l39 178q88 0 138.5 40t64.5 112l6 23q-116 14 -185 74.5t-101.5 152.5t-31.5 206.5z" />
<glyph unicode="&#xc8;" d="M-49 0l276 1305h834l-39 -187h-627l-78 -360h490l-39 -187h-489l-82 -385h626l-39 -186h-833zM469 1596l154 180l344 -287l-119 -137z" />
<glyph unicode="&#xc9;" d="M-49 0l276 1305h834l-39 -187h-627l-78 -360h490l-39 -187h-489l-82 -385h626l-39 -186h-833zM410 1489l463 287l79 -180l-485 -244z" />
<glyph unicode="&#xca;" d="M-49 0l276 1305h834l-39 -187h-627l-78 -360h490l-39 -187h-489l-82 -385h626l-39 -186h-833zM354 1452l392 318l256 -314l-101 -102l-198 205l-291 -207z" />
<glyph unicode="&#xcb;" d="M-49 0l276 1305h834l-39 -187h-627l-78 -360h490l-39 -187h-489l-82 -385h626l-39 -186h-833zM359 1424l53 252h252l-54 -252h-251zM731 1424l54 252h251l-53 -252h-252z" />
<glyph unicode="&#xcc;" d="M57 0l39 186h207l199 932h-207l39 187h627l-39 -187h-213l-199 -932h213l-39 -186h-627zM469 1596l154 180l344 -287l-119 -137z" />
<glyph unicode="&#xcd;" d="M57 0l39 186h207l199 932h-207l39 187h627l-39 -187h-213l-199 -932h213l-39 -186h-627zM410 1489l463 287l79 -180l-485 -244z" />
<glyph unicode="&#xce;" d="M57 0l39 186h207l199 932h-207l39 187h627l-39 -187h-213l-199 -932h213l-39 -186h-627zM354 1452l392 318l256 -314l-101 -102l-198 205l-291 -207z" />
<glyph unicode="&#xcf;" d="M57 0l39 186h207l199 932h-207l39 187h627l-39 -187h-213l-199 -932h213l-39 -186h-627zM359 1424l53 252h252l-54 -252h-251zM731 1424l54 252h251l-53 -252h-252z" />
<glyph unicode="&#xd0;" d="M-94 571l39 187h166l116 547h424q133 0 217 -53.5t125 -142.5t45 -207t-24 -249q-27 -131 -80 -249.5t-132 -208t-185.5 -142.5t-241.5 -53h-424l121 571h-166zM197 186h217q141 0 243.5 122t149.5 345q49 226 -2 345.5t-193 119.5h-217l-78 -360h185l-39 -187h-184z" />
<glyph unicode="&#xd1;" d="M-49 0l276 1305h260l177 -899l190 899h207l-277 -1305h-239l-187 946l-200 -946h-207zM264 1479q68 94 148 148.5t172 54.5q49 0 79.5 -18.5t56.5 -40t51.5 -40t62.5 -18.5q51 0 93 31.5t87 89.5l106 -70q-67 -96 -147 -150.5t-172 -54.5q-49 0 -80 18.5t-56.5 40t-51 40 t-62.5 18.5q-51 0 -93 -31.5t-87 -87.5z" />
<glyph unicode="&#xd2;" d="M-20 400.5q0 121.5 26 252.5q29 131 82 253t133 215t186.5 149.5t241.5 56.5t219 -56.5t124 -149.5t41 -215t-27 -253q-27 -131 -80.5 -252.5t-132 -216t-186 -151t-245.5 -56.5q-137 0 -220 56.5t-122.5 151t-39.5 216zM189.5 477q-5.5 -88 12 -157.5t65.5 -112.5 t136 -43q89 0 153.5 43t112.5 112.5t79.5 157.5t50.5 176q18 88 24 175t-12 157t-66.5 113t-134.5 43q-143 0 -245.5 -129t-151.5 -359q-18 -88 -23.5 -176zM469 1596l154 180l344 -287l-119 -137z" />
<glyph unicode="&#xd3;" d="M-20 400.5q0 121.5 26 252.5q29 131 82 253t133 215t186.5 149.5t241.5 56.5t219 -56.5t124 -149.5t41 -215t-27 -253q-27 -131 -80.5 -252.5t-132 -216t-186 -151t-245.5 -56.5q-137 0 -220 56.5t-122.5 151t-39.5 216zM189.5 477q-5.5 -88 12 -157.5t65.5 -112.5 t136 -43q89 0 153.5 43t112.5 112.5t79.5 157.5t50.5 176q18 88 24 175t-12 157t-66.5 113t-134.5 43q-143 0 -245.5 -129t-151.5 -359q-18 -88 -23.5 -176zM410 1489l463 287l79 -180l-485 -244z" />
<glyph unicode="&#xd4;" d="M-20 400.5q0 121.5 26 252.5q29 131 82 253t133 215t186.5 149.5t241.5 56.5t219 -56.5t124 -149.5t41 -215t-27 -253q-27 -131 -80.5 -252.5t-132 -216t-186 -151t-245.5 -56.5q-137 0 -220 56.5t-122.5 151t-39.5 216zM189.5 477q-5.5 -88 12 -157.5t65.5 -112.5 t136 -43q89 0 153.5 43t112.5 112.5t79.5 157.5t50.5 176q18 88 24 175t-12 157t-66.5 113t-134.5 43q-143 0 -245.5 -129t-151.5 -359q-18 -88 -23.5 -176zM354 1452l392 318l256 -314l-101 -102l-198 205l-291 -207z" />
<glyph unicode="&#xd5;" d="M-20 400.5q0 121.5 26 252.5q29 131 82 253t133 215t186.5 149.5t241.5 56.5t219 -56.5t124 -149.5t41 -215t-27 -253q-27 -131 -80.5 -252.5t-132 -216t-186 -151t-245.5 -56.5q-137 0 -220 56.5t-122.5 151t-39.5 216zM189.5 477q-5.5 -88 12 -157.5t65.5 -112.5 t136 -43q89 0 153.5 43t112.5 112.5t79.5 157.5t50.5 176q18 88 24 175t-12 157t-66.5 113t-134.5 43q-143 0 -245.5 -129t-151.5 -359q-18 -88 -23.5 -176zM264 1479q68 94 148 148.5t172 54.5q49 0 79.5 -18.5t56.5 -40t51.5 -40t62.5 -18.5q51 0 93 31.5t87 89.5l106 -70 q-67 -96 -147 -150.5t-172 -54.5q-49 0 -80 18.5t-56.5 40t-51 40t-62.5 18.5q-51 0 -93 -31.5t-87 -87.5z" />
<glyph unicode="&#xd6;" d="M-20 400.5q0 121.5 26 252.5q29 131 82 253t133 215t186.5 149.5t241.5 56.5t219 -56.5t124 -149.5t41 -215t-27 -253q-27 -131 -80.5 -252.5t-132 -216t-186 -151t-245.5 -56.5q-137 0 -220 56.5t-122.5 151t-39.5 216zM189.5 477q-5.5 -88 12 -157.5t65.5 -112.5 t136 -43q89 0 153.5 43t112.5 112.5t79.5 157.5t50.5 176q18 88 24 175t-12 157t-66.5 113t-134.5 43q-143 0 -245.5 -129t-151.5 -359q-18 -88 -23.5 -176zM359 1424l53 252h252l-54 -252h-251zM731 1424l54 252h251l-53 -252h-252z" />
<glyph unicode="&#xd7;" d="M22 207l326 271l-211 270l146 119l213 -271l325 271l94 -119l-327 -270l213 -271l-146 -119l-211 271l-327 -271z" />
<glyph unicode="&#xd8;" d="M-133 20l45 222l74 61q-13 78 -5.5 167t25.5 183q29 131 82 253t133 215t186.5 149.5t241.5 56.5q133 0 215 -52t123 -142l162 133l-47 -222l-74 -61q16 -152 -22 -330q-27 -131 -80.5 -252.5t-132 -216t-186 -151t-245.5 -56.5q-129 0 -209.5 48.5t-121.5 132.5z M186 471l625 514q-20 70 -67.5 113t-133.5 43q-143 0 -245.5 -129t-151.5 -359q-10 -47 -17.5 -92t-9.5 -90zM207 303q20 -63 66 -101t130 -38q89 0 153.5 43t112.5 112.5t79.5 157.5t50.5 176q10 41 15 80t9 80z" />
<glyph unicode="&#xd9;" d="M31 265q-6 91 18 202l178 838h207l-178 -840q-10 -49 -14 -101.5t7 -97.5t48 -73.5t104 -28.5q68 0 115 28.5t80 72.5t51.5 97.5t28.5 102.5l178 840h207l-178 -840q-25 -111 -68 -201t-108.5 -153.5t-151.5 -98.5t-195 -35q-108 0 -178.5 35t-107.5 98.5t-43 154.5z M469 1596l154 180l344 -287l-119 -137z" />
<glyph unicode="&#xda;" d="M31 265q-6 91 18 202l178 838h207l-178 -840q-10 -49 -14 -101.5t7 -97.5t48 -73.5t104 -28.5q68 0 115 28.5t80 72.5t51.5 97.5t28.5 102.5l178 840h207l-178 -840q-25 -111 -68 -201t-108.5 -153.5t-151.5 -98.5t-195 -35q-108 0 -178.5 35t-107.5 98.5t-43 154.5z M410 1489l463 287l79 -180l-485 -244z" />
<glyph unicode="&#xdb;" d="M31 265q-6 91 18 202l178 838h207l-178 -840q-10 -49 -14 -101.5t7 -97.5t48 -73.5t104 -28.5q68 0 115 28.5t80 72.5t51.5 97.5t28.5 102.5l178 840h207l-178 -840q-25 -111 -68 -201t-108.5 -153.5t-151.5 -98.5t-195 -35q-108 0 -178.5 35t-107.5 98.5t-43 154.5z M354 1452l392 318l256 -314l-101 -102l-198 205l-291 -207z" />
<glyph unicode="&#xdc;" d="M31 265q-6 91 18 202l178 838h207l-178 -840q-10 -49 -14 -101.5t7 -97.5t48 -73.5t104 -28.5q68 0 115 28.5t80 72.5t51.5 97.5t28.5 102.5l178 840h207l-178 -840q-25 -111 -68 -201t-108.5 -153.5t-151.5 -98.5t-195 -35q-108 0 -178.5 35t-107.5 98.5t-43 154.5z M359 1424l53 252h252l-54 -252h-251zM731 1424l54 252h251l-53 -252h-252z" />
<glyph unicode="&#xdd;" d="M55 0l39 186h209l74 346l-164 586h-94l39 187h411l-39 -187h-90l84 -383l246 383h-90l39 187h411l-38 -187h-95l-413 -586l-74 -346h209l-39 -186h-625zM410 1489l463 287l79 -180l-485 -244z" />
<glyph unicode="&#xde;" d="M-49 0l276 1305h207l-55 -256h223q215 0 313.5 -96.5t57.5 -288.5q-41 -197 -180.5 -291t-352.5 -94h-225l-57 -279h-207zM256 465h225q113 0 190 48t97 151q23 100 -33.5 149t-169.5 49h-225z" />
<glyph unicode="&#xdf;" d="M-49 0l178 844q16 76 47 161t85 156.5t139 118.5t208 47q76 0 131.5 -22.5t88 -60.5t43 -90t-4.5 -114q-16 -82 -59 -131t-90 -81.5t-85 -58.5t-46 -60q-6 -27 19.5 -48.5t64.5 -45t84 -52t80.5 -68.5t53 -95.5t1.5 -131.5q-12 -61 -50 -114.5t-93.5 -92t-125 -61.5 t-145.5 -23q-98 0 -163.5 28t-121.5 81l152 162q43 -49 84 -66.5t90 -17.5q76 0 117 31.5t51 74.5q8 41 -15.5 71t-61.5 56.5t-84 53t-81.5 60.5t-56 79t-6.5 108q16 74 58 118t89 77t86 65.5t50 81.5q8 37 -8.5 69t-84.5 32q-100 0 -151 -76t-82 -219l-178 -846h-207z" />
<glyph unicode="&#xe0;" d="M-47 268q18 82 75.5 143.5t137.5 102.5t176 61.5t193 20.5q53 0 91 -2t76 -6l7 37q16 73 -33 109t-141 36q-84 0 -175.5 -23.5t-179.5 -68.5l-49 162q102 53 215 83.5t229 30.5q76 0 146 -17t120 -56t71.5 -101.5t0.5 -154.5l-131 -625h-204l28 137q-65 -76 -169.5 -118 t-215.5 -42q-67 0 -123.5 18.5t-92.5 55.5t-51 91.5t-1 125.5zM160 279q-25 -117 153 -117q62 0 118 15.5t103.5 43t79 66.5t41.5 86l9 35q-48 8 -91 9t-75 1q-152 0 -238 -40t-100 -99zM389 1225l154 180l344 -287l-119 -137z" />
<glyph unicode="&#xe1;" d="M-47 268q18 82 75.5 143.5t137.5 102.5t176 61.5t193 20.5q53 0 91 -2t76 -6l7 37q16 73 -33 109t-141 36q-84 0 -175.5 -23.5t-179.5 -68.5l-49 162q102 53 215 83.5t229 30.5q76 0 146 -17t120 -56t71.5 -101.5t0.5 -154.5l-131 -625h-204l28 137q-65 -76 -169.5 -118 t-215.5 -42q-67 0 -123.5 18.5t-92.5 55.5t-51 91.5t-1 125.5zM160 279q-25 -117 153 -117q62 0 118 15.5t103.5 43t79 66.5t41.5 86l9 35q-48 8 -91 9t-75 1q-152 0 -238 -40t-100 -99zM330 1118l463 287l79 -180l-485 -244z" />
<glyph unicode="&#xe2;" d="M-47 268q18 82 75.5 143.5t137.5 102.5t176 61.5t193 20.5q53 0 91 -2t76 -6l7 37q16 73 -33 109t-141 36q-84 0 -175.5 -23.5t-179.5 -68.5l-49 162q102 53 215 83.5t229 30.5q76 0 146 -17t120 -56t71.5 -101.5t0.5 -154.5l-131 -625h-204l28 137q-65 -76 -169.5 -118 t-215.5 -42q-67 0 -123.5 18.5t-92.5 55.5t-51 91.5t-1 125.5zM160 279q-25 -117 153 -117q62 0 118 15.5t103.5 43t79 66.5t41.5 86l9 35q-48 8 -91 9t-75 1q-152 0 -238 -40t-100 -99zM274 1081l392 318l256 -314l-101 -102l-198 205l-291 -207z" />
<glyph unicode="&#xe3;" d="M-47 268q18 82 75.5 143.5t137.5 102.5t176 61.5t193 20.5q53 0 91 -2t76 -6l7 37q16 73 -33 109t-141 36q-84 0 -175.5 -23.5t-179.5 -68.5l-49 162q102 53 215 83.5t229 30.5q76 0 146 -17t120 -56t71.5 -101.5t0.5 -154.5l-131 -625h-204l28 137q-65 -76 -169.5 -118 t-215.5 -42q-67 0 -123.5 18.5t-92.5 55.5t-51 91.5t-1 125.5zM160 279q-25 -117 153 -117q62 0 118 15.5t103.5 43t79 66.5t41.5 86l9 35q-48 8 -91 9t-75 1q-152 0 -238 -40t-100 -99zM184 1108q68 94 148 148.5t172 54.5q49 0 79.5 -18.5t56.5 -40t51.5 -40t62.5 -18.5 q51 0 93 31.5t87 89.5l106 -70q-67 -96 -147 -150.5t-172 -54.5q-49 0 -80 18.5t-56.5 40t-51 40t-62.5 18.5q-51 0 -93 -31.5t-87 -87.5z" />
<glyph unicode="&#xe4;" d="M-47 268q18 82 75.5 143.5t137.5 102.5t176 61.5t193 20.5q53 0 91 -2t76 -6l7 37q16 73 -33 109t-141 36q-84 0 -175.5 -23.5t-179.5 -68.5l-49 162q102 53 215 83.5t229 30.5q76 0 146 -17t120 -56t71.5 -101.5t0.5 -154.5l-131 -625h-204l28 137q-65 -76 -169.5 -118 t-215.5 -42q-67 0 -123.5 18.5t-92.5 55.5t-51 91.5t-1 125.5zM160 279q-25 -117 153 -117q62 0 118 15.5t103.5 43t79 66.5t41.5 86l9 35q-48 8 -91 9t-75 1q-152 0 -238 -40t-100 -99zM279 1053l53 252h252l-54 -252h-251zM651 1053l54 252h251l-53 -252h-252z" />
<glyph unicode="&#xe5;" d="M-47 268q18 82 75.5 143.5t137.5 102.5t176 61.5t193 20.5q53 0 91 -2t76 -6l7 37q16 73 -33 109t-141 36q-84 0 -175.5 -23.5t-179.5 -68.5l-49 162q102 53 215 83.5t229 30.5q76 0 146 -17t120 -56t71.5 -101.5t0.5 -154.5l-131 -625h-204l28 137q-65 -76 -169.5 -118 t-215.5 -42q-67 0 -123.5 18.5t-92.5 55.5t-51 91.5t-1 125.5zM160 279q-25 -117 153 -117q62 0 118 15.5t103.5 43t79 66.5t41.5 86l9 35q-48 8 -91 9t-75 1q-152 0 -238 -40t-100 -99zM408.5 1169q-9.5 41 1.5 88q10 48 35.5 88.5t63.5 71.5t82 48.5t91 17.5t85 -17.5 t61.5 -48.5t32.5 -71.5t-1 -88.5q-10 -47 -35.5 -88t-63.5 -71.5t-82 -48t-91 -17.5t-85 17.5t-61.5 48t-33 71.5zM543 1257q-8 -38 12 -65t59 -27t72 27t41 65q8 39 -12.5 66t-59.5 27t-71.5 -27t-40.5 -66z" />
<glyph unicode="&#xe6;" d="M-69.5 148.5q-6.5 50.5 6.5 105.5q16 80 54 141.5t90 102.5t114.5 61.5t126.5 20.5q22 0 36.5 -1t36.5 -6l13 60q16 74 -5.5 105.5t-66.5 31.5q-35 0 -81 -18.5t-95 -77.5l-99 119q74 86 159 123.5t147 37.5q71 0 121.5 -28.5t58.5 -100.5q49 68 106.5 98.5t126.5 30.5 q94 0 136 -50t53.5 -130t-3 -181t-36.5 -206h-387q-27 -125 -2.5 -172t69.5 -47q33 0 59.5 18.5t45.5 61.5l162 -58q-58 -108 -131.5 -160.5t-176.5 -52.5q-28 0 -58 7.5t-56.5 25t-47 47t-28.5 74.5q-53 -65 -113.5 -109.5t-140.5 -44.5q-62 0 -101.5 23t-63 60.5t-30 88z M141 264q-10 -51 5.5 -74.5t48.5 -23.5q55 0 95 49t54 115l12 61q-12 2 -25.5 3t-35.5 1q-49 0 -95 -34.5t-59 -96.5zM582 569h180q20 119 7 160t-52 41q-43 0 -76 -45t-59 -156z" />
<glyph unicode="&#xe7;" d="M-20 465q22 106 77.5 196.5t129 155t163.5 101t182 36.5q97 0 158.5 -40t77.5 -117l29 135h184l-92 -434h-184q26 123 -26 196.5t-161 73.5q-43 0 -93 -17.5t-98 -54.5t-86 -94t-55 -137q-16 -78 -3.5 -134.5t45 -93t85 -55t111.5 -18.5q100 0 181 31.5t145 83.5l75 -146 q-86 -72 -168 -105.5t-170 -43.5l-6 -25q-14 -70 -51 -130t-91 -104t-124 -70t-152 -26l39 178q88 0 138.5 40t64.5 112l6 23q-198 22 -287.5 150t-43.5 333z" />
<glyph unicode="&#xe8;" d="M-24.5 267q-20.5 89 4.5 198q22 106 76.5 195.5t133 155t177 102t206.5 36.5q113 0 196 -38.5t133 -111.5t64.5 -178.5t-12.5 -238.5h-780q-6 -96 57.5 -159.5t192.5 -63.5q100 0 181 31.5t145 83.5l75 -146q-108 -90 -215.5 -123t-226.5 -33q-109 0 -194 36t-139 100.5 t-74.5 153.5zM221 569h539q2 90 -63.5 144.5t-164.5 54.5q-98 0 -187 -54.5t-124 -144.5zM389 1225l154 180l344 -287l-119 -137z" />
<glyph unicode="&#xe9;" d="M-24.5 267q-20.5 89 4.5 198q22 106 76.5 195.5t133 155t177 102t206.5 36.5q113 0 196 -38.5t133 -111.5t64.5 -178.5t-12.5 -238.5h-780q-6 -96 57.5 -159.5t192.5 -63.5q100 0 181 31.5t145 83.5l75 -146q-108 -90 -215.5 -123t-226.5 -33q-109 0 -194 36t-139 100.5 t-74.5 153.5zM221 569h539q2 90 -63.5 144.5t-164.5 54.5q-98 0 -187 -54.5t-124 -144.5zM330 1118l463 287l79 -180l-485 -244z" />
<glyph unicode="&#xea;" d="M-24.5 267q-20.5 89 4.5 198q22 106 76.5 195.5t133 155t177 102t206.5 36.5q113 0 196 -38.5t133 -111.5t64.5 -178.5t-12.5 -238.5h-780q-6 -96 57.5 -159.5t192.5 -63.5q100 0 181 31.5t145 83.5l75 -146q-108 -90 -215.5 -123t-226.5 -33q-109 0 -194 36t-139 100.5 t-74.5 153.5zM221 569h539q2 90 -63.5 144.5t-164.5 54.5q-98 0 -187 -54.5t-124 -144.5zM274 1081l392 318l256 -314l-101 -102l-198 205l-291 -207z" />
<glyph unicode="&#xeb;" d="M-24.5 267q-20.5 89 4.5 198q22 106 76.5 195.5t133 155t177 102t206.5 36.5q113 0 196 -38.5t133 -111.5t64.5 -178.5t-12.5 -238.5h-780q-6 -96 57.5 -159.5t192.5 -63.5q100 0 181 31.5t145 83.5l75 -146q-108 -90 -215.5 -123t-226.5 -33q-109 0 -194 36t-139 100.5 t-74.5 153.5zM221 569h539q2 90 -63.5 144.5t-164.5 54.5q-98 0 -187 -54.5t-124 -144.5zM279 1053l53 252h252l-54 -252h-251zM651 1053l54 252h251l-53 -252h-252z" />
<glyph unicode="&#xec;" d="M57 0l39 186h207l119 559h-207l39 187h414l-158 -746h213l-39 -186h-627zM389 1225l154 180l344 -287l-119 -137z" />
<glyph unicode="&#xed;" d="M57 0l39 186h207l119 559h-207l39 187h414l-158 -746h213l-39 -186h-627zM330 1118l463 287l79 -180l-485 -244z" />
<glyph unicode="&#xee;" d="M57 0l39 186h207l119 559h-207l39 187h414l-158 -746h213l-39 -186h-627zM274 1081l392 318l256 -314l-101 -102l-198 205l-291 -207z" />
<glyph unicode="&#xef;" d="M57 0l39 186h207l119 559h-207l39 187h414l-158 -746h213l-39 -186h-627zM279 1053l53 252h252l-54 -252h-251zM651 1053l54 252h251l-53 -252h-252z" />
<glyph unicode="&#xf0;" d="M-45 354q22 103 88 183.5t167 142t235.5 103.5t293.5 67q-43 88 -125 154l-180 -148l-92 121l133 110q-31 17 -62.5 31.5t-66.5 28.5l100 180q54 -22 103 -47t96 -53l176 145l92 -121l-139 -114q60 -52 105 -113t71.5 -135t31.5 -161t-17 -191q-27 -129 -85.5 -232.5 t-141.5 -176.5t-187.5 -112t-224.5 -39q-205 0 -307.5 96.5t-63.5 280.5zM162 354q-19 -92 35.5 -141t169.5 -49q139 0 245.5 96t145.5 277q16 71 16 133q-260 -23 -422 -105t-190 -211z" />
<glyph unicode="&#xf1;" d="M-49 0l196 932h207l-49 -234q57 121 155.5 188.5t221.5 67.5q143 0 203.5 -93t19.5 -286l-121 -575h-206l120 575q23 109 -9 151t-109 42q-115 0 -207 -93t-127 -257l-88 -418h-207zM184 1108q68 94 148 148.5t172 54.5q49 0 79.5 -18.5t56.5 -40t51.5 -40t62.5 -18.5 q51 0 93 31.5t87 89.5l106 -70q-67 -96 -147 -150.5t-172 -54.5q-49 0 -80 18.5t-56.5 40t-51 40t-62.5 18.5q-51 0 -93 -31.5t-87 -87.5z" />
<glyph unicode="&#xf2;" d="M-28.5 267q-16.5 89 8.5 198q22 106 76.5 196.5t132 156t176 101t206.5 35.5q111 0 193 -35.5t133 -101t66.5 -156t-7.5 -196.5q-24 -109 -77.5 -198t-131 -153.5t-176 -100.5t-209.5 -36q-108 0 -190 36t-133 100.5t-67.5 153.5zM180 345q8 -54 35 -95t75 -63.5 t113 -22.5q66 0 122.5 22.5t102.5 63.5t76.5 95t45.5 120q12 63 5 119.5t-36 96.5t-76 63.5t-113 23.5q-65 0 -122.5 -23.5t-101.5 -63.5t-75.5 -96.5t-44.5 -119.5q-14 -66 -6 -120zM389 1225l154 180l344 -287l-119 -137z" />
<glyph unicode="&#xf3;" d="M-28.5 267q-16.5 89 8.5 198q22 106 76.5 196.5t132 156t176 101t206.5 35.5q111 0 193 -35.5t133 -101t66.5 -156t-7.5 -196.5q-24 -109 -77.5 -198t-131 -153.5t-176 -100.5t-209.5 -36q-108 0 -190 36t-133 100.5t-67.5 153.5zM180 345q8 -54 35 -95t75 -63.5 t113 -22.5q66 0 122.5 22.5t102.5 63.5t76.5 95t45.5 120q12 63 5 119.5t-36 96.5t-76 63.5t-113 23.5q-65 0 -122.5 -23.5t-101.5 -63.5t-75.5 -96.5t-44.5 -119.5q-14 -66 -6 -120zM330 1118l463 287l79 -180l-485 -244z" />
<glyph unicode="&#xf4;" d="M-28.5 267q-16.5 89 8.5 198q22 106 76.5 196.5t132 156t176 101t206.5 35.5q111 0 193 -35.5t133 -101t66.5 -156t-7.5 -196.5q-24 -109 -77.5 -198t-131 -153.5t-176 -100.5t-209.5 -36q-108 0 -190 36t-133 100.5t-67.5 153.5zM180 345q8 -54 35 -95t75 -63.5 t113 -22.5q66 0 122.5 22.5t102.5 63.5t76.5 95t45.5 120q12 63 5 119.5t-36 96.5t-76 63.5t-113 23.5q-65 0 -122.5 -23.5t-101.5 -63.5t-75.5 -96.5t-44.5 -119.5q-14 -66 -6 -120zM274 1081l392 318l256 -314l-101 -102l-198 205l-291 -207z" />
<glyph unicode="&#xf5;" d="M-28.5 267q-16.5 89 8.5 198q22 106 76.5 196.5t132 156t176 101t206.5 35.5q111 0 193 -35.5t133 -101t66.5 -156t-7.5 -196.5q-24 -109 -77.5 -198t-131 -153.5t-176 -100.5t-209.5 -36q-108 0 -190 36t-133 100.5t-67.5 153.5zM180 345q8 -54 35 -95t75 -63.5 t113 -22.5q66 0 122.5 22.5t102.5 63.5t76.5 95t45.5 120q12 63 5 119.5t-36 96.5t-76 63.5t-113 23.5q-65 0 -122.5 -23.5t-101.5 -63.5t-75.5 -96.5t-44.5 -119.5q-14 -66 -6 -120zM184 1108q68 94 148 148.5t172 54.5q49 0 79.5 -18.5t56.5 -40t51.5 -40t62.5 -18.5 q51 0 93 31.5t87 89.5l106 -70q-67 -96 -147 -150.5t-172 -54.5q-49 0 -80 18.5t-56.5 40t-51 40t-62.5 18.5q-51 0 -93 -31.5t-87 -87.5z" />
<glyph unicode="&#xf6;" d="M-28.5 267q-16.5 89 8.5 198q22 106 76.5 196.5t132 156t176 101t206.5 35.5q111 0 193 -35.5t133 -101t66.5 -156t-7.5 -196.5q-24 -109 -77.5 -198t-131 -153.5t-176 -100.5t-209.5 -36q-108 0 -190 36t-133 100.5t-67.5 153.5zM180 345q8 -54 35 -95t75 -63.5 t113 -22.5q66 0 122.5 22.5t102.5 63.5t76.5 95t45.5 120q12 63 5 119.5t-36 96.5t-76 63.5t-113 23.5q-65 0 -122.5 -23.5t-101.5 -63.5t-75.5 -96.5t-44.5 -119.5q-14 -66 -6 -120zM279 1053l53 252h252l-54 -252h-251zM651 1053l54 252h251l-53 -252h-252z" />
<glyph unicode="&#xf7;" d="M-16 385l38 187h932l-39 -187h-931zM237 -20l54 252h252l-54 -252h-252zM395 725l53 252h252l-53 -252h-252z" />
<glyph unicode="&#xf8;" d="M-102 -23l41 203l47 33q-19 53 -22 116.5t13 135.5q23 106 78.5 196.5t133 156t176 101t206.5 35.5q99 0 174.5 -30.5t128.5 -83.5l162 114l-43 -202l-47 -33q17 -55 20 -118.5t-12 -135.5q-24 -109 -77.5 -198t-131 -153.5t-175 -100.5t-208.5 -36q-100 0 -176.5 30 t-128.5 83zM178 348l512 363q-57 57 -160 57q-65 0 -122.5 -23.5t-102.5 -63.5t-76.5 -96.5t-44.5 -119.5q-14 -66 -6 -117zM238 219q28 -26 70 -40.5t95 -14.5q66 0 122.5 22.5t101.5 63.5t75.5 95t45.5 120q12 63 6 119z" />
<glyph unicode="&#xf9;" d="M25 356l122 576h207l-123 -576q-22 -108 10.5 -150t110.5 -42q115 0 207 93t127 257l88 418h207l-197 -932h-206l49 233q-58 -120 -156 -188t-221 -68q-144 0 -204 93.5t-21 285.5zM389 1225l154 180l344 -287l-119 -137z" />
<glyph unicode="&#xfa;" d="M25 356l122 576h207l-123 -576q-22 -108 10.5 -150t110.5 -42q115 0 207 93t127 257l88 418h207l-197 -932h-206l49 233q-58 -120 -156 -188t-221 -68q-144 0 -204 93.5t-21 285.5zM330 1118l463 287l79 -180l-485 -244z" />
<glyph unicode="&#xfb;" d="M25 356l122 576h207l-123 -576q-22 -108 10.5 -150t110.5 -42q115 0 207 93t127 257l88 418h207l-197 -932h-206l49 233q-58 -120 -156 -188t-221 -68q-144 0 -204 93.5t-21 285.5zM274 1081l392 318l256 -314l-101 -102l-198 205l-291 -207z" />
<glyph unicode="&#xfc;" d="M25 356l122 576h207l-123 -576q-22 -108 10.5 -150t110.5 -42q115 0 207 93t127 257l88 418h207l-197 -932h-206l49 233q-58 -120 -156 -188t-221 -68q-144 0 -204 93.5t-21 285.5zM279 1053l53 252h252l-54 -252h-251zM651 1053l54 252h251l-53 -252h-252z" />
<glyph unicode="&#xfd;" d="M-174 -358l82 190q39 -16 73.5 -22.5t63.5 -6.5q92 0 145 82l56 90l-154 957h215l107 -705l387 705h221l-637 -1114q-72 -121 -167 -166t-214 -45q-41 0 -86 8t-92 27zM330 1118l463 287l79 -180l-485 -244z" />
<glyph unicode="&#xfe;" d="M-127 -373l354 1678h207l-98 -457q72 53 138.5 79.5t143.5 26.5q91 0 159.5 -36.5t110.5 -101t54 -155t-10 -196.5q-23 -107 -74 -197t-119.5 -154.5t-153.5 -100.5t-175 -36q-78 0 -132.5 28t-103.5 81l-96 -459h-205zM209 248q29 -41 82 -62.5t106 -21.5q117 0 208 83 t120 218t-27.5 219t-173.5 84q-53 0 -114.5 -21.5t-108.5 -62.5z" />
<glyph unicode="&#xff;" d="M-174 -358l82 190q39 -16 73.5 -22.5t63.5 -6.5q92 0 145 82l56 90l-154 957h215l107 -705l387 705h221l-637 -1114q-72 -121 -167 -166t-214 -45q-41 0 -86 8t-92 27zM279 1053l53 252h252l-54 -252h-251zM651 1053l54 252h251l-53 -252h-252z" />
<glyph unicode="&#x100;" d="M-158 0l684 1305h238l131 -1305h-217l-29 311h-432l-158 -311h-217zM311 494h322l-45 538zM389 1415l37 175h559l-37 -175h-559z" />
<glyph unicode="&#x101;" d="M-47 268q18 82 75.5 143.5t137.5 102.5t176 61.5t193 20.5q53 0 91 -2t76 -6l7 37q16 73 -33 109t-141 36q-84 0 -175.5 -23.5t-179.5 -68.5l-49 162q102 53 215 83.5t229 30.5q76 0 146 -17t120 -56t71.5 -101.5t0.5 -154.5l-131 -625h-204l28 137q-65 -76 -169.5 -118 t-215.5 -42q-67 0 -123.5 18.5t-92.5 55.5t-51 91.5t-1 125.5zM160 279q-25 -117 153 -117q62 0 118 15.5t103.5 43t79 66.5t41.5 86l9 35q-48 8 -91 9t-75 1q-152 0 -238 -40t-100 -99zM309 1044l37 175h559l-37 -175h-559z" />
<glyph unicode="&#x102;" d="M-158 0l684 1305h238l131 -1305h-217l-29 311h-432l-158 -311h-217zM311 494h322l-45 538zM369 1538l145 119q74 -94 187 -94q112 0 227 94l96 -119q-164 -135 -356 -135q-193 0 -299 135z" />
<glyph unicode="&#x103;" d="M-47 268q18 82 75.5 143.5t137.5 102.5t176 61.5t193 20.5q53 0 91 -2t76 -6l7 37q16 73 -33 109t-141 36q-84 0 -175.5 -23.5t-179.5 -68.5l-49 162q102 53 215 83.5t229 30.5q76 0 146 -17t120 -56t71.5 -101.5t0.5 -154.5l-131 -625h-204l28 137q-65 -76 -169.5 -118 t-215.5 -42q-67 0 -123.5 18.5t-92.5 55.5t-51 91.5t-1 125.5zM160 279q-25 -117 153 -117q62 0 118 15.5t103.5 43t79 66.5t41.5 86l9 35q-48 8 -91 9t-75 1q-152 0 -238 -40t-100 -99zM289 1167l145 119q74 -94 187 -94q112 0 227 94l96 -119q-164 -135 -356 -135 q-193 0 -299 135z" />
<glyph unicode="&#x104;" d="M-158 0l684 1305h238l131 -1305q-49 -43 -61 -104q-15 -64 22 -95.5t100 -31.5l-30 -148q-135 0 -201 59.5t-41 178.5q8 41 30.5 76.5t53.5 64.5h-90l-29 311h-432l-158 -311h-217zM311 494h322l-45 538z" />
<glyph unicode="&#x105;" d="M-47 268q18 82 75.5 143.5t137.5 102.5t176 61.5t193 20.5q53 0 91 -2t76 -6l7 37q16 73 -33 109t-141 36q-84 0 -175.5 -23.5t-179.5 -68.5l-49 162q102 53 215 83.5t229 30.5q76 0 146 -17t120 -56t71.5 -101.5t0.5 -154.5l-131 -625q-49 -43 -61 -104 q-14 -64 22.5 -95.5t100.5 -31.5l-31 -148q-135 0 -200.5 59.5t-41.5 178.5q9 41 31.5 76.5t52.5 64.5h-77l28 137q-65 -76 -169.5 -118t-215.5 -42q-67 0 -123.5 18.5t-92.5 55.5t-51 91.5t-1 125.5zM160 279q-25 -117 153 -117q62 0 118 15.5t103.5 43t79 66.5t41.5 86 l9 35q-48 8 -91 9t-75 1q-152 0 -238 -40t-100 -99z" />
<glyph unicode="&#x106;" d="M-8 400.5q0 121.5 26 252.5q29 131 81.5 253t132 215t183 149.5t236.5 56.5q43 0 85 -11t75 -33.5t54.5 -55.5t25.5 -76l33 154h186l-104 -494h-187q12 61 9 120.5t-25.5 105.5t-66.5 75t-111 29q-88 0 -153.5 -43t-114 -113t-81 -157t-51.5 -175q-18 -88 -23 -176 t12 -157.5t66.5 -112.5t137.5 -43q127 0 212 81t156 218l152 -64q-45 -96 -101.5 -174t-126 -133t-152.5 -85t-181 -30q-137 0 -220 56.5t-124 151t-41 216zM410 1493l463 287l79 -180l-485 -244z" />
<glyph unicode="&#x107;" d="M-27.5 264q-17.5 90 7.5 201q22 106 77.5 196.5t129 155t163.5 101t182 36.5q97 0 158.5 -40t77.5 -117l29 135h184l-92 -434h-184q26 123 -26 196.5t-161 73.5q-43 0 -93 -17.5t-98 -54.5t-86 -94t-55 -137q-16 -78 -3.5 -134.5t45 -93t85 -55t111.5 -18.5 q100 0 181 31.5t145 83.5l75 -146q-108 -90 -214.5 -123t-223.5 -33t-205 35t-140 98.5t-69.5 153.5zM330 1120l463 287l79 -180l-485 -244z" />
<glyph unicode="&#x108;" d="M-8 400.5q0 121.5 26 252.5q29 131 81.5 253t132 215t183 149.5t236.5 56.5q43 0 85 -11t75 -33.5t54.5 -55.5t25.5 -76l33 154h186l-104 -494h-187q12 61 9 120.5t-25.5 105.5t-66.5 75t-111 29q-88 0 -153.5 -43t-114 -113t-81 -157t-51.5 -175q-18 -88 -23 -176 t12 -157.5t66.5 -112.5t137.5 -43q127 0 212 81t156 218l152 -64q-45 -96 -101.5 -174t-126 -133t-152.5 -85t-181 -30q-137 0 -220 56.5t-124 151t-41 216zM354 1456l392 318l256 -314l-101 -102l-198 205l-291 -207z" />
<glyph unicode="&#x109;" d="M-27.5 264q-17.5 90 7.5 201q22 106 77.5 196.5t129 155t163.5 101t182 36.5q97 0 158.5 -40t77.5 -117l29 135h184l-92 -434h-184q26 123 -26 196.5t-161 73.5q-43 0 -93 -17.5t-98 -54.5t-86 -94t-55 -137q-16 -78 -3.5 -134.5t45 -93t85 -55t111.5 -18.5 q100 0 181 31.5t145 83.5l75 -146q-108 -90 -214.5 -123t-223.5 -33t-205 35t-140 98.5t-69.5 153.5zM274 1083l392 318l256 -314l-101 -102l-198 205l-291 -207z" />
<glyph unicode="&#x10a;" d="M-8 400.5q0 121.5 26 252.5q29 131 81.5 253t132 215t183 149.5t236.5 56.5q43 0 85 -11t75 -33.5t54.5 -55.5t25.5 -76l33 154h186l-104 -494h-187q12 61 9 120.5t-25.5 105.5t-66.5 75t-111 29q-88 0 -153.5 -43t-114 -113t-81 -157t-51.5 -175q-18 -88 -23 -176 t12 -157.5t66.5 -112.5t137.5 -43q127 0 212 81t156 218l152 -64q-45 -96 -101.5 -174t-126 -133t-152.5 -85t-181 -30q-137 0 -220 56.5t-124 151t-41 216zM545 1424l53 252h252l-53 -252h-252z" />
<glyph unicode="&#x10b;" d="M-27.5 264q-17.5 90 7.5 201q22 106 77.5 196.5t129 155t163.5 101t182 36.5q97 0 158.5 -40t77.5 -117l29 135h184l-92 -434h-184q26 123 -26 196.5t-161 73.5q-43 0 -93 -17.5t-98 -54.5t-86 -94t-55 -137q-16 -78 -3.5 -134.5t45 -93t85 -55t111.5 -18.5 q100 0 181 31.5t145 83.5l75 -146q-108 -90 -214.5 -123t-223.5 -33t-205 35t-140 98.5t-69.5 153.5zM465 1053l53 252h252l-53 -252h-252z" />
<glyph unicode="&#x10c;" d="M-8 400.5q0 121.5 26 252.5q29 131 81.5 253t132 215t183 149.5t236.5 56.5q43 0 85 -11t75 -33.5t54.5 -55.5t25.5 -76l33 154h186l-104 -494h-187q12 61 9 120.5t-25.5 105.5t-66.5 75t-111 29q-88 0 -153.5 -43t-114 -113t-81 -157t-51.5 -175q-18 -88 -23 -176 t12 -157.5t66.5 -112.5t137.5 -43q127 0 212 81t156 218l152 -64q-45 -96 -101.5 -174t-126 -133t-152.5 -85t-181 -30q-137 0 -220 56.5t-124 151t-41 216zM399 1673l103 101l201 -207l284 205l60 -103l-392 -313z" />
<glyph unicode="&#x10d;" d="M-27.5 264q-17.5 90 7.5 201q22 106 77.5 196.5t129 155t163.5 101t182 36.5q97 0 158.5 -40t77.5 -117l29 135h184l-92 -434h-184q26 123 -26 196.5t-161 73.5q-43 0 -93 -17.5t-98 -54.5t-86 -94t-55 -137q-16 -78 -3.5 -134.5t45 -93t85 -55t111.5 -18.5 q100 0 181 31.5t145 83.5l75 -146q-108 -90 -214.5 -123t-223.5 -33t-205 35t-140 98.5t-69.5 153.5zM319 1300l103 101l201 -207l284 205l60 -103l-392 -313z" />
<glyph unicode="&#x10e;" d="M-49 0l276 1305h424q133 0 217 -53.5t125 -142.5t45 -207t-24 -249q-27 -131 -80 -249.5t-132 -208t-185.5 -142.5t-241.5 -53h-424zM197 186h217q141 0 243.5 122t149.5 345q49 226 -2 345.5t-193 119.5h-217zM399 1673l103 101l201 -207l284 205l60 -103l-392 -313z " />
<glyph unicode="&#x10f;" d="M-36 268q-7 90 16 197q22 106 68 196.5t107.5 155t134 101t150.5 36.5q66 0 113 -26.5t86 -79.5l59 270h-186l39 187h393l-276 -1305h-207l16 86q-61 -53 -120.5 -81t-125.5 -28q-77 0 -133.5 36t-91.5 100.5t-42 154.5zM186 465q-28 -135 13 -218t133 -83q43 0 93 21.5 t87 62.5l92 436q-18 41 -60 62.5t-85 21.5q-92 0 -168 -84t-105 -219zM932 747l117 557h245l-200 -557h-162z" />
<glyph unicode="&#x110;" d="M-94 571l39 187h166l116 547h424q133 0 217 -53.5t125 -142.5t45 -207t-24 -249q-27 -131 -80 -249.5t-132 -208t-185.5 -142.5t-241.5 -53h-424l121 571h-166zM197 186h217q141 0 243.5 122t149.5 345q49 226 -2 345.5t-193 119.5h-217l-78 -360h185l-39 -187h-184z" />
<glyph unicode="&#x111;" d="M-12.5 268q-12.5 90 10.5 197q22 106 73.5 196.5t120 155t153.5 101t175 36.5q78 0 133.5 -26.5t102.5 -79.5l30 141h-180l37 174h180l31 142h207l-31 -142h172l-37 -174h-172l-209 -989h-206l16 86q-70 -53 -137.5 -81t-145.5 -28q-90 0 -158.5 36t-110.5 100.5 t-54.5 154.5zM205 465q-29 -135 27.5 -218t173.5 -83q53 0 115.5 21.5t107.5 62.5l92 436q-27 41 -81 62.5t-108 21.5q-116 0 -207.5 -84t-119.5 -219z" />
<glyph unicode="&#x112;" d="M-49 0l276 1305h834l-39 -187h-627l-78 -360h490l-39 -187h-489l-82 -385h626l-39 -186h-833zM389 1415l37 175h559l-37 -175h-559z" />
<glyph unicode="&#x113;" d="M-24.5 267q-20.5 89 4.5 198q22 106 76.5 195.5t133 155t177 102t206.5 36.5q113 0 196 -38.5t133 -111.5t64.5 -178.5t-12.5 -238.5h-780q-6 -96 57.5 -159.5t192.5 -63.5q100 0 181 31.5t145 83.5l75 -146q-108 -90 -215.5 -123t-226.5 -33q-109 0 -194 36t-139 100.5 t-74.5 153.5zM221 569h539q2 90 -63.5 144.5t-164.5 54.5q-98 0 -187 -54.5t-124 -144.5zM309 1044l37 175h559l-37 -175h-559z" />
<glyph unicode="&#x114;" d="M-49 0l276 1305h834l-39 -187h-627l-78 -360h490l-39 -187h-489l-82 -385h626l-39 -186h-833zM369 1538l145 119q74 -94 187 -94q112 0 227 94l96 -119q-164 -135 -356 -135q-193 0 -299 135z" />
<glyph unicode="&#x115;" d="M-24.5 267q-20.5 89 4.5 198q22 106 76.5 195.5t133 155t177 102t206.5 36.5q113 0 196 -38.5t133 -111.5t64.5 -178.5t-12.5 -238.5h-780q-6 -96 57.5 -159.5t192.5 -63.5q100 0 181 31.5t145 83.5l75 -146q-108 -90 -215.5 -123t-226.5 -33q-109 0 -194 36t-139 100.5 t-74.5 153.5zM221 569h539q2 90 -63.5 144.5t-164.5 54.5q-98 0 -187 -54.5t-124 -144.5zM289 1167l145 119q74 -94 187 -94q112 0 227 94l96 -119q-164 -135 -356 -135q-193 0 -299 135z" />
<glyph unicode="&#x116;" d="M-49 0l276 1305h834l-39 -187h-627l-78 -360h490l-39 -187h-489l-82 -385h626l-39 -186h-833zM545 1424l53 252h252l-53 -252h-252z" />
<glyph unicode="&#x117;" d="M-24.5 267q-20.5 89 4.5 198q22 106 76.5 195.5t133 155t177 102t206.5 36.5q113 0 196 -38.5t133 -111.5t64.5 -178.5t-12.5 -238.5h-780q-6 -96 57.5 -159.5t192.5 -63.5q100 0 181 31.5t145 83.5l75 -146q-108 -90 -215.5 -123t-226.5 -33q-109 0 -194 36t-139 100.5 t-74.5 153.5zM221 569h539q2 90 -63.5 144.5t-164.5 54.5q-98 0 -187 -54.5t-124 -144.5zM465 1053l53 252h252l-53 -252h-252z" />
<glyph unicode="&#x118;" d="M-49 0l276 1305h834l-39 -187h-627l-78 -360h490l-39 -187h-489l-82 -385h626l-39 -186q-49 -43 -61 -104q-14 -64 22.5 -95.5t100.5 -31.5l-31 -148q-135 0 -200.5 59.5t-41.5 178.5q9 41 31.5 76.5t52.5 64.5h-706z" />
<glyph unicode="&#x119;" d="M-24.5 267q-20.5 89 4.5 198q22 106 76.5 195.5t133 155t177 102t206.5 36.5q113 0 196 -38.5t133 -111.5t64.5 -178.5t-12.5 -238.5h-780q-6 -96 57.5 -159.5t192.5 -63.5q100 0 181 31.5t145 83.5l75 -146q-63 -53 -126.5 -85t-125.5 -48q-49 -43 -61 -104 q-14 -64 22.5 -95.5t100.5 -31.5l-31 -148q-135 0 -200.5 59.5t-41.5 178.5q7 35 24 64.5t38 56.5q-10 -3 -20.5 -3h-20.5q-109 0 -194 36t-139 100.5t-74.5 153.5zM221 569h539q2 90 -63.5 144.5t-164.5 54.5q-98 0 -187 -54.5t-124 -144.5z" />
<glyph unicode="&#x11a;" d="M-49 0l276 1305h834l-39 -187h-627l-78 -360h490l-39 -187h-489l-82 -385h626l-39 -186h-833zM399 1669l103 101l201 -207l284 205l60 -103l-392 -313z" />
<glyph unicode="&#x11b;" d="M-24.5 267q-20.5 89 4.5 198q22 106 76.5 195.5t133 155t177 102t206.5 36.5q113 0 196 -38.5t133 -111.5t64.5 -178.5t-12.5 -238.5h-780q-6 -96 57.5 -159.5t192.5 -63.5q100 0 181 31.5t145 83.5l75 -146q-108 -90 -215.5 -123t-226.5 -33q-109 0 -194 36t-139 100.5 t-74.5 153.5zM221 569h539q2 90 -63.5 144.5t-164.5 54.5q-98 0 -187 -54.5t-124 -144.5zM319 1298l103 101l201 -207l284 205l60 -103l-392 -313z" />
<glyph unicode="&#x11c;" d="M-9 398q-1 122 27 253q29 131 81.5 253t133 216t187 150.5t244.5 56.5q38 0 77 -11t71 -33.5t53.5 -55.5t25.5 -76l33 154h186l-98 -463h-187q13 61 5.5 115.5t-34 95.5t-70.5 64.5t-101 23.5q-88 0 -153.5 -44t-115 -114t-81 -157t-50.5 -175q-18 -88 -23 -175 t12 -156.5t66.5 -112.5t137.5 -43q127 0 221 81t160 251h-275l39 186h465l-6 -33q-29 -133 -81 -254t-132 -214t-187.5 -148.5t-244.5 -55.5t-220 56.5t-124 149.5t-42 215zM354 1452l392 318l256 -314l-101 -102l-198 205l-291 -207z" />
<glyph unicode="&#x11d;" d="M-127 -248l129 160q119 -123 293 -123q106 0 182 52.5t101 164.5l22 100q-76 -55 -141.5 -81.5t-143.5 -26.5q-90 0 -158.5 38t-109.5 103.5t-54 152.5t7 185t70.5 185.5t120 152t154.5 102t175 37.5q78 0 133.5 -26.5t102.5 -79.5l18 84h207l-195 -922q-20 -96 -69 -171 t-120 -127t-158 -79.5t-185 -27.5q-244 0 -381 147zM201 360.5q8 -53.5 34.5 -92.5t70.5 -61.5t102 -22.5q55 0 117.5 22.5t109.5 63.5l86 414q-27 41 -81 62.5t-110 21.5q-116 0 -206.5 -82t-116.5 -209q-14 -63 -6 -116.5zM274 1081l392 318l256 -314l-101 -102l-198 205 l-291 -207z" />
<glyph unicode="&#x11e;" d="M-9 398q-1 122 27 253q29 131 81.5 253t133 216t187 150.5t244.5 56.5q38 0 77 -11t71 -33.5t53.5 -55.5t25.5 -76l33 154h186l-98 -463h-187q13 61 5.5 115.5t-34 95.5t-70.5 64.5t-101 23.5q-88 0 -153.5 -44t-115 -114t-81 -157t-50.5 -175q-18 -88 -23 -175 t12 -156.5t66.5 -112.5t137.5 -43q127 0 221 81t160 251h-275l39 186h465l-6 -33q-29 -133 -81 -254t-132 -214t-187.5 -148.5t-244.5 -55.5t-220 56.5t-124 149.5t-42 215zM369 1538l145 119q74 -94 187 -94q112 0 227 94l96 -119q-164 -135 -356 -135q-193 0 -299 135z " />
<glyph unicode="&#x11f;" d="M-127 -248l129 160q119 -123 293 -123q106 0 182 52.5t101 164.5l22 100q-76 -55 -141.5 -81.5t-143.5 -26.5q-90 0 -158.5 38t-109.5 103.5t-54 152.5t7 185t70.5 185.5t120 152t154.5 102t175 37.5q78 0 133.5 -26.5t102.5 -79.5l18 84h207l-195 -922q-20 -96 -69 -171 t-120 -127t-158 -79.5t-185 -27.5q-244 0 -381 147zM201 360.5q8 -53.5 34.5 -92.5t70.5 -61.5t102 -22.5q55 0 117.5 22.5t109.5 63.5l86 414q-27 41 -81 62.5t-110 21.5q-116 0 -206.5 -82t-116.5 -209q-14 -63 -6 -116.5zM289 1167l145 119q74 -94 187 -94q112 0 227 94 l96 -119q-164 -135 -356 -135q-193 0 -299 135z" />
<glyph unicode="&#x120;" d="M-9 398q-1 122 27 253q29 131 81.5 253t133 216t187 150.5t244.5 56.5q38 0 77 -11t71 -33.5t53.5 -55.5t25.5 -76l33 154h186l-98 -463h-187q13 61 5.5 115.5t-34 95.5t-70.5 64.5t-101 23.5q-88 0 -153.5 -44t-115 -114t-81 -157t-50.5 -175q-18 -88 -23 -175 t12 -156.5t66.5 -112.5t137.5 -43q127 0 221 81t160 251h-275l39 186h465l-6 -33q-29 -133 -81 -254t-132 -214t-187.5 -148.5t-244.5 -55.5t-220 56.5t-124 149.5t-42 215zM545 1424l53 252h252l-53 -252h-252z" />
<glyph unicode="&#x121;" d="M-127 -248l129 160q119 -123 293 -123q106 0 182 52.5t101 164.5l22 100q-76 -55 -141.5 -81.5t-143.5 -26.5q-90 0 -158.5 38t-109.5 103.5t-54 152.5t7 185t70.5 185.5t120 152t154.5 102t175 37.5q78 0 133.5 -26.5t102.5 -79.5l18 84h207l-195 -922q-20 -96 -69 -171 t-120 -127t-158 -79.5t-185 -27.5q-244 0 -381 147zM201 360.5q8 -53.5 34.5 -92.5t70.5 -61.5t102 -22.5q55 0 117.5 22.5t109.5 63.5l86 414q-27 41 -81 62.5t-110 21.5q-116 0 -206.5 -82t-116.5 -209q-14 -63 -6 -116.5zM465 1053l53 252h252l-53 -252h-252z" />
<glyph unicode="&#x122;" d="M-9 398q-1 122 27 253q29 131 81.5 253t133 216t187 150.5t244.5 56.5q38 0 77 -11t71 -33.5t53.5 -55.5t25.5 -76l33 154h186l-98 -463h-187q13 61 5.5 115.5t-34 95.5t-70.5 64.5t-101 23.5q-88 0 -153.5 -44t-115 -114t-81 -157t-50.5 -175q-18 -88 -23 -175 t12 -156.5t66.5 -112.5t137.5 -43q127 0 221 81t160 251h-275l39 186h465l-6 -33q-29 -133 -81 -254t-132 -214t-187.5 -148.5t-244.5 -55.5t-220 56.5t-124 149.5t-42 215zM123 -373l160 264h278l-248 -264h-190z" />
<glyph unicode="&#x123;" d="M-127 -248l129 160q119 -123 293 -123q106 0 182 52.5t101 164.5l22 100q-76 -55 -141.5 -81.5t-143.5 -26.5q-90 0 -158.5 38t-109.5 103.5t-54 152.5t7 185t70.5 185.5t120 152t154.5 102t175 37.5q78 0 133.5 -26.5t102.5 -79.5l18 84h207l-195 -922q-20 -96 -69 -171 t-120 -127t-158 -79.5t-185 -27.5q-244 0 -381 147zM201 360.5q8 -53.5 34.5 -92.5t70.5 -61.5t102 -22.5q55 0 117.5 22.5t109.5 63.5l86 414q-27 41 -81 62.5t-110 21.5q-116 0 -206.5 -82t-116.5 -209q-14 -63 -6 -116.5zM508 1118l250 373h157l-161 -373h-246z" />
<glyph unicode="&#x124;" d="M-49 0l276 1305h207l-117 -547h420l117 547h207l-277 -1305h-206l120 571h-419l-121 -571h-207zM354 1452l392 318l256 -314l-101 -102l-198 205l-291 -207z" />
<glyph unicode="&#x125;" d="M-49 0l276 1305h207l-129 -607q57 121 155.5 188.5t221.5 67.5q143 0 203.5 -93t19.5 -286l-121 -575h-206l120 575q23 109 -9 151t-109 42q-115 0 -207 -93t-127 -257l-88 -418h-207zM354 1452l392 318l256 -314l-101 -102l-198 205l-291 -207z" />
<glyph unicode="&#x126;" d="M-49 0l199 944h-187l39 174h186l39 187h207l-39 -187h420l39 187h207l-39 -187h186l-39 -174h-186l-199 -944h-206l120 571h-419l-121 -571h-207zM317 758h420l39 186h-420z" />
<glyph unicode="&#x127;" d="M-49 0l209 989h-172l37 174h172l30 142h207l-31 -142h181l-37 -174h-180l-62 -291q57 121 155.5 188.5t221.5 67.5q143 0 203.5 -93t19.5 -286l-121 -575h-206l120 575q23 109 -9 151t-109 42q-115 0 -207 -93t-127 -257l-88 -418h-207z" />
<glyph unicode="&#x128;" d="M57 0l39 186h207l199 932h-207l39 187h627l-39 -187h-213l-199 -932h213l-39 -186h-627zM264 1479q68 94 148 148.5t172 54.5q49 0 79.5 -18.5t56.5 -40t51.5 -40t62.5 -18.5q51 0 93 31.5t87 89.5l106 -70q-67 -96 -147 -150.5t-172 -54.5q-49 0 -80 18.5t-56.5 40 t-51 40t-62.5 18.5q-51 0 -93 -31.5t-87 -87.5z" />
<glyph unicode="&#x129;" d="M57 0l39 186h207l119 559h-207l39 187h414l-158 -746h213l-39 -186h-627zM184 1108q68 94 148 148.5t172 54.5q49 0 79.5 -18.5t56.5 -40t51.5 -40t62.5 -18.5q51 0 93 31.5t87 89.5l106 -70q-67 -96 -147 -150.5t-172 -54.5q-49 0 -80 18.5t-56.5 40t-51 40t-62.5 18.5 q-51 0 -93 -31.5t-87 -87.5z" />
<glyph unicode="&#x12a;" d="M57 0l39 186h207l199 932h-207l39 187h627l-39 -187h-213l-199 -932h213l-39 -186h-627zM389 1415l37 175h559l-37 -175h-559z" />
<glyph unicode="&#x12b;" d="M57 0l39 186h207l119 559h-207l39 187h414l-158 -746h213l-39 -186h-627zM309 1044l37 175h559l-37 -175h-559z" />
<glyph unicode="&#x12c;" d="M57 0l39 186h207l199 932h-207l39 187h627l-39 -187h-213l-199 -932h213l-39 -186h-627zM369 1538l145 119q74 -94 187 -94q112 0 227 94l96 -119q-164 -135 -356 -135q-193 0 -299 135z" />
<glyph unicode="&#x12d;" d="M57 0l39 186h207l119 559h-207l39 187h414l-158 -746h213l-39 -186h-627zM289 1167l145 119q74 -94 187 -94q112 0 227 94l96 -119q-164 -135 -356 -135q-193 0 -299 135z" />
<glyph unicode="&#x12e;" d="M57 0l39 186h207l199 932h-207l39 187h627l-39 -187h-213l-199 -932h213l-39 -186q-49 -43 -61 -104q-15 -64 22 -95.5t100 -31.5l-30 -148q-135 0 -200.5 59.5t-41.5 178.5q8 41 30.5 76.5t53.5 64.5h-500z" />
<glyph unicode="&#x12f;" d="M57 0l39 186h207l119 559h-207l39 187h414l-158 -746h213l-39 -186q-49 -43 -61 -104q-15 -64 22 -95.5t100 -31.5l-30 -148q-135 0 -200.5 59.5t-41.5 178.5q8 41 30.5 76.5t53.5 64.5h-500zM465 1053l53 252h252l-53 -252h-252z" />
<glyph unicode="&#x130;" d="M57 0l39 186h207l199 932h-207l39 187h627l-39 -187h-213l-199 -932h213l-39 -186h-627zM545 1424l53 252h252l-53 -252h-252z" />
<glyph unicode="&#x131;" d="M57 0l39 186h207l119 559h-207l39 187h414l-158 -746h213l-39 -186h-627z" />
<glyph unicode="&#x132;" d="M-129 0l39 186h207l199 932h-207l39 187h627l-39 -187h-213l-199 -932h213l-39 -186h-627zM55 -291l158 156q55 -74 168 -74q68 0 117 27.5t82.5 74t56 106.5t35.5 126l252 1180h206l-251 -1180q-52 -248 -187 -384t-352 -136q-184 0 -285 104z" />
<glyph unicode="&#x133;" d="M-98 0l39 186h207l119 559h-207l39 187h414l-158 -746h213l-39 -186h-627zM70 -236l149 138q37 -56 84 -83.5t115 -27.5q104 0 166.5 57.5t83.5 151.5l157 745h-211l39 187h418l-197 -932q-20 -90 -65 -163t-110.5 -125t-147.5 -79.5t-174 -27.5q-213 0 -307 159z M310 1053l53 252h252l-53 -252h-252zM868 1053l54 252h251l-53 -252h-252z" />
<glyph unicode="&#x134;" d="M-29 342l201 70q4 -117 56.5 -182.5t162.5 -65.5q68 0 116 27.5t83 73.5t56.5 106.5t35.5 126.5l172 807h207l-172 -807q-53 -248 -187.5 -384.5t-351.5 -136.5q-174 0 -272 91.5t-107 273.5zM354 1452l392 318l256 -314l-101 -102l-198 205l-291 -207z" />
<glyph unicode="&#x135;" d="M-147 -236l149 138q37 -56 84 -83.5t115 -27.5q104 0 166.5 57.5t83.5 151.5l157 745h-211l39 187h418l-197 -932q-20 -90 -65 -163t-110.5 -125t-147.5 -79.5t-174 -27.5q-213 0 -307 159zM366 1081l392 318l256 -314l-101 -102l-198 205l-291 -207z" />
<glyph unicode="&#x136;" d="M-49 0l276 1305h207l-108 -512l514 512h266l-569 -541l290 -764h-241l-213 608l-109 -102l-106 -506h-207zM123 -373l160 264h278l-248 -264h-190z" />
<glyph unicode="&#x137;" d="M-49 0l276 1305h207l-164 -768l457 395h285l-520 -428l339 -504h-268l-231 377l-115 -96l-59 -281h-207zM123 -373l160 264h278l-248 -264h-190z" />
<glyph unicode="&#x138;" d="M-49 0l196 932h207l-84 -395l457 395h285l-520 -428l339 -504h-268l-231 377l-115 -96l-59 -281h-207z" />
<glyph unicode="&#x139;" d="M-49 0l276 1305h207l-237 -1119h626l-39 -186h-833zM410 1489l463 287l79 -180l-485 -244z" />
<glyph unicode="&#x13a;" d="M59 0l39 186h205l199 932h-205l39 187h412l-238 -1119h215l-39 -186h-627zM410 1489l463 287l79 -180l-485 -244z" />
<glyph unicode="&#x13b;" d="M-49 0l276 1305h207l-237 -1119h626l-39 -186h-833zM123 -373l160 264h278l-248 -264h-190z" />
<glyph unicode="&#x13c;" d="M59 0l39 186h205l199 932h-205l39 187h412l-238 -1119h215l-39 -186h-627zM123 -373l160 264h278l-248 -264h-190z" />
<glyph unicode="&#x13d;" d="M-49 0l276 1305h207l-237 -1119h626l-39 -186h-833zM618 748l117 557h245l-200 -557h-162z" />
<glyph unicode="&#x13e;" d="M59 0l39 186h205l199 932h-205l39 187h412l-238 -1119h215l-39 -186h-627zM805 748l117 557h245l-200 -557h-162z" />
<glyph unicode="&#x13f;" d="M-49 0l276 1305h207l-237 -1119h626l-39 -186h-833zM565 493l54 252h252l-54 -252h-252z" />
<glyph unicode="&#x140;" d="M59 0l39 186h205l199 932h-205l39 187h412l-238 -1119h215l-39 -186h-627zM874 352l54 252h252l-54 -252h-252z" />
<glyph unicode="&#x141;" d="M-123 463l37 188l186 58l127 596h207l-112 -529l190 62l-39 -189l-190 -61l-86 -402h626l-39 -186h-833l108 520z" />
<glyph unicode="&#x142;" d="M59 0l39 186h205l70 334l-191 -59l41 188l191 60l88 409h-205l39 187h412l-113 -529l186 60l-39 -189l-186 -59l-86 -402h215l-39 -186h-627z" />
<glyph unicode="&#x143;" d="M-49 0l276 1305h260l177 -899l190 899h207l-277 -1305h-239l-187 946l-200 -946h-207zM410 1489l463 287l79 -180l-485 -244z" />
<glyph unicode="&#x144;" d="M-49 0l196 932h207l-49 -234q57 121 155.5 188.5t221.5 67.5q143 0 203.5 -93t19.5 -286l-121 -575h-206l120 575q23 109 -9 151t-109 42q-115 0 -207 -93t-127 -257l-88 -418h-207zM330 1118l463 287l79 -180l-485 -244z" />
<glyph unicode="&#x145;" d="M-49 0l276 1305h260l177 -899l190 899h207l-277 -1305h-239l-187 946l-200 -946h-207zM123 -373l160 264h278l-248 -264h-190z" />
<glyph unicode="&#x146;" d="M-49 0l196 932h207l-49 -234q57 121 155.5 188.5t221.5 67.5q143 0 203.5 -93t19.5 -286l-121 -575h-206l120 575q23 109 -9 151t-109 42q-115 0 -207 -93t-127 -257l-88 -418h-207zM123 -373l160 264h278l-248 -264h-190z" />
<glyph unicode="&#x147;" d="M-49 0l276 1305h260l177 -899l190 899h207l-277 -1305h-239l-187 946l-200 -946h-207zM399 1669l103 101l201 -207l284 205l60 -103l-392 -313z" />
<glyph unicode="&#x148;" d="M-49 0l196 932h207l-49 -234q57 121 155.5 188.5t221.5 67.5q143 0 203.5 -93t19.5 -286l-121 -575h-206l120 575q23 109 -9 151t-109 42q-115 0 -207 -93t-127 -257l-88 -418h-207zM319 1298l103 101l201 -207l284 205l60 -103l-392 -313z" />
<glyph unicode="&#x149;" d="M-49 0l196 932h207l-49 -234q57 121 155.5 188.5t221.5 67.5q143 0 203.5 -93t19.5 -286l-121 -575h-206l120 575q23 109 -9 151t-109 42q-115 0 -207 -93t-127 -257l-88 -418h-207zM140 1118l117 557h245l-200 -557h-162z" />
<glyph unicode="&#x14a;" d="M-49 0l276 1305h260l177 -899l190 899h207l-252 -1180q-51 -248 -186.5 -384t-352.5 -136q-184 0 -284 104l157 156q56 -74 168 -74q88 0 145.5 48t92.5 120l-191 987l-200 -946h-207z" />
<glyph unicode="&#x14b;" d="M-49 0l196 932h207l-49 -234q57 121 155.5 188.5t221.5 67.5q143 0 203.5 -93t19.5 -286l-121 -575q-20 -90 -65 -163t-110.5 -125t-147.5 -79.5t-174 -27.5q-127 0 -213 57l121 174q55 -45 133 -45q104 0 166.5 57.5t83.5 151.5l120 575q23 109 -9 151t-109 42 q-115 0 -207 -93t-127 -257l-88 -418h-207z" />
<glyph unicode="&#x14c;" d="M-20 400.5q0 121.5 26 252.5q29 131 82 253t133 215t186.5 149.5t241.5 56.5t219 -56.5t124 -149.5t41 -215t-27 -253q-27 -131 -80.5 -252.5t-132 -216t-186 -151t-245.5 -56.5q-137 0 -220 56.5t-122.5 151t-39.5 216zM189.5 477q-5.5 -88 12 -157.5t65.5 -112.5 t136 -43q89 0 153.5 43t112.5 112.5t79.5 157.5t50.5 176q18 88 24 175t-12 157t-66.5 113t-134.5 43q-143 0 -245.5 -129t-151.5 -359q-18 -88 -23.5 -176zM389 1415l37 175h559l-37 -175h-559z" />
<glyph unicode="&#x14d;" d="M-28.5 267q-16.5 89 8.5 198q22 106 76.5 196.5t132 156t176 101t206.5 35.5q111 0 193 -35.5t133 -101t66.5 -156t-7.5 -196.5q-24 -109 -77.5 -198t-131 -153.5t-176 -100.5t-209.5 -36q-108 0 -190 36t-133 100.5t-67.5 153.5zM180 345q8 -54 35 -95t75 -63.5 t113 -22.5q66 0 122.5 22.5t102.5 63.5t76.5 95t45.5 120q12 63 5 119.5t-36 96.5t-76 63.5t-113 23.5q-65 0 -122.5 -23.5t-101.5 -63.5t-75.5 -96.5t-44.5 -119.5q-14 -66 -6 -120zM309 1044l37 175h559l-37 -175h-559z" />
<glyph unicode="&#x14e;" d="M-20 400.5q0 121.5 26 252.5q29 131 82 253t133 215t186.5 149.5t241.5 56.5t219 -56.5t124 -149.5t41 -215t-27 -253q-27 -131 -80.5 -252.5t-132 -216t-186 -151t-245.5 -56.5q-137 0 -220 56.5t-122.5 151t-39.5 216zM189.5 477q-5.5 -88 12 -157.5t65.5 -112.5 t136 -43q89 0 153.5 43t112.5 112.5t79.5 157.5t50.5 176q18 88 24 175t-12 157t-66.5 113t-134.5 43q-143 0 -245.5 -129t-151.5 -359q-18 -88 -23.5 -176zM369 1538l145 119q74 -94 187 -94q112 0 227 94l96 -119q-164 -135 -356 -135q-193 0 -299 135z" />
<glyph unicode="&#x14f;" d="M-28.5 267q-16.5 89 8.5 198q22 106 76.5 196.5t132 156t176 101t206.5 35.5q111 0 193 -35.5t133 -101t66.5 -156t-7.5 -196.5q-24 -109 -77.5 -198t-131 -153.5t-176 -100.5t-209.5 -36q-108 0 -190 36t-133 100.5t-67.5 153.5zM180 345q8 -54 35 -95t75 -63.5 t113 -22.5q66 0 122.5 22.5t102.5 63.5t76.5 95t45.5 120q12 63 5 119.5t-36 96.5t-76 63.5t-113 23.5q-65 0 -122.5 -23.5t-101.5 -63.5t-75.5 -96.5t-44.5 -119.5q-14 -66 -6 -120zM289 1167l145 119q74 -94 187 -94q112 0 227 94l96 -119q-164 -135 -356 -135 q-193 0 -299 135z" />
<glyph unicode="&#x150;" d="M-20 400.5q0 121.5 26 252.5q29 131 82 253t133 215t186.5 149.5t241.5 56.5t219 -56.5t124 -149.5t41 -215t-27 -253q-27 -131 -80.5 -252.5t-132 -216t-186 -151t-245.5 -56.5q-137 0 -220 56.5t-122.5 151t-39.5 216zM189.5 477q-5.5 -88 12 -157.5t65.5 -112.5 t136 -43q89 0 153.5 43t112.5 112.5t79.5 157.5t50.5 176q18 88 24 175t-12 157t-66.5 113t-134.5 43q-143 0 -245.5 -129t-151.5 -359q-18 -88 -23.5 -176zM354 1395l220 375h217l-267 -375h-170zM725 1395l221 375h217l-266 -375h-172z" />
<glyph unicode="&#x151;" d="M-28.5 267q-16.5 89 8.5 198q22 106 76.5 196.5t132 156t176 101t206.5 35.5q111 0 193 -35.5t133 -101t66.5 -156t-7.5 -196.5q-24 -109 -77.5 -198t-131 -153.5t-176 -100.5t-209.5 -36q-108 0 -190 36t-133 100.5t-67.5 153.5zM180 345q8 -54 35 -95t75 -63.5 t113 -22.5q66 0 122.5 22.5t102.5 63.5t76.5 95t45.5 120q12 63 5 119.5t-36 96.5t-76 63.5t-113 23.5q-65 0 -122.5 -23.5t-101.5 -63.5t-75.5 -96.5t-44.5 -119.5q-14 -66 -6 -120zM274 1024l220 375h217l-267 -375h-170zM645 1024l221 375h217l-266 -375h-172z" />
<glyph unicode="&#x152;" d="M23 651q143 676 436 676q63 0 101 -39t50 -110l27 127h473l-39 -187h-336l-78 -360h246l-39 -187h-246l-81 -385h335l-38 -186h-474l25 123q-84 -146 -213 -146q-291 0 -149 674zM175 297.5q-1 -64.5 12.5 -99t43.5 -34.5q31 0 58.5 34.5t51.5 99t47.5 155t45.5 198.5 q23 109 38 199t18.5 154.5t-9 100.5t-43.5 36q-30 0 -59 -36t-54.5 -100.5t-49 -154.5t-46.5 -199q-22 -108 -37.5 -198.5t-16.5 -155z" />
<glyph unicode="&#x153;" d="M-27 467q105 487 385 487q164 0 168 -192q84 192 260 192q101 0 145 -53t54 -136t-4 -184.5t-35 -195.5h-395q-21 -96 -7.5 -158.5t66.5 -62.5q41 0 69 25.5t50 84.5l170 -53q-53 -123 -135 -183.5t-174 -60.5q-180 0 -187 203q-86 -203 -253 -203q-279 0 -177 490z M180 467q-63 -303 29 -303q90 0 153 303q64 301 -26 301q-92 0 -156 -301zM592 571h188q19 93 11.5 145t-62.5 52t-85 -52t-52 -145z" />
<glyph unicode="&#x154;" d="M-49 0l276 1305h430q215 0 312.5 -98.5t58.5 -291.5q-18 -86 -59 -151.5t-99.5 -112.5t-129 -74.5t-148.5 -37.5l260 -539h-262l-228 528h-94l-110 -528h-207zM309 715h223q115 0 191 50t98 153q21 100 -33.5 150t-169.5 50h-223zM410 1489l463 287l79 -180l-485 -244z " />
<glyph unicode="&#x155;" d="M-98 0l39 186h211l118 559h-211l39 187h418l-49 -234q80 140 192.5 198t249.5 58q43 0 88 -9t84 -32l-120 -202q-33 18 -70 27.5t-86 9.5q-70 0 -134.5 -20.5t-117.5 -61.5t-90 -102.5t-55 -145.5l-50 -232h209l-39 -186h-626zM330 1118l463 287l79 -180l-485 -244z" />
<glyph unicode="&#x156;" d="M-49 0l276 1305h430q215 0 312.5 -98.5t58.5 -291.5q-18 -86 -59 -151.5t-99.5 -112.5t-129 -74.5t-148.5 -37.5l260 -539h-262l-228 528h-94l-110 -528h-207zM123 -373l160 264h278l-248 -264h-190zM309 715h223q115 0 191 50t98 153q21 100 -33.5 150t-169.5 50h-223z " />
<glyph unicode="&#x157;" d="M-98 0l39 186h211l118 559h-211l39 187h418l-49 -234q80 140 192.5 198t249.5 58q43 0 88 -9t84 -32l-120 -202q-33 18 -70 27.5t-86 9.5q-70 0 -134.5 -20.5t-117.5 -61.5t-90 -102.5t-55 -145.5l-50 -232h209l-39 -186h-626zM123 -373l160 264h278l-248 -264h-190z" />
<glyph unicode="&#x158;" d="M-49 0l276 1305h430q215 0 312.5 -98.5t58.5 -291.5q-18 -86 -59 -151.5t-99.5 -112.5t-129 -74.5t-148.5 -37.5l260 -539h-262l-228 528h-94l-110 -528h-207zM309 715h223q115 0 191 50t98 153q21 100 -33.5 150t-169.5 50h-223zM399 1669l103 101l201 -207l284 205 l60 -103l-392 -313z" />
<glyph unicode="&#x159;" d="M-98 0l39 186h211l118 559h-211l39 187h418l-49 -234q80 140 192.5 198t249.5 58q43 0 88 -9t84 -32l-120 -202q-33 18 -70 27.5t-86 9.5q-70 0 -134.5 -20.5t-117.5 -61.5t-90 -102.5t-55 -145.5l-50 -232h209l-39 -186h-626zM319 1298l103 101l201 -207l284 205 l60 -103l-392 -313z" />
<glyph unicode="&#x15a;" d="M-72 0l90 426h187q-15 -64 -2.5 -113t42 -82.5t75 -51t100.5 -17.5q92 0 158.5 43t87.5 137q10 49 -0.5 84t-37 62.5t-69.5 48t-96 43.5q-68 24 -132.5 54t-110.5 74t-67.5 108.5t-0.5 162.5q18 86 63 150.5t107.5 108.5t136 66.5t151.5 22.5q90 0 146.5 -38t79.5 -101 l24 117h187l-86 -406h-187q25 115 -22 179.5t-150 64.5q-90 0 -158.5 -42t-83.5 -118q-10 -39 0.5 -66.5t35 -50t65.5 -42t96 -42.5q68 -26 133.5 -59t113.5 -81t70.5 -116.5t2.5 -167.5q-21 -90 -66 -160.5t-108.5 -119.5t-141.5 -75t-160 -26q-92 0 -158.5 33t-103.5 109 l-24 -119h-187zM410 1489l463 287l79 -180l-485 -244z" />
<glyph unicode="&#x15b;" d="M-86 111l123 170q96 -64 182 -90.5t178 -26.5q125 0 187.5 26.5t72.5 73.5q5 23 -8.5 38t-47.5 27.5t-91 25t-145 26.5q-70 12 -130.5 29.5t-102.5 49.5t-61.5 81t-4.5 123q16 75 67 130.5t121 91.5t151.5 52t159.5 16q111 0 208 -28.5t163 -81.5l-117 -160 q-65 49 -136 66.5t-159 17.5q-37 0 -77.5 -4t-76.5 -15.5t-62.5 -31t-33.5 -47.5q-8 -37 52.5 -60.5t214.5 -46.5q84 -12 150.5 -30.5t110.5 -50t62.5 -81t1.5 -122.5q-18 -91 -71.5 -148t-125 -92t-154.5 -48.5t-159 -13.5q-127 0 -244.5 37t-197.5 97zM330 1118l463 287 l79 -180l-485 -244z" />
<glyph unicode="&#x15c;" d="M-72 0l90 426h187q-15 -64 -2.5 -113t42 -82.5t75 -51t100.5 -17.5q92 0 158.5 43t87.5 137q10 49 -0.5 84t-37 62.5t-69.5 48t-96 43.5q-68 24 -132.5 54t-110.5 74t-67.5 108.5t-0.5 162.5q18 86 63 150.5t107.5 108.5t136 66.5t151.5 22.5q90 0 146.5 -38t79.5 -101 l24 117h187l-86 -406h-187q25 115 -22 179.5t-150 64.5q-90 0 -158.5 -42t-83.5 -118q-10 -39 0.5 -66.5t35 -50t65.5 -42t96 -42.5q68 -26 133.5 -59t113.5 -81t70.5 -116.5t2.5 -167.5q-21 -90 -66 -160.5t-108.5 -119.5t-141.5 -75t-160 -26q-92 0 -158.5 33t-103.5 109 l-24 -119h-187zM354 1452l392 318l256 -314l-101 -102l-198 205l-291 -207z" />
<glyph unicode="&#x15d;" d="M-86 111l123 170q96 -64 182 -90.5t178 -26.5q125 0 187.5 26.5t72.5 73.5q5 23 -8.5 38t-47.5 27.5t-91 25t-145 26.5q-70 12 -130.5 29.5t-102.5 49.5t-61.5 81t-4.5 123q16 75 67 130.5t121 91.5t151.5 52t159.5 16q111 0 208 -28.5t163 -81.5l-117 -160 q-65 49 -136 66.5t-159 17.5q-37 0 -77.5 -4t-76.5 -15.5t-62.5 -31t-33.5 -47.5q-8 -37 52.5 -60.5t214.5 -46.5q84 -12 150.5 -30.5t110.5 -50t62.5 -81t1.5 -122.5q-18 -91 -71.5 -148t-125 -92t-154.5 -48.5t-159 -13.5q-127 0 -244.5 37t-197.5 97zM274 1081l392 318 l256 -314l-101 -102l-198 205l-291 -207z" />
<glyph unicode="&#x15e;" d="M-72 0l90 426h187q-15 -64 -2.5 -113t42 -82.5t75 -51t100.5 -17.5q92 0 158.5 43t87.5 137q10 49 -0.5 84t-37 62.5t-69.5 48t-96 43.5q-68 24 -132.5 54t-110.5 74t-67.5 108.5t-0.5 162.5q18 86 63 150.5t107.5 108.5t136 66.5t151.5 22.5q90 0 146.5 -38t79.5 -101 l24 117h187l-86 -406h-187q25 115 -22 179.5t-150 64.5q-90 0 -158.5 -42t-83.5 -118q-10 -39 0.5 -66.5t35 -50t65.5 -42t96 -42.5q68 -26 133.5 -59t113.5 -81t70.5 -116.5t2.5 -167.5q-17 -77 -55 -140.5t-89 -112t-113.5 -78t-132.5 -41.5l-6 -27q-14 -70 -51 -130 t-91 -104t-124 -70t-152 -26l39 178q88 0 138.5 40t64.5 112l6 27q-116 24 -172 133l-24 -119h-187z" />
<glyph unicode="&#x15f;" d="M-86 111l123 170q96 -64 182 -90.5t178 -26.5q125 0 187.5 26.5t72.5 73.5q5 23 -8.5 38t-47.5 27.5t-91 25t-145 26.5q-70 12 -130.5 29.5t-102.5 49.5t-61.5 81t-4.5 123q16 75 67 130.5t121 91.5t151.5 52t159.5 16q111 0 208 -28.5t163 -81.5l-117 -160 q-65 49 -136 66.5t-159 17.5q-37 0 -77.5 -4t-76.5 -15.5t-62.5 -31t-33.5 -47.5q-8 -37 52.5 -60.5t214.5 -46.5q84 -12 150.5 -30.5t110.5 -50t62.5 -81t1.5 -122.5q-14 -72 -51 -122.5t-89 -85t-113.5 -55t-125.5 -28.5l-6 -29q-14 -70 -51 -130t-91 -104t-124 -70 t-152 -26l39 178q88 0 138.5 40t64.5 112l4 21q-114 6 -218.5 40.5t-176.5 90.5z" />
<glyph unicode="&#x160;" d="M-72 0l90 426h187q-15 -64 -2.5 -113t42 -82.5t75 -51t100.5 -17.5q92 0 158.5 43t87.5 137q10 49 -0.5 84t-37 62.5t-69.5 48t-96 43.5q-68 24 -132.5 54t-110.5 74t-67.5 108.5t-0.5 162.5q18 86 63 150.5t107.5 108.5t136 66.5t151.5 22.5q90 0 146.5 -38t79.5 -101 l24 117h187l-86 -406h-187q25 115 -22 179.5t-150 64.5q-90 0 -158.5 -42t-83.5 -118q-10 -39 0.5 -66.5t35 -50t65.5 -42t96 -42.5q68 -26 133.5 -59t113.5 -81t70.5 -116.5t2.5 -167.5q-21 -90 -66 -160.5t-108.5 -119.5t-141.5 -75t-160 -26q-92 0 -158.5 33t-103.5 109 l-24 -119h-187zM399 1669l103 101l201 -207l284 205l60 -103l-392 -313z" />
<glyph unicode="&#x161;" d="M-86 111l123 170q96 -64 182 -90.5t178 -26.5q125 0 187.5 26.5t72.5 73.5q5 23 -8.5 38t-47.5 27.5t-91 25t-145 26.5q-70 12 -130.5 29.5t-102.5 49.5t-61.5 81t-4.5 123q16 75 67 130.5t121 91.5t151.5 52t159.5 16q111 0 208 -28.5t163 -81.5l-117 -160 q-65 49 -136 66.5t-159 17.5q-37 0 -77.5 -4t-76.5 -15.5t-62.5 -31t-33.5 -47.5q-8 -37 52.5 -60.5t214.5 -46.5q84 -12 150.5 -30.5t110.5 -50t62.5 -81t1.5 -122.5q-18 -91 -71.5 -148t-125 -92t-154.5 -48.5t-159 -13.5q-127 0 -244.5 37t-197.5 97zM319 1298l103 101 l201 -207l284 205l60 -103l-392 -313z" />
<glyph unicode="&#x162;" d="M57 0l39 186h207l199 932h-178l-62 -289h-184l100 476h930l-100 -476h-185l62 289h-176l-199 -932h207l-39 -186h-621zM123 -373l160 264h278l-248 -264h-190z" />
<glyph unicode="&#x163;" d="M59 745l39 187h211l80 373h207l-80 -373h391l-39 -187h-391l-86 -403q-18 -90 16.5 -134t106.5 -44q88 0 141.5 51t77.5 123l172 -41q-47 -147 -164.5 -233.5t-267.5 -86.5q-82 0 -143.5 27t-99 75t-50 115.5t3.5 147.5l86 403h-211zM123 -373l160 264h278l-248 -264 h-190z" />
<glyph unicode="&#x164;" d="M57 0l39 186h207l199 932h-178l-62 -289h-184l100 476h930l-100 -476h-185l62 289h-176l-199 -932h207l-39 -186h-621zM399 1669l103 101l201 -207l284 205l60 -103l-392 -313z" />
<glyph unicode="&#x165;" d="M59 745l39 187h211l80 373h207l-80 -373h391l-39 -187h-391l-86 -403q-18 -90 16.5 -134t106.5 -44q88 0 141.5 51t77.5 123l172 -41q-47 -147 -164.5 -233.5t-267.5 -86.5q-82 0 -143.5 27t-99 75t-50 115.5t3.5 147.5l86 403h-211zM885 1118l117 557h245l-200 -557 h-162z" />
<glyph unicode="&#x166;" d="M57 0l39 186h207l82 385h-176l37 174h176l80 373h-178l-62 -289h-184l100 476h930l-100 -476h-185l62 289h-176l-80 -373h176l-37 -174h-176l-82 -385h207l-39 -186h-621z" />
<glyph unicode="&#x167;" d="M-18 385l38 174h211l39 186h-211l39 187h211l80 373h207l-80 -373h391l-39 -187h-391l-39 -186h209l-39 -174h-209l-8 -43q-18 -90 16.5 -134t106.5 -44q88 0 141.5 51t77.5 123l172 -41q-47 -147 -164.5 -233.5t-267.5 -86.5q-82 0 -143.5 27t-99 75t-50 115.5 t3.5 147.5l9 43h-211z" />
<glyph unicode="&#x168;" d="M31 265q-6 91 18 202l178 838h207l-178 -840q-10 -49 -14 -101.5t7 -97.5t48 -73.5t104 -28.5q68 0 115 28.5t80 72.5t51.5 97.5t28.5 102.5l178 840h207l-178 -840q-25 -111 -68 -201t-108.5 -153.5t-151.5 -98.5t-195 -35q-108 0 -178.5 35t-107.5 98.5t-43 154.5z M264 1479q68 94 148 148.5t172 54.5q49 0 79.5 -18.5t56.5 -40t51.5 -40t62.5 -18.5q51 0 93 31.5t87 89.5l106 -70q-67 -96 -147 -150.5t-172 -54.5q-49 0 -80 18.5t-56.5 40t-51 40t-62.5 18.5q-51 0 -93 -31.5t-87 -87.5z" />
<glyph unicode="&#x169;" d="M25 356l122 576h207l-123 -576q-22 -108 10.5 -150t110.5 -42q115 0 207 93t127 257l88 418h207l-197 -932h-206l49 233q-58 -120 -156 -188t-221 -68q-144 0 -204 93.5t-21 285.5zM184 1108q68 94 148 148.5t172 54.5q49 0 79.5 -18.5t56.5 -40t51.5 -40t62.5 -18.5 q51 0 93 31.5t87 89.5l106 -70q-67 -96 -147 -150.5t-172 -54.5q-49 0 -80 18.5t-56.5 40t-51 40t-62.5 18.5q-51 0 -93 -31.5t-87 -87.5z" />
<glyph unicode="&#x16a;" d="M31 265q-6 91 18 202l178 838h207l-178 -840q-10 -49 -14 -101.5t7 -97.5t48 -73.5t104 -28.5q68 0 115 28.5t80 72.5t51.5 97.5t28.5 102.5l178 840h207l-178 -840q-25 -111 -68 -201t-108.5 -153.5t-151.5 -98.5t-195 -35q-108 0 -178.5 35t-107.5 98.5t-43 154.5z M389 1415l37 175h559l-37 -175h-559z" />
<glyph unicode="&#x16b;" d="M25 356l122 576h207l-123 -576q-22 -108 10.5 -150t110.5 -42q115 0 207 93t127 257l88 418h207l-197 -932h-206l49 233q-58 -120 -156 -188t-221 -68q-144 0 -204 93.5t-21 285.5zM309 1044l37 175h559l-37 -175h-559z" />
<glyph unicode="&#x16c;" d="M31 265q-6 91 18 202l178 838h207l-178 -840q-10 -49 -14 -101.5t7 -97.5t48 -73.5t104 -28.5q68 0 115 28.5t80 72.5t51.5 97.5t28.5 102.5l178 840h207l-178 -840q-25 -111 -68 -201t-108.5 -153.5t-151.5 -98.5t-195 -35q-108 0 -178.5 35t-107.5 98.5t-43 154.5z M369 1538l145 119q74 -94 187 -94q112 0 227 94l96 -119q-164 -135 -356 -135q-193 0 -299 135z" />
<glyph unicode="&#x16d;" d="M25 356l122 576h207l-123 -576q-22 -108 10.5 -150t110.5 -42q115 0 207 93t127 257l88 418h207l-197 -932h-206l49 233q-58 -120 -156 -188t-221 -68q-144 0 -204 93.5t-21 285.5zM289 1167l145 119q74 -94 187 -94q112 0 227 94l96 -119q-164 -135 -356 -135 q-193 0 -299 135z" />
<glyph unicode="&#x16e;" d="M31 265q-6 91 18 202l178 838h207l-178 -840q-10 -49 -14 -101.5t7 -97.5t48 -73.5t104 -28.5q68 0 115 28.5t80 72.5t51.5 97.5t28.5 102.5l178 840h207l-178 -840q-25 -111 -68 -201t-108.5 -153.5t-151.5 -98.5t-195 -35q-108 0 -178.5 35t-107.5 98.5t-43 154.5z M488.5 1540q-9.5 41 1.5 88q10 48 35.5 88.5t63.5 71.5t82 48.5t91 17.5t85 -17.5t61.5 -48.5t32.5 -71.5t-1 -88.5q-10 -47 -35.5 -88t-63.5 -71.5t-82 -48t-91 -17.5t-85 17.5t-61.5 48t-33 71.5zM623 1628q-8 -38 12 -65t59 -27t72 27t41 65q8 39 -12.5 66t-59.5 27 t-71.5 -27t-40.5 -66z" />
<glyph unicode="&#x16f;" d="M25 356l122 576h207l-123 -576q-22 -108 10.5 -150t110.5 -42q115 0 207 93t127 257l88 418h207l-197 -932h-206l49 233q-58 -120 -156 -188t-221 -68q-144 0 -204 93.5t-21 285.5zM408.5 1169q-9.5 41 1.5 88q10 48 35.5 88.5t63.5 71.5t82 48.5t91 17.5t85 -17.5 t61.5 -48.5t32.5 -71.5t-1 -88.5q-10 -47 -35.5 -88t-63.5 -71.5t-82 -48t-91 -17.5t-85 17.5t-61.5 48t-33 71.5zM543 1257q-8 -38 12 -65t59 -27t72 27t41 65q8 39 -12.5 66t-59.5 27t-71.5 -27t-40.5 -66z" />
<glyph unicode="&#x170;" d="M31 265q-6 91 18 202l178 838h207l-178 -840q-10 -49 -14 -101.5t7 -97.5t48 -73.5t104 -28.5q68 0 115 28.5t80 72.5t51.5 97.5t28.5 102.5l178 840h207l-178 -840q-25 -111 -68 -201t-108.5 -153.5t-151.5 -98.5t-195 -35q-108 0 -178.5 35t-107.5 98.5t-43 154.5z M354 1395l220 375h217l-267 -375h-170zM725 1395l221 375h217l-266 -375h-172z" />
<glyph unicode="&#x171;" d="M25 356l122 576h207l-123 -576q-22 -108 10.5 -150t110.5 -42q115 0 207 93t127 257l88 418h207l-197 -932h-206l49 233q-58 -120 -156 -188t-221 -68q-144 0 -204 93.5t-21 285.5zM274 1024l220 375h217l-267 -375h-170zM645 1024l221 375h217l-266 -375h-172z" />
<glyph unicode="&#x172;" d="M31 265q-6 91 18 202l178 838h207l-178 -840q-10 -49 -14 -101.5t7 -97.5t48 -73.5t104 -28.5q68 0 115 28.5t80 72.5t51.5 97.5t28.5 102.5l178 840h207l-178 -840q-39 -180 -129 -301t-234 -164q-49 -43 -61 -104q-15 -64 22 -95.5t101 -31.5l-31 -148 q-135 0 -200.5 59.5t-41.5 178.5q15 65 62 118h-11q-108 0 -178.5 35t-107.5 98.5t-43 154.5z" />
<glyph unicode="&#x173;" d="M25 356l122 576h207l-123 -576q-22 -108 10.5 -150t110.5 -42q115 0 207 93t127 257l88 418h207l-197 -932q-49 -43 -61 -104q-14 -64 22.5 -95.5t100.5 -31.5l-31 -148q-135 0 -200.5 59.5t-41.5 178.5q9 41 31.5 76.5t52.5 64.5h-79l49 233q-58 -120 -156 -188 t-221 -68q-144 0 -204 93.5t-21 285.5z" />
<glyph unicode="&#x174;" d="M41 0l74 1305h215l-66 -879l201 506h199l-15 -506l309 879h216l-480 -1305h-213l4 563l-231 -563h-213zM354 1452l392 318l256 -314l-101 -102l-198 205l-291 -207z" />
<glyph unicode="&#x175;" d="M12 0l58 932h202l-49 -623l232 623h219l-31 -623l213 623h203l-336 -932h-256l20 561l-219 -561h-256zM274 1081l392 318l256 -314l-101 -102l-198 205l-291 -207z" />
<glyph unicode="&#x176;" d="M55 0l39 186h209l74 346l-164 586h-94l39 187h411l-39 -187h-90l84 -383l246 383h-90l39 187h411l-38 -187h-95l-413 -586l-74 -346h209l-39 -186h-625zM354 1452l392 318l256 -314l-101 -102l-198 205l-291 -207z" />
<glyph unicode="&#x177;" d="M-174 -358l82 190q39 -16 73.5 -22.5t63.5 -6.5q92 0 145 82l56 90l-154 957h215l107 -705l387 705h221l-637 -1114q-72 -121 -167 -166t-214 -45q-41 0 -86 8t-92 27zM274 1081l392 318l256 -314l-101 -102l-198 205l-291 -207z" />
<glyph unicode="&#x178;" d="M55 0l39 186h209l74 346l-164 586h-94l39 187h411l-39 -187h-90l84 -383l246 383h-90l39 187h411l-38 -187h-95l-413 -586l-74 -346h209l-39 -186h-625zM359 1424l53 252h252l-54 -252h-251zM731 1424l54 252h251l-53 -252h-252z" />
<glyph unicode="&#x179;" d="M-49 0l39 184l782 934h-397l-62 -284h-186l100 471h817l-38 -187l-766 -932h401l61 287h183l-101 -473h-833zM410 1489l463 287l79 -180l-485 -244z" />
<glyph unicode="&#x17a;" d="M-49 0l39 184l649 561h-348l-41 -188h-182l79 375h816l-39 -187l-652 -559h369l39 185h182l-78 -371h-833zM330 1118l463 287l79 -180l-485 -244z" />
<glyph unicode="&#x17b;" d="M-49 0l39 184l782 934h-397l-62 -284h-186l100 471h817l-38 -187l-766 -932h401l61 287h183l-101 -473h-833zM545 1424l53 252h252l-53 -252h-252z" />
<glyph unicode="&#x17c;" d="M-49 0l39 184l649 561h-348l-41 -188h-182l79 375h816l-39 -187l-652 -559h369l39 185h182l-78 -371h-833zM465 1053l53 252h252l-53 -252h-252z" />
<glyph unicode="&#x17d;" d="M-49 0l39 184l782 934h-397l-62 -284h-186l100 471h817l-38 -187l-766 -932h401l61 287h183l-101 -473h-833zM399 1669l103 101l201 -207l284 205l60 -103l-392 -313z" />
<glyph unicode="&#x17e;" d="M-49 0l39 184l649 561h-348l-41 -188h-182l79 375h816l-39 -187l-652 -559h369l39 185h182l-78 -371h-833zM319 1298l103 101l201 -207l284 205l60 -103l-392 -313z" />
<glyph unicode="&#x17f;" d="M57 0l39 186h207l119 559h-207l39 187h207q41 192 180 293.5t340 101.5q31 0 64.5 -3t66.5 -7l-39 -182q-57 6 -106 6q-80 0 -131.5 -11.5t-85 -37t-52 -65.5t-30.5 -95l-158 -746h213l-39 -186h-627z" />
<glyph unicode="&#x192;" d="M-180 -387l39 184q55 -6 104 -6q146 0 210.5 46t86.5 147l162 761h-207l39 187h207q41 192 180 293.5t340 101.5q31 0 64.5 -3t66.5 -7l-39 -182q-57 6 -106 6q-80 0 -131.5 -11.5t-85 -37t-52 -65.5t-30.5 -95h362l-39 -187h-362l-162 -761q-41 -191 -179 -285t-339 -94 q-31 0 -62.5 2t-66.5 6z" />
<glyph unicode="&#x1fc;" d="M-162 0l641 1305h631l-39 -187h-330l-77 -360h280l-39 -187h-280l-82 -385h329l-38 -186h-537l65 311h-169l-142 -311h-213zM274 494h127l109 516zM410 1493l463 287l79 -180l-485 -244z" />
<glyph unicode="&#x1fd;" d="M-69.5 148.5q-6.5 50.5 6.5 105.5q16 80 54 141.5t90 102.5t114.5 61.5t126.5 20.5q22 0 36.5 -1t36.5 -6l13 60q16 74 -5.5 105.5t-66.5 31.5q-35 0 -81 -18.5t-95 -77.5l-99 119q74 86 159 123.5t147 37.5q71 0 121.5 -28.5t58.5 -100.5q49 68 106.5 98.5t126.5 30.5 q94 0 136 -50t53.5 -130t-3 -181t-36.5 -206h-387q-27 -125 -2.5 -172t69.5 -47q33 0 59.5 18.5t45.5 61.5l162 -58q-58 -108 -131.5 -160.5t-176.5 -52.5q-28 0 -58 7.5t-56.5 25t-47 47t-28.5 74.5q-53 -65 -113.5 -109.5t-140.5 -44.5q-62 0 -101.5 23t-63 60.5t-30 88z M141 264q-10 -51 5.5 -74.5t48.5 -23.5q55 0 95 49t54 115l12 61q-12 2 -25.5 3t-35.5 1q-49 0 -95 -34.5t-59 -96.5zM330 1120l463 287l79 -180l-485 -244zM582 569h180q20 119 7 160t-52 41q-43 0 -76 -45t-59 -156z" />
<glyph unicode="&#x1fe;" d="M-133 20l45 222l74 61q-13 78 -5.5 167t25.5 183q29 131 82 253t133 215t186.5 149.5t241.5 56.5q133 0 215 -52t123 -142l162 133l-47 -222l-74 -61q16 -152 -22 -330q-27 -131 -80.5 -252.5t-132 -216t-186 -151t-245.5 -56.5q-129 0 -209.5 48.5t-121.5 132.5z M186 471l625 514q-20 70 -67.5 113t-133.5 43q-143 0 -245.5 -129t-151.5 -359q-10 -47 -17.5 -92t-9.5 -90zM207 303q20 -63 66 -101t130 -38q89 0 153.5 43t112.5 112.5t79.5 157.5t50.5 176q10 41 15 80t9 80zM410 1493l463 287l79 -180l-485 -244z" />
<glyph unicode="&#x1ff;" d="M-102 -23l41 203l47 33q-19 53 -22 116.5t13 135.5q23 106 78.5 196.5t133 156t176 101t206.5 35.5q99 0 174.5 -30.5t128.5 -83.5l162 114l-43 -202l-47 -33q17 -55 20 -118.5t-12 -135.5q-24 -109 -77.5 -198t-131 -153.5t-175 -100.5t-208.5 -36q-100 0 -176.5 30 t-128.5 83zM178 348l512 363q-57 57 -160 57q-65 0 -122.5 -23.5t-102.5 -63.5t-76.5 -96.5t-44.5 -119.5q-14 -66 -6 -117zM238 219q28 -26 70 -40.5t95 -14.5q66 0 122.5 22.5t101.5 63.5t75.5 95t45.5 120q12 63 6 119zM330 1120l463 287l79 -180l-485 -244z" />
<glyph unicode="&#x218;" d="M-72 0l90 426h187q-15 -64 -2.5 -113t42 -82.5t75 -51t100.5 -17.5q92 0 158.5 43t87.5 137q10 49 -0.5 84t-37 62.5t-69.5 48t-96 43.5q-68 24 -132.5 54t-110.5 74t-67.5 108.5t-0.5 162.5q18 86 63 150.5t107.5 108.5t136 66.5t151.5 22.5q90 0 146.5 -38t79.5 -101 l24 117h187l-86 -406h-187q25 115 -22 179.5t-150 64.5q-90 0 -158.5 -42t-83.5 -118q-10 -39 0.5 -66.5t35 -50t65.5 -42t96 -42.5q68 -26 133.5 -59t113.5 -81t70.5 -116.5t2.5 -167.5q-21 -90 -66 -160.5t-108.5 -119.5t-141.5 -75t-160 -26q-92 0 -158.5 33t-103.5 109 l-24 -119h-187zM123 -373l160 264h278l-248 -264h-190z" />
<glyph unicode="&#x219;" d="M-86 111l123 170q96 -64 182 -90.5t178 -26.5q125 0 187.5 26.5t72.5 73.5q5 23 -8.5 38t-47.5 27.5t-91 25t-145 26.5q-70 12 -130.5 29.5t-102.5 49.5t-61.5 81t-4.5 123q16 75 67 130.5t121 91.5t151.5 52t159.5 16q111 0 208 -28.5t163 -81.5l-117 -160 q-65 49 -136 66.5t-159 17.5q-37 0 -77.5 -4t-76.5 -15.5t-62.5 -31t-33.5 -47.5q-8 -37 52.5 -60.5t214.5 -46.5q84 -12 150.5 -30.5t110.5 -50t62.5 -81t1.5 -122.5q-18 -91 -71.5 -148t-125 -92t-154.5 -48.5t-159 -13.5q-127 0 -244.5 37t-197.5 97zM123 -373l160 264 h278l-248 -264h-190z" />
<glyph unicode="&#x21a;" d="M57 0l39 186h207l199 932h-178l-62 -289h-184l100 476h930l-100 -476h-185l62 289h-176l-199 -932h207l-39 -186h-621zM123 -373l160 264h278l-248 -264h-190z" />
<glyph unicode="&#x21b;" d="M59 745l39 187h211l80 373h207l-80 -373h391l-39 -187h-391l-86 -403q-18 -90 16.5 -134t106.5 -44q88 0 141.5 51t77.5 123l172 -41q-47 -147 -164.5 -233.5t-267.5 -86.5q-82 0 -143.5 27t-99 75t-50 115.5t3.5 147.5l86 403h-211zM123 -373l160 264h278l-248 -264 h-190z" />
<glyph unicode="&#x2c6;" d="M274 1081l392 318l256 -314l-101 -102l-198 205l-291 -207z" />
<glyph unicode="&#x2c7;" d="M319 1298l103 101l201 -207l284 205l60 -103l-392 -313z" />
<glyph unicode="&#x2d8;" d="M289 1167l145 119q74 -94 187 -94q112 0 227 94l96 -119q-164 -135 -356 -135q-193 0 -299 135z" />
<glyph unicode="&#x2d9;" d="M465 1053l53 252h252l-53 -252h-252z" />
<glyph unicode="&#x2da;" d="M408.5 1169q-9.5 41 1.5 88q10 48 35.5 88.5t63.5 71.5t82 48.5t91 17.5t85 -17.5t61.5 -48.5t32.5 -71.5t-1 -88.5q-10 -47 -35.5 -88t-63.5 -71.5t-82 -48t-91 -17.5t-85 17.5t-61.5 48t-33 71.5zM543 1257q-8 -38 12 -65t59 -27t72 27t41 65q8 39 -12.5 66t-59.5 27 t-71.5 -27t-40.5 -66z" />
<glyph unicode="&#x2db;" d="M571 -141q15 65 60 116.5t98 79.5l53 -55q-49 -43 -61 -104q-14 -64 22.5 -95.5t100.5 -31.5l-31 -148q-135 0 -200.5 59.5t-41.5 178.5z" />
<glyph unicode="&#x2dc;" d="M184 1108q68 94 148 148.5t172 54.5q49 0 79.5 -18.5t56.5 -40t51.5 -40t62.5 -18.5q51 0 93 31.5t87 89.5l106 -70q-67 -96 -147 -150.5t-172 -54.5q-49 0 -80 18.5t-56.5 40t-51 40t-62.5 18.5q-51 0 -93 -31.5t-87 -87.5z" />
<glyph unicode="&#x2dd;" d="M274 1024l220 375h217l-267 -375h-170zM645 1024l221 375h217l-266 -375h-172z" />
<glyph unicode="&#x3a9;" d="M-98 0l39 186h213l10 45q-105 86 -131.5 223.5t4.5 286.5q24 113 78.5 219.5t133.5 187.5t180 130t220 49t199 -49t124 -130t53 -187.5t-15 -219.5q-31 -145 -112 -281t-224 -229l-10 -45h208l-38 -186h-373l76 358q59 25 104 67t78 94t53.5 110.5t30.5 111.5 q16 70 16 141.5t-21.5 129t-66.5 93.5t-121 36q-73 0 -133.5 -36t-106.5 -93.5t-78 -129t-48 -141.5q-11 -53 -15 -111.5t6.5 -110.5t37 -94t77.5 -67l-76 -358h-372z" />
<glyph unicode="&#x3c0;" d="M23 0q32 100 60 190.5t51.5 179.5t46 181t44.5 194h-166l39 187h932l-39 -187h-166l-102 -477q-10 -49 8.5 -78.5t69.5 -29.5q28 0 46.5 4t35.5 12l-11 -174q-47 -25 -129 -25q-141 0 -200.5 69t-26.5 222l102 477h-186q-20 -98 -42.5 -189t-47.5 -180t-52.5 -181.5 t-58.5 -194.5h-208z" />
<glyph unicode="&#x401;" d="M-49 0l276 1305h834l-39 -187h-627l-78 -360h490l-39 -187h-489l-82 -385h626l-39 -186h-833zM359 1424l53 252h252l-54 -252h-251zM731 1424l54 252h251l-53 -252h-252z" />
<glyph unicode="&#x402;" d="M-49 0l237 1118h-186l39 187h580l-39 -187h-187l-90 -420q57 121 155.5 188.5t221.5 67.5q143 0 203.5 -93t19.5 -286l-63 -299q-17 -81 -52.5 -138.5t-83 -92.5t-104.5 -51.5t-119 -16.5q-84 0 -116 25l63 178q12 -8 29.5 -12t46.5 -4q106 0 129 112l63 299 q23 109 -9 151t-109 42q-115 0 -207 -93t-127 -257l-88 -418h-207z" />
<glyph unicode="&#x403;" d="M-49 0l276 1305h834l-39 -187h-627l-237 -1118h-207zM410 1491l463 287l79 -180l-485 -244z" />
<glyph unicode="&#x404;" d="M-8.5 400.5q-1.5 121.5 26.5 252.5q19 87 48.5 171t70 159t93 138t117 108.5t140.5 71.5t164 26q43 0 84.5 -11t74.5 -33.5t54.5 -55.5t24.5 -76l33 154h187l-94 -444h-187q7 36 2.5 85.5t-28.5 92.5q-23 45 -66.5 73.5t-112.5 28.5q-74 0 -133 -31.5t-104.5 -85 t-78.5 -122.5t-56 -144h510l-40 -187h-511q-12 -79 -10.5 -152.5t23.5 -130t68 -90.5t124 -34q127 0 213 81q87 82 156 218l152 -64q-44 -96 -100.5 -174t-126 -133t-152.5 -85t-181 -30q-137 0 -220.5 56.5t-123 151t-41 216z" />
<glyph unicode="&#x405;" d="M-72 0l90 426h187q-15 -64 -2.5 -113t42 -82.5t75 -51t100.5 -17.5q92 0 158.5 43t87.5 137q10 49 -0.5 84t-37 62.5t-69.5 48t-96 43.5q-68 24 -132.5 54t-110.5 74t-67.5 108.5t-0.5 162.5q18 86 63 150.5t107.5 108.5t136 66.5t151.5 22.5q90 0 146.5 -38t79.5 -101 l24 117h187l-86 -406h-187q25 115 -22 179.5t-150 64.5q-90 0 -158.5 -42t-83.5 -118q-10 -39 0.5 -66.5t35 -50t65.5 -42t96 -42.5q68 -26 133.5 -59t113.5 -81t70.5 -116.5t2.5 -167.5q-21 -90 -66 -160.5t-108.5 -119.5t-141.5 -75t-160 -26q-92 0 -158.5 33t-103.5 109 l-24 -119h-187z" />
<glyph unicode="&#x406;" d="M57 0l39 186h207l199 932h-207l39 187h627l-39 -187h-213l-199 -932h213l-39 -186h-627z" />
<glyph unicode="&#x407;" d="M57 0l39 186h207l199 932h-207l39 187h627l-39 -187h-213l-199 -932h213l-39 -186h-627zM359 1424l53 252h252l-54 -252h-251zM731 1424l54 252h251l-53 -252h-252z" />
<glyph unicode="&#x408;" d="M-29 342l201 70q4 -117 56.5 -182.5t162.5 -65.5q68 0 116 27.5t83 73.5t56.5 106.5t35.5 126.5l172 807h207l-172 -807q-53 -248 -187.5 -384.5t-351.5 -136.5q-174 0 -272 91.5t-107 273.5z" />
<glyph unicode="&#x409;" d="M-281 2l68 170q10 -4 25.5 -6t27.5 -2q97 0 119 112l219 1029h580l-113 -529h49q189 0 273 -95t43 -292q-41 -192 -166 -290.5t-314 -98.5h-256l238 1118h-166l-180 -842q-16 -81 -50 -138.5t-77 -92.5t-93 -51.5t-102 -16.5q-49 0 -76.5 7.5t-48.5 17.5zM520 186h51 q86 0 147.5 50.5t84.5 150.5q20 102 -20 152.5t-126 50.5h-51z" />
<glyph unicode="&#x40a;" d="M-98 0l276 1305h207l-113 -529h166l113 529h207l-113 -529h49q189 0 273 -95t43 -292q-41 -192 -166 -290.5t-314 -98.5h-256l125 590h-166l-124 -590h-207zM520 186h51q86 0 147.5 50.5t84.5 150.5q20 102 -20 152.5t-126 50.5h-51z" />
<glyph unicode="&#x40b;" d="M-49 0l237 1118h-186l39 187h580l-39 -187h-187l-90 -420q57 121 155.5 188.5t221.5 67.5q143 0 203.5 -93t19.5 -286l-121 -575h-206l120 575q23 109 -9 151t-109 42q-115 0 -207 -93t-127 -257l-88 -418h-207z" />
<glyph unicode="&#x40c;" d="M-49 0l276 1305h207l-108 -512l514 512h266l-569 -541l290 -764h-241l-213 608l-109 -102l-106 -506h-207zM410 1491l463 287l79 -180l-485 -244z" />
<glyph unicode="&#x40e;" d="M-96 12l84 191q39 -17 73.5 -23t63.5 -6q92 0 143 84l58 90l-154 957h215l107 -705l387 705h221l-639 -1115q-70 -120 -166 -166.5t-215 -46.5q-41 0 -86 8.5t-92 26.5zM369 1540l145 119q74 -94 187 -94q112 0 227 94l96 -119q-164 -135 -356 -135q-193 0 -299 135z" />
<glyph unicode="&#x40f;" d="M-49 0l276 1305h207l-237 -1119h419l238 1119h207l-277 -1305h-313l-70 -319h-206l69 319h-313z" />
<glyph unicode="&#x410;" d="M-158 0l684 1305h238l131 -1305h-217l-29 311h-432l-158 -311h-217zM311 494h322l-45 538z" />
<glyph unicode="&#x411;" d="M-49 0l276 1305h834l-39 -187h-627l-73 -342h225q213 0 311 -95t57 -292q-41 -192 -180 -290.5t-354 -98.5h-430zM197 186h225q113 0 188.5 50.5t98.5 150.5q20 102 -34 152.5t-167 50.5h-225z" />
<glyph unicode="&#x412;" d="M-49 0l276 1305h394q81 0 157 -13.5t130.5 -50.5t80 -103.5t2.5 -172.5q-22 -99 -89.5 -181t-176.5 -118q117 -39 163 -109t19 -199q-39 -178 -178 -268t-362 -90h-416zM197 186h209q122 0 201 47.5t100 145.5q20 98 -38.5 145t-181.5 47h-208zM317 758h187q43 0 86 6 t81 25.5t67.5 55.5t41.5 93q13 57 -1.5 93t-44 55.5t-69.5 25.5t-83 6h-187z" />
<glyph unicode="&#x413;" d="M-49 0l276 1305h834l-39 -187h-627l-237 -1118h-207z" />
<glyph unicode="&#x414;" d="M-166 -319l107 505q67 45 112 90.5t83 127t75 218t86 361.5l68 322h593l-237 -1119h151l-108 -505h-186l69 319h-559l-70 -319h-184zM174 186h340l199 932h-181l-28 -135q-39 -176 -70 -302t-65.5 -218t-80.5 -157.5t-114 -119.5z" />
<glyph unicode="&#x415;" d="M-49 0l276 1305h834l-39 -187h-627l-78 -360h490l-39 -187h-489l-82 -385h626l-39 -186h-833z" />
<glyph unicode="&#x416;" d="M-207 0l486 737l-209 568h206l154 -519l111 519h207l-111 -519l375 519h207l-451 -568l174 -737h-201l-114 578l-47 -60l-109 -518h-207l109 518l-23 60l-356 -578h-201z" />
<glyph unicode="&#x417;" d="M14 410l200 32q-17 -129 41 -204q58 -74 175 -74q99 0 168 52q71 52 90 138q22 107 -45.5 162t-220.5 55l40 187q67 0 122.5 13.5t98.5 40t71 66t40 92.5q7 36 1.5 67.5t-24.5 54.5t-52.5 36t-80.5 13q-62 0 -113.5 -21.5t-92 -59.5t-68 -89t-39.5 -109h-187l94 443h187 l-33 -154q21 43 56.5 76t78.5 55.5t89.5 33.5t89.5 11q76 0 138.5 -25.5t104.5 -72t58.5 -112.5t-0.5 -147q-13 -60 -41.5 -111.5t-69.5 -90t-94 -62.5t-113 -28q65 -6 111.5 -35t73 -73t33 -100t-5.5 -116q-19 -86 -68.5 -155.5t-118.5 -118.5t-151 -76t-166 -27 q-94 0 -171 25.5t-128 78.5t-72.5 134.5t-5.5 194.5z" />
<glyph unicode="&#x418;" d="M-49 0l276 1305h207l-190 -899l557 899h260l-277 -1305h-206l200 946l-588 -946h-239z" />
<glyph unicode="&#x419;" d="M-49 0l276 1305h207l-190 -899l557 899h260l-277 -1305h-206l200 946l-588 -946h-239zM369 1538l145 119q74 -94 187 -94q112 0 227 94l96 -119q-164 -135 -356 -135q-193 0 -299 135z" />
<glyph unicode="&#x41a;" d="M-49 0l276 1305h207l-108 -512l514 512h266l-569 -541l290 -764h-241l-213 608l-109 -102l-106 -506h-207z" />
<glyph unicode="&#x41b;" d="M-190 2l63 178q12 -8 28.5 -12t45.5 -4q106 0 129 112l219 1029h766l-277 -1305h-206l237 1118h-352l-180 -842q-17 -81 -52.5 -138.5t-83 -92.5t-104.5 -51.5t-119 -16.5q-82 0 -114 25z" />
<glyph unicode="&#x41c;" d="M-49 0l276 1305h246l45 -590l295 590h248l-277 -1305h-206l186 883l-232 -469h-159l-29 469l-186 -883h-207z" />
<glyph unicode="&#x41d;" d="M-49 0l276 1305h207l-117 -547h420l117 547h207l-277 -1305h-206l120 571h-419l-121 -571h-207z" />
<glyph unicode="&#x41e;" d="M-20 400.5q0 121.5 26 252.5q29 131 82 253t133 215t186.5 149.5t241.5 56.5t219 -56.5t124 -149.5t41 -215t-27 -253q-27 -131 -80.5 -252.5t-132 -216t-186 -151t-245.5 -56.5q-137 0 -220 56.5t-122.5 151t-39.5 216zM189.5 477q-5.5 -88 12 -157.5t65.5 -112.5 t136 -43q89 0 153.5 43t112.5 112.5t79.5 157.5t50.5 176q18 88 24 175t-12 157t-66.5 113t-134.5 43q-143 0 -245.5 -129t-151.5 -359q-18 -88 -23.5 -176z" />
<glyph unicode="&#x41f;" d="M-49 0l276 1305h834l-277 -1305h-206l237 1118h-420l-237 -1118h-207z" />
<glyph unicode="&#x420;" d="M-49 0l276 1305h430q215 0 312.5 -98.5t58.5 -291.5q-43 -196 -182 -291.5t-352 -95.5h-226l-110 -528h-207zM309 715h226q112 0 188 50t98 153q21 100 -33.5 150t-166.5 50h-226z" />
<glyph unicode="&#x421;" d="M-8 400.5q0 121.5 26 252.5q29 131 81.5 253t132 215t183 149.5t236.5 56.5q43 0 85 -11t75 -33.5t54.5 -55.5t25.5 -76l33 154h186l-104 -494h-187q12 61 9 120.5t-25.5 105.5t-66.5 75t-111 29q-88 0 -153.5 -43t-114 -113t-81 -157t-51.5 -175q-18 -88 -23 -176 t12 -157.5t66.5 -112.5t137.5 -43q127 0 212 81t156 218l152 -64q-45 -96 -101.5 -174t-126 -133t-152.5 -85t-181 -30q-137 0 -220 56.5t-124 151t-41 216z" />
<glyph unicode="&#x422;" d="M57 0l39 186h207l199 932h-178l-62 -289h-184l100 476h930l-100 -476h-185l62 289h-176l-199 -932h207l-39 -186h-621z" />
<glyph unicode="&#x423;" d="M-96 12l84 191q39 -17 73.5 -23t63.5 -6q92 0 143 84l58 90l-154 957h215l107 -705l387 705h221l-639 -1115q-70 -120 -166 -166.5t-215 -46.5q-41 0 -86 8.5t-92 26.5z" />
<glyph unicode="&#x424;" d="M23 666q18 94 62 174t107.5 142t143.5 104t170 59l35 160h204l-32 -158q84 -17 146.5 -57.5t100 -104t48 -144.5t-8.5 -175q-20 -97 -65 -177.5t-109.5 -142t-145.5 -103.5t-171 -57l-39 -186h-205l39 186q-170 33 -245.5 161t-34.5 319zM229 666q-22 -103 6.5 -178.5 t108.5 -106.5l121 569q-92 -30 -153.5 -107t-82.5 -177zM549 379q92 31 156.5 106.5t87.5 180.5q20 102 -11.5 179t-111.5 107z" />
<glyph unicode="&#x425;" d="M-121 0l39 186h113l354 473l-152 459h-94l39 187h414l-39 -187h-84l72 -289l196 289h-82l39 187h416l-39 -187h-100l-348 -459l153 -473h117l-39 -186h-426l39 186h74l-76 295l-199 -295h74l-39 -186h-422z" />
<glyph unicode="&#x426;" d="M-49 0l276 1305h207l-237 -1119h419l238 1119h207l-238 -1119h172l-108 -505h-187l70 319h-819z" />
<glyph unicode="&#x427;" d="M104 729l123 576h207l-123 -576q-22 -108 9.5 -150t109.5 -42q115 0 208 93t128 257l88 418h207l-277 -1305h-206l127 606q-56 -121 -154 -188.5t-221 -67.5q-144 0 -205.5 93.5t-20.5 285.5z" />
<glyph unicode="&#x428;" d="M-119 0l277 1305h207l-238 -1119h176l238 1119h207l-238 -1119h176l238 1119h206l-276 -1305h-973z" />
<glyph unicode="&#x429;" d="M-119 0l277 1305h207l-238 -1119h176l238 1119h207l-238 -1119h176l238 1119h206l-237 -1119h166l-109 -505h-186l70 319h-953z" />
<glyph unicode="&#x42a;" d="M68 0l237 1118h-166l39 187h373l-113 -529h158q190 0 275 -95t44 -292q-41 -192 -166.5 -290.5t-318.5 -98.5h-362zM313 186h162q86 0 148.5 50.5t85.5 150.5q20 102 -21 152.5t-127 50.5h-162z" />
<glyph unicode="&#x42b;" d="M-119 0l277 1305h207l-113 -529h49q188 0 272 -95t43 -292q-41 -192 -165.5 -290.5t-313.5 -98.5h-256zM127 186h51q86 0 147.5 50.5t84.5 150.5q20 102 -20 152.5t-126 50.5h-51zM647 0l277 1305h206l-276 -1305h-207z" />
<glyph unicode="&#x42c;" d="M-49 0l276 1305h207l-112 -529h225q213 0 311 -95t57 -292q-41 -192 -180 -290.5t-354 -98.5h-430zM197 186h225q113 0 188.5 50.5t98.5 150.5q20 102 -34 152.5t-167 50.5h-225z" />
<glyph unicode="&#x42d;" d="M-35 399l180 64q11 -136 64 -218q50 -81 177 -81q78 0 139 34t107 90.5t78.5 130t54.5 152.5h-511l40 187h510q9 75 5 144t-26.5 122.5t-68.5 85t-120 31.5q-69 0 -124.5 -28.5t-98.5 -73.5q-42 -43 -67.5 -92.5t-32.5 -85.5h-187l94 444h187l-33 -154q21 43 56.5 76 t78.5 55.5t89.5 33.5t89.5 11q88 0 153 -26t109.5 -71.5t70 -108.5t35 -138t3 -159t-25.5 -171q-28 -131 -80.5 -252.5t-132 -216t-187 -151t-244.5 -56.5q-98 0 -169 30t-116.5 85t-69 133t-27.5 174z" />
<glyph unicode="&#x42e;" d="M-119 0l277 1305h207l-117 -547h166q143 569 424 569q305 0 161 -676q-143 -674 -448 -674q-287 0 -178 594h-164l-121 -571h-207zM540 297.5q-3 -64.5 9 -99t43 -34.5q29 0 55.5 34.5t51 99t48 155t46.5 198.5q22 109 37.5 199t17.5 154.5t-9.5 100.5t-39.5 36 q-31 0 -58.5 -36t-51 -100.5t-47.5 -154.5t-46 -199q-23 -108 -38 -198.5t-18 -155z" />
<glyph unicode="&#x42f;" d="M-117 0l486 539q-74 10 -132.5 37.5t-96.5 74.5t-50 112.5t6 151.5q39 193 179.5 291.5t355.5 98.5h430l-277 -1305h-206l110 528h-94l-449 -528h-262zM303 918q-22 -103 33 -153t170 -50h223l86 403h-223q-115 0 -191.5 -50t-97.5 -150z" />
<glyph unicode="&#x430;" d="M-47 268q18 82 75.5 143.5t137.5 102.5t176 61.5t193 20.5q53 0 91 -2t76 -6l7 37q16 73 -33 109t-141 36q-84 0 -175.5 -23.5t-179.5 -68.5l-49 162q102 53 215 83.5t229 30.5q76 0 146 -17t120 -56t71.5 -101.5t0.5 -154.5l-131 -625h-204l28 137q-65 -76 -169.5 -118 t-215.5 -42q-67 0 -123.5 18.5t-92.5 55.5t-51 91.5t-1 125.5zM160 279q-25 -117 153 -117q62 0 118 15.5t103.5 43t79 66.5t41.5 86l9 35q-48 8 -91 9t-75 1q-152 0 -238 -40t-100 -99z" />
<glyph unicode="&#x431;" d="M39 651q33 150 90 274t134 213t166 139t185 50q48 0 76.5 -9t51 -21.5t42 -21.5t50.5 -9q40 0 72 14t79 47l66 -137q-47 -45 -116 -78t-140 -33q-47 0 -75 9.5t-48.5 21.5t-41 21.5t-55.5 9.5q-47 0 -92 -23.5t-86 -74t-75.5 -129t-57.5 -191.5q58 92 138.5 140t164.5 48 q99 0 176.5 -29.5t127 -88t65.5 -145.5t-8 -204q-23 -98 -75 -184t-127 -148.5t-167 -98.5t-190 -36q-236 0 -320 164t-10 510zM215 444q-29 -127 23.5 -203.5t169.5 -76.5q110 0 197 76.5t116 203.5q27 129 -24.5 205t-170.5 76q-127 0 -205.5 -76t-105.5 -205z" />
<glyph unicode="&#x432;" d="M-49 0l196 932h484q63 0 124.5 -9.5t106.5 -36t65.5 -74.5t4.5 -124q-14 -70 -70.5 -126t-154.5 -83q112 -16 155 -73.5t23 -149.5q-27 -127 -133.5 -191.5t-280.5 -64.5h-520zM197 186h313q74 0 120 25t56 76q10 49 -25.5 73.5t-109.5 24.5h-313zM279 571h278 q27 0 53.5 3.5t50 13.5t39 28.5t21.5 47.5q8 30 -1 48.5t-26.5 29t-44 13.5t-53.5 3h-279z" />
<glyph unicode="&#x433;" d="M-49 0l196 932h883l-37 -174h-676l-159 -758h-207z" />
<glyph unicode="&#x434;" d="M-166 -319l107 505q63 31 107 71t78 101.5t60.5 149.5t53.5 211l45 213h594l-158 -746h151l-108 -505h-186l69 319h-559l-70 -319h-184zM174 186h340l121 572h-180l-17 -80q-12 -57 -31.5 -129t-49 -141.5t-74.5 -129t-109 -92.5z" />
<glyph unicode="&#x435;" d="M-24.5 267q-20.5 89 4.5 198q22 106 76.5 195.5t133 155t177 102t206.5 36.5q113 0 196 -38.5t133 -111.5t64.5 -178.5t-12.5 -238.5h-780q-6 -96 57.5 -159.5t192.5 -63.5q100 0 181 31.5t145 83.5l75 -146q-108 -90 -215.5 -123t-226.5 -33q-109 0 -194 36t-139 100.5 t-74.5 153.5zM221 569h539q2 90 -63.5 144.5t-164.5 54.5q-98 0 -187 -54.5t-124 -144.5z" />
<glyph unicode="&#x436;" d="M-207 0l420 524l-223 408h227l170 -348l74 348h207l-74 -348l328 348h217l-396 -408l199 -524h-211l-145 385l-43 -43l-72 -342h-207l72 342l-27 43l-295 -385h-221z" />
<glyph unicode="&#x437;" d="M-63 176l184 109q18 -54 83.5 -87.5t164.5 -33.5q114 0 191 31.5t89 85.5q8 38 -38 71t-150 33h-149l41 186h147q104 0 161.5 27t65.5 61q10 50 -50.5 79.5t-170.5 29.5q-191 0 -291 -119l-129 105q82 100 193.5 150t265.5 50q96 0 175 -19.5t131 -55t75.5 -88 t11.5 -115.5q-14 -68 -79.5 -127.5t-166.5 -75.5q88 -18 131 -77.5t29 -131.5q-14 -67 -61.5 -120.5t-118 -90.5t-159.5 -56.5t-189 -19.5q-160 0 -253.5 49.5t-133.5 149.5z" />
<glyph unicode="&#x438;" d="M-49 0l196 932h207l-135 -641l502 641h260l-197 -932h-206l143 678l-531 -678h-239z" />
<glyph unicode="&#x439;" d="M-49 0l196 932h207l-135 -641l502 641h260l-197 -932h-206l143 678l-531 -678h-239zM289 1167l145 119q74 -94 187 -94q112 0 227 94l96 -119q-164 -135 -356 -135q-193 0 -299 135z" />
<glyph unicode="&#x43a;" d="M-49 0l196 932h207l-84 -395l457 395h285l-520 -428l339 -504h-268l-231 377l-115 -96l-59 -281h-207z" />
<glyph unicode="&#x43b;" d="M-190 2l63 178q12 -8 28.5 -12t45.5 -4q106 0 129 112l139 656h766l-197 -932h-206l157 745h-352l-100 -469q-17 -81 -52.5 -138.5t-83 -92.5t-104.5 -51.5t-119 -16.5q-82 0 -114 25z" />
<glyph unicode="&#x43c;" d="M-49 0l196 932h246l80 -422l260 422h248l-197 -932h-206l133 631l-203 -336h-160l-57 336l-133 -631h-207z" />
<glyph unicode="&#x43d;" d="M-49 0l196 932h207l-75 -361h419l76 361h207l-197 -932h-206l79 385h-419l-80 -385h-207z" />
<glyph unicode="&#x43e;" d="M-28.5 267q-16.5 89 8.5 198q22 106 76.5 196.5t132 156t176 101t206.5 35.5q111 0 193 -35.5t133 -101t66.5 -156t-7.5 -196.5q-24 -109 -77.5 -198t-131 -153.5t-176 -100.5t-209.5 -36q-108 0 -190 36t-133 100.5t-67.5 153.5zM180 345q8 -54 35 -95t75 -63.5 t113 -22.5q66 0 122.5 22.5t102.5 63.5t76.5 95t45.5 120q12 63 5 119.5t-36 96.5t-76 63.5t-113 23.5q-65 0 -122.5 -23.5t-101.5 -63.5t-75.5 -96.5t-44.5 -119.5q-14 -66 -6 -120z" />
<glyph unicode="&#x43f;" d="M-49 0l196 932h834l-197 -932h-206l157 745h-420l-157 -745h-207z" />
<glyph unicode="&#x440;" d="M-127 -373l274 1305h207l-18 -84q72 53 138.5 79.5t143.5 26.5q91 0 159.5 -36.5t110.5 -101t54 -155t-10 -196.5q-23 -107 -74 -197t-119.5 -154.5t-153.5 -100.5t-175 -36q-78 0 -132.5 28t-103.5 81l-96 -459h-205zM209 250q29 -41 82 -63.5t106 -22.5q117 0 208 83 t120 218t-27.5 219t-173.5 84q-53 0 -114.5 -21.5t-108.5 -62.5z" />
<glyph unicode="&#x441;" d="M-27.5 264q-17.5 90 7.5 201q22 106 77.5 196.5t129 155t163.5 101t182 36.5q97 0 158.5 -40t77.5 -117l29 135h184l-92 -434h-184q26 123 -26 196.5t-161 73.5q-43 0 -93 -17.5t-98 -54.5t-86 -94t-55 -137q-16 -78 -3.5 -134.5t45 -93t85 -55t111.5 -18.5 q100 0 181 31.5t145 83.5l75 -146q-108 -90 -214.5 -123t-223.5 -33t-205 35t-140 98.5t-69.5 153.5z" />
<glyph unicode="&#x442;" d="M-2 457l100 475h930l-100 -475h-185l62 288h-176l-119 -559h207l-39 -186h-621l39 186h207l119 559h-178l-62 -288h-184z" />
<glyph unicode="&#x443;" d="M-174 -360l82 190q39 -16 73.5 -22.5t63.5 -6.5q92 0 145 84l56 90l-154 957h215l107 -705l387 705h221l-637 -1114q-72 -121 -168 -167t-215 -46q-41 0 -85 8t-91 27z" />
<glyph unicode="&#x444;" d="M-56 253q-1 91 25 214q27 123 67 214t88 151.5t102.5 91t109.5 30.5q41 0 72.5 -21.5t40.5 -64.5l92 437h207l-93 -437q25 43 67 64.5t83 21.5q55 0 95 -30.5t63.5 -91t24.5 -151.5t-25 -214q-27 -123 -67 -214t-88 -152.5t-102.5 -92.5t-109.5 -31q-41 0 -72.5 21.5 t-40.5 64.5l-92 -436h-207l92 436q-24 -43 -66 -64.5t-83 -21.5q-55 0 -95 31t-63.5 92.5t-24.5 152.5zM152.5 317.5q-5.5 -59.5 2 -96.5t24 -52t38.5 -15q23 0 45.5 13t46.5 50l107 498q-8 37 -25.5 50t-40.5 13q-22 0 -45.5 -15t-45 -51t-43 -96.5t-40.5 -148.5 q-18 -90 -23.5 -149.5zM516 217q8 -37 24.5 -50t39.5 -13q22 0 46.5 15t46 52t43 96.5t40.5 149.5q18 88 23 148.5t-2 96.5t-24.5 51t-39.5 15q-23 0 -44.5 -13t-45.5 -50z" />
<glyph unicode="&#x445;" d="M-119 0l39 186h135l271 287l-142 272h-125l39 187h420l-39 -187h-65l73 -180l154 180h-74l39 187h424l-39 -187h-121l-256 -272l148 -287h133l-39 -186h-442l39 186h82l-86 195l-166 -195h75l-39 -186h-438z" />
<glyph unicode="&#x446;" d="M-49 0l196 932h207l-157 -746h419l158 746h207l-158 -746h172l-108 -505h-187l70 319h-819z" />
<glyph unicode="&#x447;" d="M66 543l81 389h207l-82 -389q-22 -109 9.5 -151t109.5 -42q115 0 207 93.5t127 256.5l49 232h207l-197 -932h-206l88 420q-56 -121 -154 -188.5t-221 -67.5q-144 0 -205 93t-20 286z" />
<glyph unicode="&#x448;" d="M-98 0l196 932h207l-158 -746h156l158 746h207l-158 -746h156l157 746h207l-196 -932h-932z" />
<glyph unicode="&#x449;" d="M-98 0l196 932h207l-158 -746h156l158 746h207l-158 -746h156l157 746h207l-158 -746h187l-109 -505h-186l70 319h-932z" />
<glyph unicode="&#x44a;" d="M59 745l39 187h373l-76 -361h219q160 0 235 -70.5t44 -213.5q-29 -142 -134.5 -214.5t-266.5 -72.5h-424l157 745h-166zM313 186h219q62 0 103 25t51 74q10 51 -20.5 75.5t-92.5 24.5h-219z" />
<glyph unicode="&#x44b;" d="M-119 0l197 932h207l-76 -361h106q160 0 235 -70.5t44 -213.5q-29 -142 -134.5 -214.5t-266.5 -72.5h-312zM127 186h106q62 0 103 25t51 74q10 51 -20.5 75.5t-92.5 24.5h-106zM647 0l197 932h207l-197 -932h-207z" />
<glyph unicode="&#x44c;" d="M-49 0l196 932h207l-75 -361h335q160 0 235 -70.5t44 -213.5q-29 -142 -134.5 -214.5t-266.5 -72.5h-541zM197 186h335q62 0 103 25t51 74q10 51 -20.5 75.5t-92.5 24.5h-335z" />
<glyph unicode="&#x44d;" d="M-57 133l137 146q43 -52 111.5 -83.5t168.5 -31.5q103 0 197 53t141 168h-444l41 186h436q-8 99 -76.5 148t-167.5 49q-100 0 -181 -31.5t-146 -83.5l-76 146q111 90 217.5 122.5t222.5 32.5q117 0 204 -34.5t140.5 -99t69.5 -155t-6 -200.5q-25 -111 -79 -201 t-135 -153.5t-183.5 -98.5t-219.5 -35q-116 0 -208.5 33t-163.5 123z" />
<glyph unicode="&#x44e;" d="M-119 0l197 932h207l-76 -361h168q112 383 383 383q305 0 201 -489q-105 -488 -410 -488q-279 0 -217 408h-166l-80 -385h-207zM529 247q1 -83 63 -83q59 0 96 83t66 218q14 67 21 122.5t5 95.5t-17 62.5t-44 22.5q-31 0 -54.5 -22.5t-43 -62.5t-35 -95.5t-29.5 -122.5 q-29 -135 -28 -218z" />
<glyph unicode="&#x44f;" d="M-111 0l422 360q-157 2 -230 73t-44 212q31 141 136.5 214t266.5 73h541l-197 -932h-206l75 360h-84l-403 -360h-277zM246 647q-13 -51 18 -75.5t92 -24.5h336l43 198h-336q-61 0 -102 -24.5t-51 -73.5z" />
<glyph unicode="&#x451;" d="M-24.5 267q-20.5 89 4.5 198q22 106 76.5 195.5t133 155t177 102t206.5 36.5q113 0 196 -38.5t133 -111.5t64.5 -178.5t-12.5 -238.5h-780q-6 -96 57.5 -159.5t192.5 -63.5q100 0 181 31.5t145 83.5l75 -146q-108 -90 -215.5 -123t-226.5 -33q-109 0 -194 36t-139 100.5 t-74.5 153.5zM221 569h539q2 90 -63.5 144.5t-164.5 54.5q-98 0 -187 -54.5t-124 -144.5zM279 1053l53 252h252l-54 -252h-251zM651 1053l54 252h251l-53 -252h-252z" />
<glyph unicode="&#x452;" d="M-49 0l196 932h-186l41 186h186l39 187h207l-39 -187h117l-41 -186h-117l-49 -234q57 121 155.5 188.5t221.5 67.5q143 0 203.5 -93t19.5 -286l-141 -671q-19 -82 -54.5 -139.5t-82.5 -92t-104.5 -51t-119.5 -16.5q-84 0 -116 24l65 178q13 -8 29 -12t45 -4 q106 0 131 113l141 671q23 109 -9 151t-109 42q-115 0 -207 -93t-127 -257l-88 -418h-207z" />
<glyph unicode="&#x453;" d="M-49 0l196 932h883l-37 -174h-676l-159 -758h-207zM330 1118l463 287l79 -180l-485 -244z" />
<glyph unicode="&#x454;" d="M-7.5 264q-17.5 90 7.5 201q23 110 78 200.5t135 155t183.5 99t219.5 34.5q117 0 209.5 -32.5t161.5 -122.5l-137 -146q-41 52 -109.5 83.5t-169.5 31.5q-98 0 -187 -49t-140 -148h438l-41 -186h-444q2 -57 20.5 -98t51 -69t78.5 -41t97 -13q101 0 182 31.5t144 83.5 l76 -146q-109 -90 -215.5 -123t-222.5 -33q-117 0 -205 35t-140.5 98.5t-70 153.5z" />
<glyph unicode="&#x455;" d="M-86 111l123 170q96 -64 182 -90.5t178 -26.5q125 0 187.5 26.5t72.5 73.5q5 23 -8.5 38t-47.5 27.5t-91 25t-145 26.5q-70 12 -130.5 29.5t-102.5 49.5t-61.5 81t-4.5 123q16 75 67 130.5t121 91.5t151.5 52t159.5 16q111 0 208 -28.5t163 -81.5l-117 -160 q-65 49 -136 66.5t-159 17.5q-37 0 -77.5 -4t-76.5 -15.5t-62.5 -31t-33.5 -47.5q-8 -37 52.5 -60.5t214.5 -46.5q84 -12 150.5 -30.5t110.5 -50t62.5 -81t1.5 -122.5q-18 -91 -71.5 -148t-125 -92t-154.5 -48.5t-159 -13.5q-127 0 -244.5 37t-197.5 97z" />
<glyph unicode="&#x456;" d="M57 0l39 186h207l119 559h-207l39 187h414l-158 -746h213l-39 -186h-627zM465 1053l53 252h252l-53 -252h-252z" />
<glyph unicode="&#x457;" d="M57 0l39 186h207l119 559h-207l39 187h414l-158 -746h213l-39 -186h-627zM279 1053l53 252h252l-54 -252h-251zM651 1053l54 252h251l-53 -252h-252z" />
<glyph unicode="&#x458;" d="M-147 -236l149 138q37 -56 84 -83.5t115 -27.5q104 0 166.5 57.5t83.5 151.5l157 745h-211l39 187h418l-197 -932q-20 -90 -65 -163t-110.5 -125t-147.5 -79.5t-174 -27.5q-213 0 -307 159zM651 1053l54 252h251l-53 -252h-252z" />
<glyph unicode="&#x459;" d="M-281 2l68 170q10 -4 25.5 -6t27.5 -2q97 0 119 112l139 656h580l-76 -361h107q159 0 234 -70.5t44 -213.5q-29 -142 -134 -214.5t-267 -72.5h-312l158 745h-166l-100 -469q-16 -81 -50 -138.5t-77 -92.5t-93 -51.5t-102 -16.5q-49 0 -76.5 7.5t-48.5 17.5zM520 186h107 q61 0 102 25t51 74q11 51 -20 75.5t-92 24.5h-107z" />
<glyph unicode="&#x45a;" d="M-98 0l196 932h207l-76 -361h166l76 361h207l-76 -361h107q159 0 234 -70.5t44 -213.5q-29 -142 -134 -214.5t-267 -72.5h-312l80 385h-166l-79 -385h-207zM520 186h107q61 0 102 25t51 74q11 51 -20 75.5t-92 24.5h-107z" />
<glyph unicode="&#x45b;" d="M-49 0l196 932h-186l41 186h186l39 187h207l-39 -187h117l-41 -186h-117l-49 -234q57 121 155.5 188.5t221.5 67.5q143 0 203.5 -93t19.5 -286l-121 -575h-206l120 575q23 109 -9 151t-109 42q-115 0 -207 -93t-127 -257l-88 -418h-207z" />
<glyph unicode="&#x45c;" d="M-49 0l196 932h207l-84 -395l457 395h285l-520 -428l339 -504h-268l-231 377l-115 -96l-59 -281h-207zM330 1118l463 287l79 -180l-485 -244z" />
<glyph unicode="&#x45e;" d="M-174 -360l82 190q39 -16 73.5 -22.5t63.5 -6.5q92 0 145 84l56 90l-154 957h215l107 -705l387 705h221l-637 -1114q-72 -121 -168 -167t-215 -46q-41 0 -85 8t-91 27zM289 1167l145 119q74 -94 187 -94q112 0 227 94l96 -119q-164 -135 -356 -135q-193 0 -299 135z" />
<glyph unicode="&#x45f;" d="M-49 0l196 932h207l-157 -746h419l158 746h207l-197 -932h-313l-70 -319h-206l69 319h-313z" />
<glyph unicode="&#x490;" d="M-49 0l276 1305h697l39 186h186l-78 -373h-676l-237 -1118h-207z" />
<glyph unicode="&#x491;" d="M-49 0l196 932h697l41 186h186l-80 -373h-676l-157 -745h-207z" />
<glyph unicode="&#x1e02;" d="M-49 0l276 1305h394q81 0 157 -13.5t130.5 -50.5t80 -103.5t2.5 -172.5q-22 -99 -89.5 -181t-176.5 -118q117 -39 163 -109t19 -199q-39 -178 -178 -268t-362 -90h-416zM197 186h209q122 0 201 47.5t100 145.5q20 98 -38.5 145t-181.5 47h-208zM317 758h187q43 0 86 6 t81 25.5t67.5 55.5t41.5 93q13 57 -1.5 93t-44 55.5t-69.5 25.5t-83 6h-187zM545 1424l53 252h252l-53 -252h-252z" />
<glyph unicode="&#x1e03;" d="M-49 0l276 1305h207l-98 -457q72 53 138.5 79.5t143.5 26.5q91 0 159.5 -36.5t110.5 -101t54 -155t-10 -196.5q-23 -107 -74 -197t-119.5 -154.5t-153.5 -100.5t-175 -36q-78 0 -132.5 28t-103.5 81l-16 -86h-207zM209 248q29 -41 82 -62.5t106 -21.5q117 0 208 83 t120 218t-27.5 219t-173.5 84q-53 0 -114.5 -21.5t-108.5 -62.5zM545 1424l53 252h252l-53 -252h-252z" />
<glyph unicode="&#x1e0a;" d="M-49 0l276 1305h424q133 0 217 -53.5t125 -142.5t45 -207t-24 -249q-27 -131 -80 -249.5t-132 -208t-185.5 -142.5t-241.5 -53h-424zM197 186h217q141 0 243.5 122t149.5 345q49 226 -2 345.5t-193 119.5h-217zM545 1424l53 252h252l-53 -252h-252z" />
<glyph unicode="&#x1e0b;" d="M-12.5 268q-12.5 90 10.5 197q22 106 73.5 196.5t120 155t153.5 101t175 36.5q78 0 133.5 -26.5t102.5 -79.5l59 270h-180l39 187h387l-277 -1305h-206l16 86q-70 -53 -137.5 -81t-145.5 -28q-90 0 -158.5 36t-110.5 100.5t-54.5 154.5zM205 465q-29 -135 27.5 -218 t173.5 -83q53 0 115.5 21.5t107.5 62.5l92 436q-27 41 -81 62.5t-108 21.5q-116 0 -207.5 -84t-119.5 -219zM545 1424l53 252h252l-53 -252h-252z" />
<glyph unicode="&#x1e1e;" d="M-49 0l276 1305h834l-39 -187h-627l-78 -360h490l-39 -187h-489l-121 -571h-207zM545 1424l53 252h252l-53 -252h-252z" />
<glyph unicode="&#x1e1f;" d="M57 0l39 186h207l119 559h-207l39 187h207q41 192 180 293.5t340 101.5q31 0 64.5 -3t66.5 -7l-39 -182q-57 6 -106 6q-80 0 -131.5 -11.5t-85 -37t-52 -65.5t-30.5 -95h362l-39 -187h-362l-119 -559h213l-39 -186h-627zM545 1424l53 252h252l-53 -252h-252z" />
<glyph unicode="&#x1e40;" d="M-49 0l276 1305h246l45 -590l295 590h248l-277 -1305h-206l186 883l-232 -469h-159l-29 469l-186 -883h-207zM545 1424l53 252h252l-53 -252h-252z" />
<glyph unicode="&#x1e41;" d="M-98 0l196 932h209l-28 -135q38 77 90.5 117t124.5 40q59 0 91.5 -36.5t32.5 -100.5q52 70 97 103.5t123 33.5q96 0 132 -70.5t5 -213.5l-141 -670h-207l135 639q14 66 7 97.5t-42 31.5q-61 0 -92 -69.5t-60 -202.5l-104 -496h-207l135 639q15 66 6.5 97.5t-43.5 31.5 q-61 0 -90.5 -69.5t-58.5 -202.5l-104 -496h-207zM465 1053l53 252h252l-53 -252h-252z" />
<glyph unicode="&#x1e56;" d="M-49 0l276 1305h430q215 0 312.5 -98.5t58.5 -291.5q-43 -196 -182 -291.5t-352 -95.5h-226l-110 -528h-207zM309 715h226q112 0 188 50t98 153q21 100 -33.5 150t-166.5 50h-226zM545 1424l53 252h252l-53 -252h-252z" />
<glyph unicode="&#x1e57;" d="M-127 -373l274 1305h207l-18 -84q72 53 138.5 79.5t143.5 26.5q91 0 159.5 -36.5t110.5 -101t54 -155t-10 -196.5q-23 -107 -74 -197t-119.5 -154.5t-153.5 -100.5t-175 -36q-78 0 -132.5 28t-103.5 81l-96 -459h-205zM209 250q29 -41 82 -63.5t106 -22.5q117 0 208 83 t120 218t-27.5 219t-173.5 84q-53 0 -114.5 -21.5t-108.5 -62.5zM465 1053l53 252h252l-53 -252h-252z" />
<glyph unicode="&#x1e60;" d="M-72 0l90 426h187q-15 -64 -2.5 -113t42 -82.5t75 -51t100.5 -17.5q92 0 158.5 43t87.5 137q10 49 -0.5 84t-37 62.5t-69.5 48t-96 43.5q-68 24 -132.5 54t-110.5 74t-67.5 108.5t-0.5 162.5q18 86 63 150.5t107.5 108.5t136 66.5t151.5 22.5q90 0 146.5 -38t79.5 -101 l24 117h187l-86 -406h-187q25 115 -22 179.5t-150 64.5q-90 0 -158.5 -42t-83.5 -118q-10 -39 0.5 -66.5t35 -50t65.5 -42t96 -42.5q68 -26 133.5 -59t113.5 -81t70.5 -116.5t2.5 -167.5q-21 -90 -66 -160.5t-108.5 -119.5t-141.5 -75t-160 -26q-92 0 -158.5 33t-103.5 109 l-24 -119h-187zM545 1424l53 252h252l-53 -252h-252z" />
<glyph unicode="&#x1e61;" d="M-86 111l123 170q96 -64 182 -90.5t178 -26.5q125 0 187.5 26.5t72.5 73.5q5 23 -8.5 38t-47.5 27.5t-91 25t-145 26.5q-70 12 -130.5 29.5t-102.5 49.5t-61.5 81t-4.5 123q16 75 67 130.5t121 91.5t151.5 52t159.5 16q111 0 208 -28.5t163 -81.5l-117 -160 q-65 49 -136 66.5t-159 17.5q-37 0 -77.5 -4t-76.5 -15.5t-62.5 -31t-33.5 -47.5q-8 -37 52.5 -60.5t214.5 -46.5q84 -12 150.5 -30.5t110.5 -50t62.5 -81t1.5 -122.5q-18 -91 -71.5 -148t-125 -92t-154.5 -48.5t-159 -13.5q-127 0 -244.5 37t-197.5 97zM465 1053l53 252 h252l-53 -252h-252z" />
<glyph unicode="&#x1e6a;" d="M57 0l39 186h207l199 932h-178l-62 -289h-184l100 476h930l-100 -476h-185l62 289h-176l-199 -932h207l-39 -186h-621zM545 1424l53 252h252l-53 -252h-252z" />
<glyph unicode="&#x1e6b;" d="M59 745l39 187h211l80 373h207l-80 -373h391l-39 -187h-391l-86 -403q-18 -90 16.5 -134t106.5 -44q88 0 141.5 51t77.5 123l172 -41q-47 -147 -164.5 -233.5t-267.5 -86.5q-82 0 -143.5 27t-99 75t-50 115.5t3.5 147.5l86 403h-211zM545 1424l53 252h252l-53 -252h-252z " />
<glyph unicode="&#x1e80;" d="M41 0l74 1305h215l-66 -879l201 506h199l-15 -506l309 879h216l-480 -1305h-213l4 563l-231 -563h-213zM469 1596l154 180l344 -287l-119 -137z" />
<glyph unicode="&#x1e81;" d="M12 0l58 932h202l-49 -623l232 623h219l-31 -623l213 623h203l-336 -932h-256l20 561l-219 -561h-256zM389 1225l154 180l344 -287l-119 -137z" />
<glyph unicode="&#x1e82;" d="M41 0l74 1305h215l-66 -879l201 506h199l-15 -506l309 879h216l-480 -1305h-213l4 563l-231 -563h-213zM410 1489l463 287l79 -180l-485 -244z" />
<glyph unicode="&#x1e83;" d="M12 0l58 932h202l-49 -623l232 623h219l-31 -623l213 623h203l-336 -932h-256l20 561l-219 -561h-256zM330 1118l463 287l79 -180l-485 -244z" />
<glyph unicode="&#x1e84;" d="M41 0l74 1305h215l-66 -879l201 506h199l-15 -506l309 879h216l-480 -1305h-213l4 563l-231 -563h-213zM359 1422l53 252h252l-54 -252h-251zM731 1422l54 252h251l-53 -252h-252z" />
<glyph unicode="&#x1e85;" d="M12 0l58 932h202l-49 -623l232 623h219l-31 -623l213 623h203l-336 -932h-256l20 561l-219 -561h-256zM279 1053l53 252h252l-54 -252h-251zM651 1053l54 252h251l-53 -252h-252z" />
<glyph unicode="&#x1ef2;" d="M55 0l39 186h209l74 346l-164 586h-94l39 187h411l-39 -187h-90l84 -383l246 383h-90l39 187h411l-38 -187h-95l-413 -586l-74 -346h209l-39 -186h-625zM469 1596l154 180l344 -287l-119 -137z" />
<glyph unicode="&#x1ef3;" d="M-174 -358l82 190q39 -16 73.5 -22.5t63.5 -6.5q92 0 145 82l56 90l-154 957h215l107 -705l387 705h221l-637 -1114q-72 -121 -167 -166t-214 -45q-41 0 -86 8t-92 27zM389 1225l154 180l344 -287l-119 -137z" />
<glyph unicode="&#x2000;" horiz-adv-x="927" />
<glyph unicode="&#x2001;" horiz-adv-x="1854" />
<glyph unicode="&#x2002;" horiz-adv-x="927" />
<glyph unicode="&#x2003;" horiz-adv-x="1854" />
<glyph unicode="&#x2004;" horiz-adv-x="618" />
<glyph unicode="&#x2005;" horiz-adv-x="463" />
<glyph unicode="&#x2006;" horiz-adv-x="309" />
<glyph unicode="&#x2007;" horiz-adv-x="309" />
<glyph unicode="&#x2008;" horiz-adv-x="231" />
<glyph unicode="&#x2009;" horiz-adv-x="370" />
<glyph unicode="&#x200a;" horiz-adv-x="103" />
<glyph unicode="&#x2010;" d="M-16 385l38 187h932l-39 -187h-931z" />
<glyph unicode="&#x2011;" d="M-16 385l38 187h932l-39 -187h-931z" />
<glyph unicode="&#x2012;" d="M-16 385l38 187h932l-39 -187h-931z" />
<glyph unicode="&#x2013;" d="M-18 385l41 186h931l-41 -186h-931z" />
<glyph unicode="&#x2014;" d="M-109 385l39 186h1119l-41 -186h-1117z" />
<glyph unicode="&#x2015;" d="M-16 385l38 187h932l-39 -187h-931z" />
<glyph unicode="&#x2018;" d="M418 680l57 266q14 70 46 134.5t87.5 114.5t133 80t182.5 30l-37 -172q-60 0 -103 -13.5t-71.5 -38t-46 -58.5t-25.5 -77l-4 -14h207l-53 -252h-373z" />
<glyph unicode="&#x2019;" d="M231 680l37 172q119 0 174.5 51t71.5 135l4 15h-207l54 252h372l-57 -267q-14 -69 -46 -133.5t-87 -115t-133 -80t-183 -29.5z" />
<glyph unicode="&#x201a;" d="M380 -373l37 172q119 0 174.5 51t71.5 135l4 15h-207l54 252h372l-57 -267q-14 -69 -46 -133.5t-87 -115t-133 -80t-183 -29.5z" />
<glyph unicode="&#x201c;" d="M45 680l57 266q15 70 46.5 134.5t87 114.5t133 80t182.5 30l-37 -172q-59 0 -102 -13.5t-72 -38t-46.5 -58.5t-25.5 -77l-4 -14h207l-53 -252h-373zM604 680l58 266q14 70 45.5 134.5t87 114.5t133.5 80t182 30l-37 -172q-59 0 -102 -13.5t-72 -38t-46 -58.5t-26 -77 l-4 -14h207l-53 -252h-373z" />
<glyph unicode="&#x201d;" d="M45 680l37 172q119 0 174 51t72 135l4 15h-207l53 252h373l-57 -267q-15 -69 -46.5 -133.5t-87 -115t-133 -80t-182.5 -29.5zM604 680l37 172q119 0 174 51t72 135l4 15h-207l53 252h373l-57 -267q-15 -69 -46.5 -133.5t-87 -115t-133 -80t-182.5 -29.5z" />
<glyph unicode="&#x201e;" d="M-178 -373l37 172q119 0 174 51t72 135l4 15h-207l53 252h373l-57 -267q-15 -69 -46.5 -133.5t-87 -115t-133 -80t-182.5 -29.5zM381 -373l37 172q119 0 174 51t72 135l4 15h-207l53 252h373l-57 -267q-15 -69 -46.5 -133.5t-87 -115t-133 -80t-182.5 -29.5z" />
<glyph unicode="&#x2020;" d="M252 907l37 174l233 -14l37 238h172l-63 -238l241 14l-37 -174l-235 15l-105 -549h-172l132 549z" />
<glyph unicode="&#x2021;" d="M145 410l37 172l236 -13l74 353l-240 -15l37 174l233 -14l37 238h172l-63 -238l241 14l-37 -174l-235 15l-74 -353l240 13l-37 -172l-236 14l-36 -238h-172l63 238z" />
<glyph unicode="&#x2022;" d="M203.5 413.5q-15.5 67.5 3.5 145.5q14 76 59 144.5t105.5 118.5t134.5 80t151 30q76 0 138.5 -30t102.5 -80t54.5 -118.5t-0.5 -144.5q-18 -78 -62 -145.5t-104.5 -117.5t-135.5 -80t-150 -30q-78 0 -139.5 30t-101.5 80t-55.5 117.5z" />
<glyph unicode="&#x2026;" d="M-131 0l53 252h252l-53 -252h-252zM242 0l53 252h252l-53 -252h-252zM614 0l54 252h252l-54 -252h-252z" />
<glyph unicode="&#x202f;" horiz-adv-x="370" />
<glyph unicode="&#x2030;" d="M-119 27l850 1316l135 -69l-852 -1313zM94 974q-2 46 10 99q11 51 32.5 98.5t53 81t73.5 54t95 20.5q54 0 87.5 -20.5t51 -54t18.5 -81t-9 -98.5q-12 -53 -32.5 -99t-52.5 -80t-74 -54.5t-95 -20.5t-87 20.5t-51.5 54.5t-19.5 80zM232 132q-1 46 12 99q10 52 31.5 99 t53 80.5t73.5 54t96 20.5q53 0 86.5 -20.5t51 -54t18.5 -80.5t-9 -99q-12 -53 -33.5 -99t-53.5 -80t-74 -54.5t-95 -20.5t-87 20.5t-51.5 54.5t-18.5 80zM251 995.5q9 -24.5 32 -24.5q22 0 42.5 24.5t32.5 79.5q13 55 2.5 80t-32.5 25q-23 0 -42.5 -25t-31.5 -80t-3 -79.5z M390 155.5q9 -24.5 32 -24.5q22 0 42.5 24.5t33.5 80.5q12 55 1.5 79.5t-32.5 24.5q-23 0 -42 -24.5t-32 -79.5q-12 -56 -3 -80.5zM654 132q-1 46 12 99q10 52 31.5 99t53 80.5t73.5 54t96 20.5q53 0 86.5 -20.5t51 -54t18.5 -80.5t-9 -99q-12 -53 -33.5 -99t-53.5 -80 t-74 -54.5t-95 -20.5t-87 20.5t-51.5 54.5t-18.5 80zM812 155.5q9 -24.5 32 -24.5q22 0 42.5 24.5t33.5 80.5q12 55 1.5 79.5t-32.5 24.5q-23 0 -42.5 -24.5t-31.5 -79.5q-12 -56 -3 -80.5z" />
<glyph unicode="&#x2039;" d="M238 651l393 330l94 -121l-248 -209l160 -207l-145 -120z" />
<glyph unicode="&#x203a;" d="M287 444l245 207l-157 209l143 121l254 -330l-393 -327z" />
<glyph unicode="&#x2044;" d="M-106 47l1114 1303l114 -93l-1112 -1298z" />
<glyph unicode="&#x205f;" horiz-adv-x="463" />
<glyph unicode="&#x20ac;" d="M-14 397l37 174h151q2 21 6 40.5t8 41.5q5 21 9 40.5t12 39.5h-152l37 174h172q35 88 83 165t108.5 134.5t132.5 89t155 31.5q82 0 139.5 -30.5t93.5 -86t51 -133.5t15 -174l-190 -37q6 140 -23.5 207.5t-121.5 67.5q-80 0 -138.5 -67.5t-99.5 -166.5h182l-37 -174h-200 q-8 -20 -12.5 -39.5t-8.5 -40.5q-4 -22 -8 -41.5t-6 -40.5h201l-37 -174h-183q-2 -100 29 -166.5t111 -66.5q90 0 147.5 67.5t114.5 204.5l174 -37q-41 -96 -89 -174t-108.5 -133t-130 -85t-151.5 -30q-84 0 -142.5 32t-95.5 88.5t-52 133t-11 166.5h-172z" />
<glyph unicode="&#x2122;" d="M195 1378l22 113h465l-23 -113h-176l-96 -446h-113l97 446h-176zM659 932l119 559h158l51 -328l191 328h159l-118 -559h-111l84 393l-203 -334h-78l-57 334l-84 -393h-111z" />
<glyph unicode="&#x2202;" d="M-45 354q22 103 88 183.5t167 142t235.5 103.5t293.5 67q-47 104 -149.5 172t-243.5 125l100 180q125 -53 235 -121.5t184.5 -163t104 -218.5t-4.5 -287q-27 -129 -85.5 -232.5t-141.5 -176.5t-187.5 -112t-224.5 -39q-205 0 -307.5 96.5t-63.5 280.5zM162 354 q-19 -92 35.5 -141t169.5 -49q139 0 245.5 96t145.5 277q16 71 16 133q-260 -23 -422 -105t-190 -211z" />
<glyph unicode="&#x2206;" d="M-158 0l684 1305h238l131 -1305h-1053zM154 184h508l-74 848z" />
<glyph unicode="&#x220f;" d="M78 0l237 1118h-176l39 187h932l-39 -187h-176l-238 -1118h-206l237 1118h-166l-237 -1118h-207z" />
<glyph unicode="&#x2211;" d="M-55 0l39 186l393 465l-195 467l39 187h840l-94 -441h-187l56 254h-402l187 -467l-385 -465h401l53 256h187l-93 -442h-839z" />
<glyph unicode="&#x221a;" d="M57 725l191 49l20 -469l383 813h420l-41 -186h-270l-447 -932h-221z" />
<glyph unicode="&#x221e;" d="M-10.5 369q-8.5 45 2.5 96q10 51 38.5 96.5t67.5 78t85 51t97 18.5q78 0 126.5 -35t82.5 -125q72 90 137.5 125t137.5 35q49 0 89 -18.5t65.5 -51t33.5 -78t-2 -96.5t-37.5 -96t-65.5 -78t-86 -52t-100 -19q-71 0 -122.5 33.5t-85.5 123.5q-72 -88 -134.5 -122.5 t-140.5 -34.5q-49 0 -88 19t-65.5 52t-35 78zM127 465q-10 -47 13.5 -79.5t72.5 -32.5q98 0 174 112q-29 111 -125 111q-45 0 -85 -32t-50 -79zM555 465q27 -112 125 -112q49 0 87 32.5t48 79.5t-15.5 79t-70.5 32q-98 0 -174 -111z" />
<glyph unicode="&#x222b;" d="M-180 -387l39 184q55 -6 104 -6q146 0 210.5 46t86.5 147l281 1325q41 190 180 285.5t340 95.5q31 0 62.5 -3.5t66.5 -7.5l-39 -182q-57 6 -104 6q-148 0 -212.5 -46t-86.5 -148l-281 -1325q-41 -191 -179 -285t-339 -94q-31 0 -62.5 2t-66.5 6z" />
<glyph unicode="&#x2248;" d="M-115 193q84 119 185.5 188.5t218.5 69.5q61 0 101 -23.5t71.5 -51t64.5 -51.5t80 -24q66 0 119 41t108 113l136 -88q-86 -123 -186.5 -191.5t-217.5 -68.5q-61 0 -101 22.5t-73 50t-65.5 51t-79.5 23.5q-66 0 -118 -39t-108 -110zM-37 564q86 118 186.5 188t217.5 70 q61 0 101 -23.5t71.5 -51.5t65.5 -51.5t81 -23.5q66 0 118 41t109 113l133 -88q-84 -123 -185 -191.5t-218 -68.5q-61 0 -101 22.5t-72 50t-64.5 51t-79.5 23.5q-66 0 -118 -39t-110 -110z" />
<glyph unicode="&#x2260;" d="M-57 199l41 186h333l129 187h-424l39 186h514l131 186h173l-132 -186h246l-39 -186h-336l-129 -187h426l-41 -186h-514l-129 -186h-172l129 186h-245z" />
<glyph unicode="&#x2264;" d="M49 -186l39 186h491l-376 480l620 512l92 -121l-473 -391l307 -392l-106 -88h190l-38 -186h-746z" />
<glyph unicode="&#x2265;" d="M49 -186l39 186h188l-67 88l475 392l-309 391l145 121l404 -512l-582 -480h491l-38 -186h-746z" />
<glyph unicode="&#x25ca;" d="M-18 467l587 485l381 -485l-585 -483zM174 467l232 -291l350 291l-228 291z" />
<glyph unicode="&#x25fc;" horiz-adv-x="930" d="M0 0v930h930v-930h-930z" />
<glyph unicode="&#xf8ff;" d="M22.5 416.5q-8.5 107.5 10.5 199.5q16 74 52 149t87 134t119.5 97t152.5 38q37 0 70 -7t61.5 -16.5t56 -16.5t56.5 -7q33 0 65.5 8.5t66.5 18.5t67 18t67 8q148 0 230 -133q-172 -123 -203 -262q-8 -43 -5 -87t18.5 -83t44 -68.5t67.5 -44.5q-23 -43 -65 -104t-94 -117.5 t-110.5 -97.5t-113.5 -41q-31 0 -58.5 8t-53 18.5t-54.5 18.5t-59 8q-31 0 -60.5 -8t-59.5 -19.5t-57.5 -19.5t-54.5 -8q-67 0 -120.5 61.5t-84 154.5t-39 200.5zM672 1018q59 266 334 325q-33 -149 -124 -232t-210 -93z" />
<glyph unicode="&#xfb01;" d="M-98 0l39 186h176l119 559h-177l39 187h176q41 192 180.5 293.5t340.5 101.5q30 0 64 -3t67 -7l-39 -182q-58 6 -107 6q-80 0 -131 -11.5t-85 -37t-52 -65.5t-31 -95h559l-157 -746h176l-39 -186h-1118zM324 186h352l119 559h-353z" />
<glyph unicode="&#xfb02;" d="M-98 0l39 186h176l119 559h-177l39 187h176q41 192 180.5 293.5t340.5 101.5q96 0 179 -7t144 -20l-235 -1114h176l-39 -186h-1118zM324 186h352l201 949q-23 4 -48.5 5t-48.5 1q-80 0 -131 -11.5t-85 -37t-52 -65.5t-31 -95h242l-39 -187h-242z" />
</font>
</defs>
</svg>
