<?xml version="1.0" standalone="no"?>
<!DOCTYPE svg PUBLIC "-//W3C//DTD SVG 1.1//EN" "http://www.w3.org/Graphics/SVG/1.1/DTD/svg11.dtd" >
<svg xmlns="http://www.w3.org/2000/svg">
<metadata></metadata>
<defs>
<font id="ownhandmedium" horiz-adv-x="1048" >
<font-face units-per-em="2048" ascent="1638" descent="-410" />
<missing-glyph horiz-adv-x="614" />
<glyph horiz-adv-x="0" />
<glyph unicode="&#xd;" horiz-adv-x="681" />
<glyph unicode=" "  horiz-adv-x="614" />
<glyph unicode="&#x09;" horiz-adv-x="614" />
<glyph unicode="&#xa0;" horiz-adv-x="614" />
<glyph unicode="!" horiz-adv-x="432" d="M330 246q14 -2 28 -6q39 -12 59.5 -41t18.5 -66q-4 -55 -50 -102t-101 -58q-78 -12 -130.5 35t-56.5 113q-6 72 41 117q53 51 142 43q35 -4 49 -35zM307 121q-49 0 -84 -10h-2q14 -25 43 -19q18 2 37 21q4 4 6 8zM403 1403q4 -51 0 -106.5t-12 -125.5t-10 -96 q-14 -168 -14 -592q0 -25 -17.5 -42t-42 -17t-42 17.5t-17.5 41.5q0 432 14 600q4 37 12.5 103.5t12.5 113.5q2 45 -2 95q-2 25 14 43t41 20t43 -14t20 -41z" />
<glyph unicode="&#x22;" horiz-adv-x="530" d="M221 1409q0 -90 6 -191.5t17.5 -224.5t15.5 -190q2 -25 -14.5 -43.5t-41 -20.5t-43 14.5t-20.5 41.5q-4 68 -15 193.5t-17.5 228t-6.5 192.5q0 25 17.5 42t42 17t42 -17t17.5 -42zM500 1333.5q2 -24.5 32 -516.5q2 -25 -14 -43t-40.5 -20t-43 14t-20.5 41 q-31 492 -33 516.5t14.5 42.5t41 20.5t43 -14t20.5 -41z" />
<glyph unicode="#" horiz-adv-x="1175" d="M629 809q-113 -8 -209 -23l-29 -81q-18 -55 -76 -199l248 12l6 25q31 123 60 266zM1116 815q-182 8 -364 0q-35 -170 -64 -291l283 17q25 2 43 -14.5t20 -41t-14 -43t-41 -20.5l-326 -19l-45 -129q-6 -14 -37.5 -98t-48.5 -131q-8 -23 -29.5 -33t-45 -2t-34 29.5 t-1.5 46.5q14 45 47 131t37 98l28 82l-254 -14q-45 -125 -61 -225q-6 -25 -25.5 -39.5t-44 -9t-39 25t-10.5 43.5q16 92 53 199q-23 2 -39 17.5t-18 37.5q-2 25 14.5 43.5t40.5 20.5l45 2l43 108q35 90 52 139l6 17q-39 -8 -74 -19q-25 -6 -46.5 6.5t-27.5 36t6.5 45 t34.5 27.5q68 18 148 33q82 285 82 508q0 25 17 42t42 17t42 -17.5t17 -41.5q0 -217 -71 -488q92 10 196 19l4 31q57 289 91 423q6 25 26.5 37.5t45 6t36.5 -27t6 -44.5q-31 -131 -88 -418v-2q176 6 346 -2q25 -2 41.5 -19.5t15.5 -42t-18.5 -41t-42.5 -16.5z" />
<glyph unicode="$" horiz-adv-x="1026" d="M455 862q-12 270 -13 410q-39 6 -73 4q-113 -6 -164 -43q-57 -41 -58 -131q0 -63 9 -78q31 -53 133 -100q55 -25 166 -62zM580 692q2 -70 4 -127q2 -51 -2 -98q-6 -51 -15.5 -121t-11.5 -88q-4 -37 -6 -76q74 -16 139 -10q127 12 189.5 106.5t5.5 198.5q-63 123 -303 215 zM442 1393q4 115 13 217q2 25 21.5 40t44 13t39.5 -21.5t13 -44.5q-10 -109 -12 -233q125 -43 223.5 -137t139.5 -215q6 -23 -4.5 -45.5t-34 -29.5t-46 3t-30.5 35q-27 84 -94.5 153.5t-153.5 108.5q0 -117 14 -418q68 -25 121.5 -47t112.5 -57t104 -81t76 -99 q59 -125 29.5 -228.5t-118.5 -173.5t-200 -80q-74 -6 -153 8q0 -20 2 -45q4 -190 2 -254q-2 -25 -19.5 -41t-42 -15t-41 18.5t-16.5 42.5q2 59 -2 245q-2 49 -2 84q-221 84 -401 285q-16 18 -14.5 43t20 41t43 14t41.5 -20q141 -158 315 -236l4 47l15 95q8 68 11 110.5 t3 85.5q-2 74 -6 174q-158 53 -221 82q-135 63 -185 146q-25 43 -24 139q0 152 106 227q82 57 225 66q41 2 82 -2z" />
<glyph unicode="%" horiz-adv-x="1679" d="M139 1026q27 -160 101 -235q127 -129 245 -58q53 33 91 101.5t45 152.5q6 72 -40 122t-126 69q-82 18 -162 -3.5t-123 -76.5q-15 -17 -31 -72zM18 1034q-14 102 -8 215q2 25 20.5 41.5t43 14.5t41 -20.5t14.5 -43.5v-18q70 57 169 74.5t183 -5.5q115 -27 191 -108.5 t67 -204.5q-8 -111 -59 -205t-133 -143q-86 -55 -192.5 -37t-200.5 115q-68 70 -105 184q-4 2 -8 2q-23 6 -35 27.5t-6 46.5q2 6 8 28zM1102 485q-39 -72 -35 -129q4 -72 45 -135t102 -102q137 -86 259 -8q49 33 73.5 94t17 137t-43 136.5t-88.5 86.5q-51 27 -142 -2 q-27 -8 -166 -71q-10 -7 -22 -7zM1272 682q125 35 213 -10q86 -43 137 -131q49 -86 59 -187q10 -102 -25.5 -195t-117.5 -147q-102 -59 -199 -53q-98 4 -186 59q-86 53 -141 142q-57 88 -64 188q-8 113 69 227.5t171 188.5q20 14 44.5 11t39.5 -21q27 -37 0 -72zM1272 1346 q-16 -41 -43 -84l-58 -93q-31 -49 -45 -73q-29 -49 -82 -158q-53 -113 -86 -168q-31 -51 -94 -127q-72 -86 -90 -115q-172 -246 -299 -505q-10 -23 -33.5 -30t-46 3t-30 33.5t3.5 46.5q131 266 307 522q20 29 96 121q57 70 84 112q31 49 82 158q55 115 86 168q18 31 49 78 t52.5 85t39.5 75q8 23 32 31t46.5 -1.5t30.5 -32.5t-2 -46z" />
<glyph unicode="&#x26;" horiz-adv-x="1157" d="M379 696q-25 -29 -45 -55q-90 -131 -37 -276q27 -72 119 -95q92 -20 225 13q51 14 102 32l-61 68l-127 125q-121 116 -176 188zM940 283q41 -43 80 -76q18 -16 20 -41t-14 -43.5t-40.5 -20.5t-43.5 15q-53 47 -113 106q-76 -35 -159 -55q-162 -41 -281 -12 q-154 35 -203 168q-76 203 52 385q31 45 75 90q-35 66 -51 131q-23 76 -11.5 181.5t54.5 184.5q53 98 139 123q100 29 215 -47q98 -63 132 -133q35 -74 0 -149q-16 -39 -57.5 -83t-69.5 -69l-91 -70l-108 -88q47 -66 165 -179.5t138 -135.5l88 -94q119 70 152 137 q10 25 17 51.5t8 41.5t3 57t4 63q2 25 20.5 41t43 14t41 -20.5t14.5 -42.5q-2 -12 -4 -59.5t-4 -67t-11.5 -57t-25.5 -70.5q-43 -94 -174 -176zM403 883l97 78q84 66 126 104.5t58 73.5q10 25 0 49q-18 39 -90 86q-70 45 -117 31q-39 -10 -67 -66q-31 -57 -40.5 -140 t7.5 -141q10 -38 26 -75z" />
<glyph unicode="'" horiz-adv-x="274" d="M260 1409q-16 -221 16 -602q2 -25 -13 -44.5t-39.5 -21.5t-44 13.5t-21.5 40.5q-35 389 -17 622q2 25 20.5 41.5t43 14t41 -20.5t14.5 -43z" />
<glyph unicode="(" horiz-adv-x="561" d="M555 1362l-88 -145q-70 -111 -109 -185t-67 -145q-57 -152 -85 -387.5t1 -390.5q6 -20 18.5 -47t24.5 -46l37 -53l32 -51q14 -20 44 -69.5t44.5 -69t41.5 -47.5q27 -31 53 -50q20 -14 25 -37.5t-9 -44t-37.5 -25.5t-44.5 9q-37 25 -72.5 64t-53 63.5t-50.5 77.5l-39 63 l-31 45q-27 39 -41 62.5t-32.5 61.5t-24.5 69q-33 180 -4 429t92 415q29 78 72 158.5t113.5 194.5t87.5 142q12 20 35.5 26.5t45 -5.5t27.5 -35.5t-6 -46.5z" />
<glyph unicode=")" horiz-adv-x="466" d="M141 1442q12 -33 27.5 -57.5t45.5 -64.5t48 -63q84 -123 144 -294q55 -162 61 -316q6 -158 -22.5 -287t-97 -270t-141.5 -248.5t-177 -242.5q-14 -18 -39 -21.5t-44.5 11t-22.5 39t11 44.5q102 131 172 235.5t133.5 233.5t89 247t19.5 256t-53 282q-53 152 -131 262 q-6 10 -42 56t-56.5 81t-34.5 76q-8 25 2 46t33.5 29.5t45 -1.5t29.5 -33z" />
<glyph unicode="*" horiz-adv-x="684" d="M469 1489q6 -76 2 -207l-2 -55q72 57 131 88q20 10 44 3t35 -28.5t4 -45t-30 -36.5q-68 -35 -153 -110q63 -66 110 -109q18 -16 20.5 -40.5t-14 -43t-41 -20.5t-43.5 14l-47 43q16 -106 21 -156q2 -25 -14.5 -43t-41 -20t-43 14.5t-20.5 40.5q-4 43 -18 148l-7 37 q-27 -29 -47 -58q-14 -18 -38.5 -21t-44 11t-22.5 38.5t11 45.5q45 59 113 127l-10 10q-119 131 -203 189q-18 14 -23.5 38.5t9 44t39 24.5t44.5 -9q76 -53 162 -143v26q4 119 -2 191q-2 25 13.5 44t40 21t44 -13t21.5 -40z" />
<glyph unicode="+" horiz-adv-x="1038" d="M985 498q-18 -2 -110.5 -10.5t-120 -9.5t-119.5 1l-21 2q4 -59 9 -125l8 -147q6 -72 10 -127q2 -25 -14.5 -43.5t-41 -20.5t-43 14.5t-20.5 41.5q-2 47 -8 131l-10 155q-6 70 -8 132q-162 14 -263 6q-25 -2 -43 14t-20 41t14.5 43t40.5 20q106 8 267 -6q-6 217 12 396 q2 25 21.5 40t44 13t40 -21.5t13.5 -44.5q-18 -176 -13 -393q18 -2 33 -2q84 -2 107.5 -1t110.5 9t116 10q25 2 43 -14t20 -40.5t-14 -43t-41 -20.5z" />
<glyph unicode="," horiz-adv-x="333" d="M336 121q-2 -43 -1 -80t0 -80t-9 -72q-25 -119 -162 -202q-20 -12 -44 -6t-37 26.5t-7 44t26 37.5q92 57 109 125q4 25 5 55.5t0 65.5t1 90q0 25 18.5 41t43 16t41 -18t16.5 -43z" />
<glyph unicode="-" horiz-adv-x="587" d="M528 498q-51 2 -141 8t-163.5 10t-141.5 4q-25 0 -42 17.5t-17 42t17 42t42 17.5q68 0 142.5 -4t167.5 -10.5t140 -8.5q25 -2 42.5 -19t15.5 -42t-19.5 -42t-42.5 -15z" />
<glyph unicode="." horiz-adv-x="385" d="M207 53q-59 82 -55 142q4 39 32 63q25 20 58 23q51 4 96 -29q61 -43 47 -107q-8 -43 -55 -65q-10 -4 -17 -6q-4 -20 -22 -35q-20 -14 -45 -10t-39 24z" />
<glyph unicode="/" horiz-adv-x="565" d="M563 1323q-143 -362 -198 -551q-27 -88 -68 -250q-43 -166 -83 -301t-87 -252q-10 -23 -32.5 -32t-45 0.5t-32 32t-1.5 44.5q47 113 85 242t80 293t69 256q55 190 203 563q8 23 30.5 32t46 1t32.5 -30.5t1 -47.5z" />
<glyph unicode="0" horiz-adv-x="1058" d="M195 424q49 59 112 129l103 111l122 124l109 111l100 111q-94 213 -211 266q-125 55 -260 -123q-63 -86 -82 -131q-55 -154 -50.5 -303.5t57.5 -294.5zM248 301q49 -92 110 -156q127 -129 226 -79q131 68 182 407q2 12 10 25q43 225 8 381l-57 -62l-117 -121l-135 -139 l-106 -117q-70 -76 -121 -139zM879 987q33 -100 38 -214t-7.5 -201t-41.5 -205l-12 -68l-16 -76q-6 -31 -20.5 -72.5t-31 -74.5t-53.5 -33q-43 -55 -98 -82q-61 -35 -129 -26.5t-125 42t-109 86.5q-57 57 -104 138l-74 -109q-12 -20 -36.5 -25.5t-45 8t-25.5 38t9 45.5 q49 78 111 159q-49 113 -74 236t-15.5 259t58.5 255q25 59 98 156q94 127 198.5 167t205.5 -8q141 -63 247 -274q74 84 134 139q18 16 42.5 16.5t41 -18t16.5 -43t-19 -41.5q-63 -59 -157 -166z" />
<glyph unicode="1" horiz-adv-x="956" d="M891 104q-104 16 -303 2q-229 -16 -328 -8q-25 2 -41 20.5t-14 43t20.5 41t42.5 14.5q94 -8 254 4q-6 45 -10 127q-6 104 -8 133q-4 61 -15 158l-16 166q-6 63 -12 152.5t-8 164.5q-2 100 -7 129q-2 6 -2 11q-18 -31 -43 -78q-43 -84 -88 -193q-10 -23 -32.5 -31t-46 1.5 t-31.5 32t0 46.5q49 109 94 199q37 76 65 117q18 29 35 45q35 33 72 29q53 -8 78 -78q10 -33 16 -88q6 -35 8 -138q2 -76 8.5 -164t12.5 -151l16 -164q10 -100 15 -153q2 -29 8 -140q4 -80 10 -125q160 10 266 -6q25 -4 39.5 -23.5t11 -44t-22.5 -39t-44 -12.5z" />
<glyph unicode="2" horiz-adv-x="1253" d="M68 872q12 31 28 82q2 2 15 37l16 56q39 121 92 184q53 68 142.5 110.5t183.5 51.5q104 10 193 -29t136 -133q55 -115 57.5 -236t-43.5 -228.5t-109.5 -196.5t-145.5 -171q-23 -23 -58 -53q39 8 95 12q74 6 272 -12q156 -14 242 4q23 6 44 -7t26.5 -36.5t-8 -45 t-38.5 -25.5q-102 -25 -276 -9q-193 18 -254 13q-123 -10 -227 -62q-10 -4 -25 -12l-29 -19q-43 -25 -80 -30q-10 -2 -20 0q-27 2 -43 20q-23 25 -14 58q4 12 12 24q10 14 41 41l47 37q29 23 35 29l86 75q59 53 90 84q76 74 132 155t93 170t36 184.5t-44 183.5 q-55 111 -213 96q-72 -6 -139.5 -39t-104.5 -80q-37 -43 -71 -145l-19 -54q-10 -35 -10 -36q-18 -57 -33 -93q-10 -23 -32.5 -32t-45 0.5t-31.5 31.5t-1 45z" />
<glyph unicode="3" horiz-adv-x="978" d="M66 1006q43 76 113.5 159.5t152.5 147.5q227 174 413 82q88 -45 113 -125t6 -172q-33 -147 -131 -271q-16 -20 -35 -36q59 -2 107 -17q168 -49 176 -221q6 -156 -91 -274.5t-243 -161.5q-152 -45 -298 12t-230 225q-10 23 -3 46.5t29.5 33.5t46 3t33.5 -29 q63 -127 169 -169t218 -8q113 33 183.5 120t66.5 198q-4 86 -90 110q-78 23 -209 3l-43 -13q-49 -16 -86 -4q-35 14 -43 43t8 53q6 10 19 17q10 8 33 14l38 12q102 59 150 117q84 102 109 221q27 125 -56 166q-119 59 -289 -69q-72 -55 -134 -131t-101 -140 q-12 -23 -35.5 -29t-45 6.5t-27.5 36.5t6 44z" />
<glyph unicode="4" horiz-adv-x="1124" d="M252 522l10 -2q23 0 58.5 -1t39.5 -1q113 -4 357 -47h6q4 88 5 184.5t0 230.5t-1 187q0 29 2 135q-18 -27 -29 -43q-41 -55 -185 -236t-206 -292l-47 -94zM834 334q-12 -156 -41 -285q-4 -25 -24.5 -38t-45.5 -8t-38 25.5t-7 45.5q27 127 39 278l-21 2q-236 41 -340 45 q-4 0 -39.5 1t-58.5 1q-37 2 -59 5q-14 0 -22.5 2t-12.5 2q-14 4 -25 10q-23 16 -26 47q0 10 2 25q2 12 10 32q10 27 31 72q23 47 51 98q61 115 217 310.5t178 230.5q12 14 37 55l37 56q27 33 49 49q49 29 94 2q8 -6 14.5 -13.5t8.5 -11.5l2 -6q2 -4 2 -8q2 -4 2 -6v-6v-9 v-24v-78q-2 -137 -2 -162q0 -47 1 -186t0 -239.5t-5 -194.5q125 -18 225 -19q25 0 42 -17.5t17 -42t-17 -42t-42 -17.5q-106 1 -233 19z" />
<glyph unicode="5" horiz-adv-x="1142" d="M915 1135q-35 0 -155 10q-158 12 -211 16q-121 4 -191 -6q-68 -10 -77 -29q-18 -31 -27 -104q0 -12 -2 -39t-2 -29q-4 -45 -10 -71q-12 -72 -19 -113q-6 -35 -8 -55q18 2 51 16q14 8 72 39q49 25 74 31q113 27 226.5 30t240.5 -36q125 -41 204 -131q53 -59 62.5 -134 t-13 -137.5t-67.5 -122.5q-61 -84 -150.5 -148.5t-173.5 -84.5q-53 -14 -108.5 -16.5t-107.5 7t-99 22.5t-98 36l-90 41l-91 45q-51 25 -84 39q-23 8 -30.5 31.5t1.5 46t32.5 31t46.5 -2.5l90 -43l90 -41q35 -18 82 -37.5t85 -30.5t81 -19.5t86 -6.5t86 13q61 16 133 69 q74 51 123 119q111 150 24 246q-57 66 -154.5 96.5t-197.5 29.5t-201 -26q-12 -2 -47 -22q-59 -31 -78 -39q-53 -25 -94 -29q-66 -6 -108 37q-12 14 -17 35q-2 6 -2 16q0 12 2 33q2 27 8 74l23 112q2 23 6 60q0 2 2 29.5t4 41.5q8 98 41 154q39 66 162 84q82 12 215 8 q74 -4 215 -16q119 -10 141 -11q25 0 43.5 -16t18.5 -41t-16.5 -43t-41.5 -18z" />
<glyph unicode="6" horiz-adv-x="1077" d="M303 596q-2 -20 -2 -43q0 -18 -3 -48t-3 -36t4 -31q35 -133 150 -235q119 -106 231 -80q45 12 96 54t86 93q76 109 92.5 216.5t-14.5 185.5t-94 129q-61 51 -139 64.5t-170.5 -26.5t-167.5 -137q-39 -47 -66 -106zM188 627q27 244 153 460t327 324q23 10 46 3t34.5 -28.5 t4 -45t-27.5 -35.5q-119 -63 -210 -176t-146 -257q90 76 191.5 100.5t193.5 3t168 -82.5q88 -74 130 -181.5t21.5 -242.5t-112.5 -268q-45 -61 -113 -118.5t-139 -74.5q-174 -43 -340 107q-66 59 -115 138t-70 157q-8 27 -8 65q-33 25 -20 66q16 47 32 86z" />
<glyph unicode="7" horiz-adv-x="1007" d="M59 1382q109 31 273 29q223 0 252 2q39 2 67 6q6 4 12.5 6t14.5 5q2 0 6 2q14 0 113 4q45 2 84 0q33 -2 53 -6q16 -2 29 -7q25 -10 38 -30q10 -18 9 -41q-2 -6 -4 -13.5t-7 -15.5q-6 -14 -18 -37q-20 -39 -57 -102l-103 -176l-116 -187l-127 -207q-47 -80 -104.5 -189.5 t-92.5 -211.5t-47 -199q-4 -25 -23.5 -39t-44 -11t-39 22.5t-12.5 44.5q14 104 52 215.5t99.5 229.5t112.5 204l127 209l113 180l102 174l41 74q-33 2 -61 0l-53 -2l-23 -8q-25 -4 -133 -13q-33 -2 -262 -2q-145 2 -238 -24q-25 -6 -46 5t-27.5 35.5t4.5 46t36 27.5z" />
<glyph unicode="8" horiz-adv-x="974" d="M539 739q92 -29 149 -20q45 6 88 78q39 66 55 145q8 43 9 92q0 55 -11 76q-31 57 -90 106.5t-133 75.5q-160 61 -280 0q-55 -29 -86 -89t-54 -154q0 -20 4 -41q12 -49 66.5 -104.5t136.5 -102.5q39 -20 80 -39h25q25 -3 41 -23zM305 717q-199 121 -229 266q-2 8 -4 14 q-14 23 -9 47l3 17q0 31 5 68.5t9 59t15 64.5t14 54q4 25 25.5 38t43.5 7q10 -2 21 -9q33 35 73 56q166 84 377 6q92 -35 168 -98.5t119 -143.5q25 -45 22 -131q0 -59 -12 -114q-18 -96 -67 -181q-41 -70 -93 -104q115 -70 166 -182q31 -63 25 -136t-34 -138.5t-75 -123.5 q-72 -90 -172 -139t-202 -25q-25 6 -45.5 13.5t-38.5 19.5l-33 17q-10 6 -29.5 22t-23.5 23l-29 26l-25 27q-8 8 -38.5 35.5t-56 55.5t-42.5 52q-41 63 -48 135t12.5 136.5t58.5 123.5q59 91 149 142zM358 610q-61 -37 -104 -100q-45 -68 -51 -137.5t28 -126.5 q14 -23 32 -40.5t45.5 -42t47.5 -44.5l23 -23q16 -16 20 -21t16.5 -16.5t18.5 -15.5l17 -10q12 -8 21 -12.5t21.5 -8.5t28.5 -8q59 -14 129 19.5t126.5 103.5t74.5 145.5t-6 128.5q-51 111 -188.5 164t-288.5 45h-11z" />
<glyph unicode="9" horiz-adv-x="1026" d="M788 770q10 162 -33.5 303t-138.5 223q-113 98 -247 78q-143 -20 -203 -190q-29 -78 -30 -166t24 -158q12 -39 63 -82q51 -41 131 -73q74 -31 148 -41q74 -12 119 -5q73 17 167 111zM186 225q182 -113 332 -26q139 82 217 301q16 47 29 96q-63 -39 -119 -51 q-137 -31 -338 51q-217 90 -262 227q-29 88 -27 196.5t35 205.5q37 104 113 178t186 90q190 27 342 -107q168 -147 205 -421l12 39q8 25 30 36t45.5 3.5t34.5 -29t5 -43.5q-18 -59 -29.5 -90t-36 -78t-57.5 -84q-12 -137 -57 -260q-90 -258 -268 -363q-211 -121 -453 27 q-20 14 -26.5 37.5t7 44t37 26.5t43.5 -6z" />
<glyph unicode=":" horiz-adv-x="380" d="M182 905q6 88 51 125q31 23 63 20t56 -24q23 -20 28 -51t-11 -64q-29 -53 -115 -67q-2 0 -2 -2h-6h-8q-20 2 -36 15t-20 34v14zM174 129q-12 10 -16 23q-10 23 -2 45t30 32l11 7l4 8q8 23 30.5 32t47.5 0q12 -6 22 -16h10q39 -6 58 -35q18 -25 14 -59.5t-33 -71.5 q-12 -16 -26 -26q-27 -18 -54 -17q-57 4 -82 43q-10 17 -14 35z" />
<glyph unicode=";" horiz-adv-x="366" d="M248 43l-6 4q-18 8 -31 19q-29 23 -29 57q-2 57 60 78q8 4 14 5t7 1t3 2q23 12 46.5 6t35.5 -27q20 -37 -6 -69q6 -8 10 -17q53 -117 -61 -280q-14 -20 -39 -24.5t-45.5 10t-24.5 39t11 44.5q69 99 55 152zM250 840q-63 29 -86 73q-12 18 -10 51t28 56q35 20 62.5 14 t48.5 -26q33 -35 47 -107q4 -25 -10.5 -44t-38.5 -26q-16 -2 -33 5z" />
<glyph unicode="&#x3c;" horiz-adv-x="1077" d="M1034 834q-106 -29 -397 -209q-106 -68 -199 -131l-35 -25q10 -8 23 -16q53 -37 141 -82q137 -74 256 -125q23 -10 31 -34t-1 -46.5t-32.5 -30.5t-46.5 0q-123 55 -262 131q-94 49 -152 88q-35 23 -57 41q-33 31 -39 60q-6 23 4 45q4 8 13 16q8 10 22 23q23 20 66 51 q84 61 206 137q303 186 431 221q23 6 44 -6t27 -35.5t-6 -45t-37 -27.5z" />
<glyph unicode="=" horiz-adv-x="1060" d="M168 756q82 4 125 2t121 -8.5t112 -8.5q29 -4 113 -1t111 5l114 9q86 6 117 8q25 2 43 -14.5t20.5 -41t-14 -43t-41.5 -20.5q-27 -2 -115 -8l-116 -8q-29 -2 -117 -5.5t-119 1.5q-27 0 -149 10q-121 10 -193 4q-25 -2 -44 13.5t-21 40t13 44t40 21.5zM141 293 q63 -12 166 -4q166 12 185 12q90 0 263 -3t249 -3q25 0 42 -17.5t17 -42t-17.5 -42t-41.5 -17.5q-76 0 -248 3t-264 3q-6 0 -177 -12q-113 -8 -194 8q-25 4 -39 24.5t-9 44t25 38t43 8.5z" />
<glyph unicode="&#x3e;" horiz-adv-x="970" d="M266 821q39 -2 162 -28.5t236 -61.5q147 -47 221 -96q53 -33 73 -70q33 -59 -4 -114q-18 -29 -59 -43l-19.5 -6.5t-11.5 -2.5l-102 -47q-301 -131 -432 -213q-20 -12 -44 -7t-37 26.5t-8 45t27 38.5q135 86 445 221l102 43q10 6 29 10q-10 12 -23 21q-61 39 -194 81 q-106 33 -221 58.5t-144 25.5q-25 0 -41 18.5t-16 43t18 41t43 16.5z" />
<glyph unicode="?" horiz-adv-x="935" d="M96 1069l6 31q6 31 10.5 44t13.5 37.5t19 43.5q57 98 172 166.5t236 83.5q137 16 235 -43q113 -70 142 -222q20 -123 -5.5 -209t-90.5 -157q-12 -14 -115 -111q-68 -63 -105 -119q-14 -25 -23 -56.5t-11 -46.5t-9 -75q-2 -25 -21.5 -40t-44 -13t-39.5 21.5t-13 44.5 q0 2 3 29.5t4 33.5t4 30.5t7 36t10 32t14.5 37t20.5 32.5q41 63 121 139l108 105q47 51 65.5 111.5t0.5 154.5q-16 98 -84 139q-63 39 -159.5 28t-186.5 -65.5t-133 -128.5q-12 -23 -37 -123q-4 -23 -25.5 -36t-45 -8t-37 26.5t-7.5 46.5zM500 25q0 4 -1 7t-3 10t-4 15 q-10 41 2 72q14 45 67 68q41 18 78 12q35 -4 53 -29q27 -35 8 -76q-18 -37 -82 -77q-2 -20 -16 -35t-35 -19q-25 -2 -44 12.5t-23 39.5z" />
<glyph unicode="@" horiz-adv-x="1708" d="M1124 836q6 35 17 63q-53 33 -99 49q-113 45 -192 0q-33 -18 -70 -75.5t-55 -124.5q-37 -141 37 -173q76 -35 164 29q66 49 147 164q14 16 29 39zM1251 823q-6 -12 -10 -22q-2 -23 -4 -70q-2 -78 51 -113q55 -33 131 -10q84 25 137 117q53 90 29 244q-14 94 -108 207 q-86 102 -220 127q-131 27 -268 -19q-139 -45 -256 -137q-119 -94 -172 -207q-76 -172 -54.5 -331.5t133.5 -290t286 -195.5q66 -25 161 -27t195 20.5t169 67.5t89 105q6 25 28.5 35t46 2.5t34 -30t2.5 -44.5q-33 -100 -127 -161.5t-215 -90.5q-111 -25 -225.5 -21.5 t-198.5 33.5q-203 76 -336 229.5t-161 347t67 402.5q66 137 202 247t297 159q111 31 218.5 34t213 -42.5t181.5 -135.5q117 -141 137 -268q29 -193 -46 -323t-206 -168q-127 -37 -227 24q-70 45 -95 125q-70 -86 -135 -133q-141 -104 -282 -45q-61 29 -91 85t-27 113.5 t15 114.5q23 84 73 162t110 111q127 74 292 8q61 -23 132 -68q4 2 8 0q45 0 57 -43v-2l35 -24q18 -14 21 -39t-11 -45q-12 -16 -35 -21.5t-41 6.5z" />
<glyph unicode="A" horiz-adv-x="1132" d="M674 649l-10 29q-25 63 -74 221q-45 139 -76 215l-27 64q-121 -489 -141 -562q55 6 164 16.5t164 16.5zM387 1690q31 -80 117 -263q84 -178 121 -268q33 -78 77 -223q49 -156 72 -217l21 -55q150 20 266 51q23 6 44 -6.5t27.5 -36t-6 -45t-36.5 -27.5q-109 -29 -250 -49 q193 -487 225 -590q8 -23 -2 -45t-33.5 -29.5t-46 3t-29.5 34.5l-69 191l-92 233q-55 135 -74 187q-72 -8 -209 -23l-199 -18q-12 -39 -42.5 -127t-48 -150.5t-27.5 -124.5q-4 -25 -25 -39t-45.5 -10t-38.5 24.5t-10 45.5q18 96 106 362q-25 -2 -44 12.5t-22 39t11 44 t39 23.5l55 8q41 141 104.5 403.5t82.5 331.5l4 13l-13 26q-84 176 -121 269q-8 23 1.5 46t32 31.5t46 -0.5t31.5 -32z" />
<glyph unicode="B" horiz-adv-x="1191" d="M328 774q6 6 12 10l29 17q39 16 41 18q49 31 104 82l72 70q27 27 58.5 62.5t48 66t27.5 66.5t9 73t-16 76q-31 78 -189 63q-150 -16 -270 -82q-20 -12 -43 -30q14 -49 28.5 -138.5t18.5 -111.5q12 -47 39 -137q23 -72 31 -105zM350 680q10 -45 26.5 -139.5t33 -160 t36.5 -124.5l3 2q133 20 204 37q229 55 336 166q43 45 66.5 105.5t19.5 115.5q-6 121 -125 158q-143 45 -403 -86q-2 0 -12 -6l-27 -15q-14 -10 -29 -16l-47 -27q-12 -6 -20 -8q-18 -8 -33 -8q-8 0 -14 2q-9 0 -15 4zM731 952q143 35 256 2q98 -31 150.5 -102.5t56.5 -163.5 q4 -82 -27 -164q-33 -84 -92 -145q-131 -139 -393 -199q-74 -16 -193 -37q-4 -31 -30 -45q-23 -10 -46.5 -3t-35.5 28v2q-59 -10 -105 -21q-25 -6 -46 7.5t-26 37t8 45t36 25.5l84 19q-31 92 -65 268t-40 201q-10 43 -39 137q-29 92 -41 147q-10 45 -20 111q-10 70 -17 98 q-29 2 -45 25q-14 18 -11 42.5t24 39.5l10 8q8 25 33 35l12 4q39 31 68 45q143 80 315 96q250 27 311 -139q78 -203 -92 -404z" />
<glyph unicode="C" horiz-adv-x="1300" d="M1237 1194q-2 -4 -2 -6v-8v-21q-8 -68 -64 -80q-23 -6 -43 4q-8 4 -14 11q-8 6 -18 16q-14 12 -37 37l-33 39l-10 14q-43 35 -166 68q-205 55 -313 43q-139 -16 -232 -146q-88 -123 -96 -217q-29 -299 86 -475q53 -80 148.5 -146.5t207.5 -99.5q111 -35 218.5 -22.5 t183.5 74.5q47 39 74.5 89t60.5 140q8 23 29.5 33t45 2t34 -29.5t1.5 -46.5q-23 -63 -38 -101t-50.5 -90.5t-83.5 -91.5q-70 -55 -158.5 -80.5t-174.5 -20.5t-177 30q-129 39 -241.5 117.5t-177.5 177.5q-139 211 -107 553q12 127 117 274q123 172 317 192q133 16 359 -45 q145 -41 207 -92q6 -4 26 -26l17 -19q25 35 63 23q25 -8 36 -29.5t5 -44.5z" />
<glyph unicode="D" horiz-adv-x="1425" d="M485 74l15 2h26q25 -2 49.5 1t44 5t47 13t42 15.5t45.5 20.5l41 21q10 6 43.5 28.5t41 26.5t46.5 31l45 30q197 133 281.5 328t43.5 377q-39 184 -198 303q-162 119 -430 115q-207 -2 -469 -66q135 -561 213 -950l39 -178q16 -66 28 -103q2 -12 6 -20zM78 1362 q-2 23 10 41t35 24q303 80 545 82q307 4 501.5 -139t243.5 -373q47 -219 -51 -446t-326 -381q-2 -2 -51 -36t-59 -40l-58 -35q-45 -29 -64.5 -36t-62.5 -26.5t-72.5 -25.5t-69.5 -11t-77 -3h-14q-16 -2 -23 -2q-41 0 -69 16q-20 12 -35 45q-8 16 -16 43q-10 37 -29 109 q-18 78 -39 182q-82 395 -221 975q-4 19 2 37z" />
<glyph unicode="E" horiz-adv-x="1105" d="M885 709q-29 0 -120 -3.5t-133 -4.5t-115 -2t-133 1t-118 7q-2 -47 -2 -89v-309q2 -66 2 -102q2 -12 2 -19q4 -2 11 -2q27 -10 75 -18q92 -12 246 -16q215 -4 428 8q25 2 43.5 -14.5t20.5 -41t-14.5 -43t-41.5 -20.5q-219 -12 -440 -8q-156 4 -258 18q-61 8 -98 23 q-57 18 -78 53q-6 10 -8 25q-2 6 -2 14q-2 14 -2 35q-2 39 -5 106v311q2 98 3.5 216t2.5 196t1 94q0 6 -4.5 57.5t-4.5 84.5q4 131 88 170q10 6 27 8h23q18 2 49 2h24h23h16h6q61 0 206 -8t242 -3t185 31q23 6 44.5 -5t28.5 -34.5t-4 -45t-36 -29.5q-96 -29 -206.5 -35 t-263.5 2t-196 8h-6h-16h-21h-26h-45q-6 -2 -9 -2q-12 -12 -14 -61q0 -27 4 -72q4 -51 4 -68v-55q0 -39 -1 -112.5t-3 -131.5q59 -4 119.5 -6t131.5 -1t115 2t130 4t119 3q25 0 43 -16t18 -41t-16 -43t-41 -18z" />
<glyph unicode="F" horiz-adv-x="997" d="M162 1145q-2 2 -3 2t-2 1t-5.5 4t-10.5 9q-45 33 -39 80q4 35 45 62q10 8 23 16q-4 33 23 53q18 14 41.5 12t37.5 -18l84 31q195 70 277 84q106 16 307 16q25 0 42 -17.5t17 -42t-17 -42t-42 -17.5q-190 0 -287 -16q-74 -10 -258 -76l-59 -22q74 -156 100 -406l248 62 q160 41 229 57q25 6 45.5 -7.5t26.5 -37t-7 -44t-36 -26.5l-237 -59q-168 -43 -261 -64q16 -283 -18 -633q-2 -25 -21.5 -40t-44 -13t-40 21.5t-13.5 44.5q33 330 21 596l-41 -8q-25 -4 -45.5 10t-24.5 38.5t10.5 45t38.5 24.5l53 9q-20 190 -65 317l-8 -8q-18 -18 -43 -16 t-41 18z" />
<glyph unicode="G" horiz-adv-x="1404" d="M823 725q121 18 273 29q100 6 161 4q39 -2 66 -6q43 -10 61 -35q35 -41 19 -111q-4 -25 -21 -57q-16 -29 -18 -35q-59 -160 -74 -371q-2 -25 -20.5 -41t-43 -14t-41 20.5t-14.5 43.5v8q-31 -23 -61 -35q-109 -47 -225.5 -34t-219 63.5t-190.5 132.5 q-135 127 -204.5 292.5t-34.5 323.5q57 260 163 379q135 147 389 148q4 0 31 1t38 0t33.5 -4.5t43 -10.5t41.5 -19q35 -18 72 -72q25 -37 51 -90l4 -4q31 70 39 82q10 23 34.5 29t46 -5.5t27.5 -36t-6 -45.5q-4 -10 -45 -98l-27 -61l-10 -19q-2 -6 -4 -9t-4 -5q-2 -4 -6 -8 q-2 -2 -6 -5t-16.5 -8.5t-24.5 -5.5q-23 2 -39 19q-4 4 -8 10q-4 4 -8.5 12t-12.5 27l-39 76q-25 49 -45 77q-20 31 -30 37q-12 6 -21.5 9.5t-24 5.5t-20.5 2h-29h-35q-201 0 -301 -111q-88 -94 -137 -321q-25 -121 31.5 -258.5t173.5 -245.5q119 -111 252 -150t258 11 q10 4 20 10l21 12q8 6 22 18l21 19q6 4 23.5 20.5t21.5 22.5q23 117 59 217q4 14 23 49q10 18 12 27v6q-14 2 -35 2q-55 2 -149 -4q-147 -10 -264 -29q-25 -2 -44.5 12.5t-22.5 39t11 44t39 23.5z" />
<glyph unicode="H" horiz-adv-x="1191" d="M1135 1360q12 -135 -23 -442q-8 -74 -12 -119h2q25 -4 39 -23.5t12 -44.5q-4 -23 -21.5 -37t-39.5 -14q-4 -98 6 -178q8 -78 49 -252q37 -168 47 -264q2 -25 -13.5 -44.5t-40 -21.5t-44 13.5t-21.5 39.5q-8 86 -45 250q-41 180 -51 262q-10 96 -6 209q-127 14 -225 13 q-35 0 -74 -5l-86 -10q-47 -4 -74 -6q-88 -8 -154 -4q45 -328 -22 -565q-6 -25 -27.5 -36t-46 -5t-36 27.5t-5.5 46.5q63 223 15 559q-29 23 -21 57q2 10 6 18q-2 25 -17.5 107t-21.5 121l-12 104q-10 68 -14 124t-4 112q0 25 17 42t42 17t42 -17.5t17 -41.5 q0 -53 4.5 -106.5t12.5 -116t14 -102.5t19.5 -116.5t19.5 -107.5q63 -6 162 2q31 2 76 6l88 10q41 4 75 4q106 2 238 -12q4 43 14 119q33 287 21 416q-2 25 13 44t40 21t44.5 -13t21.5 -40z" />
<glyph unicode="I" horiz-adv-x="1036" d="M983 117q-96 -8 -330 -47q-225 -37 -340 -47q-25 -2 -44 14t-21 39.5t14.5 43t38.5 21.5q84 8 158 19q-16 43 -21 123q-4 100 -8 110q-31 176 -59 510q-25 295 -39 410q-111 -18 -226 -21q-25 0 -43 16.5t-18 41t16.5 43t40.5 18.5q113 2 220 19q12 37 49 43q33 4 55 -23 q172 39 289 109q20 12 44.5 6t37 -26.5t6.5 -45.5t-27 -37q-133 -80 -325 -123q14 -117 38 -420q27 -322 60 -499q2 -18 8 -123q4 -68 14 -92l9 -9l10 -10l43 8q223 37 342 48q23 2 42 -14.5t21 -40t-14 -43t-41 -21.5z" />
<glyph unicode="J" horiz-adv-x="933" d="M125 1376q74 6 184 41q158 47 199 56q53 12 115.5 18t138.5 10t108 8q25 2 44.5 -13t21.5 -39.5t-13.5 -44t-39.5 -21.5q-43 -4 -125 -8.5t-123 -8.5q43 -106 91 -293.5t79 -375.5q39 -250 29 -418q-16 -221 -125 -283q-106 -51 -237.5 -26.5t-235.5 102.5 q-121 88 -148 201q-31 137 86 260q16 18 41 18t43 -16.5t18 -41t-16 -42.5q-74 -76 -55 -152q14 -70 100 -131q84 -63 188.5 -82.5t157.5 12.5q53 31 64 189q10 150 -29 391q-33 207 -84 391q-51 195 -88 275q-27 -6 -170 -49q-123 -37 -207 -46q-25 -2 -44 13.5t-21 40 t13 44t40 21.5z" />
<glyph unicode="K" horiz-adv-x="1259" d="M537 938q-16 -14 -50 -47l-63 -60q-29 -27 -57 -49l4 -65q6 -154 12 -238t29.5 -203.5t66.5 -212.5q8 -23 0 -46t-30.5 -32.5t-46 -1t-33.5 30.5q-45 104 -72 236.5t-33 217.5t-12 241q-49 -23 -100 -33q-25 -6 -45.5 7t-25.5 37.5t8 45t38 25.5q63 14 119 49 q-18 336 -103 522q-10 23 -1.5 45.5t31 32.5t45 2t32.5 -31q86 -188 108 -479l109 104l10 11q-4 37 27 57q23 16 51 8q4 4 74.5 61.5t105.5 88.5q18 16 66.5 64t93.5 85t92 62q23 10 46.5 2.5t33.5 -30t3 -46t-30 -33.5q-41 -20 -73.5 -48t-77.5 -73q-43 -45 -76 -74 l-104 -86q-68 -57 -80 -65q27 -49 59 -125q63 -137 88 -184q51 -88 156.5 -251t188.5 -305.5t136 -275.5q8 -23 -1 -45t-31.5 -31.5t-45 0t-32.5 31.5q-51 129 -130 264t-181 295q-98 152 -162 260q-31 51 -94 193q-25 57 -43 92z" />
<glyph unicode="L" horiz-adv-x="1021" d="M242 1393q14 -92 18 -203t1 -188.5t-10 -205.5t-9 -186q0 -27 -4.5 -94t-5.5 -101t2.5 -84t13.5 -89q12 -47 49 -76q104 -76 305 -70q41 2 92 7.5t87 10.5t91 13l84 14q25 2 44.5 -12t22.5 -38.5t-11.5 -44t-38.5 -23.5q-23 -2 -80 -11l-94 -16q-39 -6 -93.5 -11 t-99.5 -8q-242 -8 -379 95q-72 53 -94 141q-12 45 -16 105.5t-3 98.5t5 108.5t4 88.5q2 63 9 190.5t10 201t-1 177t-18 189.5q-4 25 10 45.5t39 24.5t45.5 -10t24.5 -39z" />
<glyph unicode="M" horiz-adv-x="1810" d="M96 133q8 45 10 131q2 104 9 148q53 377 67 602q4 68 4 332q0 6 -2 16t-6 27.5t-6 33.5q-8 37 -2 60q8 33 34.5 47t57.5 6q25 -8 45 -31q12 -14 27 -37q23 -37 53 -102q47 -102 121 -295q78 -205 182 -510l64 -170l30 -72q25 55 37 103l66 244q47 172 78.5 299t52.5 245 q29 150 63 256q18 55 33 86q12 20 25 33q43 39 86 8q18 -14 30 -43q8 -16 17 -41q14 -39 31 -106q8 -29 16 -69t14 -66.5t10 -36.5q43 -150 89 -379q72 -373 71 -375q4 -12 13 -67q10 -68 14 -93q10 -53 20 -81q2 -8 4 -15h13q25 -2 67 -2q20 0 49 -1t48 -1h26 q25 -2 41.5 -20.5t14 -43t-20.5 -41t-43 -14.5h-25q-18 0 -44.5 1t-47.5 1q-47 0 -73 2q-18 2 -31 4q-20 2 -33 9q-25 12 -41 41l-18 43q-12 37 -23 96l-16 98q-6 51 -8 60q-2 4 -74 376q-43 223 -86 369q-2 10 -9.5 38t-15.5 69l-16 69l-6 19q-25 -90 -45 -203 q-23 -121 -54.5 -249t-78.5 -304l-68 -244q-14 -59 -45 -125q-18 -45 -39 -69q-14 -20 -31 -31q-33 -20 -65 -8q-18 6 -33 22q-6 6 -12 17q-10 16 -21 41q-20 39 -47 108q-39 96 -63 176q-113 326 -183 504q-51 137 -92 229q2 -162 -4 -251q-14 -225 -68 -611 q-6 -41 -8 -133q-2 -96 -10 -149q-4 -23 -24.5 -38.5t-44 -11t-39 24.5t-11.5 45z" />
<glyph unicode="N" horiz-adv-x="1593" d="M137 221q72 113 99 330q8 68 18 190q10 129 18 189q37 262 39 270q10 70 21 107q8 25 16 40t21 23q27 20 57 12q37 -10 68 -57q20 -29 41 -74q14 -29 31.5 -71.5t19.5 -49.5q47 -102 116.5 -222t116.5 -193l142 -213q37 -55 114 -158l33 -43q4 23 6 49q10 109 12 295 q2 121 -6 506q-2 100 0 147q2 55 10 91q14 61 54 84q23 10 53 8q18 -2 45 -6q37 -8 100 -27q162 -47 164 -47q25 -4 39 -24.5t10 -45t-24.5 -39t-44.5 -10.5q-10 2 -176 51q-59 18 -93 25q-6 2 -12 2q-4 -23 -6 -68q-2 -39 0 -137q8 -377 6 -512q-2 -190 -12 -305 q-8 -70 -19 -113q-14 -63 -45 -88q-25 -18 -55 -10q-10 4 -18 10q-8 4 -17 13q-10 10 -28 30q-27 33 -70 92q-82 109 -119 164l-141 215q-49 74 -121 199t-121 231q-4 6 -20.5 46t-28.5 67l-2 -12q-2 -8 -37 -269q-8 -63 -18 -186q-10 -125 -19 -190q-31 -242 -114 -377 q-14 -20 -38 -26.5t-44.5 7t-26.5 37t6 43.5z" />
<glyph unicode="O" horiz-adv-x="1392" d="M893 1356q-6 -6 -10 -8q-2 -2 -6.5 -5.5t-15.5 -7.5t-23 -4q-43 2 -54 43q-2 6 -2 12q-180 -14 -313 -160.5t-172 -351.5q-43 -242 68 -421q127 -201 417 -248q139 -23 275 80q133 102 188 252q59 164 6 446q-41 217 -207 320q-100 61 -151 53zM1171 1356 q156 -131 199 -352q57 -313 -14 -508q-31 -84 -89.5 -162t-134 -139.5t-173 -92t-193.5 -16.5q-346 53 -502 305q-135 219 -84 506q25 127 87.5 243.5t153.5 206t218 132.5t264 22q18 -4 33 -16q35 0 84 -2q133 -6 174 -8q25 -2 41 -20.5t14 -43.5t-20.5 -41t-42.5 -14h-15z " />
<glyph unicode="P" horiz-adv-x="1259" d="M307 664q-8 -471 -18 -562q-4 -25 -23.5 -39t-44 -11t-39 22.5t-12.5 44.5q4 33 7 78t5 107.5t3 111.5t2 135t1 135l-61 12q-25 4 -38 24.5t-8 45.5t25.5 38t45.5 7l38 -8q6 231 23 369q20 193 70 268q45 72 118.5 100.5t167.5 40.5q260 31 453 -82q117 -70 192 -241 q76 -180 35 -312q-37 -109 -127 -185.5t-202 -103.5q-43 -10 -97.5 -15t-83 -6t-101.5 0t-79 1q-111 0 -252 25zM309 782q143 -25 250 -24q20 0 67.5 -1t73 0t63.5 2t68.5 5t59.5 10q86 20 152.5 76.5t91.5 134.5q31 88 -31 227q-57 137 -143 187q-156 92 -379 65 q-156 -18 -201 -88q-33 -51 -51 -215q-14 -137 -21 -368v-11z" />
<glyph unicode="Q" horiz-adv-x="1499" d="M1024 238q135 111 188 321q59 231 -10 460.5t-246 332.5q-20 10 -26 30q-121 57 -263.5 28.5t-248.5 -128.5q-117 -111 -171 -273.5t-34 -328.5q18 -172 111.5 -303t250.5 -189q195 -70 347 -10q-61 76 -156 254q-10 23 -3 46.5t28.5 34.5t45 4t35.5 -28 q95 -179 152 -251zM1008 86q-207 -104 -473 -8q-193 70 -306 229q-113 158 -135 359q-23 193 41 383q63 188 201 319q86 82 200.5 126t231.5 45t227.5 -55.5t182.5 -166.5l2 -2q84 -100 130 -237.5t47 -274.5t-28 -273q-61 -240 -217 -372q119 -76 307 -2q25 8 47.5 -1.5 t30.5 -33t-1 -46t-32 -30.5q-268 -104 -446 35z" />
<glyph unicode="R" horiz-adv-x="1673" d="M831 684q-133 -70 -219 -88q-127 -29 -321 -31q0 -4 16 -262q10 -174 27 -280q2 -25 -12.5 -44.5t-39 -22.5t-44 11.5t-23.5 38.5q-14 102 -27 291q-16 258 -16 268q-23 2 -38 19.5t-15 40.5q0 45 43 57l-53 645h-7q-25 2 -42 19.5t-15 42t19.5 42t41.5 15.5h5 q16 27 46.5 29t49.5 -21q25 4 59 12q158 39 176 43q145 29 313.5 0.5t295.5 -118.5q68 -49 129 -124t71 -151q10 -90 -77 -190q-66 -74 -183 -150l-55 -35q43 -53 86 -123.5t68 -115.5l69 -140q45 -94 60 -120q94 -186 189 -308t237 -196q20 -12 27 -36t-4 -45.5 t-34.5 -28.5t-46.5 3q-84 47 -156.5 109.5t-131 140.5t-99.5 145.5t-88 159.5q-14 31 -63 131l-74 142q-20 41 -62.5 108.5t-81.5 116.5zM752 776q-10 35 14 60q16 18 40.5 18t43.5 -16l6 -7q37 20 72 43q102 68 157 132q51 59 48 94q-4 43 -50.5 98t-101.5 94 q-104 76 -245.5 100.5t-272.5 -1.5q-16 -2 -168 -41q-37 -8 -68 -15l54 -651q193 2 307 27q60 14 164 65z" />
<glyph unicode="S" horiz-adv-x="1222" d="M903 1200q-16 41 -45 55q-25 14 -94 25q-201 33 -318 -31q-123 -68 -129 -256q0 -16 -2 -39.5t-2 -28.5t2 -24q20 -86 105 -117q57 -20 233 -34q59 -4 94 -8.5t94.5 -15.5t101.5 -28.5t90 -45t86 -70.5t69 -101q23 -43 33 -100t-2 -115q-35 -115 -183 -246 q-88 -78 -190.5 -113.5t-198.5 -29.5q-98 4 -194 43q-139 55 -252 168q-111 113 -168 256q-8 23 1 45.5t31.5 31.5t45 0t32.5 -32q49 -121 143.5 -217t209.5 -141q109 -49 233.5 -32t228.5 112q121 109 146 188q6 20 -1 60t-22 69q-31 59 -75.5 99t-108 60.5t-115.5 28.5 q-49 8 -139 15q-190 14 -264 43q-143 51 -178 198q-6 20 -6 44t2 53l2 28q8 254 190 357q152 84 395 45q88 -14 131 -39q68 -35 99 -115q8 -25 -1 -47t-33 -30.5t-46.5 0.5t-30.5 32z" />
<glyph unicode="T" horiz-adv-x="974" d="M532 1337q-264 -29 -452 -102q-25 -8 -47.5 1t-30.5 32.5t1 46t32 31.5q102 39 208.5 65.5t237.5 40.5t205 19.5t227 13.5q25 2 43.5 -14.5t20.5 -41t-14.5 -43t-40.5 -20.5q-186 -10 -271 -16q16 -133 6 -346q-16 -322 -14 -361q2 -86 23 -256q23 -172 22 -268 q0 -25 -17.5 -42.5t-42 -17.5t-42 17.5t-17.5 42.5q0 88 -20 254q-23 180 -25 266q-2 55 15 371q9 204 -7 327z" />
<glyph unicode="U" horiz-adv-x="1503" d="M317 1405q12 -123 -6 -320q-25 -266 -26 -305q-8 -246 59 -405q84 -197 277 -213q152 -12 237 108q51 70 89 157t58.5 154.5t37 183.5t22.5 171t16 188q0 8 -4 94.5t15 122.5q25 57 92 74q43 12 106 6q35 -4 96 -16q51 -10 64 -10q25 -2 41 -20.5t14 -43t-20.5 -41 t-42.5 -14.5q-20 2 -78 12q-55 12 -86 15q-41 4 -64 -3q-12 -2 -16 -8q-4 -10 -2 -67q6 -94 4 -109q-2 -12 -4 -35q-8 -119 -15 -182t-24.5 -175t-41 -187.5t-64.5 -168t-95 -167.5q-127 -176 -344 -158q-266 23 -376 285q-78 184 -70 456q2 51 27 314q18 190 6 295 q-2 25 13 44t39.5 21t44 -13t21.5 -40z" />
<glyph unicode="V" horiz-adv-x="1032" d="M106 1513q115 -164 238 -530q14 -39 57 -176t72 -218t62 -151q20 -49 96 -190q37 -68 55 -98q14 27 27 69q16 53 32 168q6 39 19 215q18 309 20 348q16 215 31 332q8 72 19 117q6 27 12 43q12 31 33 45q27 18 67 16q6 0 12 -1l5 -1h4h4q25 2 43 -14.5t20 -41t-14 -43 t-41 -20.5h-27l-4 -8q-8 -35 -16 -106q-14 -123 -29 -326q-2 -39 -22 -348q-14 -203 -17 -223q-18 -123 -37 -185q-18 -68 -45 -106q-41 -63 -102 -72q-20 -2 -39 8q-6 4 -13 11.5t-14 15.5l-26 39q-25 41 -62 111q-76 139 -102 196q-23 55 -50.5 130t-45.5 132l-49 152 l-48 143q-117 350 -223 498q-14 20 -10 44.5t24.5 39t45 10t38.5 -24.5z" />
<glyph unicode="W" horiz-adv-x="1992" d="M152 1395q90 -199 167 -525l29 -125l33 -139q12 -47 31.5 -120.5t40.5 -133.5q45 -139 67 -190q27 -57 49 -80h2q29 29 60 127q33 102 63 274q23 129 47 308q27 184 27 192q20 115 37 191q16 70 33 112q10 29 22 47q23 33 53 41q39 10 72 -16q20 -14 37 -41 q25 -35 45 -98q23 -63 43 -162l94 -436q39 -166 64 -261l8 -28q14 33 31 82q31 84 77 258q43 164 78 338q2 23 15 118q10 94 24 152q49 211 187 250q55 14 141 2q25 -4 64.5 -12.5t52.5 -10.5q25 -6 39 -25.5t9 -44t-24.5 -39t-44.5 -9.5q-12 2 -51 11t-64 11q-61 10 -90 2 q-72 -20 -104 -162q-10 -51 -21 -137q-12 -102 -18 -127q-35 -184 -78 -346q-47 -176 -80 -268q-31 -92 -59 -142q-20 -35 -43 -51q-41 -35 -88 -16q-16 8 -27 24q-6 6 -10 17q-6 12 -12 31q-12 33 -27 92q-27 96 -63 266l-95 436q-20 88 -41 148q-6 23 -14 39 q-10 -31 -18 -72q-16 -72 -35 -184q-2 -6 -27 -193q-27 -180 -49 -307q-33 -184 -68 -291q-49 -152 -112 -195q-39 -27 -82 -16q-33 8 -62 37q-39 37 -73 115q-27 55 -76 202q-18 59 -38.5 135t-33.5 123l-33 144q-23 96 -28 127q-76 317 -160 502q-10 23 -2 45t30.5 32.5 t45.5 2.5t33 -31z" />
<glyph unicode="X" horiz-adv-x="1191" d="M1133 1489q-76 -115 -168 -326q-115 -264 -162 -350q-18 -35 -45 -76l73 -110l170 -277q98 -160 181 -264q14 -20 11 -45t-22.5 -39t-44 -11t-39.5 21q-84 111 -186 275l-172 278l-43 66q-33 -45 -51 -78l-80 -135q-57 -98 -96 -158.5t-98.5 -143.5t-124 -144.5 t-134.5 -104.5q-20 -12 -44.5 -6t-37 26.5t-6.5 45t27 36.5q61 37 116.5 90.5t110 129t90 132t93.5 154.5l81 139l82 123l-145 219q-16 27 -59 103q-39 70 -62 106q-74 113 -143 142q-35 16 -156 -9q-12 -2 -16 -2q-25 -6 -45.5 8.5t-25.5 38t9.5 44t36.5 24.5q4 2 24.5 6 t33 6t34 6.5t39 4.5t39 -1t40 -5.5t36.5 -10.5q100 -45 192 -188q27 -39 66 -113l55 -94l119 -176l14 24q43 80 156 340q96 221 178 344q14 20 38 25.5t44.5 -9t25.5 -38t-9 -43.5z" />
<glyph unicode="Y" horiz-adv-x="1355" d="M715 629l295 -527q12 -20 6 -44.5t-27.5 -36t-46 -5t-35.5 28.5l-198 356l-187 318q-121 205 -228.5 363.5t-219.5 299.5q-14 20 -11 44t22 39.5t43 12.5t40 -22q225 -287 481 -719l150 168l141 158q53 59 154.5 194.5t158.5 200.5q16 18 41 20.5t43.5 -14t20.5 -41 t-15 -43.5q-55 -63 -155 -194q-102 -137 -158 -201l-149 -166q-109 -120 -166 -190z" />
<glyph unicode="Z" horiz-adv-x="1189" d="M223 1389q63 6 193 0q117 -4 176 2q27 2 98 16q82 16 125 23q174 20 258 -48q57 -47 51 -108q-2 -31 -34 -80q-23 -35 -66 -88q-70 -88 -193 -225l-335 -367q-4 -6 -29 -31l-49 -53l-53 -55q-43 -51 -66 -84q-4 -8 -8 -15q25 -10 74 -18q98 -16 276 -20q117 -2 303 0 q166 4 193 2q25 -2 41 -20.5t14 -43t-20.5 -41t-43.5 -14.5q-20 2 -182 -2q-188 -2 -307 0q-186 4 -293 20q-68 12 -108 29q-66 31 -74 84q-2 27 10 59q10 20 27 47q27 39 75 95q23 27 52 55l51 57l31 31l333 362q119 133 189 222q39 51 59 80q10 18 13 24l-5 4 q-47 37 -170 23q-39 -4 -114 -21q-80 -14 -111 -18q-68 -6 -194 -2q-119 6 -174 0q-25 -2 -44.5 13t-21.5 40t13 44.5t40 21.5z" />
<glyph unicode="[" horiz-adv-x="411" d="M299 1305q-49 0 -73.5 -25t-37.5 -76q-4 -27 -7 -60.5t-3 -59t1 -67.5t1 -63q0 -88 13 -243q14 -184 16 -250v-82q0 -59 -2 -149.5t-2 -155.5q-2 -139 2 -221q0 -47 4 -74l2 -23q8 -10 43 -14q20 -2 51 -2q43 -2 51 -2q25 -2 41.5 -20.5t14.5 -43t-20.5 -41t-43.5 -14.5 q-6 0 -44 1t-64 3q-100 14 -136 80q-10 18 -14 64q-4 31 -4 83q-4 82 -2 226q0 63 2 153t2 148v80q-2 51 -16 245q-12 160 -13 252q0 14 -1 58.5t-1 73t3.5 70.5t11.5 73q18 86 67 135q59 59 158 59q25 0 42 -17t17 -42t-17 -42t-42 -17z" />
<glyph unicode="\" horiz-adv-x="622" d="M70 1378q51 -86 97 -182t69 -154l67 -178l66 -168q49 -125 135 -327q92 -211 117 -273q8 -23 -1.5 -45t-32 -31.5t-45 0t-32.5 31.5l-117 273q-90 211 -135 327l-65 172l-68 174q-23 55 -66 146.5t-92 173.5q-12 20 -6 44.5t26.5 37t45.5 6t37 -26.5z" />
<glyph unicode="]" horiz-adv-x="374" d="M33 1417l119 17q45 2 77 -2q55 -10 82 -43t35 -113q8 -55 8 -139q0 -55 -2 -141.5t-2 -98.5q0 -160 11.5 -477.5t11.5 -476.5q0 -8 3 -63.5t3 -92.5q-2 -59 -12 -98q-18 -63 -62 -90q-37 -23 -98 -25q-53 0 -62 -2q-23 -6 -44 7t-26 37t8 45.5t38 25.5q18 4 84 6 q29 2 39 8q6 14 8 18q6 27 8 70q0 33 -2 84q-4 59 -4 70q0 160 -11.5 477t-11.5 477q0 12 2.5 98t2.5 142q0 78 -7 125q-4 35 -10 51q-4 0 -8 2q-20 2 -51 0q-10 0 -111 -17q-25 -2 -44 12.5t-22 39t11 44t39 23.5z" />
<glyph unicode="^" horiz-adv-x="831" d="M98 756q10 16 37 67l64 127l69 135q66 125 111 193q27 43 47 68q14 16 27 24q25 18 49 19q70 0 116 -66q33 -43 58 -137l16 -68q8 -37 15 -53q80 -221 120 -313q10 -23 2 -45.5t-30.5 -32.5t-45 -2t-32.5 30q-45 100 -125 322q-8 25 -18 66l-17 65q-20 74 -37 98 q-6 6 -12 11q-14 -16 -35 -50q-41 -63 -104 -184l-70 -137l-65 -129l-37 -70q-12 -20 -36 -26t-45.5 6t-27.5 35.5t6 46.5z" />
<glyph unicode="_" horiz-adv-x="1118" d="M-57 -154q172 31 386 35t356 -6t382 -33q25 -2 40 -21.5t13 -44t-21.5 -40t-43.5 -12.5q-236 23 -377 33t-345 5.5t-370 -34.5q-25 -4 -44 10t-24.5 38.5t9 44t39.5 25.5z" />
<glyph unicode="`" horiz-adv-x="389" d="M152 1507q143 -180 231 -342q12 -23 5 -46t-28.5 -34.5t-45 -4.5t-33.5 28q-86 154 -224 326q-14 18 -11 42.5t21.5 40t43.5 12t41 -21.5z" />
<glyph unicode="a" horiz-adv-x="991" d="M862 131l-4 12q-6 41 -10 86t-7 105.5t-5 81.5q-2 39 -7 73l-2 3q-55 92 -182 114q-133 25 -231.5 -46t-116.5 -179q-18 -106 53 -178q94 -92 299 -94q45 0 142 12zM137 848q86 119 146 160q88 63 221 61q242 -2 356 -235q76 -152 94 -410q2 -31 4 -84q4 -57 7.5 -97 t11.5 -79q2 -2 8 -19q20 -53 -10 -90q-14 -16 -41 -26q-14 -6 -37 -11q-37 -8 -92 -16q-104 -12 -156 -12q-256 4 -381 129q-117 117 -88 282q27 154 164 255.5t322 68.5q70 -14 127 -43q-16 55 -39 98q-82 168 -250 170q-96 2 -154 -39q-43 -31 -119 -133 q-14 -20 -37.5 -23t-44 11t-23.5 38t11 44z" />
<glyph unicode="b" horiz-adv-x="980" d="M274 414l-2 -17q-6 -63 -6 -96q-4 -100 29 -139q18 -23 76 -37q63 -16 149 -14q80 0 150.5 15t97.5 36q63 43 88 133q20 59 2 176t-67 217q-53 106 -121 151.5t-142 18.5q-102 -37 -172 -182q-49 -102 -82 -262zM248 1389q6 -72 6 -175q2 -141 2 -165q2 -47 14 -281 q86 154 217 201q76 23 136.5 15.5t114 -47.5t91 -88t68.5 -110q57 -117 77.5 -250t-3.5 -227q-37 -129 -133 -199q-47 -33 -135.5 -52t-182.5 -19q-100 -2 -178 16q-96 25 -141 80q-57 74 -54 217q0 35 7 103q0 8 2 18v6q4 37 4 60q2 109 -9.5 306t-13.5 246q0 27 -2 170 q0 98 -6 162q-2 25 13.5 44.5t40 21.5t44 -13t21.5 -40z" />
<glyph unicode="c" horiz-adv-x="894" d="M774 813q-106 100 -221 117q-168 29 -248 -84q-70 -100 -78 -299q-4 -55 -2 -100.5t17 -75.5q51 -104 127.5 -169t154.5 -77t145.5 34t112.5 163q8 23 31 33t45.5 1.5t32.5 -31t2 -44.5q-57 -152 -159.5 -222.5t-225.5 -50.5q-113 16 -213 101q-98 84 -160 208 q-27 53 -29 125q-4 70 3 109q8 233 100 364q121 172 364 134q147 -25 283 -150q18 -16 18 -40.5t-16 -43t-41 -18.5t-43 16z" />
<glyph unicode="d" horiz-adv-x="962" d="M752 680q-6 23 -17 14q4 0 6 -8q-4 4 -10 8l-33 23l-57 37q-100 63 -201.5 70t-181.5 -56q-76 -68 -78 -223q-2 -150 144 -221q123 -61 319 -62q20 0 55 -1t50 -1q0 25 2 59v31v217q0 62 2 113zM918 1337q27 -106 2 -256q-4 -20 -23 -118q-12 -66 -16 -111 q-8 -84 -11 -184q12 -70 9 -193q-2 -33 -5.5 -89t-5.5 -69v-32l9 4q23 10 46 3t34.5 -28.5t4 -45t-27.5 -36.5q-47 -25 -100 -32l-13 -5q-8 -2 -16 0q-14 -2 -162 -2q-225 0 -373 74q-211 104 -209 328q2 211 119 313q74 66 174.5 80t186.5 -10.5t161 -71.5l56 -37l4 45 q6 47 18 121q18 96 23 115q20 127 0 209q-6 25 6 45t36.5 26t45.5 -6t27 -37z" />
<glyph unicode="e" d="M358 590q119 4 236 18q119 16 194.5 41t90.5 47q51 82 -78 170q-61 45 -135 65.5t-115 10.5q-37 -8 -78 -61.5t-74 -139.5q-27 -73 -41 -151zM229 475h-6q-25 4 -40 23.5t-12 43t22.5 39t42.5 13.5h2q16 96 51 188q92 242 233 275q72 16 170.5 -10.5t175.5 -81.5 q41 -27 72 -62t53.5 -78t19.5 -93t-36 -101q-37 -57 -152 -94q-88 -29 -215 -45q-131 -18 -260 -21q0 -8 2 -14q10 -70 59.5 -139.5t116.5 -118.5q154 -102 283 -33q23 10 41 25.5t25.5 22.5t31.5 38l37 43q16 18 41 20t43.5 -14t20.5 -40.5t-15 -43.5l-26 -33 q-18 -23 -29.5 -35t-29 -29.5t-38 -31.5t-45.5 -29q-68 -35 -142.5 -38t-139 17.5t-123.5 63.5q-88 59 -149.5 148.5t-80.5 185.5q-2 19 -4 39z" />
<glyph unicode="f" horiz-adv-x="927" d="M842 799q-141 6 -267 4q0 -47 5 -101q6 -123 30 -407q20 -236 21 -320q0 -88 -33 -178t-92 -147q-70 -72 -158 -74q-96 -2 -188 84q-18 16 -18.5 41t16 43t41 18t43.5 -16q55 -51 104 -51q39 0 76 37q41 41 65.5 108.5t24.5 134.5q0 74 -20 310q-25 283 -31 411 q-4 55 -4 105q-70 -2 -146 -8q-25 -2 -43 14t-20 40.5t14.5 43t40.5 20.5q74 6 152 9q0 100 8 178q18 207 92 293q61 72 174 71q61 2 156 -24q25 -6 37 -27.5t6 -45.5t-27.5 -36t-44.5 -6q-82 23 -127 20q-57 0 -84 -30q-49 -57 -65 -228q-6 -72 -7 -163q129 2 273 -4 q25 -2 41 -19.5t15 -42.5t-18 -41t-42 -16z" />
<glyph unicode="g" horiz-adv-x="1005" d="M840 846q-66 68 -146 97.5t-153.5 21t-141.5 -46.5q-111 -66 -162 -190t-8 -271q45 -156 131 -215q160 -106 277 -11q111 90 160 299q25 104 39 258q2 19 4 58zM885 406q-63 -176 -172 -267q-86 -72 -189.5 -74t-228.5 78q-123 82 -180 281q-53 188 13.5 350t211.5 246 q111 70 255 63.5t265 -98.5l10 10q31 20 62 4q10 -6 18 -14t11 -14l2 -4q2 -6 2 -13q12 -47 6 -139q-4 -86 0 -115l6 -47q12 -98 18 -154.5t11.5 -162t-3 -179t-32.5 -159.5q-23 -86 -66 -152q-84 -127 -209 -206q-129 -80 -264 -86q-147 -8 -265 72.5t-173 250.5 q-6 25 5 46.5t34.5 28.5t45 -4t30.5 -34q41 -131 125.5 -189.5t189.5 -52.5q106 6 209.5 69.5t173.5 170.5q103 158 78 494z" />
<glyph unicode="h" horiz-adv-x="1019" d="M207 1343q10 -39 14 -81.5t6 -94t4 -73.5q4 -55 18.5 -160t16.5 -135q8 2 67.5 28.5t84.5 36.5l74 25q45 14 81 20q162 27 265 -88q78 -86 118 -256q27 -113 43 -293q20 -215 23 -231q4 -25 -11.5 -45.5t-39 -24.5t-44 11.5t-24.5 37.5q-4 29 -22 240q-16 174 -41 279 q-33 139 -90 202q-59 66 -156 50q-49 -8 -98 -25q-49 -18 -115 -48t-102 -44q0 -18 5 -108.5t9 -120t12 -95t23.5 -113t38.5 -92.5q10 -23 1.5 -46t-30 -33.5t-45 -2t-33.5 28.5q-35 74 -56.5 166t-27.5 156.5t-12 172t-10 150.5q-4 55 -19.5 171t-21.5 177q-2 31 -4.5 79 t-5.5 82t-11 69q-6 25 6.5 45t37 26.5t45 -6t26.5 -37.5z" />
<glyph unicode="i" horiz-adv-x="657" d="M317 1067q0 -66 2.5 -80t-3 -87t-7.5 -91l-10 -92q-8 -74 -10 -90q-29 -285 2 -404q14 -53 50 -86t79 -39q92 -14 123 88q8 25 29.5 36t45 4t35 -28.5t4.5 -43.5q-29 -96 -99.5 -141.5t-154.5 -32.5q-80 12 -142 69t-85 146q-35 139 -4 444q2 18 9 92t9.5 90.5t7.5 85 t3 78.5t-2 74q-2 25 14 43t41 20t43 -14t20 -41zM203 1348q47 37 84 45q27 6 51 -2q31 -12 43 -45q14 -37 -10 -82q-18 -35 -52 -64q-18 -16 -42.5 -14t-40.5 20q-14 16 -15 37q-18 6 -28 21q-14 20 -11 45t21 39z" />
<glyph unicode="j" horiz-adv-x="940" d="M414 127q-78 -59 -140 -131q-31 -39 -38 -106.5t16 -125.5q18 -51 47 -65q25 -12 63 12q45 31 60 137q10 76 0 197q-2 41 -8 82zM356 1200l11 -135q6 -80 14 -129q8 -59 88 -434q23 -106 35 -183l2 3q6 2 117 43q61 20 92 45q14 10 26.5 24.5t19.5 24.5t18.5 33.5 t15.5 33t17 42t15 40.5q10 23 33 32t45.5 0t31.5 -31.5t1 -45.5q-2 -6 -14 -37l-19 -45q-6 -14 -19.5 -42.5t-25.5 -46t-31.5 -39t-40.5 -38.5q-47 -35 -124 -63l-109 -41q-16 -6 -31 -12q10 -76 17 -146q10 -131 -2 -219q-18 -162 -111 -221q-96 -63 -184 -19 q-70 35 -105 132q-31 74 -20.5 176t65.5 168q88 111 211 190q-16 88 -43 217q-88 430 -90 438q-8 53 -14 140q-8 109 -10 133t13 43.5t39.5 21.5t44 -13t21.5 -40zM246 1376q-68 90 -49 168q10 39 45 49q49 16 77 -32q14 -29 17 -86q0 -8 -2 -17q4 -4 6 -8q14 -20 11 -45 t-22.5 -39t-44 -11t-38.5 21z" />
<glyph unicode="k" horiz-adv-x="1286" d="M393 614l-92 -118q4 -29 25.5 -166t31.5 -211q2 -25 -12 -44.5t-38.5 -22.5t-44 11.5t-23.5 38.5q-2 27 -52 344q-2 0 -4 3q-16 14 -19 37.5t11 41.5l-12 90q-8 68 -21.5 219.5t-29 261t-39.5 210.5q-6 25 6 45t36.5 26t45 -6t26.5 -37q25 -100 40.5 -205.5t30.5 -268.5 t20 -201l71 92q4 39 41 51h2q125 147 244 213q20 12 44 6t36 -27.5t6 -45t-29 -36.5q-102 -59 -213 -190q70 -205 150 -395q61 -143 110 -238q55 -104 90 -133q119 -100 390 -68q25 2 44 -13t22 -38.5t-12 -43t-38 -23.5q-324 -39 -483 96q-51 43 -117 168q-53 98 -115 248 q-66 151 -129 329z" />
<glyph unicode="l" horiz-adv-x="487" d="M317 111q-8 6 -16 -5h2h4zM340 1432q6 -96 9 -283.5t3 -208.5q2 -55 10.5 -182t9.5 -191.5t-5 -191.5q-2 -8 -5 -29l-8 -41q-12 -63 -18 -106q-8 -51 -8 -82h2q68 37 82 43q25 6 46 -5.5t28.5 -35t-4 -45t-33.5 -29.5q-4 0 -62 -33q-63 -33 -115 -20q-41 10 -55 55 q-8 20 -8 53q-2 43 8 115l21 113l8 41q2 14 2 18q6 121 5 179.5t-9 181t-11 188.5q0 25 -3 208t-9 279q-2 25 14.5 43.5t41 20.5t43 -14t20.5 -41z" />
<glyph unicode="m" horiz-adv-x="1531" d="M119 176.5q10 22.5 35 155.5q8 37 53 282q37 205 53 273q12 59 25 94q6 20 14 35q16 31 43 41q47 14 88 -23q18 -18 37 -53q10 -18 27 -55q16 -39 20 -49q45 -92 86 -191l102 -248l80 -190q27 68 58 196q23 90 49 224l26 145q10 45 35 117q16 43 29 67q10 18 18 31 q31 37 72 25q27 -8 47 -37q12 -16 23 -41q16 -35 37 -94l26 -97q14 -49 17 -55q55 -147 106 -315l113 -385q61 -215 94 -320q6 -23 -5 -44t-35 -28.5t-45.5 4t-29.5 35.5l-92 320l-113 379q-51 166 -104 313q-4 10 -18 64q-16 57 -29 92l-6 22q-18 -53 -25 -82l-26 -145 q-27 -133 -48 -223q-33 -135 -63 -213q-20 -49 -41 -78q-37 -49 -86 -45q-55 4 -76 65l-6 25q-2 10 -4 12l-82 199l-102 246q-43 104 -88 200q-6 10 -23 52l-4 8l-6 -27q-14 -66 -51 -266q-45 -246 -54 -285q-29 -147 -45 -182q-10 -23 -32.5 -31t-45 2.5t-30.5 33t2 45z " />
<glyph unicode="n" horiz-adv-x="1107" d="M86 111q-2 45 -14 163q-12 115 -15 172q-4 139 9 250q2 18 4 47v27q0 20 2 31q2 82 22 129q31 72 90 94q51 20 117 -2q90 -31 211 -150q154 -152 289 -352q2 -4 14 -22.5t21 -32.5q29 -45 53 -76q31 -39 53 -53q18 27 31 96q16 82 18 223q2 100 -2 242q-4 147 -2 176 q0 25 18.5 41t43 16t41 -18t16.5 -43q0 -27 2 -170q4 -152 2 -246q-4 -150 -20 -243q-25 -133 -84 -177q-57 -43 -127 3q-39 25 -82 79q-29 35 -62 86q-8 14 -19 32t-14 22q-129 190 -274 333q-100 98 -166 121q-23 8 -35 4t-22 -28q-12 -29 -17 -88v-31v-25q-2 -37 -4 -61 q-12 -94 -8 -229q2 -49 14 -164q12 -113 15 -172q0 -25 -16.5 -43.5t-41 -18.5t-43 16.5t-18.5 41.5z" />
<glyph unicode="o" horiz-adv-x="937" d="M395 950q-55 -23 -94 -96q-53 -100 -57 -242q-2 -145 54 -255.5t163 -141.5q174 -53 272 33q90 78 88 229q0 104 -44 199.5t-141 172.5t-230 97q-7 2 -11 4zM506 1047q139 -41 239.5 -134.5t147.5 -205t47 -228.5q0 -209 -129 -321q-147 -127 -383 -58q-106 33 -178 119 t-99.5 186.5t-25.5 210.5q4 168 72 293q78 147 206 166q31 4 64 -12q10 -4 16 -7t11 -3q6 -2 12 -6z" />
<glyph unicode="p" horiz-adv-x="923" d="M258 500q6 0 160 -47q117 -33 194 -11q74 23 140 97q66 82 54.5 163.5t-84.5 154.5t-163 92.5t-160 -25.5q-82 -55 -114 -209q-21 -88 -27 -215zM117 -367q16 57 22 145.5t5 164t-4 204.5t-3 203v60q-20 20 -18 47q2 25 20 41q6 141 29 241q45 203 166 283q74 49 165 50 t168.5 -35t139.5 -95q63 -63 96 -140t20.5 -170t-81.5 -171q-90 -100 -197 -133q-111 -33 -260 12q-18 4 -62 18.5t-67 20.5v-29q0 -63 3 -195t4 -212t-5 -179q-8 -96 -27 -163q-6 -23 -27.5 -35t-45 -6t-35.5 27t-6 46z" />
<glyph unicode="q" horiz-adv-x="1196" d="M778 135q-106 156 -153 260q-8 23 0 46.5t30.5 32.5t46 1t33.5 -31q41 -96 135 -235q23 23 41 47q84 113 102.5 247t-40.5 247q-43 76 -172 172q-147 43 -273 -27q-125 -70 -194 -211q-49 -102 -53 -205q-4 -102 47 -196q51 -92 153 -148q150 -82 297 0zM844 37 q-205 -123 -420 -8q-102 57 -166.5 143t-82 182.5t-5.5 193.5t55 187q80 164 232.5 257t335.5 55q29 8 51 -9l10 -8q27 -10 53 -22q31 -12 35 -47q90 -78 133 -154q53 -94 59.5 -209t-28.5 -219.5t-98 -192.5q-31 -43 -70 -77l53 -80q39 -63 103 -201q59 -127 94 -184 q14 -20 9 -45t-25.5 -38.5t-45 -8t-36.5 25.5q-43 68 -105 201q-63 137 -96 188z" />
<glyph unicode="r" horiz-adv-x="860" d="M188 1130q39 -59 60 -192q8 -55 12 -127q61 139 152 221q96 90 204 86q123 -4 232 -127q16 -18 14 -42.5t-20.5 -41t-43 -14.5t-40.5 20q-74 84 -146 86q-59 2 -120.5 -54t-106.5 -150q-47 -94 -61 -187q-23 -139 -23 -332v-112q0 -4 2 -19l2 -26q2 -20 0 -31.5t-6 -19.5 q-20 -41 -63 -35q-25 4 -39 24l-9 13q-18 35 -16 92q0 49 -2 57q-6 47 -10 119t-8 186q-2 109 -5 160q-6 150 -18 238q-14 106 -39 143q-14 20 -9 45t25.5 38t45 7.5t36.5 -25.5z" />
<glyph unicode="s" horiz-adv-x="1032" d="M647 1026q-49 -2 -109.5 -47t-101.5 -113q-39 -72 -39 -120t35 -72q43 -29 123 -35q29 -2 82 -2q61 -2 86 -2q111 -6 176 -45q88 -55 117 -180q29 -123 14 -187q-31 -147 -207 -237q-160 -82 -303 -58q-68 12 -108 43l-21 21l-26 24l-23 23q-18 16 -18 40.5t16 43 t41 18.5t43 -16q16 -14 35 -33q16 -18 26 -24q16 -14 56 -21q104 -18 227 45q127 63 147 156q8 39 -14 133q-18 78 -65 106q-39 25 -119 29q-23 0 -82 2q-55 0 -88 2q-113 8 -180 55q-61 41 -79 108t-2.5 127t50.5 118q51 88 135 151.5t172 65.5q25 0 43.5 -16.5t18.5 -41 t-16.5 -43t-41.5 -18.5z" />
<glyph unicode="t" horiz-adv-x="808" d="M297 922q-86 -6 -170 -15q-25 -2 -44.5 13.5t-21.5 40t13.5 44t40.5 21.5l149 12l-51 174q-6 23 5 44.5t34.5 28.5t45 -4t30.5 -36l57 -201q152 8 305 9q25 0 42.5 -17.5t17.5 -42t-17.5 -42t-42.5 -17.5q-139 0 -272 -6l69 -238q18 -66 48 -205q27 -129 47 -196 q6 -23 17 -68t20.5 -73.5t21.5 -49.5q4 -10 8 -15t6 -5h2q16 -2 56 33q18 16 42.5 14t41 -20.5t14.5 -43t-20 -41.5q-78 -68 -146 -61q-66 8 -106 80q-16 27 -29.5 66.5t-26.5 91.5l-16 59q-20 72 -49 205q-33 152 -45 196z" />
<glyph unicode="u" horiz-adv-x="782" d="M315 1063q-8 -41 -55 -217q-39 -143 -53 -225q-47 -254 47 -398q33 -51 80 -82q49 -33 86 -22q166 43 219 311q6 39 12 84t9.5 78t4.5 88t1 74v77v66q0 25 17 42t42 17t42 -17t17 -42v-63v-80q0 -20 -2 -78t-5 -93.5t-8 -84.5t-13 -92q-70 -340 -307 -402 q-88 -23 -181 39q-68 43 -112 115q-121 184 -68 483q16 86 57 236q47 170 56 210q4 23 24.5 37.5t44 9t37.5 -25.5t8 -45z" />
<glyph unicode="v" horiz-adv-x="999" d="M162 1057q80 -139 135 -404q2 -8 10 -50t11.5 -52t10.5 -46t11 -50l12 -45q8 -29 17 -50l16 -43l16 -45q33 -72 56 -102q14 -18 24 -27q35 35 56 80q31 66 55 170q23 102 55 332q2 4 4 45t9.5 76t21.5 63q37 68 129 95q27 8 66 14q2 0 23.5 3t31.5 5q25 4 44 -10.5 t24.5 -39t-9 -44t-39.5 -25.5l-57 -8q-33 -4 -51 -10q-43 -12 -56 -37q-10 -16 -13 -34.5t-4 -50.5t-5 -58q-33 -236 -59 -342q-27 -117 -62 -193q-45 -102 -106 -137q-55 -33 -115 0q-33 20 -66 65q-29 39 -63 121q-14 29 -24.5 55.5t-20.5 62.5t-16.5 54.5t-15.5 62.5 t-12 54t-13.5 62.5t-10.5 54.5q-53 246 -123 370q-12 20 -6 44t27.5 36.5t45.5 6.5t36 -29z" />
<glyph unicode="w" horiz-adv-x="1458" d="M133 1087q53 -104 83 -233t51.5 -285.5t35.5 -226.5q10 -41 41 -100q6 -14 12 -25q10 18 19 45q23 74 39 201q10 78 24 219l15 149q14 86 26 132q12 51 29 81q35 61 88 60q49 -2 92 -47q29 -33 57 -88q43 -86 89 -236l43 -164q20 -86 36.5 -159.5t20.5 -87.5 q16 -63 33 -117q6 -23 10 -35q16 25 33 66q23 57 51 170q33 127 90 327q63 211 78 266l53 207q35 133 64 213q8 23 29.5 33t45 2t33.5 -29.5t2 -46.5q-29 -88 -59 -200q-51 -201 -54 -211l-77 -267q-57 -197 -90 -323q-31 -121 -56 -184q-27 -66 -55 -107q-47 -61 -107 -63 q-27 0 -47 18q-8 6 -14 18q-8 12 -16 33q-12 29 -29 78q-16 55 -33 123q-4 14 -20 88l-37 158q-20 86 -43 159q-41 141 -80 217q-18 35 -35 56l-10 -39q-10 -39 -23 -117q-4 -18 -14 -143q-14 -137 -25 -226q-20 -137 -45 -217q-14 -53 -32 -86q-29 -47 -70 -61 q-53 -16 -100 35q-25 27 -47 71q-37 72 -50 129q-20 92 -41 240q-20 152 -45.5 265.5t-74.5 211.5q-10 23 -3 46.5t29.5 33.5t46 3t33.5 -30z" />
<glyph unicode="x" horiz-adv-x="802" d="M797 1020l-29 -64q-4 -8 -6 -14q-6 -8 -14 -14q-2 -4 -7 -6q-12 -16 -43 -64q-27 -43 -73 -135q-55 -109 -80 -148l-47 -71q156 -244 293 -400q16 -18 14 -42.5t-20.5 -41t-43 -14.5t-41.5 21q-131 150 -274 372l-45 -65q-102 -147 -150 -242q-12 -23 -35.5 -30t-45 4.5 t-28.5 35t3 43.5q57 109 158 256l73 107l-24 39q-23 37 -58.5 102.5t-58 103.5t-58.5 81t-73 69q-20 14 -25.5 39t9 44.5t39 24.5t43.5 -10q47 -33 93 -87t70 -95l64 -110l53 -95l16 27q27 41 72 135q49 98 82 148q33 51 49 71q6 8 13 13l24 61q10 23 33.5 31t46 -1 t31 -32.5t0.5 -46.5z" />
<glyph unicode="y" horiz-adv-x="897" d="M223 -160q150 -47 213 47q35 51 53 148q-6 4 -12 10q-115 147 -205 406q-12 31 -26 88l-25 88q-29 96 -67 137q-4 4 -17 10l-37 21q-23 14 -27.5 37.5t8.5 45t36.5 26.5t44.5 -7q6 -4 11 -6t11 -6l11 -4q29 -16 45 -35q57 -63 94 -182q8 -27 26 -93q14 -53 23 -79 q63 -176 125 -283q4 72 6 209t6 194q10 244 78 332q49 63 141 62q33 0 113 -19q25 -4 38 -25.5t8 -45t-26.5 -37t-44.5 -7.5q-70 14 -90 15q-33 0 -45 -17q-45 -57 -53 -264q-4 -55 -6 -198.5t-6 -217.5q-16 -254 -92 -368q-111 -168 -345 -96q-25 8 -36 29.5t-3.5 45 t28.5 34.5t44 5z" />
<glyph unicode="z" horiz-adv-x="917" d="M129 891q0 2 16 14l25 21q8 8 25.5 19t34 18.5t34.5 9.5q31 6 105 0q63 -6 137 -19q80 -14 135 -30q31 -8 51 -19q35 -16 49 -39q27 -45 7 -118q-8 -37 -46 -84q-25 -33 -71 -84q-168 -182 -170 -185q-82 -96 -88 -143q-2 -10 0 -16q12 -12 49 -21q33 -6 69.5 -7t90 2 t84.5 3q121 0 190 4q25 2 43.5 -14.5t20.5 -41t-14.5 -43t-41.5 -20.5q-74 -4 -198 -4q-16 0 -75 -3t-107 -2t-87 11q-78 16 -114 60q-39 47 -29 112q14 78 117 201q4 4 172 186q43 47 65 76q20 29 25 41q4 14 4 25l-31 10q-45 14 -121 27q-74 12 -129 16q-55 6 -67 4 q-8 -2 -14.5 -5t-16.5 -9t-14 -10.5t-18.5 -16.5t-22.5 -16q-18 -16 -43 -14.5t-40.5 21t-13 44.5t22.5 39z" />
<glyph unicode="{" horiz-adv-x="706" d="M522 1333q-63 31 -96 0q-39 -37 -61 -143q-12 -47 -18.5 -109.5t-8.5 -103.5t-3 -99.5t-1 -68.5q-10 -242 -191 -332q39 -57 80 -196q16 -61 27 -172q10 -125 18 -162q12 -80 44 -130t97.5 -77t100.5 -12q25 10 96 84q18 18 43 18t42.5 -17.5t17.5 -42t-17 -40.5 q-90 -92 -135 -111q-80 -35 -192 10q-176 72 -215 297q-6 41 -19 172q-8 100 -22 150q-39 137 -72 174q-10 12 -23 16h-18h-6q-4 0 -6 -2q-4 0 -9 -2h-24q-31 6 -43 37q-10 27 4 51l14 17l4 4q2 2 4 2q6 4 15 6q20 8 43 8q14 2 28 0q186 41 195 254q0 4 1 65.5t3 105.5 t9.5 111.5t19.5 121.5q31 141 96 202q94 88 231 21q23 -10 30 -34t-3 -46.5t-33.5 -29.5t-46.5 3z" />
<glyph unicode="|" horiz-adv-x="268" d="M238 1417q29 -199 32.5 -416t-5.5 -506.5t-9 -406.5q0 -25 -17.5 -42t-42 -17t-42 17t-17.5 42q0 127 9.5 412.5t5 495.5t-32.5 405q-2 25 12 44t39 22t44.5 -11t23.5 -39z" />
<glyph unicode="}" horiz-adv-x="569" d="M39 1343q2 0 3 1.5t5 3.5l12 10q33 23 66 20q133 -10 215 -202q63 -147 61 -269q0 -29 -6 -69q-6 -51 -6 -60q-4 -61 10 -96q10 -27 25.5 -40t54.5 -34q-2 2 19 -2q59 -8 71 -59q2 -10 2 -18.5t-2 -12.5l-2 -4q0 -4 -3 -9t-7 -14q-6 -10 -18 -28l-56 -82 q-78 -121 -88 -160q-20 -78 -30 -203q-10 -131 -27 -178q-31 -96 -121 -141q-88 -47 -262 -53q-25 0 -43 16t-18 41t16 43t41 18q145 6 211 39q47 25 63 74q10 35 21 152q10 135 35 225q14 55 104 190l39 62q-51 25 -82 53q-31 27 -53 80q-27 61 -19 151q2 10 9 64 q4 35 4 55q2 98 -52 221q-51 117 -106 129q-20 -14 -33 -20q-20 -10 -43.5 -3t-35 28.5t-4.5 45t30 35.5z" />
<glyph unicode="~" horiz-adv-x="1175" d="M-10 354q20 72 66 137.5t108 106.5q41 27 83 40t75.5 17t75.5 -7t66.5 -20.5t66.5 -35t56.5 -36.5t55.5 -40q115 -84 168 -100q78 -23 150 37q84 72 98 247q2 25 20.5 41.5t43 14.5t41 -20.5t14.5 -43.5q-18 -227 -144 -330q-119 -100 -256 -59q-74 20 -207 117 q-59 45 -94 66.5t-80 39t-85 10t-83 -35.5q-92 -61 -125 -178q-6 -25 -27.5 -36.5t-46 -5t-35.5 27.5t-5 46z" />
<glyph unicode="&#xa1;" horiz-adv-x="372" d="M317 879q-41 -12 -86 16l-6 4q-41 14 -61 33q-37 31 -27 74q8 33 41 51q37 20 86 16q68 -2 94 -45q20 -33 17 -74q-2 -18 -10 -32q-11 -37 -48 -43zM346 688q0 -164 3 -489.5t3 -489.5q0 -25 -17.5 -42t-42 -17t-42 17.5t-17.5 41.5q0 164 -3 489.5t-3 489.5 q0 25 17.5 42.5t42 17.5t42 -17.5t17.5 -42.5z" />
<glyph unicode="&#xa2;" horiz-adv-x="1013" d="M354 199l117 354q80 240 123 399q-117 27 -184 -32q-12 -12 -22.5 -23.5t-13.5 -18t-16.5 -30t-17.5 -35.5q-55 -102 -82 -215q-27 -111 -12 -205q18 -126 108 -194zM733 1024q127 -66 172 -172q8 -23 -1 -45.5t-31.5 -31.5t-45 0t-32.5 32q-23 55 -93 98 q-43 -162 -118 -389l-123 -369l43 -12q111 -23 164 -10q72 16 137 63.5t100 106.5q12 23 36 29t45.5 -6.5t27.5 -36t-6 -43.5q-47 -84 -133.5 -145.5t-182.5 -82.5q-76 -18 -213 10q-29 4 -55 13q-27 -84 -47 -160q-6 -25 -27.5 -36t-46 -5t-36 27.5t-5.5 46.5q23 82 53 176 q-160 96 -188 295q-16 117 14.5 247t91.5 246q6 8 15.5 26.5t15.5 29.5l15 24q10 16 23 30.5t30 29.5q113 98 291 57l28 131q4 23 24.5 37t44 9t38 -25.5t8.5 -44.5q-13 -72 -33 -150z" />
<glyph unicode="&#xa3;" horiz-adv-x="1169" d="M754 645q-106 10 -273 -14l-35 -4q-18 -96 -28 -138q-27 -94 -107 -311l-14 -37q104 27 262 13q41 -4 103.5 -14.5t111.5 -15.5t92 -3q68 4 115 31.5t78 93.5q10 23 32.5 31t45 -2.5t31 -33t-2.5 -44.5q-84 -184 -295 -195q-47 -2 -105 4t-124 16.5t-94 12.5 q-174 18 -262 -27q-4 -4 -8.5 -9t-6.5 -9q-16 -18 -32 -27q-39 -20 -76 4q-25 16 -27 47v17q2 6 4 18q4 14 15 41l47 129q78 213 102 303q8 31 21 84q-72 -10 -131 -14q-25 -2 -43.5 14.5t-20.5 41t14.5 43t40.5 20.5q66 4 162 20q35 182 64 287q43 170 96 268 q74 137 178 156q82 12 145 -25q47 -29 93 -94q14 -20 9 -44t-25.5 -38t-44 -9t-38.5 25q-29 43 -55 58q-25 16 -63 8q-47 -8 -95 -94q-47 -84 -86 -240q-25 -94 -53 -239q174 25 295 14q25 -2 40 -21.5t13 -44t-21 -40t-44 -13.5z" />
<glyph unicode="&#xa4;" d="M721 893q-27 35 -51 47q-23 10 -80 18q-66 12 -94 13q-47 4 -70 -8q-37 -18 -66 -54q12 -18 7 -41.5t-25 -36.5q-14 -10 -33 -10q-12 -35 -18 -76q-12 -72 3 -140t54 -111q53 -61 168 -99q150 -49 238 6q76 49 92 164q20 156 -76 305q-31 -2 -49 23zM930 387l106 -129 q16 -18 14.5 -43t-20 -41t-43 -14t-41.5 20l-110 133q-8 -6 -19 -12q-135 -86 -338 -20q-137 47 -213 125l-112 -99q-104 -90 -131 -114q-16 -16 -42 -16.5t-42.5 17t-16.5 43t19 42.5q41 39 137 118q82 72 123 111q-49 119 -29 256q12 76 45 141q-18 20 -37.5 40t-48.5 44 l-41 35l-53 45l-49 37q-20 16 -22.5 40.5t13 44t40 21.5t42.5 -12q12 -10 44 -34.5t49 -39.5l43 -36q27 -23 48 -43.5t42 -42.5q37 41 86 65.5t129 20.5q35 0 84 -9q2 12 8 23q12 20 36.5 26.5t45.5 -6.5q41 -25 78 -55q47 31 145 102q18 14 43 11.5t39 -22t11 -44 t-23 -39.5q-84 -63 -133 -96q76 -94 108.5 -210t18.5 -222q-10 -84 -50 -148q9 -6 17 -14z" />
<glyph unicode="&#xa5;" horiz-adv-x="1032" d="M528 807l-79 -14l36 -70q18 41 43 84zM113 1331q84 -82 225 -332l53 -98l203 37q14 4 31 8l47 60q6 6 41 50t43 55t36.5 48t38.5 55l33 50q18 31 33 57q12 25 23 55q8 23 30.5 32t46 1t32.5 -30.5t1 -47.5q-53 -137 -223 -348q47 8 88 12q25 2 43 -14t20.5 -41t-14 -43 t-41.5 -20q-61 -4 -209 -37q-78 -106 -114 -195q205 10 317 37q25 6 45.5 -7t26.5 -37t-7.5 -44.5t-35.5 -26.5q-129 -31 -381 -43q-12 -84 6 -225q2 -18 12 -83.5t15.5 -111t7.5 -86.5q0 -25 -16.5 -43t-41 -18t-43 16.5t-18.5 40.5q-2 37 -6 77t-14.5 102.5t-12.5 89.5 q-20 141 -10 235q-199 -12 -320 -53q-25 -6 -46 5t-28 34.5t4 45t34 30.5q131 41 327 55l-69 135q-207 -37 -328 -61q-25 -6 -45.5 7t-25.5 37.5t8.5 45t37.5 24.5q115 25 295 58l-35 59q-131 238 -202 305q-18 16 -18.5 41t16 43.5t41.5 18t43 -16.5z" />
<glyph unicode="&#xa6;" horiz-adv-x="253" d="M176 1354q0 -61 12 -283q10 -184 9 -291q0 -25 -18.5 -41t-43 -16t-41 18.5t-16.5 42.5q2 100 -8 281q-12 217 -13 289q0 25 17.5 42t42 17t42 -17t17.5 -42zM254 487q-12 -66 -15 -135t0 -182t3 -150q0 -25 -17.5 -42t-42 -17t-42 17.5t-17.5 42t-3 142.5t0 197.5 t19 151.5q4 25 24.5 38t45 8t38 -25.5t7.5 -45.5z" />
<glyph unicode="&#xa7;" horiz-adv-x="886" d="M303 811l-29 -27q-55 -53 -67 -92q-33 -92 18 -164t195 -172q152 -106 186 -135q131 37 156 131q25 96 -25 166q-43 59 -159 125l-107 62q-70 37 -111 63q-32 23 -57 43zM717 1212q-51 49 -138 56.5t-165 -27.5q-78 -37 -110 -99.5t-1 -142.5q2 -6 4 -10q29 14 55 -2 q20 -12 26.5 -36.5t-5.5 -45.5l-2 -4q20 -16 45 -33q39 -25 102 -61l109 -59q139 -80 197 -160q84 -115 43 -264q-35 -131 -172 -193q96 -106 118 -225q16 -92 -20.5 -165t-108.5 -116q-68 -39 -149.5 -47t-157.5 16q-29 10 -55.5 23.5t-50.5 34.5l-43 39q-18 16 -41 47 l-35 41q-10 12 -34 44t-26 38q-14 18 -11 42.5t22.5 39t44 11.5t39.5 -24q6 -6 24.5 -30.5t24.5 -33.5t22.5 -29.5t24.5 -29.5l22 -26q14 -16 25 -25l27 -18q14 -10 28.5 -17.5t28.5 -11.5q115 -37 211 19q90 53 70 157q-18 106 -132 207q-25 -2 -44 11.5t-23 37.5v9 l-154 108l-67 49q-27 18 -64 51t-59.5 59.5t-46 64.5t-31.5 74t-7 81t15 92q23 66 101 141l28 29q-16 27 -28 55q-51 131 3 236.5t169 157.5q70 33 146.5 40t154 -14.5t133.5 -75.5q18 -16 18 -40.5t-16.5 -43t-41 -18.5t-42.5 16z" />
<glyph unicode="&#xa8;" horiz-adv-x="548" d="M86 1251q-41 49 -49 90q-6 29 4 57.5t43 39.5q49 18 94 -23q33 -31 51 -86q8 -23 -2 -44t-34 -30q-8 -4 -17 -4l-6 -6q-20 -16 -44 -14t-40 20zM371 1260q-2 68 12 118q14 61 51 82q41 25 80 -6q20 -16 29 -47q12 -43 8 -117q0 -12 -6 -22q2 -27 -15 -47 q-14 -16 -35.5 -19.5t-37.5 6.5q-12 -6 -25 -6q-25 0 -43 16.5t-18 41.5z" />
<glyph unicode="&#xa9;" horiz-adv-x="1398" d="M1114 1192q-66 66 -182 106q-176 59 -350 41q-113 -12 -254 -112q-154 -113 -168 -367q-4 -115 21.5 -227.5t74.5 -194.5q82 -141 233.5 -227t288.5 -53q14 4 27.5 9t30.5 13l26 17l33 20l33 21q166 102 231 184q74 92 105 262q27 139 16 201q-6 47 -33.5 100t-46.5 80 l-74 100q-10 13 -12 27zM1284 1153q96 -137 115 -252q12 -80 -17 -237q-37 -199 -131 -318q-78 -96 -262 -211q-6 -2 -28.5 -17.5t-34.5 -23.5l-37 -18q-20 -12 -41 -20.5t-41 -12.5q-100 -23 -197.5 -3.5t-185.5 72t-156.5 121t-113.5 144.5q-57 100 -88 229t-23 260 q6 139 58.5 260t156.5 195q166 121 311 137q201 20 402 -47q241 -84 313 -258zM883 866q-33 70 -74 104t-104 38q-113 8 -181 -74q-70 -80 -69 -203q0 -125 72.5 -214t203.5 -95q47 -2 85 10t95 45q23 10 46.5 3t35 -28.5t4 -45t-27.5 -35.5q-45 -23 -75 -36t-75 -23.5 t-92 -8.5q-127 6 -219 72.5t-132 159t-40 197t40 194.5t129 149.5t208 50.5q186 -12 276 -211q10 -23 2 -45t-30.5 -32.5t-45 -2.5t-32.5 31z" />
<glyph unicode="&#xaa;" horiz-adv-x="706" d="M233 973q16 -8 33 4q27 20 56 80q47 96 65 203q-51 10 -68 2q-12 -8 -34 -50q-27 -47 -43 -106q-16 -61 -15 -102q2 -25 6 -31zM438 1026l-8 -20q-41 -84 -92 -123q-78 -59 -162 -13q-61 33 -67 125q-4 61 18 142q20 74 53 133q39 72 82 94q57 33 152 12q16 12 39 13 q18 0 31.5 -8.5t17.5 -16.5l4 -8q4 -6 6 -15q0 -4 2 -12q0 -8 2 -24q2 -23 4 -66q4 -96 4 -98q25 -123 154 -191q20 -12 27.5 -35.5t-4 -45t-35 -28.5t-45.5 3q-128 67 -183 182z" />
<glyph unicode="&#xab;" horiz-adv-x="927" d="M504 786q-74 -55 -174 -147q-59 -55 -92 -92q-10 -10 -17 -21l8 -6q23 -23 68 -53q31 -20 139 -86q20 -14 26.5 -38t-7 -44t-37 -26.5t-43.5 6.5l-144 90q-51 35 -81 63q-20 16 -33 33q-18 25 -23 51q-4 29 19 64q12 20 34 45q37 43 101 100q106 96 182 156q20 14 45 11 t39 -22.5t11 -44.5t-21 -39zM893 682q-131 -53 -186 -86q-47 -29 -50 -45q-2 -14 31 -47q45 -49 160 -127q20 -14 25.5 -38t-9 -44.5t-38 -25.5t-44.5 10q-125 86 -180 143q-74 78 -61 149q12 68 102 125q66 39 205 97q23 8 45 -1.5t31.5 -32t0.5 -45t-32 -32.5z" />
<glyph unicode="&#xac;" horiz-adv-x="1050" d="M72 700q2 0 4 2.5t5 6.5t7 12q25 29 55 39q41 12 133 10q66 0 177 -6q287 -18 315 -19q6 0 41 5l76 6q45 4 69 6q18 2 29 2q8 0 14 -2q6 0 13 -2q18 -6 28 -23q12 -14 15 -37q2 -10 2 -24q0 -25 -2 -64q-4 -59 -17 -168q-12 -100 -35 -272q-4 -25 -23.5 -39t-44 -11 t-38.5 22.5t-12 43.5q23 166 35 271q12 109 16 162q0 12 2 20q-16 0 -41 -2l-74 -8q-39 -4 -53 -4q-33 0 -324 18q-109 6 -170 6q-66 2 -92 -4q-23 -29 -24 -33q-18 -16 -43 -16t-42.5 17.5t-17 42t16.5 42.5z" />
<glyph unicode="&#xad;" horiz-adv-x="587" d="M528 498q-51 2 -141 8t-163.5 10t-141.5 4q-25 0 -42 17.5t-17 42t17 42t42 17.5q68 0 142.5 -4t167.5 -10.5t140 -8.5q25 -2 42.5 -19t15.5 -42t-19.5 -42t-42.5 -15z" />
<glyph unicode="&#xae;" horiz-adv-x="1478" d="M674 760l45 14q131 41 151 107q4 12 -5 37.5t-27 46.5q-45 49 -140 55q-31 2 -96 -2q-72 -4 -92 -4q14 -117 16 -291l25 8q66 21 123 29zM930 1255q-125 51 -238 50q-240 -4 -401 -246q-170 -256 -117 -490q55 -227 315 -395q209 -131 408 -88q197 43 340 248 q145 209 123 375q-20 170 -138 309t-292 237zM1249 1163q199 -199 230 -438q27 -215 -144 -461q-168 -242 -411.5 -295t-499.5 107q-299 193 -365 467q-68 281 134 581q195 293 495 299q111 2 225 -34q16 2 31 -7l39 -20q123 -53 244 -150q24 -20 22 -49zM496 1133 q23 0 98 4q74 4 111 2q143 -8 223 -97q31 -35 51 -90t6 -108q-20 -63 -88 -115q137 -76 143 -301q0 -25 -16 -43t-41 -18t-43 16t-18 41q-4 160 -86 203q-49 27 -136 16l-172 -51q0 -137 4 -209q2 -25 -14 -43t-40.5 -20.5t-43 14t-20.5 41.5q-4 76 -4 180l-60 -18 q-41 -12 -53 -15q-6 -2 -12 -2q-6 -2 -13 0q-14 2 -26 8q-35 23 -25 66q4 16 17 29q4 4 8 6t6 4q6 2 20 8l136 43q0 217 -23 352q-4 25 11.5 45.5t37.5 24.5h12q17 27 50 27z" />
<glyph unicode="&#xaf;" horiz-adv-x="708" d="M653 1235q-33 -2 -179 -7t-224 -10.5t-187.5 -19.5t-175.5 -37q-23 -8 -44 2.5t-29.5 34t2 45t34.5 29.5q72 27 191 43t201 21t231.5 10.5t175.5 7.5q25 2 42.5 -15.5t19.5 -42t-15.5 -42t-42.5 -19.5z" />
<glyph unicode="&#xb0;" horiz-adv-x="663" d="M219 1446q14 33 49 35q164 12 268.5 -66t125.5 -203q20 -119 -48 -221q-68 -100 -204 -121q-129 -18 -225.5 35t-131.5 154q-39 92 -1 197.5t141 175.5q12 8 26 14zM348 1358q-14 -4 -33 -8l-10 -2q-10 -2 -16 -2q-20 -6 -31 -13q-70 -47 -92.5 -111.5t-2 -122t80 -91 t149.5 -19.5q84 10 124 70.5t28 134.5q-10 61 -58.5 108.5t-132.5 57.5q-4 0 -6 -2z" />
<glyph unicode="&#xb1;" horiz-adv-x="1150" d="M948 815q-123 23 -313 12q8 -141 8 -344q0 -25 -17.5 -42t-42 -17t-42 17.5t-17.5 41.5q0 197 -8 334q-121 -12 -268 -35q-23 -4 -43.5 11.5t-24.5 39t11.5 44t39.5 24.5q150 23 275 35q-16 166 -51 301q-6 23 6 44.5t35.5 27.5t45 -6.5t27.5 -36.5q37 -147 56 -322 q207 12 344 -10q25 -4 39 -24.5t10 -45t-24.5 -39t-45.5 -10.5zM207 338q98 10 191.5 10t184.5 -8t162 -18l177 -27q106 -14 178 -23q25 -4 40 -23.5t12 -43t-22.5 -38.5t-42.5 -13q-78 10 -183 25.5t-175 24.5t-157 17t-174 8t-179 -10q-25 -2 -44 13.5t-21 40t13 44 t40 21.5z" />
<glyph unicode="&#xb2;" horiz-adv-x="741" d="M-27 1124q25 82 27 88q16 43 61 88q43 43 110 73t132 32q80 4 135 -31q68 -41 82 -129q10 -66 -6 -117q-12 -35 -53 -81q-27 -31 -80 -80q-135 -131 -168 -170t-45 -64q-4 -10 -4 -14q8 -6 31 -12q49 -12 145 -11q31 0 38 1t19.5 2t15.5 2t21.5 4.5t36.5 7.5l203 35 q25 4 44 -10.5t24.5 -39t-9 -44t-39.5 -25.5l-202 -35q-18 -2 -37 -6t-24 -5t-17 -1l-29 -4h-41q-113 -4 -178 14q-80 18 -107 72q-29 51 0 116q18 41 62 94q35 41 178 179q49 47 72 73q27 29 28 39q8 25 2 64q-4 33 -26 45q-23 14 -66 12q-45 -2 -91 -21.5t-71 -45.5 q-29 -31 -38 -52l-21 -75q-6 -25 -28.5 -36.5t-46 -5t-35 28.5t-5.5 45z" />
<glyph unicode="&#xb3;" horiz-adv-x="522" d="M-80 1235q4 4 8 12l9 21q16 31 36 49q45 41 123 66.5t152 23.5q90 -2 147 -43q72 -51 70 -152q-2 -70 -19 -112q-18 -43 -63 -94l-2 -2l8 -5q100 -57 121 -125q49 -162 -51 -272q-94 -106 -258 -90q-41 4 -89.5 25.5t-68.5 35.5l-63 43q-18 14 -23.5 39t9 44.5t39 24.5 t44.5 -9q111 -80 164 -84q102 -10 157.5 51t24.5 160q-6 20 -63 53l-56 29l-24 14q-25 20 -31 47q-8 57 51 90l21 8q33 37 43 60q8 25 10 74q0 37 -20 51q-27 20 -80 20t-109.5 -18.5t-85.5 -42.5q-2 -2 -8 -15l-8 -16q-8 -14 -12 -22q-12 -20 -37 -26.5t-45.5 5.5t-26.5 37 t6 45z" />
<glyph unicode="&#xb4;" horiz-adv-x="497" d="M487 1413q-115 -141 -327 -313q-18 -14 -43 -11t-40.5 21t-12 43t21.5 41q203 162 307 293q16 18 41 21t43.5 -12t21 -40t-11.5 -43z" />
<glyph unicode="&#xb5;" horiz-adv-x="940" d="M209 139q-78 -256 -170 -456q-10 -23 -32.5 -31t-45 2t-31 32.5t1.5 45.5q115 254 228 661q10 113 53 223v5q10 49 18 81q14 68 29 109q18 63 41 88q8 6 14 10q20 12 45 9q35 -8 46 -44q4 -12 3 -23t-8 -34q-2 -4 -10 -26q-4 -14 -6 -19q-35 -127 -57 -186 q-14 -76 -19 -88l-33 -125q-2 -31 -2 -60q4 -66 29 -100.5t80 -40.5q100 -10 217 180q37 61 74 140q27 166 106 329q4 6 7.5 19.5t9.5 27.5q20 55 63 74q27 10 51 -4q20 -10 29 -33q4 -12 2 -24q0 -6 -2 -13l-6 -18q-4 -20 -19 -55l-55 -158q-35 -98 -72 -180 q-20 -125 -12 -285q2 -25 -15.5 -42t-42 -19t-42 15t-19.5 42q-2 27 -2 55q-135 -184 -284 -170q-105 10 -162 86z" />
<glyph unicode="&#xb6;" horiz-adv-x="1032" d="M852 1331q-10 -55 -7 -375.5t3 -375.5q0 -80 -4 -225.5t-6 -209.5q-4 -252 10 -428q2 -25 -14.5 -43t-41 -20t-43 14.5t-20.5 40.5q-14 180 -10 438q2 63 6 209t4 224q0 55 -3 379.5t7 379.5q0 10 4 19q-100 0 -188 -19q-14 -61 -18.5 -132.5t-6.5 -169t-4 -148.5 q-37 -670 -37 -1061q0 -25 -17 -42t-42 -17t-42 17t-17 42q0 301 18 696q-168 72 -261 188.5t-95 252.5q-2 137 91 254.5t263 193.5q37 14 78 27q25 27 59 16h2q236 49 469 -12q25 -6 37 -27.5t6 -45t-27.5 -36t-43.5 -6.5q-53 14 -111 21q2 -9 2 -19z" />
<glyph unicode="&#xb7;" horiz-adv-x="401" d="M63 647q-4 18 -6 39q-2 53 25 102.5t78 75.5q23 25 53 35q78 25 132 -41.5t56 -169.5q0 -2 2 -12v-21q2 -49 -28 -75q-10 -8 -23.5 -15.5t-24 -10.5t-24.5 -6t-22.5 -4t-19.5 -2t-13 -1q-76 -8 -127 28q-8 2 -19 4q-23 8 -34 29.5t-5 44.5z" />
<glyph unicode="&#xb8;" horiz-adv-x="487" d="M362 -188q-6 -2 -20 -7q-35 -8 -55 -8q-49 0 -78 35q-27 35 -8 76q6 16 24 33q14 14 21 18l2 2q8 12 71 121q12 20 36 26.5t45.5 -6t27.5 -36t-6 -46.5l-53 -90q47 2 75 -28q31 -33 41 -107q8 -53 4 -94q-12 -100 -86 -145q-59 -37 -149 -31q-111 6 -258 69 q-23 10 -31 34t1 46.5t33 30.5t46 0q125 -57 217 -61q51 -4 78 12t31 57q4 27 -2 66q-3 19 -7 33z" />
<glyph unicode="&#xb9;" horiz-adv-x="598" d="M250 1305l-23 -33q-51 -68 -108 -70q-74 -4 -129 94q-10 23 -3 46.5t28.5 35t45 4t35.5 -27.5q10 -20 19 -31q8 6 18 20q10 12 45 74l25 37q10 12 22 21q27 16 58 8q41 -14 63 -72q12 -33 21 -88q14 -86 22 -233q6 -119 8 -304q74 14 138 23q25 2 43 -13.5t21 -40 t-12.5 -43t-39.5 -22.5q-68 -8 -162 -26q-16 -25 -45 -25q-16 0 -31 8q-164 -37 -233 -49q-25 -4 -45.5 11.5t-24.5 39t11.5 44t37.5 24.5q68 10 224 45q-2 188 -9 321q-6 146 -20 222z" />
<glyph unicode="&#xba;" horiz-adv-x="686" d="M360 1366q-57 12 -90 2q-61 -18 -104 -80.5t-47 -138.5t36 -135.5t128 -81.5q33 -8 75 -17q53 -8 68 -6q74 8 117 113q47 104 18 184q-43 117 -201 160zM522 1425q109 -66 150 -178q45 -123 -19 -272q-31 -72 -85 -123t-126 -61q-33 -4 -104 8q-47 8 -84 18 q-133 33 -196.5 128t-57.5 212q6 106 69.5 199.5t163.5 126.5q43 12 97 8q10 0 20 -2q16 -2 35 -6q33 -8 107 -35q20 -7 30 -23z" />
<glyph unicode="&#xbb;" horiz-adv-x="849" d="M209 874l174 -129q80 -70 98 -129q25 -80 -41 -159q-51 -61 -178 -148q-20 -14 -43.5 -9t-38 25.5t-9.5 44t26 38.5q113 76 151 124q25 31 21 50q-8 27 -64 73q-29 25 -166 125q-20 14 -23 38t11 44.5t38 23t44 -11.5zM596 922q256 -119 256 -289q2 -158 -217 -316 q-20 -14 -45 -10t-39 24.5t-10 45t24 39.5q170 121 168 215q0 96 -186 184q-23 10 -31 32.5t2 45t32.5 31t45.5 -1.5z" />
<glyph unicode="&#xbc;" horiz-adv-x="1640" d="M977 389q12 -14 49 -24q68 -20 188 -19q45 0 95 4q-2 205 -2 295q0 27 2 86q-63 -53 -144 -133q-88 -88 -145 -154q-29 -35 -43 -55zM1427 242v-146q0 -25 -17 -42t-42 -17t-42 17.5t-17 41.5v135q-49 -4 -95 -4q-137 -2 -221 23q-131 37 -141 135q-2 23 10 45 q6 12 19 29q16 25 49 63q61 70 151 160t160 149q37 33 62 50q16 10 28 16q29 12 53 6q14 -4 23.5 -13t13.5 -16l2 -6l4 -12v-6v-8v-19v-55q-2 -96 -2 -123q0 -92 2 -285q94 12 142 25q23 6 44 -6t27.5 -36t-6 -45.5t-37.5 -27.5q-57 -16 -170 -28zM1266 1286 q-61 -96 -174 -239q-141 -174 -177 -226q-240 -332 -421 -706q-10 -20 -34 -28.5t-45.5 1.5t-29.5 33.5t2 46.5q186 383 430 723q39 53 180 229q113 139 166 228q14 23 38 27.5t45.5 -8.5t26.5 -37t-7 -44zM596 684q-47 4 -98 -2v-25q0 -25 -17.5 -42t-42 -17t-42 17.5 t-17.5 41.5q-33 -8 -94 -26l-90 -25q-25 -6 -46.5 6.5t-27.5 36t6 45t35 27.5l94 27q80 23 125 32q2 115 2 197q2 121 0 188q0 6 -2 13l-4 -4q-23 -16 -53 -44l-29 -24q-20 -14 -45 -11t-39 22.5t-11 44t21 38.5l31 25q31 27 53 43q37 29 64 41q18 10 37 12q35 8 61 -12 q18 -14 25 -43q2 -10 4 -27q4 -25 6 -70q2 -70 0 -194q0 -74 -2 -174q57 6 104 2q25 -2 41.5 -20.5t14 -43t-20.5 -41t-43 -14.5z" />
<glyph unicode="&#xbd;" horiz-adv-x="1505" d="M504 670q-14 -4 -76 -19l-88 -24q-29 -6 -78 -15.5t-90 -13.5q-25 -2 -44 13.5t-21.5 40t13 44t40.5 21.5q53 6 116 18q23 131 37 289q10 117 6 190q0 23 -2 39l-36 -32q-53 -51 -103 -111q-14 -18 -38.5 -20.5t-44 13t-21.5 40t14 45.5q51 61 109 117q45 45 77 65 q25 16 48 23q43 10 73 -19q25 -23 35 -71q6 -31 8 -82q4 -84 -6 -207q-10 -125 -31 -248l74 18q25 6 45.5 -6t26.5 -36.5t-6 -45t-37 -26.5zM1202 1401q-14 -41 -34.5 -84t-37.5 -72l-45 -71q-29 -45 -41 -68q-68 -115 -201.5 -320.5t-231 -373.5t-162.5 -328 q-10 -23 -33 -32t-45.5 0t-31.5 31.5t-1 45.5q68 164 169 340t237.5 385t197.5 313l43 70l43 70q14 25 31.5 60.5t27.5 70.5q8 25 31 35t46.5 2.5t33.5 -29.5t4 -45zM1010 666l12 14q12 16 26.5 30.5t26.5 22.5q27 20 84.5 43t110.5 31q76 12 125 -12q74 -39 59 -133 q-6 -33 -41 -74q-23 -27 -63 -64l-93 -78l-79 -67q-106 -92 -150 -143q-20 -27 -29 -46q2 0 13 -2q18 -4 24 -6q29 -6 61.5 -8t86.5 -2h71q86 -2 189 4q25 2 43 -14.5t20 -41t-14 -43t-41 -20.5q-109 -6 -201 -4h-63q-59 0 -101.5 3t-74.5 12q-4 0 -21 4q-18 2 -28 6 q-51 12 -72 49q-27 45 -4 102q14 37 51 82q49 59 162 158q18 14 80 68l90 75q37 33 53 54q8 8 14 16v8q-16 4 -49 0q-41 -6 -85 -23.5t-58 -27.5q-8 -6 -13.5 -12t-14.5 -18.5t-21 -24.5q-16 -18 -41 -18.5t-43.5 16t-18 41.5t16.5 43z" />
<glyph unicode="&#xbe;" horiz-adv-x="1634" d="M1128 379h2q55 -18 156 -35q51 -8 107 -14q-6 59 -7 112q0 20 2.5 68.5t2.5 64.5q2 63 -5 97q-10 -8 -22 -21q-45 -45 -115 -125l-108 -131zM1526 195l8 -70q2 -23 -13.5 -42.5t-39 -22.5t-43 12.5t-23.5 40.5l-10 94q-76 10 -139 20q-109 18 -170 37q-41 14 -66 29 q-49 31 -45 78q0 10 6 22q2 2 3 5t5 8q4 6 11 16l37 47l112 135q72 84 123 133q31 31 53 47q16 10 29 17q25 12 47 8q37 -8 64 -43q14 -18 22 -45q16 -53 12 -150q0 -16 -2 -62t-2 -67q0 -57 6 -127q29 -2 70 -6q25 -2 41 -20.5t14 -43t-20.5 -41t-42.5 -14.5q-18 3 -47 5z M96 1206q2 6 6 15l7 20q14 35 30 53q37 41 111 72t143 37q90 6 148 -29q74 -49 65 -153q-4 -45 -25.5 -85t-41 -59.5t-52.5 -48.5q43 -14 68 -39q41 -41 45 -106q6 -111 -56.5 -184.5t-158.5 -100.5q-84 -27 -182.5 -3.5t-159.5 93.5q-16 18 -14 43t20.5 41t43 14t40.5 -20 q35 -41 97.5 -55.5t124 2t96 58.5t30.5 103q-2 23 -10 31q-6 6 -27 13q-6 2 -24 6q-20 6 -31 10q-57 20 -67 70q-14 57 47 88l20 8q6 4 21.5 18.5t19.5 18.5t15.5 14t14.5 15t10 14.5t9 15.5t5 16.5t3 20.5q4 31 -12 41q-23 14 -72 10q-53 -4 -104 -27q-53 -23 -70 -40 q-4 -4 -10 -19q0 -2 -1 -5t-3 -7t-2 -6q-6 -14 -10 -23q-10 -23 -34 -31t-45.5 2.5t-29.5 34t2 43.5zM1264 1280q-18 -68 -53 -133.5t-92.5 -151.5t-69.5 -106q-49 -80 -127 -230q-86 -164 -129 -235l-105 -158q-82 -127 -117 -200q-10 -23 -32.5 -31t-45 2t-30.5 32.5 t2 45.5q35 80 125 219l100 151q43 72 127 230q92 172 129 235q23 37 76 116t83 133t44 110q6 25 27.5 37t45 6t36 -27.5t6.5 -44.5z" />
<glyph unicode="&#xbf;" horiz-adv-x="1019" d="M676 850l-2 -2q-14 -8 -37 -14q-33 -8 -68 -9q-18 0 -32 4q-27 6 -39 29q-8 12 -9.5 25.5t2 22.5t10.5 17.5t10 11.5t5 3q8 8 25 12q-16 37 -4 70q16 49 88 63q59 10 112 -47q41 -43 43 -84q0 -49 -45 -78q-18 -12 -55 -22zM696 580q-14 -43 -33.5 -84t-58.5 -90l-55 -70 q-14 -20 -70.5 -80.5t-58.5 -65.5q-88 -98 -127 -169.5t-27 -141.5q4 -33 25.5 -61.5t64.5 -75.5q57 -61 199 -96q137 -33 240 90q94 115 108 280q2 25 21.5 40.5t44 13.5t40 -21.5t13.5 -44.5q-18 -201 -137 -344q-147 -180 -359 -129q-176 43 -256 129l-49 55 q-14 16 -39.5 59.5t-34.5 84.5q-8 59 3.5 116.5t43 111.5t61.5 93t77 90q14 14 53 58l53 61q16 16 45 52t43.5 58.5t30.5 53.5t25 59q8 25 29.5 36t45 4t34.5 -28t5 -44z" />
<glyph unicode="&#xc0;" horiz-adv-x="1132" d="M674 649l-10 29q-25 63 -74 221q-45 139 -76 215l-27 64q-121 -489 -141 -562q55 6 164 16.5t164 16.5zM387 1690q31 -80 117 -263q84 -178 121 -268q33 -78 77 -223q49 -156 72 -217l21 -55q150 20 266 51q23 6 44 -6.5t27.5 -36t-6 -45t-36.5 -27.5q-109 -29 -250 -49 q193 -487 225 -590q8 -23 -2 -45t-33.5 -29.5t-46 3t-29.5 34.5l-69 191l-92 233q-55 135 -74 187q-72 -8 -209 -23l-199 -18q-12 -39 -42.5 -127t-48 -150.5t-27.5 -124.5q-4 -25 -25 -39t-45.5 -10t-38.5 24.5t-10 45.5q18 96 106 362q-25 -2 -44 12.5t-22 39t11 44 t39 23.5l55 8q41 141 104.5 403.5t82.5 331.5l4 13l-13 26q-84 176 -121 269q-8 23 1.5 46t32 31.5t46 -0.5t31.5 -32zM563 1714q104 -154 195 -364q8 -23 -1 -45.5t-32 -31.5t-45.5 0t-32.5 32q-84 199 -182 344q-14 20 -9 43.5t25.5 38t44 9t37.5 -25.5z" />
<glyph unicode="&#xc1;" horiz-adv-x="1132" d="M674 649l-10 29q-25 63 -74 221q-45 139 -76 215l-27 64q-121 -489 -141 -562q55 6 164 16.5t164 16.5zM387 1690q31 -80 117 -263q84 -178 121 -268q33 -78 77 -223q49 -156 72 -217l21 -55q150 20 266 51q23 6 44 -6.5t27.5 -36t-6 -45t-36.5 -27.5q-109 -29 -250 -49 q193 -487 225 -590q8 -23 -2 -45t-33.5 -29.5t-46 3t-29.5 34.5l-69 191l-92 233q-55 135 -74 187q-72 -8 -209 -23l-199 -18q-12 -39 -42.5 -127t-48 -150.5t-27.5 -124.5q-4 -25 -25 -39t-45.5 -10t-38.5 24.5t-10 45.5q18 96 106 362q-25 -2 -44 12.5t-22 39t11 44 t39 23.5l55 8q41 141 104.5 403.5t82.5 331.5l4 13l-13 26q-84 176 -121 269q-8 23 1.5 46t32 31.5t46 -0.5t31.5 -32zM956 1702q-72 -139 -251 -365q-16 -18 -41 -21t-43.5 12t-21.5 40t11 43q174 217 240 344q12 23 35.5 30t45 -4.5t28.5 -35t-3 -43.5z" />
<glyph unicode="&#xc2;" horiz-adv-x="1132" d="M674 649l-10 29q-25 63 -74 221q-45 139 -76 215l-27 64q-121 -489 -141 -562q55 6 164 16.5t164 16.5zM387 1690q31 -80 117 -263q84 -178 121 -268q33 -78 77 -223q49 -156 72 -217l21 -55q150 20 266 51q23 6 44 -6.5t27.5 -36t-6 -45t-36.5 -27.5q-109 -29 -250 -49 q193 -487 225 -590q8 -23 -2 -45t-33.5 -29.5t-46 3t-29.5 34.5l-69 191l-92 233q-55 135 -74 187q-72 -8 -209 -23l-199 -18q-12 -39 -42.5 -127t-48 -150.5t-27.5 -124.5q-4 -25 -25 -39t-45.5 -10t-38.5 24.5t-10 45.5q18 96 106 362q-25 -2 -44 12.5t-22 39t11 44 t39 23.5l55 8q41 141 104.5 403.5t82.5 331.5l4 13l-13 26q-84 176 -121 269q-8 23 1.5 46t32 31.5t46 -0.5t31.5 -32zM547 1495q0 4 37 92q33 82 61 135q41 80 82 121q74 70 147 27q35 -20 46 -68q2 -12 4 -20v-2q27 -68 120 -262q10 -23 2 -46.5t-29.5 -34t-45 -2 t-33.5 28.5q-96 201 -125 271q-2 8 -6 20q-25 -27 -57 -88q-25 -49 -56 -125q-39 -92 -41 -96q-10 -23 -32.5 -31t-45 2t-30.5 32.5t2 45.5z" />
<glyph unicode="&#xc3;" horiz-adv-x="1132" d="M674 649l-10 29q-25 63 -74 221q-45 139 -76 215l-27 64q-121 -489 -141 -562q55 6 164 16.5t164 16.5zM387 1690q31 -80 117 -263q84 -178 121 -268q33 -78 77 -223q49 -156 72 -217l21 -55q150 20 266 51q23 6 44 -6.5t27.5 -36t-6 -45t-36.5 -27.5q-109 -29 -250 -49 q193 -487 225 -590q8 -23 -2 -45t-33.5 -29.5t-46 3t-29.5 34.5l-69 191l-92 233q-55 135 -74 187q-72 -8 -209 -23l-199 -18q-12 -39 -42.5 -127t-48 -150.5t-27.5 -124.5q-4 -25 -25 -39t-45.5 -10t-38.5 24.5t-10 45.5q18 96 106 362q-25 -2 -44 12.5t-22 39t11 44 t39 23.5l55 8q41 141 104.5 403.5t82.5 331.5l4 13l-13 26q-84 176 -121 269q-8 23 1.5 46t32 31.5t46 -0.5t31.5 -32zM506 1493q45 121 90 168q59 61 131 31q33 -12 90 -66q51 -47 82 -65q27 -16 43 -15q10 4 21 19q29 41 38 133q4 23 23.5 38t43.5 12t39 -22.5t13 -44.5 q-14 -119 -59 -184q-39 -53 -94 -65q-59 -14 -129 26q-41 25 -101 80q-41 37 -53 43l-2 -2q-29 -29 -66 -127q-8 -23 -30.5 -33t-45 -2t-32.5 30.5t-2 45.5z" />
<glyph unicode="&#xc4;" horiz-adv-x="1132" d="M674 649l-10 29q-25 63 -74 221q-45 139 -76 215l-27 64q-121 -489 -141 -562q55 6 164 16.5t164 16.5zM76 1473q6 88 51 124q31 23 62.5 20t56.5 -24q23 -20 28 -51t-12 -63q-29 -53 -115 -68q-2 0 -2 -2h-6h-8q-20 2 -35.5 15.5t-19.5 33.5v15zM387 1690 q31 -80 117 -263q84 -178 121 -268q33 -78 77 -223q49 -156 72 -217l21 -55q150 20 266 51q23 6 44 -6.5t27.5 -36t-6 -45t-36.5 -27.5q-109 -29 -250 -49q193 -487 225 -590q8 -23 -2 -45t-33.5 -29.5t-46 3t-29.5 34.5l-69 191l-92 233q-55 135 -74 187q-72 -8 -209 -23 l-199 -18q-12 -39 -42.5 -127t-48 -150.5t-27.5 -124.5q-4 -25 -25 -39t-45.5 -10t-38.5 24.5t-10 45.5q18 96 106 362q-25 -2 -44 12.5t-22 39t11 44t39 23.5l55 8q41 141 104.5 403.5t82.5 331.5l4 13l-13 26q-84 176 -121 269q-8 23 1.5 46t32 31.5t46 -0.5t31.5 -32z M809 1546q-14 -86 -66 -114q-33 -18 -63.5 -12.5t-52 29.5t-23.5 54.5t21 61.5q35 47 123 53h4h4h6q20 -4 33.5 -19.5t15.5 -35.5v-4v-5q0 -4 -2 -8z" />
<glyph unicode="&#xc5;" horiz-adv-x="1132" d="M674 649l-10 29q-25 63 -74 221q-45 139 -76 215l-27 64q-121 -489 -141 -562q55 6 164 16.5t164 16.5zM782 1556q-18 41 -50 59.5t-58 12.5q-66 -10 -45 -106q10 -43 35 -58q23 -10 51 0q59 20 67 92zM856 1663q37 -10 43 -47q14 -94 -29 -166t-116 -98q-78 -29 -146 8 q-74 41 -94 137t19.5 165t117.5 85q55 8 110.5 -13.5t94.5 -70.5zM387 1690q31 -80 117 -263q84 -178 121 -268q33 -78 77 -223q49 -156 72 -217l21 -55q150 20 266 51q23 6 44 -6.5t27.5 -36t-6 -45t-36.5 -27.5q-109 -29 -250 -49q193 -487 225 -590q8 -23 -2 -45 t-33.5 -29.5t-46 3t-29.5 34.5l-69 191l-92 233q-55 135 -74 187q-72 -8 -209 -23l-199 -18q-12 -39 -42.5 -127t-48 -150.5t-27.5 -124.5q-4 -25 -25 -39t-45.5 -10t-38.5 24.5t-10 45.5q18 96 106 362q-25 -2 -44 12.5t-22 39t11 44t39 23.5l55 8q41 141 104.5 403.5 t82.5 331.5l4 13l-13 26q-84 176 -121 269q-8 23 1.5 46t32 31.5t46 -0.5t31.5 -32z" />
<glyph unicode="&#xc6;" horiz-adv-x="1841" d="M674 649l-10 29q-25 63 -74 221q-45 139 -76 215l-27 64q-121 -489 -141 -562q55 6 164 16.5t164 16.5zM387 1690q35 -90 117 -263l18 -36q8 6 19 10q39 20 100 39q102 31 272 63l281 49q172 29 178 31q25 6 45.5 -7t26.5 -36.5t-7.5 -44t-35.5 -27.5q-33 -8 -187 -32 q-180 -31 -278 -50q-166 -33 -260 -61q-16 -4 -31 -10q25 -10 33 -37t-8 -49q145 -324 159 -361q33 -78 70 -188q86 14 162 35q16 4 35 -2q162 39 299 78q25 6 46 -6.5t27.5 -36t-6 -45t-35.5 -27.5q-203 -55 -485 -121q78 -229 139 -350q100 8 212 33.5t259.5 69.5 t216.5 61q25 6 45.5 -6.5t26.5 -37t-6 -45t-37 -26.5q-49 -12 -224 -63.5t-304 -78t-248 -28.5l43 -123q8 -23 -2 -45t-33.5 -29.5t-46 3t-29.5 34.5l-69 191l-92 233q-55 135 -74 187q-72 -8 -209 -23l-199 -18q-12 -39 -42.5 -127t-48 -150.5t-27.5 -124.5q-4 -25 -25 -39 t-45.5 -10t-38.5 24.5t-10 45.5q18 96 106 362q-25 -2 -44 12.5t-22 39t11 44t39 23.5l55 8q41 141 104.5 403.5t82.5 331.5l4 13l-13 26q-84 176 -121 269q-8 23 1.5 46t32 31.5t46 -0.5t31.5 -32z" />
<glyph unicode="&#xc7;" horiz-adv-x="1329" d="M1288 1247q-16 -63 -26 -96q-12 -39 -23 -61q-8 -16 -14 -27q-23 -33 -58 -33q-53 0 -75 57l-7 19q-84 111 -233 160q-160 53 -266 39q-145 -18 -267 -175q-115 -150 -126 -307q-10 -111 67 -301q94 -231 215 -315q72 -51 168 -70q31 23 64 6q12 -6 18 -14q100 -4 199 31 q117 41 194 123q80 84 94 194q4 25 23.5 39t44.5 11t39 -22.5t12 -43.5q-20 -147 -121.5 -255t-246.5 -159q-125 -43 -256 -37l-31 -59l-12 -27h43q160 -6 208 -104q63 -129 -16 -248q-74 -111 -244 -90q-84 12 -217 63q-23 8 -32 31t-0.5 46.5t31 32.5t46.5 1 q117 -47 187 -55q98 -12 131 37q41 61 8 129q-18 37 -107 38h-45h-39q-27 2 -43 7q-39 10 -53 43q-4 8 -5 16t-1 14v4q2 4 2 7q2 4 2 6t2 4l4 8l11 23l34 67l11 25q-96 25 -176 80q-150 106 -256 368q-88 215 -76 354q16 195 153 371q152 195 342 221q135 18 320 -43 q166 -57 266 -172q6 20 19 68q6 25 27.5 37t45 6t35.5 -27.5t6 -44.5z" />
<glyph unicode="&#xc8;" horiz-adv-x="1212" d="M260 1077l-10 -4q-35 -12 -62 -14q-66 -4 -90 47q-20 41 8 108q16 39 72 66q39 20 101 39q102 31 272 63l280 50q170 29 179 30q25 6 45 -7t26 -36.5t-7 -44t-36 -26.5q-33 -8 -186 -33q-180 -31 -279 -49q-147 -29 -237 -54q55 -121 98 -360q6 -39 12 -84q199 66 336 80 q25 2 44.5 -13.5t21.5 -40t-13.5 -44t-39.5 -21.5q-129 -12 -330 -80q12 -84 24 -196q12 -102 -20 -201q92 12 215 16q137 6 278.5 0t202.5 -16q25 -4 39.5 -24.5t10 -45t-25 -39t-44.5 -10.5q-55 10 -189.5 16.5t-267.5 0.5q-160 -4 -256 -27q-18 -2 -35 -8 q-23 -25 -51 -43q-23 -16 -41 -21q-23 -6 -41 0q-31 10 -41 39q-6 20 2 43q18 45 76 74q12 4 25 10q59 100 45 223q-12 113 -23 191q-18 12 -24 33q-12 33 10 57q-8 57 -19 110q-26 148 -55 246zM414 1853q109 -160 194 -360q8 -23 -1 -45.5t-31.5 -31.5t-45 0t-32.5 32 q-80 188 -183 340q-14 20 -9 43.5t25.5 38t44.5 9t38 -25.5z" />
<glyph unicode="&#xc9;" horiz-adv-x="1212" d="M260 1077l-10 -4q-35 -12 -62 -14q-66 -4 -90 47q-20 41 8 108q16 39 72 66q39 20 101 39q102 31 272 63l280 50q170 29 179 30q25 6 45 -7t26 -36.5t-7 -44t-36 -26.5q-33 -8 -186 -33q-180 -31 -279 -49q-147 -29 -237 -54q55 -121 98 -360q6 -39 12 -84q199 66 336 80 q25 2 44.5 -13.5t21.5 -40t-13.5 -44t-39.5 -21.5q-129 -12 -330 -80q12 -84 24 -196q12 -102 -20 -201q92 12 215 16q137 6 278.5 0t202.5 -16q25 -4 39.5 -24.5t10 -45t-25 -39t-44.5 -10.5q-55 10 -189.5 16.5t-267.5 0.5q-160 -4 -256 -27q-18 -2 -35 -8 q-23 -25 -51 -43q-23 -16 -41 -21q-23 -6 -41 0q-31 10 -41 39q-6 20 2 43q18 45 76 74q12 4 25 10q59 100 45 223q-12 113 -23 191q-18 12 -24 33q-12 33 10 57q-8 57 -19 110q-26 148 -55 246zM768 1798q-68 -129 -252 -360q-16 -18 -40.5 -21.5t-43 12t-21.5 40t11 42.5 q180 223 240 340q12 23 35.5 30t45 -4t28.5 -35t-3 -44z" />
<glyph unicode="&#xca;" horiz-adv-x="1212" d="M260 1077l-10 -4q-35 -12 -62 -14q-66 -4 -90 47q-20 41 8 108q16 39 72 66q39 20 101 39q102 31 272 63l280 50q172 29 179 30q25 6 45 -7t26 -36.5t-7 -44t-36 -26.5q-33 -8 -186 -33q-180 -31 -279 -49q-147 -29 -237 -54q55 -121 98 -360q6 -39 12 -84q199 66 336 80 q25 2 44.5 -13.5t21.5 -40t-13.5 -44t-39.5 -21.5q-129 -12 -330 -80q12 -84 24 -196q12 -102 -20 -201q92 12 215 16q137 6 278.5 0t202.5 -16q25 -4 39.5 -24.5t10 -45t-25 -39t-44.5 -10.5q-55 10 -189.5 16.5t-267.5 0.5q-160 -4 -256 -27q-18 -2 -35 -8 q-23 -25 -51 -43q-23 -16 -41 -21q-23 -6 -41 0q-31 10 -41 39q-6 20 2 43q18 45 76 74q12 4 25 10q59 100 45 223q-12 113 -23 191q-18 12 -24 33q-12 33 10 57q-8 57 -19 110q-26 148 -55 246zM328 1503q0 4 26 92q27 86 47 140q35 86 72 129q66 76 143 43q37 -16 52 -64 q4 -14 4 -20q0 -2 2 -2q29 -55 147 -246q12 -20 7 -44t-26.5 -37t-45 -8t-37.5 27q-119 193 -152 250q-4 8 -6 21q-23 -29 -49 -92q-18 -47 -43 -129q-29 -94 -31 -101q-8 -23 -29.5 -33t-45 -1.5t-33.5 29.5t-2 46z" />
<glyph unicode="&#xcb;" horiz-adv-x="1212" d="M260 1077l-10 -4q-35 -12 -62 -14q-66 -4 -90 47q-20 41 8 108q16 39 72 66q39 20 101 39q102 31 272 63l280 50q170 29 179 30q25 6 45 -7t26 -36.5t-7 -44t-36 -26.5q-33 -8 -186 -33q-180 -31 -279 -49q-147 -29 -237 -54q55 -121 98 -360q6 -39 12 -84q199 66 336 80 q25 2 44.5 -13.5t21.5 -40t-13.5 -44t-39.5 -21.5q-129 -12 -330 -80q12 -84 24 -196q12 -102 -20 -201q92 12 215 16q137 6 278.5 0t202.5 -16q25 -4 39.5 -24.5t10 -45t-25 -39t-44.5 -10.5q-55 10 -189.5 16.5t-267.5 0.5q-160 -4 -256 -27q-18 -2 -35 -8 q-23 -25 -51 -43q-23 -16 -41 -21q-23 -6 -41 0q-31 10 -41 39q-6 20 2 43q18 45 76 74q12 4 25 10q59 100 45 223q-12 113 -23 191q-18 12 -24 33q-12 33 10 57q-8 57 -19 110q-26 148 -55 246zM221 1499q6 88 51 125q31 23 63 19.5t56 -23.5q23 -20 28 -51t-11 -64 q-29 -53 -115 -67q-2 0 -2 -2h-6h-9q-20 2 -35.5 15t-19.5 34v14zM788 1585q-14 -86 -65 -115q-33 -18 -63.5 -12t-52 29.5t-23.5 54.5t20 62q35 47 123 53h4h4q23 -2 38 -17.5t18 -37.5v-5v-4q-1 -4 -3 -8z" />
<glyph unicode="&#xcc;" horiz-adv-x="1036" d="M983 117q-96 -8 -330 -47q-225 -37 -340 -47q-25 -2 -44 14t-21 39.5t14.5 43t38.5 21.5q84 8 158 19q-16 43 -21 123q-4 100 -8 110q-31 176 -59 510q-25 295 -39 410q-111 -18 -226 -21q-25 0 -43 16.5t-18 41t16.5 43t40.5 18.5q113 2 220 19q12 37 49 43q33 4 55 -23 q172 39 289 109q20 12 44.5 6t37 -26.5t6.5 -45.5t-27 -37q-133 -80 -325 -123q14 -117 38 -420q27 -322 60 -499q2 -18 8 -123q4 -68 14 -92l9 -9l10 -10l43 8q223 37 342 48q23 2 42 -14.5t21 -40t-14 -43t-41 -21.5zM211 1935q111 -164 195 -358q8 -23 -1.5 -45.5 t-32 -31.5t-45 0t-32.5 32q-78 182 -182 338q-14 20 -9 43.5t25.5 38t44 9t37.5 -25.5z" />
<glyph unicode="&#xcd;" horiz-adv-x="1036" d="M983 117q-96 -8 -330 -47q-225 -37 -340 -47q-25 -2 -44 14t-21 39.5t14.5 43t38.5 21.5q84 8 158 19q-16 43 -21 123q-4 100 -8 110q-31 176 -59 510q-25 295 -39 410q-111 -18 -226 -21q-25 0 -43 16.5t-18 41t16.5 43t40.5 18.5q113 2 220 19q12 37 49 43q33 4 55 -23 q172 39 289 109q20 12 44.5 6t37 -26.5t6.5 -45.5t-27 -37q-133 -80 -325 -123q14 -117 38 -420q27 -322 60 -499q2 -18 8 -123q4 -68 14 -92l9 -9l10 -10l43 8q223 37 342 48q23 2 42 -14.5t21 -40t-14 -43t-41 -21.5zM674 1886q-33 -61 -83 -134t-75 -105l-94 -119 q-16 -18 -41 -21.5t-43.5 12t-21.5 40t12 43.5q68 82 94.5 116.5t71.5 100t73 120.5q12 23 36 30t45.5 -4t28.5 -35t-3 -44z" />
<glyph unicode="&#xce;" horiz-adv-x="1036" d="M983 117q-96 -8 -330 -47q-225 -37 -340 -47q-25 -2 -44 14t-21 39.5t14.5 43t38.5 21.5q84 8 158 19q-16 43 -21 123q-4 100 -8 110q-31 176 -59 510q-25 295 -39 410q-111 -18 -226 -21q-25 0 -43 16.5t-18 41t16.5 43t40.5 18.5q113 2 220 19q12 37 49 43q33 4 55 -23 q172 39 289 109q20 12 44.5 6t37 -26.5t6.5 -45.5t-27 -37q-133 -80 -325 -123q14 -117 38 -420q27 -322 60 -499q2 -18 8 -123q4 -68 14 -92l9 -9l10 -10l43 8q223 37 342 48q23 2 42 -14.5t21 -40t-14 -43t-41 -21.5zM100 1561q2 4 29 92q27 90 47 139q33 82 70 125 q66 76 143 43q37 -16 51 -64q4 -14 4 -20q0 -2 2 -2q39 -76 146 -240q14 -20 9 -44.5t-25.5 -38t-45 -8.5t-36.5 26q-111 168 -154 248q-4 8 -6 18q-23 -27 -47 -88q-20 -49 -45 -129q-27 -90 -31 -98q-8 -23 -30.5 -33t-45 -2t-33 30.5t-2.5 45.5z" />
<glyph unicode="&#xcf;" horiz-adv-x="1036" d="M125 1526q6 88 51 125q31 23 62.5 19.5t56.5 -23.5q23 -20 28 -51t-12 -64q-29 -53 -114 -68q-2 0 -2 -2h-7h-8q-20 2 -35.5 15.5t-19.5 33.5v15zM618 1645q0 -4 -2 -9q-16 -84 -67 -112q-33 -16 -62.5 -9t-50 29.5t-22.5 54t18 62.5q37 45 123 47h2h2h4q4 0 8 -2 q20 -2 33.5 -18.5t13.5 -36.5v-2v-4zM983 117q-96 -8 -330 -47q-225 -37 -340 -47q-25 -2 -44 14t-21 39.5t14.5 43t38.5 21.5q84 8 158 19q-16 43 -21 123q-4 100 -8 110q-31 176 -59 510q-25 295 -39 410q-111 -18 -226 -21q-25 0 -43 16.5t-18 41t16.5 43t40.5 18.5 q113 2 220 19q12 37 49 43q33 4 55 -23q172 39 289 109q20 12 44.5 6t37 -26.5t6.5 -45.5t-27 -37q-133 -80 -325 -123q14 -117 38 -420q27 -322 60 -499q2 -18 8 -123q4 -68 14 -92l9 -9l10 -10l43 8q223 37 342 48q23 2 42 -14.5t21 -40t-14 -43t-41 -21.5z" />
<glyph unicode="&#xd0;" horiz-adv-x="1425" d="M219 715q-57 258 -143 610q-4 18 2 37q-2 23 10 41t35 24q303 80 545 82q307 4 501.5 -139t243.5 -373q47 -219 -51 -446t-326 -381q-2 -2 -51 -36t-59 -40l-58 -35q-45 -29 -64.5 -36t-62.5 -26.5t-72.5 -25.5t-69.5 -11t-77 -3h-14q-16 -2 -23 -2q-41 0 -69 16 q-20 12 -35 45q-8 16 -16 43q-10 37 -29 109q-18 78 -39 182l-53 246q-80 -35 -146 -70q-20 -10 -43.5 -3t-35 28.5t-4 45.5t29.5 36q74 39 174 82zM670 780q-68 -33 -291 -125l-23 -10l56 -270l39 -178q16 -66 28 -103q2 -12 6 -20l15 2h26q25 -2 49.5 1t44 5t47 13 t42 15.5t45.5 20.5l41 21q10 6 43.5 28.5t41 26.5t46.5 31l45 30q197 133 281.5 328t43.5 377q-39 184 -198 303q-162 119 -430 115q-207 -2 -469 -66l131 -563l4 2q219 92 287 123q23 10 45 2t32.5 -30.5t2.5 -45.5t-31 -33z" />
<glyph unicode="&#xd1;" horiz-adv-x="1593" d="M137 221q72 113 99 330q8 68 18 190q10 129 18 189q37 262 39 270q10 70 21 107q8 25 16 40t21 23q27 20 57 12q37 -10 68 -57q20 -29 41 -74q14 -29 31.5 -71.5t19.5 -49.5q47 -102 116.5 -222t116.5 -193l142 -213q37 -55 114 -158l33 -43q4 23 6 49q10 109 12 295 q2 121 -6 506q-2 100 0 147q2 55 10 91q14 61 54 84q23 10 53 8q18 -2 45 -6q37 -8 100 -27q162 -47 164 -47q25 -4 39 -24.5t10 -45t-24.5 -39t-44.5 -10.5q-10 2 -176 51q-59 18 -93 25q-6 2 -12 2q-4 -23 -6 -68q-2 -39 0 -137q8 -377 6 -512q-2 -190 -12 -305 q-8 -70 -19 -113q-14 -63 -45 -88q-25 -18 -55 -10q-10 4 -18 10q-8 4 -17 13q-10 10 -28 30q-27 33 -70 92q-82 109 -119 164l-141 215q-49 74 -121 199t-121 231q-4 6 -20.5 46t-28.5 67l-2 -12q-2 -8 -37 -269q-8 -63 -18 -186q-10 -125 -19 -190q-31 -242 -114 -377 q-14 -20 -38 -26.5t-44.5 7t-26.5 37t6 43.5zM313 1561q41 147 133 186q74 31 181 -12q31 -12 82 -37q55 -29 75 -37q78 -35 121 -29q12 2 26.5 7.5t24 10.5t25.5 17t23 19l28 24q20 18 29 25q18 16 42.5 14t41 -20.5t14.5 -43t-20 -40.5l-29 -27q-29 -25 -41 -34t-40 -27.5 t-53.5 -28.5t-53.5 -15q-76 -10 -187 39q-23 10 -80 39q-47 23 -71 33q-63 27 -92 14q-37 -16 -64 -110q-6 -23 -27.5 -35t-45 -6t-36 27.5t-6.5 46.5z" />
<glyph unicode="&#xd2;" horiz-adv-x="1392" d="M893 1356q-6 -6 -10 -8q-2 -2 -6.5 -5.5t-15.5 -7.5t-23 -4q-43 2 -54 43q-2 6 -2 12q-180 -14 -313 -160.5t-172 -351.5q-43 -242 68 -421q127 -201 417 -248q139 -23 275 80q133 102 188 252q59 164 6 446q-41 217 -207 320q-100 61 -151 53zM1171 1356 q156 -131 199 -352q57 -313 -14 -508q-31 -84 -89.5 -162t-134 -139.5t-173 -92t-193.5 -16.5q-346 53 -502 305q-135 219 -84 506q25 127 87.5 243.5t153.5 206t218 132.5t264 22q18 -4 33 -16q35 0 84 -2q133 -6 174 -8q25 -2 41 -20.5t14 -43.5t-20.5 -41t-42.5 -14h-15z M737 1556l-92 127q-55 78 -90 136q-12 23 -6 46t27.5 35.5t45 6.5t35.5 -27q31 -53 84 -127l95 -127q14 -20 10 -45t-24.5 -39t-45.5 -10t-39 24z" />
<glyph unicode="&#xd3;" horiz-adv-x="1392" d="M893 1356q-6 -6 -10 -8q-2 -2 -6.5 -5.5t-15.5 -7.5t-23 -4q-43 2 -54 43q-2 6 -2 12q-180 -14 -313 -160.5t-172 -351.5q-43 -242 68 -421q127 -201 417 -248q139 -23 275 80q133 102 188 252q59 164 6 446q-41 217 -207 320q-100 61 -151 53zM1171 1356 q156 -131 199 -352q57 -313 -14 -508q-31 -84 -89.5 -162t-134 -139.5t-173 -92t-193.5 -16.5q-346 53 -502 305q-135 219 -84 506q25 127 87.5 243.5t153.5 206t218 132.5t264 22q18 -4 33 -16q35 0 84 -2q133 -6 174 -8q25 -2 41 -20.5t14 -43.5t-20.5 -41t-42.5 -14h-15z M801 1606q20 25 114 125q63 70 95 120q12 20 36.5 26.5t45 -5.5t26.5 -37t-6 -45q-37 -61 -111 -139q-90 -98 -106 -119t-41 -23t-44 13.5t-21 40.5t12 43z" />
<glyph unicode="&#xd4;" horiz-adv-x="1392" d="M893 1356q-6 -6 -10 -8q-2 -2 -6.5 -5.5t-15.5 -7.5t-23 -4q-43 2 -54 43q-2 6 -2 12q-180 -14 -313 -160.5t-172 -351.5q-43 -242 68 -421q127 -201 417 -248q139 -23 275 80q133 102 188 252q59 164 6 446q-41 217 -207 320q-100 61 -151 53zM1171 1356 q156 -131 199 -352q57 -313 -14 -508q-31 -84 -89.5 -162t-134 -139.5t-173 -92t-193.5 -16.5q-346 53 -502 305q-135 219 -84 506q25 127 87.5 243.5t153.5 206t218 132.5t264 22q18 -4 33 -16q35 0 84 -2q133 -6 174 -8q25 -2 41 -20.5t14 -43.5t-20.5 -41t-42.5 -14h-15z M537 1649q59 106 104 157q61 68 127 72q68 4 131 -61q49 -49 111 -156q12 -20 6 -44t-27.5 -36t-45 -6t-36.5 29q-53 92 -92 131q-27 27 -41 24q-14 0 -45 -33q-37 -41 -90 -135q-12 -23 -35.5 -29t-45 6.5t-27.5 36.5t6 44z" />
<glyph unicode="&#xd5;" horiz-adv-x="1392" d="M893 1356q-6 -6 -10 -8q-2 -2 -6.5 -5.5t-15.5 -7.5t-23 -4q-43 2 -54 43q-2 6 -2 12q-180 -14 -313 -160.5t-172 -351.5q-43 -242 68 -421q127 -201 417 -248q139 -23 275 80q133 102 188 252q59 164 6 446q-41 217 -207 320q-100 61 -151 53zM1171 1356 q156 -131 199 -352q57 -313 -14 -508q-31 -84 -89.5 -162t-134 -139.5t-173 -92t-193.5 -16.5q-346 53 -502 305q-135 219 -84 506q25 127 87.5 243.5t153.5 206t218 132.5t264 22q18 -4 33 -16q35 0 84 -2q133 -6 174 -8q25 -2 41 -20.5t14 -43.5t-20.5 -41t-42.5 -14h-15z M434 1669q80 131 201 137q74 6 194 -47q113 -51 150 -55q61 -8 102 39q16 18 41 20t43.5 -14t20.5 -41t-15 -43q-86 -96 -208 -80q-49 8 -183 66q-94 41 -137 39q-59 -4 -106 -82q-14 -20 -38 -26.5t-44.5 7t-26.5 37t6 43.5z" />
<glyph unicode="&#xd6;" horiz-adv-x="1392" d="M893 1356q-6 -6 -10 -8q-2 -2 -6.5 -5.5t-15.5 -7.5t-23 -4q-43 2 -54 43q-2 6 -2 12q-180 -14 -313 -160.5t-172 -351.5q-43 -242 68 -421q127 -201 417 -248q139 -23 275 80q133 102 188 252q59 164 6 446q-41 217 -207 320q-100 61 -151 53zM1171 1356 q156 -131 199 -352q57 -313 -14 -508q-31 -84 -89.5 -162t-134 -139.5t-173 -92t-193.5 -16.5q-346 53 -502 305q-135 219 -84 506q25 127 87.5 243.5t153.5 206t218 132.5t264 22q18 -4 33 -16q35 0 84 -2q133 -6 174 -8q25 -2 41 -20.5t14 -43.5t-20.5 -41t-42.5 -14h-15z M1163 1661q0 -4 -2 -8q-16 -82 -67 -111q-31 -16 -60.5 -11t-52.5 28q-20 23 -22.5 54.5t20.5 61.5q35 43 121 49h4h4q23 -2 38 -17t17 -38v-4v-4zM465 1595v2q6 84 53 119q29 20 59.5 18.5t55.5 -22.5q23 -20 29 -51t-13 -64q-29 -49 -112 -63q-2 0 -2 -2h-7h-4h-4 q-20 2 -35.5 15.5t-19.5 33.5v14z" />
<glyph unicode="&#xd7;" horiz-adv-x="1093" d="M172 997q57 -51 133 -131l125 -133l129 -131q211 172 445 322q20 14 44.5 9t38 -25.5t8.5 -45t-26 -37.5q-225 -145 -426 -309q184 -197 289 -360q14 -20 9 -45t-25.5 -38.5t-45 -8t-36.5 25.5q-102 158 -283 348q-193 -168 -313 -321q-14 -18 -39 -21.5t-44.5 11 t-22.5 39t11 44.5q123 158 326 334l-125 127l-125 133q-70 74 -125 123q-18 16 -20 41t14 43.5t41 20t43 -14.5z" />
<glyph unicode="&#xd8;" horiz-adv-x="1013" d="M745 731q-49 -47 -106 -108l-94 -103l-107 -119q-63 -72 -98 -106q51 -59 121 -80q174 -53 272 33q90 78 88 229q0 137 -76 254zM668 823q-106 98 -262 123q-6 2 -11 4q-55 -23 -94 -96q-53 -100 -57 -242q-2 -117 35 -211q287 320 389 422zM190 305q-68 137 -65 311 q4 168 72 293q78 147 206 166q31 4 64 -12q10 -4 16 -7t11 -3q6 -2 12 -6q143 -41 250 -142q84 78 164 142q20 14 43.5 11t39 -22.5t12.5 -43t-22 -40.5q-80 -61 -162 -137q109 -154 109 -336q0 -209 -129 -321q-147 -127 -383 -58q-98 31 -168 105l-129 -135 q-18 -16 -43 -16.5t-42 17t-17 42t16 43.5z" />
<glyph unicode="&#xd9;" horiz-adv-x="1503" d="M317 1405q12 -123 -6 -320q-25 -266 -26 -305q-8 -246 59 -405q84 -197 277 -213q152 -12 237 108q51 70 89 157t58.5 154.5t37 183.5t22.5 171t16 188q0 8 -4 94.5t15 122.5q25 57 92 74q43 12 106 6q35 -4 96 -16q51 -10 64 -10q25 -2 41 -20.5t14 -43t-20.5 -41 t-42.5 -14.5q-20 2 -78 12q-55 12 -86 15q-41 4 -64 -3q-12 -2 -16 -8q-4 -10 -2 -67q6 -94 4 -109q-2 -12 -4 -35q-8 -119 -15 -182t-24.5 -175t-41 -187.5t-64.5 -168t-95 -167.5q-127 -176 -344 -158q-266 23 -376 285q-78 184 -70 456q2 51 27 314q18 190 6 295 q-2 25 13 44t39.5 21t44 -13t21.5 -40zM655 1532q-23 45 -51 86l-67 92q-39 51 -66 90q-14 20 -9 44t25.5 38t44 9t37.5 -25l60 -80q41 -55 74.5 -104.5t58.5 -96.5q10 -23 3 -46t-29.5 -33.5t-46.5 -3.5t-34 30z" />
<glyph unicode="&#xda;" horiz-adv-x="1503" d="M317 1405q12 -123 -6 -320q-25 -266 -26 -305q-8 -246 59 -405q84 -197 277 -213q152 -12 237 108q51 70 89 157t58.5 154.5t37 183.5t22.5 171t16 188q0 8 -4 94.5t15 122.5q25 57 92 74q43 12 106 6q35 -4 96 -16q51 -10 64 -10q25 -2 41 -20.5t14 -43t-20.5 -41 t-42.5 -14.5q-20 2 -78 12q-55 12 -86 15q-41 4 -64 -3q-12 -2 -16 -8q-4 -10 -2 -67q6 -94 4 -109q-2 -12 -4 -35q-8 -119 -15 -182t-24.5 -175t-41 -187.5t-64.5 -168t-95 -167.5q-127 -176 -344 -158q-266 23 -376 285q-78 184 -70 456q2 51 27 314q18 190 6 295 q-2 25 13 44t39.5 21t44 -13t21.5 -40zM547 1509q37 59 201 295q14 20 38.5 24.5t45 -10t24.5 -39t-10 -44.5q-172 -246 -197 -287q-12 -20 -36.5 -26.5t-45 6t-26.5 37t6 44.5z" />
<glyph unicode="&#xdb;" horiz-adv-x="1503" d="M317 1405q12 -123 -6 -320q-25 -266 -26 -305q-8 -246 59 -405q84 -197 277 -213q152 -12 237 108q51 70 89 157t58.5 154.5t37 183.5t22.5 171t16 188q0 8 -4 94.5t15 122.5q25 57 92 74q43 12 106 6q35 -4 96 -16q51 -10 64 -10q25 -2 41 -20.5t14 -43t-20.5 -41 t-42.5 -14.5q-20 2 -78 12q-55 12 -86 15q-41 4 -64 -3q-12 -2 -16 -8q-4 -10 -2 -67q6 -94 4 -109q-2 -12 -4 -35q-8 -119 -15 -182t-24.5 -175t-41 -187.5t-64.5 -168t-95 -167.5q-127 -176 -344 -158q-266 23 -376 285q-78 184 -70 456q2 51 27 314q18 190 6 295 q-2 25 13 44t39.5 21t44 -13t21.5 -40zM438 1538q2 4 37 92q35 86 62 137q41 82 81 121q74 72 148 29q35 -20 45 -68q2 -12 4 -20v-2q39 -98 121 -266q10 -23 3 -46.5t-29.5 -34t-46 -3t-34.5 29.5q-84 172 -124 275q-2 8 -7 18q-25 -27 -57 -88q-25 -49 -55 -127 q-37 -90 -41 -96q-10 -23 -33 -31t-45.5 2t-30.5 32.5t2 45.5z" />
<glyph unicode="&#xdc;" horiz-adv-x="1503" d="M422 1561q6 88 51 125q31 23 62.5 19.5t56.5 -24.5q23 -20 28 -51t-12 -63q-29 -53 -114 -68q-2 0 -2 -2h-7h-8q-20 2 -35.5 15.5t-19.5 33.5v15zM973 1657v-2q-2 -86 -49 -123q-29 -23 -61 -22t-55.5 21.5t-30.5 51.5t9 64q29 51 113 69h2l70 -45q-4 20 -21 33 q16 -12 21 -33q2 -4 2 -8v-6zM317 1405q12 -123 -6 -320q-25 -266 -26 -305q-8 -246 59 -405q84 -197 277 -213q152 -12 237 108q51 70 89 157t58.5 154.5t37 183.5t22.5 171t16 188q0 8 -4 94.5t15 122.5q25 57 92 74q43 12 106 6q35 -4 96 -16q51 -10 64 -10 q25 -2 41 -20.5t14 -43t-20.5 -41t-42.5 -14.5q-20 2 -78 12q-55 12 -86 15q-41 4 -64 -3q-12 -2 -16 -8q-4 -10 -2 -67q6 -94 4 -109q-2 -12 -4 -35q-8 -119 -15 -182t-24.5 -175t-41 -187.5t-64.5 -168t-95 -167.5q-127 -176 -344 -158q-266 23 -376 285q-78 184 -70 456 q2 51 27 314q18 190 6 295q-2 25 13 44t39.5 21t44 -13t21.5 -40zM950 1704q-14 14 -35 14q21 0 35 -14zM915 1718q-8 0 -14 -2q6 2 14 2z" />
<glyph unicode="&#xdd;" horiz-adv-x="1355" d="M715 629l295 -527q12 -20 6 -44.5t-27.5 -36t-46 -5t-35.5 28.5l-198 356l-187 318q-121 205 -228.5 363.5t-219.5 299.5q-14 20 -11 44t22 39.5t43 12.5t40 -22q225 -287 481 -719l150 168l141 158q53 59 154.5 194.5t158.5 200.5q16 18 41 20.5t43.5 -14t20.5 -41 t-15 -43.5q-55 -63 -155 -194q-102 -137 -158 -201l-149 -166q-109 -120 -166 -190zM465 1520q29 41 108 131q63 76 93 121q14 20 37.5 26t44 -7t26.5 -36.5t-6 -44.5q-35 -55 -106 -137q-74 -86 -99 -123q-14 -20 -38.5 -24.5t-45 10t-24.5 39.5t10 45z" />
<glyph unicode="&#xde;" horiz-adv-x="1003" d="M301 629q14 0 40 -1t32 -1q96 -4 153 -2q168 6 250 67q63 49 93 112.5t16 131.5q-29 135 -242 125q-45 -2 -98 -10q-55 -8 -86 -14.5t-94 -20.5l-74 -19q12 -235 10 -368zM182 612q2 133 -10 381q-14 289 -14 389q0 25 17.5 42.5t42 17.5t41.5 -17.5t17 -42.5 q0 -106 9 -264q240 57 352 62q315 12 362 -219q23 -106 -21 -201.5t-132 -161.5q-113 -84 -316 -92q-61 -2 -161 2q-10 0 -35 1t-37 1q-2 -43 -10 -139q-10 -150 -11 -230q0 -25 -17 -42t-41.5 -17t-42 17.5t-17.5 41.5q0 72 12 238q8 111 10 153q-14 16 -14 39q0 25 16 41z " />
<glyph unicode="&#xdf;" horiz-adv-x="1005" d="M182 -354q18 242 4 749q0 33 -4 121t-6 162q-2 68 0 139q8 276 80 424q41 84 124 137.5t177 63.5q100 10 187 -32t130 -142q102 -242 -118 -443q43 -6 75 -16q63 -18 97 -55q49 -55 68.5 -130t10 -143.5t-37.5 -138.5q-43 -102 -119 -184t-162 -117q-27 -10 -62.5 -17.5 t-54 -9.5t-63.5 -4l-47 -2q-25 -2 -43.5 14.5t-20.5 41t14.5 43t41.5 20.5q14 0 43 2l43 2q14 2 35.5 4t38 6t30.5 11q63 25 121.5 89t93.5 146t31 159t-51 130q-8 10 -41 19.5t-82 15.5q-18 2 -82 6l-31 4q-10 0 -16 2q-33 16 -41 39q-16 43 16 78q14 14 37 22l16 6 q8 4 10.5 4t3.5 1t3 1q213 160 133 349q-25 57 -76 82.5t-117.5 18.5t-124 -44t-84.5 -92q-61 -125 -67 -375q-2 -70 0 -137q2 -72 6 -158t4 -119q14 -514 -4 -761q-2 -25 -20.5 -41.5t-43 -14.5t-41 20.5t-14.5 43.5z" />
<glyph unicode="&#xe0;" horiz-adv-x="991" d="M862 131l-4 12q-6 41 -10 86t-7 105.5t-5 81.5q-2 39 -7 73l-2 3q-55 92 -182 114q-133 25 -231.5 -46t-116.5 -179q-18 -106 53 -178q94 -92 299 -94q45 0 142 12zM137 848q86 119 146 160q88 63 221 61q242 -2 356 -235q76 -152 94 -410q2 -31 4 -84q4 -57 7.5 -97 t11.5 -79q2 -2 8 -19q20 -53 -10 -90q-14 -16 -41 -26q-14 -6 -37 -11q-37 -8 -92 -16q-104 -12 -156 -12q-256 4 -381 129q-117 117 -88 282q27 154 164 255.5t322 68.5q70 -14 127 -43q-16 55 -39 98q-82 168 -250 170q-96 2 -154 -39q-43 -31 -119 -133 q-14 -20 -37.5 -23t-44 11t-23.5 38t11 44zM326 1552q143 -180 231 -342q12 -23 5 -46t-28.5 -34.5t-45 -4t-33.5 27.5q-86 154 -224 326q-14 18 -11 42.5t21.5 40t43.5 12t41 -21.5z" />
<glyph unicode="&#xe1;" horiz-adv-x="991" d="M862 131l-4 12q-6 41 -10 86t-7 105.5t-5 81.5q-2 39 -7 73l-2 3q-55 92 -182 114q-133 25 -231.5 -46t-116.5 -179q-18 -106 53 -178q94 -92 299 -94q45 0 142 12zM137 848q86 119 146 160q88 63 221 61q242 -2 356 -235q76 -152 94 -410q2 -31 4 -84q4 -57 7.5 -97 t11.5 -79q2 -2 8 -19q20 -53 -10 -90q-14 -16 -41 -26q-14 -6 -37 -11q-37 -8 -92 -16q-104 -12 -156 -12q-256 4 -381 129q-117 117 -88 282q27 154 164 255.5t322 68.5q70 -14 127 -43q-16 55 -39 98q-82 168 -250 170q-96 2 -154 -39q-43 -31 -119 -133 q-14 -20 -37.5 -23t-44 11t-23.5 38t11 44zM807 1475q-115 -141 -328 -314q-18 -14 -42.5 -11t-40 21.5t-12.5 43t22 40.5q203 162 307 293q16 18 40.5 21.5t43 -12t21.5 -40t-11 -42.5z" />
<glyph unicode="&#xe2;" horiz-adv-x="991" d="M862 131l-4 12q-6 41 -10 86t-7 105.5t-5 81.5q-2 39 -7 73l-2 3q-55 92 -182 114q-133 25 -231.5 -46t-116.5 -179q-18 -106 53 -178q94 -92 299 -94q45 0 142 12zM137 848q86 119 146 160q88 63 221 61q242 -2 356 -235q76 -152 94 -410q2 -31 4 -84q4 -57 7.5 -97 t11.5 -79q2 -2 8 -19q20 -53 -10 -90q-14 -16 -41 -26q-14 -6 -37 -11q-37 -8 -92 -16q-104 -12 -156 -12q-256 4 -381 129q-117 117 -88 282q27 154 164 255.5t322 68.5q70 -14 127 -43q-16 55 -39 98q-82 168 -250 170q-96 2 -154 -39q-43 -31 -119 -133 q-14 -20 -37.5 -23t-44 11t-23.5 38t11 44zM213 1233q2 6 37 92q33 84 61 137q41 84 82 123q74 72 148 29q35 -20 45 -68q2 -12 4 -20v-2q37 -92 121 -269q10 -23 2 -46t-29.5 -33.5t-45.5 -2t-34 28.5q-88 182 -125 277q-2 8 -6 18q-25 -27 -57 -88q-23 -45 -56 -127 q-37 -92 -41 -98q-10 -23 -32.5 -31t-45 2t-30.5 32.5t2 45.5z" />
<glyph unicode="&#xe3;" horiz-adv-x="991" d="M862 131l-4 12q-6 41 -10 86t-7 105.5t-5 81.5q-2 39 -7 73l-2 3q-55 92 -182 114q-133 25 -231.5 -46t-116.5 -179q-18 -106 53 -178q94 -92 299 -94q45 0 142 12zM137 848q86 119 146 160q88 63 221 61q242 -2 356 -235q76 -152 94 -410q2 -31 4 -84q4 -57 7.5 -97 t11.5 -79q2 -2 8 -19q20 -53 -10 -90q-14 -16 -41 -26q-14 -6 -37 -11q-37 -8 -92 -16q-104 -12 -156 -12q-256 4 -381 129q-117 117 -88 282q27 154 164 255.5t322 68.5q70 -14 127 -43q-16 55 -39 98q-82 168 -250 170q-96 2 -154 -39q-43 -31 -119 -133 q-14 -20 -37.5 -23t-44 11t-23.5 38t11 44zM102 1229q63 123 125 168q70 49 150 26q41 -12 117 -63q74 -51 112 -66q80 -35 125 4t60 138q4 25 24.5 40t44 11t38.5 -24.5t11 -43.5q-23 -143 -100 -211q-100 -86 -248 -24q-51 23 -133 76q-61 41 -86 49q-25 6 -45 -9 q-39 -29 -88 -124q-12 -23 -35.5 -30t-45.5 4t-29 35t3 44z" />
<glyph unicode="&#xe4;" horiz-adv-x="991" d="M862 131l-4 12q-6 41 -10 86t-7 105.5t-5 81.5q-2 39 -7 73l-2 3q-55 92 -182 114q-133 25 -231.5 -46t-116.5 -179q-18 -106 53 -178q94 -92 299 -94q45 0 142 12zM795 1364v-2q-2 -88 -50 -127q-29 -23 -61.5 -20.5t-54.5 22.5q-25 20 -31 51t10 64q29 53 113 71h2 l70 -45q-4 20 -19 35q14 -14 19 -35q2 -4 2 -6v-8zM248 1278q6 88 51 125q31 23 62.5 19.5t56.5 -23.5q23 -20 28 -51t-12 -64q-29 -53 -115 -67q-2 0 -2 -3h-6h-8q-20 2 -35.5 15.5t-19.5 34.5v14zM137 848q86 119 146 160q88 63 221 61q242 -2 356 -235q76 -152 94 -410 q2 -31 4 -84q4 -57 7.5 -97t11.5 -79q2 -2 8 -19q20 -53 -10 -90q-14 -16 -41 -26q-14 -6 -37 -11q-37 -8 -92 -16q-104 -12 -156 -12q-256 4 -381 129q-117 117 -88 282q27 154 164 255.5t322 68.5q70 -14 127 -43q-16 55 -39 98q-82 168 -250 170q-96 2 -154 -39 q-43 -31 -119 -133q-14 -20 -37.5 -23t-44 11t-23.5 38t11 44zM774 1413q-16 12 -37 12q21 0 37 -12zM737 1425q-8 0 -14 -2q6 2 14 2z" />
<glyph unicode="&#xe5;" horiz-adv-x="991" d="M862 131l-4 12q-6 41 -10 86t-7 105.5t-5 81.5q-2 39 -7 73l-2 3q-55 92 -182 114q-133 25 -231.5 -46t-116.5 -179q-18 -106 53 -178q94 -92 299 -94q45 0 142 12zM582 1354q-18 43 -50 61.5t-61 11.5q-23 -4 -38 -29.5t-5 -78.5q10 -43 35 -57q23 -10 51 0q60 20 68 92 zM655 1460q37 -10 43 -47q14 -94 -28.5 -165.5t-116.5 -98.5q-78 -29 -145 8q-74 41 -94.5 137.5t18.5 166t119 83.5q55 10 110 -12.5t94 -71.5zM137 848q86 119 146 160q88 63 221 61q242 -2 356 -235q76 -152 94 -410q2 -31 4 -84q4 -57 7.5 -97t11.5 -79q2 -2 8 -19 q20 -53 -10 -90q-14 -16 -41 -26q-14 -6 -37 -11q-37 -8 -92 -16q-104 -12 -156 -12q-256 4 -381 129q-117 117 -88 282q27 154 164 255.5t322 68.5q70 -14 127 -43q-16 55 -39 98q-82 168 -250 170q-96 2 -154 -39q-43 -31 -119 -133q-14 -20 -37.5 -23t-44 11t-23.5 38 t11 44z" />
<glyph unicode="&#xe6;" horiz-adv-x="1724" d="M862 131l-4 12q-6 41 -10 86t-7 105.5t-5 81.5q-2 39 -7 73l-2 3q-55 92 -182 114q-133 25 -231.5 -46t-116.5 -179q-18 -106 53 -178q94 -92 299 -94q45 0 142 12zM1034 588q119 4 236 18q119 16 194.5 41t89.5 47q51 82 -77 170q-61 45 -135 65.5t-115 10.5 q-37 -8 -78 -61.5t-74 -139.5q-27 -73 -41 -151zM137 848q86 119 146 160q88 63 221 61q242 -2 356 -235q41 -80 64 -189q16 70 41 135q92 242 233 275q72 16 170 -10.5t176 -81.5q41 -27 72 -62t53.5 -78t19.5 -93t-36 -101q-37 -57 -152 -94q-88 -29 -215 -46 q-131 -18 -260 -20q0 -8 2 -14q10 -70 59.5 -139.5t116.5 -118.5q154 -102 283 -33q23 10 41 25.5t25.5 22.5t31.5 38l37 43q16 18 41 20t43 -14t20.5 -41t-14.5 -43l-26 -33q-18 -23 -29.5 -35t-29 -29.5t-38 -31.5t-45.5 -29q-68 -35 -142.5 -38t-139 17.5t-123.5 63.5 q-113 76 -176 193q4 -76 14 -129q2 -2 8 -19q20 -53 -10 -90q-14 -16 -41 -26q-14 -6 -37 -11q-37 -8 -92 -16q-104 -12 -156 -12q-256 4 -381 129q-117 117 -88 282q27 154 164 255.5t322 68.5q70 -14 127 -43q-16 55 -39 98q-82 168 -250 170q-96 2 -154 -39 q-43 -31 -119 -133q-14 -20 -37.5 -23t-44 11t-23.5 38t11 44z" />
<glyph unicode="&#xe7;" horiz-adv-x="940" d="M784 760q-57 111 -124.5 162t-176.5 53q-199 4 -295 -207q-43 -94 -55 -209q-12 -117 6 -211q4 -35 21 -80q16 -53 28 -69q37 -53 179 -84q35 -6 69 -11q27 20 58 13q14 -6 24 -17q45 0 74 6q59 14 135 95q70 74 100 147q10 23 34 31t46.5 -1t30.5 -32.5t0 -46.5 q-41 -90 -125 -180q-100 -106 -197 -127q-43 -10 -104 -10l-2 -13q-14 -39 -23 -63q6 0 33 2q53 4 80 0q68 -6 90 -58q25 -57 -20 -118q-29 -37 -80 -76q-100 -72 -170 -86q-72 -12 -117 0q-8 2 -86 39q-23 10 -31 32.5t2.5 45t33 31t44.5 -2.5q68 -31 70 -30q18 -4 63 4 q43 6 121 63q27 20 45 39q-12 0 -37 -2q-57 -4 -82 -2q-61 2 -92 37q-27 31 -14 70q6 16 20 32l13 15q8 16 18 51q-25 2 -47 8q-188 37 -254 129q-23 33 -45 102q-16 55 -25 97q-20 109 -4.5 244t64.5 245q59 127 161.5 204t245.5 73q145 -4 238.5 -75t165.5 -202 q10 -23 3 -46t-28.5 -34.5t-45.5 -4t-36 27.5z" />
<glyph unicode="&#xe8;" d="M358 590q119 4 236 18q119 16 194.5 41t90.5 47q51 82 -78 170q-61 45 -135 65.5t-115 10.5q-37 -8 -78 -61.5t-74 -139.5q-27 -73 -41 -151zM229 475h-6q-25 4 -40 23.5t-12 43t22.5 39t42.5 13.5h2q16 96 51 188q92 242 233 275q72 16 170.5 -10.5t175.5 -81.5 q41 -27 72 -62t53.5 -78t19.5 -93t-36 -101q-37 -57 -152 -94q-88 -29 -215 -45q-131 -18 -260 -21q0 -8 2 -14q10 -70 59.5 -139.5t116.5 -118.5q154 -102 283 -33q23 10 41 25.5t25.5 22.5t31.5 38l37 43q16 18 41 20t43.5 -14t20.5 -40.5t-15 -43.5l-26 -33 q-18 -23 -29.5 -35t-29 -29.5t-38 -31.5t-45.5 -29q-68 -35 -142.5 -38t-139 17.5t-123.5 63.5q-88 59 -149.5 148.5t-80.5 185.5q-2 19 -4 39zM469 1546q143 -180 231 -342q12 -23 5 -46t-28.5 -34.5t-45 -4.5t-33.5 28q-86 154 -223 326q-14 18 -11 42.5t21 40t43 12 t41 -21.5z" />
<glyph unicode="&#xe9;" d="M358 590q119 4 236 18q119 16 194.5 41t90.5 47q51 82 -78 170q-61 45 -135 65.5t-115 10.5q-37 -8 -78 -61.5t-74 -139.5q-27 -73 -41 -151zM229 475h-6q-25 4 -40 23.5t-12 43t22.5 39t42.5 13.5h2q16 96 51 188q92 242 233 275q72 16 170.5 -10.5t175.5 -81.5 q41 -27 72 -62t53.5 -78t19.5 -93t-36 -101q-37 -57 -152 -94q-88 -29 -215 -45q-131 -18 -260 -21q0 -8 2 -14q10 -70 59.5 -139.5t116.5 -118.5q154 -102 283 -33q23 10 41 25.5t25.5 22.5t31.5 38l37 43q16 18 41 20t43.5 -14t20.5 -40.5t-15 -43.5l-26 -33 q-18 -23 -29.5 -35t-29 -29.5t-38 -31.5t-45.5 -29q-68 -35 -142.5 -38t-139 17.5t-123.5 63.5q-88 59 -149.5 148.5t-80.5 185.5q-2 19 -4 39zM944 1460q-115 -141 -328 -313q-18 -14 -42.5 -11t-40 21.5t-12.5 43t22 40.5q203 162 307 293q16 18 40.5 21.5t43 -12 t21.5 -40.5t-11 -43z" />
<glyph unicode="&#xea;" d="M358 590q119 4 236 18q119 16 194.5 41t90.5 47q51 82 -78 170q-61 45 -135 65.5t-115 10.5q-37 -8 -78 -61.5t-74 -139.5q-27 -73 -41 -151zM229 475h-6q-25 4 -40 23.5t-12 43t22.5 39t42.5 13.5h2q16 96 51 188q92 242 233 275q72 16 170.5 -10.5t175.5 -81.5 q41 -27 72 -62t53.5 -78t19.5 -93t-36 -101q-37 -57 -152 -94q-88 -29 -215 -45q-131 -18 -260 -21q0 -8 2 -14q10 -70 59.5 -139.5t116.5 -118.5q154 -102 283 -33q23 10 41 25.5t25.5 22.5t31.5 38l37 43q16 18 41 20t43.5 -14t20.5 -40.5t-15 -43.5l-26 -33 q-18 -23 -29.5 -35t-29 -29.5t-38 -31.5t-45.5 -29q-68 -35 -142.5 -38t-139 17.5t-123.5 63.5q-88 59 -149.5 148.5t-80.5 185.5q-2 19 -4 39zM332 1229q2 6 37 92q33 84 61 137q41 84 82 123q74 74 150 29l18 -19l4 -4l2 -6l6 -12l17 -37l47 -109q72 -172 71 -174 q10 -23 2 -45t-30.5 -32.5t-45 -2t-32.5 30.5q-2 4 -76 176l-45 109l-6 10q-27 -25 -59 -90q-25 -49 -56 -127q-37 -90 -41 -98q-10 -23 -32.5 -31t-45 2t-30.5 32.5t2 45.5z" />
<glyph unicode="&#xeb;" d="M358 590q119 4 236 18q119 16 194.5 41t90.5 47q51 82 -78 170q-61 45 -135 65.5t-115 10.5q-37 -8 -78 -61.5t-74 -139.5q-27 -73 -41 -151zM229 475h-6q-25 4 -40 23.5t-12 43t22.5 39t42.5 13.5h2q16 96 51 188q92 242 233 275q72 16 170.5 -10.5t175.5 -81.5 q41 -27 72 -62t53.5 -78t19.5 -93t-36 -101q-37 -57 -152 -94q-88 -29 -215 -45q-131 -18 -260 -21q0 -8 2 -14q10 -70 59.5 -139.5t116.5 -118.5q154 -102 283 -33q23 10 41 25.5t25.5 22.5t31.5 38l37 43q16 18 41 20t43.5 -14t20.5 -40.5t-15 -43.5l-26 -33 q-18 -23 -29.5 -35t-29 -29.5t-38 -31.5t-45.5 -29q-68 -35 -142.5 -38t-139 17.5t-123.5 63.5q-88 59 -149.5 148.5t-80.5 185.5q-2 19 -4 39zM248 1278q6 88 51 125q31 23 62.5 19.5t56.5 -23.5q23 -20 28 -51t-12 -64q-29 -53 -115 -67q-2 0 -2 -3h-6h-8zM737 1425 q20 0 35.5 -13t20.5 -34q2 -4 2 -6v-8v-2q-2 -88 -50 -127q-29 -23 -61.5 -20.5t-54.5 22.5q-25 20 -31 51t10 64q29 53 113 71h2z" />
<glyph unicode="&#xec;" horiz-adv-x="657" d="M317 1067q0 -66 2.5 -80t-3 -87t-7.5 -91l-10 -92q-8 -74 -10 -90q-29 -285 2 -404q14 -53 50 -86t79 -39q92 -14 123 88q8 25 29.5 36t45 4t35 -28.5t4.5 -43.5q-29 -96 -99.5 -141.5t-154.5 -32.5q-80 12 -142 69t-85 146q-35 139 -4 444q2 18 9 92t9.5 90.5t7.5 85 t3 78.5t-2 74q-2 25 14 43t41 20t43 -14t20 -41zM94 1573q143 -180 232 -342q12 -23 5 -46.5t-28.5 -34.5t-45.5 -4t-34 28q-86 154 -223 325q-14 18 -11 43t21.5 40t43 12t40.5 -21z" />
<glyph unicode="&#xed;" horiz-adv-x="667" d="M317 1067q0 -66 2.5 -80t-3 -87t-7.5 -91l-10 -92q-8 -74 -10 -90q-29 -285 2 -404q14 -53 50 -86t79 -39q92 -14 123 88q8 25 29.5 36t45 4t35 -28.5t4.5 -43.5q-29 -96 -99.5 -141.5t-154.5 -32.5q-80 12 -142 69t-85 146q-35 139 -4 444q2 18 9 92t9.5 90.5t7.5 85 t3 78.5t-2 74q-2 25 14 43t41 20t43 -14t20 -41zM657 1483q-115 -141 -327 -314q-18 -14 -43 -11t-40.5 21.5t-12 43t21.5 41.5q203 162 307 292q16 18 41 21.5t43.5 -12t21 -40t-11.5 -42.5z" />
<glyph unicode="&#xee;" horiz-adv-x="657" d="M317 1067q0 -66 2.5 -80t-3 -87t-7.5 -91l-10 -92q-8 -74 -10 -90q-29 -285 2 -404q14 -53 50 -86t79 -39q92 -14 123 88q8 25 29.5 36t45 4t35 -28.5t4.5 -43.5q-29 -96 -99.5 -141.5t-154.5 -32.5q-80 12 -142 69t-85 146q-35 139 -4 444q2 18 9 92t9.5 90.5t7.5 85 t3 78.5t-2 74q-2 25 14 43t41 20t43 -14t20 -41zM14 1243q2 6 37 92q33 84 62 138q41 84 82 122q74 72 147 29q35 -20 45 -68q2 -12 4 -20v-2q37 -92 121 -268q10 -23 2 -46.5t-29.5 -33.5t-45 -2t-33.5 28q-88 182 -125 277q-2 8 -7 18q-25 -27 -57 -88q-23 -45 -55 -127 q-37 -92 -41 -98q-10 -23 -32.5 -31t-45.5 2.5t-31 32.5t2 45z" />
<glyph unicode="&#xef;" horiz-adv-x="657" d="M-18 1253q6 88 51 125q31 23 62.5 20t56.5 -24q23 -20 27.5 -51t-11.5 -63q-29 -53 -115 -68q-2 0 -2 -2h-6h-8q-20 2 -35.5 15.5t-19.5 33.5v14zM539 1356v-2q-2 -88 -50 -127q-29 -23 -61.5 -21t-54.5 23q-25 20 -31 51t10 63q29 53 113 72h2q6 2 14 2q20 0 35.5 -13 t20.5 -34q2 -4 2 -6v-8zM317 1067q0 -66 2.5 -80t-3 -87t-7.5 -91l-10 -92q-8 -74 -10 -90q-29 -285 2 -404q14 -53 50 -86t79 -39q92 -14 123 88q8 25 29.5 36t45 4t35 -28.5t4.5 -43.5q-29 -96 -99.5 -141.5t-154.5 -32.5q-80 12 -142 69t-85 146q-35 139 -4 444 q2 18 9 92t9.5 90.5t7.5 85t3 78.5t-2 74q-2 25 14 43t41 20t43 -14t20 -41z" />
<glyph unicode="&#xf0;" horiz-adv-x="997" d="M813 821q-20 4 -33 21q-104 137 -248 137q-135 -2 -243 -109q-72 -72 -103.5 -162t-8 -200.5t113.5 -206.5q63 -70 132 -96.5t159 -16.5q213 25 274 177q57 139 -10 362q-15 47 -33 94zM528 1270q-125 -61 -241 -109q-23 -8 -45.5 1t-31.5 32t0 45.5t32 32.5 q92 37 188 82q-29 20 -57 35q-23 10 -30 33.5t3 46t33.5 29.5t46.5 -3q59 -31 123 -82q113 57 256 139q20 12 43.5 6t36 -27.5t6.5 -45t-29 -35.5q-123 -72 -223 -125q104 -113 190 -263.5t132 -299.5q78 -264 6 -443q-88 -217 -373 -249q-225 -27 -389 149 q-86 92 -125 197.5t-31 202t49 182.5t107 153q143 141 325 144q82 0 156 -31q-74 115 -158 203z" />
<glyph unicode="&#xf1;" horiz-adv-x="1361" d="M133 246q12 55 29 160q16 117 28 169q29 139 70 242l16 45q14 53 17 56q23 78 55 118q47 59 111 68q55 6 112 -33q80 -53 166 -197q109 -182 191 -413l10 -27q6 -23 10 -37q16 -51 33 -88q20 -43 37 -61q25 20 55 84q35 78 72 211q20 68 59 233q33 137 43 174 q8 23 29.5 34t45.5 4t35 -28.5t5 -46.5q-6 -18 -41 -163q-37 -154 -61 -238q-39 -143 -80 -229q-55 -123 -125 -152q-66 -27 -123 35q-31 33 -60 96q-18 41 -36 98l-11 35q-6 20 -8 25q-80 221 -182 393q-72 121 -129 160q-20 14 -33.5 13t-30.5 -23q-18 -25 -36 -80 q0 -2 -17 -54q-10 -35 -18 -57q-37 -92 -66 -221q-8 -45 -26 -162q-16 -111 -31 -172q-6 -25 -26.5 -37t-45 -6t-37 26.5t-6.5 45.5zM371 1331q131 162 276 148q39 -4 85 -23.5t67 -34.5q14 -8 67 -43q106 -72 156 -71q72 -2 160 123q14 20 37.5 25t44 -9t25.5 -38t-9 -44 q-121 -180 -260 -176q-41 0 -86 17.5t-68.5 31.5t-64.5 43q-115 76 -166 80q-80 8 -170 -103q-16 -20 -41 -22t-44.5 13.5t-21 40t12.5 42.5z" />
<glyph unicode="&#xf2;" horiz-adv-x="937" d="M395 950q-55 -23 -94 -96q-53 -100 -57 -242q-2 -145 54 -255.5t163 -141.5q174 -53 272 33q90 78 88 229q0 104 -44 199.5t-141 172.5t-230 97q-7 2 -11 4zM506 1047q139 -41 239.5 -134.5t147.5 -205t47 -228.5q0 -209 -129 -321q-147 -127 -383 -58q-106 33 -178 119 t-99.5 186.5t-25.5 210.5q4 168 72 293q78 147 206 166q31 4 64 -12q10 -4 16 -7t11 -3q6 -2 12 -6zM217 1573q143 -180 232 -342q12 -23 4.5 -46.5t-29 -34.5t-45 -4t-33.5 28q-86 154 -223 325q-14 18 -11 43t21.5 40t43 12t40.5 -21z" />
<glyph unicode="&#xf3;" horiz-adv-x="954" d="M395 950q-55 -23 -94 -96q-53 -100 -57 -242q-2 -145 54 -255.5t163 -141.5q174 -53 272 33q90 78 88 229q0 104 -44 199.5t-141 172.5t-230 97q-7 2 -11 4zM506 1047q139 -41 239.5 -134.5t147.5 -205t47 -228.5q0 -209 -129 -321q-147 -127 -383 -58q-106 33 -178 119 t-99.5 186.5t-25.5 210.5q4 168 72 293q78 147 206 166q31 4 64 -12q10 -4 16 -7t11 -3q6 -2 12 -6zM944 1460q-115 -141 -328 -313q-18 -14 -42.5 -11t-40 21.5t-12.5 43t22 40.5q203 162 307 293q16 18 40.5 21.5t43 -12t21.5 -40.5t-11 -43z" />
<glyph unicode="&#xf4;" horiz-adv-x="937" d="M395 950q-55 -23 -94 -96q-53 -100 -57 -242q-2 -145 54 -255.5t163 -141.5q174 -53 272 33q90 78 88 229q0 104 -44 199.5t-141 172.5t-230 97q-7 2 -11 4zM506 1047q139 -41 239.5 -134.5t147.5 -205t47 -228.5q0 -209 -129 -321q-147 -127 -383 -58q-106 33 -178 119 t-99.5 186.5t-25.5 210.5q4 168 72 293q78 147 206 166q31 4 64 -12q10 -4 16 -7t11 -3q6 -2 12 -6zM248 1223q2 6 37 92q33 84 61 137q41 84 82 123q74 74 150 29l18 -19q2 -2 2 -4l4 -6l6 -12l17 -37l47 -109q72 -172 71 -174q10 -23 2 -45t-30.5 -32.5t-45 -2.5t-32.5 31 q-2 4 -76 176l-45 109l-6 10q-27 -25 -59 -90q-25 -49 -56 -127q-37 -90 -41 -98q-10 -23 -32.5 -31t-45 2t-30.5 32.5t2 45.5z" />
<glyph unicode="&#xf5;" horiz-adv-x="937" d="M395 950q-55 -23 -94 -96q-53 -100 -57 -242q-2 -145 54 -255.5t163 -141.5q174 -53 272 33q90 78 88 229q0 104 -44 199.5t-141 172.5t-230 97q-7 2 -11 4zM506 1047q139 -41 239.5 -134.5t147.5 -205t47 -228.5q0 -209 -129 -321q-147 -127 -383 -58q-106 33 -178 119 t-99.5 186.5t-25.5 210.5q4 168 72 293q78 147 206 166q31 4 64 -12q10 -4 16 -7t11 -3q6 -2 12 -6zM143 1292q14 12 33 35q33 37 39 43q55 57 111 76q39 14 75.5 16t73.5 -10t55.5 -19.5t53 -29t37.5 -23.5q43 -25 71 -20q43 6 105 74q16 16 40.5 18t42 -15.5t19.5 -42 t-16 -42.5q-88 -96 -174 -109q-68 -10 -148 35l-41 25q-33 18 -43 22t-32.5 12.5t-41 6t-41.5 -8.5q-27 -10 -61 -47q-4 -6 -35 -41q-25 -27 -41 -41q-18 -18 -42.5 -16t-42 19.5t-15.5 42t18 40.5z" />
<glyph unicode="&#xf6;" horiz-adv-x="937" d="M395 950q-55 -23 -94 -96q-53 -100 -57 -242q-2 -145 54 -255.5t163 -141.5q174 -53 272 33q90 78 88 229q0 104 -44 199.5t-141 172.5t-230 97q-7 2 -11 4zM506 1047q139 -41 239.5 -134.5t147.5 -205t47 -228.5q0 -209 -129 -321q-147 -127 -383 -58q-106 33 -178 119 t-99.5 186.5t-25.5 210.5q4 168 72 293q78 147 206 166q31 4 64 -12q10 -4 16 -7t11 -3q6 -2 12 -6zM795 1364v-2q-2 -88 -50 -127q-29 -23 -61.5 -20.5t-54.5 22.5q-25 20 -31 51t10 64q29 53 113 71h2l70 -45q-4 20 -19 35q14 -14 19 -35q2 -4 2 -6v-8zM319 1217 q86 14 115 67q16 33 11 63.5t-27 51.5q-25 20 -56.5 23t-62.5 -19q-45 -37 -51 -125q2 20 15 35.5t34 19.5q12 2 20.5 5t11.5 4t3 4v-3q-10 -18 4 -32q18 -16 37 -2q2 0 2 2q0 -2 -1 -3t-2 -4.5t-2 -7.5t-2 -11t-1 -15q-2 -20 -16 -34.5t-32 -18.5zM319 1217q-2 0 -2 -3h-6 h-8q-20 2 -35.5 15.5t-19.5 34.5v14zM774 1413q-16 12 -37 12q21 0 37 -12zM737 1425q-8 0 -14 -2q6 2 14 2z" />
<glyph unicode="&#xf7;" horiz-adv-x="1153" d="M604 440l2 2q31 57 94 45q39 -8 68 -41q33 -37 29 -79q-4 -35 -39 -70q-31 -29 -64 -37q-29 -8 -53 0q-33 10 -47 43q-18 41 0 115q4 12 10 22zM1096 690q-434 0 -934 -69q-25 -2 -44.5 12t-22.5 38.5t11.5 44t38.5 23.5q510 70 951 70q25 0 42 -17.5t17 -42t-17 -42 t-42 -17.5zM455 1051q8 84 37 116q29 35 71 27q27 -6 47 -29q23 -27 35 -65q6 -18 8 -33q2 -33 -14 -55q-18 -27 -35 -41q-29 -23 -57 -21q-39 2 -60 35q-4 4 -6 10q-30 19 -26 56z" />
<glyph unicode="&#xf8;" horiz-adv-x="1064" d="M770 688l-25 -24q-43 -43 -83 -91l-99 -110l-80 -92q-37 -43 -106 -113q39 -29 84 -43q174 -53 272 33q90 78 88 229q0 111 -51 211zM702 788q-115 129 -296 158q-6 2 -11 4q-55 -23 -94 -96q-53 -100 -57 -242q-2 -152 57 -262l92 99l82 92l100 114l84 90zM217 262 q-96 145 -92 354q4 168 72 293q78 147 206 166q31 4 64 -12q10 -4 16 -7t11 -3q6 -2 12 -6q168 -49 280 -175q121 119 168 211q12 20 36 27.5t45.5 -3.5t28.5 -34.5t-3 -46.5q-59 -109 -203 -252q82 -139 82 -295q0 -209 -129 -321q-147 -127 -383 -58q-76 23 -133 72 q-61 -66 -105 -121q-14 -18 -38.5 -21t-44 11t-22.5 38.5t11 45.5q47 61 121 137z" />
<glyph unicode="&#xf9;" horiz-adv-x="782" d="M315 1063q-8 -41 -55 -217q-39 -143 -53 -225q-47 -254 47 -398q33 -51 80 -82q49 -33 86 -22q166 43 219 311q6 39 12 84t9.5 78t4.5 88t1 74v77v66q0 25 17 42t42 17t42 -17t17 -42v-63v-80q0 -20 -2 -78t-5 -93.5t-8 -84.5t-13 -92q-70 -340 -307 -402 q-88 -23 -181 39q-68 43 -112 115q-121 184 -68 483q16 86 57 236q47 170 56 210q4 23 24.5 37.5t44 9t37.5 -25.5t8 -45zM385 1497q143 -180 231 -342q12 -23 5 -46.5t-28.5 -34.5t-45 -4t-33.5 28q-86 154 -223 325q-14 18 -11 43t21 40.5t43 12t41 -21.5z" />
<glyph unicode="&#xfa;" horiz-adv-x="905" d="M315 1063q-8 -41 -55 -217q-39 -143 -53 -225q-47 -254 47 -398q33 -51 80 -82q49 -33 86 -22q166 43 219 311q6 39 12 84t9.5 78t4.5 88t1 74v77v66q0 25 17 42t42 17t42 -17t17 -42v-63v-80q0 -20 -2 -78t-5 -93.5t-8 -84.5t-13 -92q-70 -340 -307 -402 q-88 -23 -181 39q-68 43 -112 115q-121 184 -68 483q16 86 57 236q47 170 56 210q4 23 24.5 37.5t44 9t37.5 -25.5t8 -45zM895 1468q-115 -141 -328 -313q-18 -14 -42.5 -11t-40 21.5t-12.5 43t22 40.5q203 162 307 293q16 18 40.5 21.5t43 -12t21.5 -40.5t-11 -43z" />
<glyph unicode="&#xfb;" horiz-adv-x="808" d="M315 1063q-8 -41 -55 -217q-39 -143 -53 -225q-47 -254 47 -398q33 -51 80 -82q49 -33 86 -22q166 43 219 311q6 39 12 84t9.5 78t4.5 88t1 74v77v66q0 25 17 42t42 17t42 -17t17 -42v-63v-80q0 -20 -2 -78t-5 -93.5t-8 -84.5t-13 -92q-70 -340 -307 -402 q-88 -23 -181 39q-68 43 -112 115q-121 184 -68 483q16 86 57 236q47 170 56 210q4 23 24.5 37.5t44 9t37.5 -25.5t8 -45zM311 1260q4 6 49 88q49 88 76 129q53 78 99 112q82 63 149 10l18 -20q0 -2 3 -4q0 -2 1 -4t1 -4l4 -13l12 -36l33 -115q51 -176 53 -180 q6 -25 -5 -46.5t-35 -28.5t-45.5 4t-29.5 34q-2 6 -53 184l-33 113l-4 10q-29 -23 -67 -82q-29 -41 -72 -121q-47 -86 -51 -92q-14 -23 -38 -28t-45.5 8.5t-26.5 37.5t7 44z" />
<glyph unicode="&#xfc;" horiz-adv-x="792" d="M248 1278q6 88 51 125q31 23 62.5 19.5t56.5 -23.5q23 -20 28 -51t-12 -64q-29 -53 -115 -67q-2 0 -2 -3h-6h-8q-20 2 -35.5 15.5t-19.5 34.5v14zM795 1364v-2q-2 -88 -50 -127q-29 -23 -61.5 -20.5t-54.5 22.5q-25 20 -31 51t10 64q29 53 113 71h2l70 -45q-4 20 -19 35 q14 -14 19 -35q2 -4 2 -6v-8zM315 1063q-8 -41 -55 -217q-39 -143 -53 -225q-47 -254 47 -398q33 -51 80 -82q49 -33 86 -22q166 43 219 311q6 39 12 84t9.5 78t4.5 88t1 74v77v66q0 25 17 42t42 17t42 -17t17 -42v-63v-80q0 -20 -2 -78t-5 -93.5t-8 -84.5t-13 -92 q-70 -340 -307 -402q-88 -23 -181 39q-68 43 -112 115q-121 184 -68 483q16 86 57 236q47 170 56 210q4 23 24.5 37.5t44 9t37.5 -25.5t8 -45zM774 1413q-16 12 -37 12q21 0 37 -12zM737 1425q-8 0 -14 -2q6 2 14 2z" />
<glyph unicode="&#xfd;" horiz-adv-x="897" d="M223 -160q150 -47 213 47q35 51 53 148q-6 4 -12 10q-115 147 -205 406q-12 31 -26 88l-25 88q-29 96 -67 137q-4 4 -17 10l-37 21q-23 14 -27.5 37.5t8.5 45t36.5 26.5t44.5 -7q6 -4 11 -6t11 -6l11 -4q29 -16 45 -35q57 -63 94 -182q8 -27 26 -93q14 -53 23 -79 q63 -176 125 -283q4 72 6 209t6 194q10 244 78 332q49 63 141 62q33 0 113 -19q25 -4 38 -25.5t8 -45t-26.5 -37t-44.5 -7.5q-70 14 -90 15q-33 0 -45 -17q-45 -57 -53 -264q-4 -55 -6 -198.5t-6 -217.5q-16 -254 -92 -368q-111 -168 -345 -96q-25 8 -36 29.5t-3.5 45 t28.5 34.5t44 5zM291 1188q80 141 248 336q16 18 40.5 20t43 -14.5t20.5 -41t-14 -42.5q-162 -184 -236 -316q-12 -23 -35.5 -28.5t-45 6.5t-27.5 36t6 44z" />
<glyph unicode="&#xfe;" horiz-adv-x="1007" d="M258 809q111 139 262 180q139 37 262 -28.5t191 -233.5q68 -172 18 -326q-33 -100 -86 -178t-115.5 -124t-134 -68.5t-142.5 -17.5t-138 34q-72 31 -127 86q6 -233 6 -442q0 -25 -17.5 -42.5t-42 -17.5t-42 17.5t-17.5 42.5q0 477 -49 1632q0 25 16.5 42t41 18t42 -15 t19.5 -41l22 -530q15 10 31 12zM252 541q-27 -141 25.5 -242.5t146.5 -142.5q45 -18 94 -22.5t101.5 11t99.5 50t88 96.5q43 61 70 147q37 113 -15 244q-51 129 -134 173t-177 19q-94 -27 -176 -111.5t-113 -201.5q-4 -10 -10 -20z" />
<glyph unicode="&#xff;" horiz-adv-x="897" d="M795 1364v-2q-2 -88 -50 -127q-29 -23 -61.5 -20.5t-54.5 22.5q-25 20 -31 51t10 64q29 53 113 71h2q6 2 14 2q20 0 35.5 -13t20.5 -34q2 -4 2 -6v-8zM248 1278q6 88 51 125q31 23 62.5 19.5t56.5 -23.5q23 -20 28 -51t-12 -64q-29 -53 -115 -67q-2 0 -2 -3h-6h-8z M223 -160q150 -47 213 47q35 51 53 148q-6 4 -12 10q-115 147 -205 406q-12 31 -26 88l-25 88q-29 96 -67 137q-4 4 -17 10l-37 21q-23 14 -27.5 37.5t8.5 45t36.5 26.5t44.5 -7q6 -4 11 -6t11 -6l11 -4q29 -16 45 -35q57 -63 94 -182q8 -27 26 -93q14 -53 23 -79 q63 -176 125 -283q4 72 6 209t6 194q10 244 78 332q49 63 141 62q33 0 113 -19q25 -4 38 -25.5t8 -45t-26.5 -37t-44.5 -7.5q-70 14 -90 15q-33 0 -45 -17q-45 -57 -53 -264q-4 -55 -6 -198.5t-6 -217.5q-16 -254 -92 -368q-111 -168 -345 -96q-25 8 -36 29.5t-3.5 45 t28.5 34.5t44 5z" />
<glyph unicode="&#x100;" horiz-adv-x="1132" d="M674 649l-10 29q-25 63 -74 221q-45 139 -76 215l-27 64q-121 -489 -141 -562q55 6 164 16.5t164 16.5zM387 1690q31 -80 117 -263q84 -178 121 -268q33 -78 77 -223q49 -156 72 -217l21 -55q150 20 266 51q23 6 44 -6.5t27.5 -36t-6 -45t-36.5 -27.5q-109 -29 -250 -49 q193 -487 225 -590q8 -23 -2 -45t-33.5 -29.5t-46 3t-29.5 34.5l-69 191l-92 233q-55 135 -74 187q-72 -8 -209 -23l-199 -18q-12 -39 -42.5 -127t-48 -150.5t-27.5 -124.5q-4 -25 -25 -39t-45.5 -10t-38.5 24.5t-10 45.5q18 96 106 362q-25 -2 -44 12.5t-22 39t11 44 t39 23.5l55 8q41 141 104.5 403.5t82.5 331.5l4 13l-13 26q-84 176 -121 269q-8 23 1.5 46t32 31.5t46 -0.5t31.5 -32zM821 1532q-137 0 -334 27q-25 4 -39 23.5t-11 44t22.5 38.5t44.5 12q188 -27 317 -26q25 0 42.5 -17.5t17.5 -42t-17.5 -42t-42.5 -17.5z" />
<glyph unicode="&#x101;" horiz-adv-x="991" d="M862 131l-4 12q-6 41 -10 86t-7 105.5t-5 81.5q-2 39 -7 73l-2 3q-55 92 -182 114q-133 25 -231.5 -46t-116.5 -179q-18 -106 53 -178q94 -92 299 -94q45 0 142 12zM137 848q86 119 146 160q88 63 221 61q242 -2 356 -235q76 -152 94 -410q2 -31 4 -84q4 -57 7.5 -97 t11.5 -79q2 -2 8 -19q20 -53 -10 -90q-14 -16 -41 -26q-14 -6 -37 -11q-37 -8 -92 -16q-104 -12 -156 -12q-256 4 -381 129q-117 117 -88 282q27 154 164 255.5t322 68.5q70 -14 127 -43q-16 55 -39 98q-82 168 -250 170q-96 2 -154 -39q-43 -31 -119 -133 q-14 -20 -37.5 -23t-44 11t-23.5 38t11 44zM741 1257q-66 -4 -223 -10q-156 -6 -215 -12q-25 -2 -44 13.5t-21 40t13 44t40 21.5q82 8 225 12q154 6 217 10q25 2 43.5 -14t20.5 -41t-14.5 -43.5t-41.5 -20.5z" />
<glyph unicode="&#x102;" horiz-adv-x="1132" d="M674 649l-10 29q-25 63 -74 221q-45 139 -76 215l-27 64q-121 -489 -141 -562q55 6 164 16.5t164 16.5zM387 1690q31 -80 117 -263q84 -178 121 -268q33 -78 77 -223q49 -156 72 -217l21 -55q150 20 266 51q23 6 44 -6.5t27.5 -36t-6 -45t-36.5 -27.5q-109 -29 -250 -49 q193 -487 225 -590q8 -23 -2 -45t-33.5 -29.5t-46 3t-29.5 34.5l-69 191l-92 233q-55 135 -74 187q-72 -8 -209 -23l-199 -18q-12 -39 -42.5 -127t-48 -150.5t-27.5 -124.5q-4 -25 -25 -39t-45.5 -10t-38.5 24.5t-10 45.5q18 96 106 362q-25 -2 -44 12.5t-22 39t11 44 t39 23.5l55 8q41 141 104.5 403.5t82.5 331.5l4 13l-13 26q-84 176 -121 269q-8 23 1.5 46t32 31.5t46 -0.5t31.5 -32zM575 1681q12 -43 32 -71.5t33 -36.5t26 -10q6 0 16 5t26.5 33.5t26.5 77.5q4 23 24.5 37.5t44 9t38 -26t8.5 -44.5q-18 -94 -67.5 -153.5t-123.5 -57.5 q-68 4 -120 59.5t-78 141.5q-6 25 5 46t34.5 28t45 -4t29.5 -34z" />
<glyph unicode="&#x103;" horiz-adv-x="991" d="M862 131l-4 12q-6 41 -10 86t-7 105.5t-5 81.5q-2 39 -7 73l-2 3q-55 92 -182 114q-133 25 -231.5 -46t-116.5 -179q-18 -106 53 -178q94 -92 299 -94q45 0 142 12zM137 848q86 119 146 160q88 63 221 61q242 -2 356 -235q76 -152 94 -410q2 -31 4 -84q4 -57 7.5 -97 t11.5 -79q2 -2 8 -19q20 -53 -10 -90q-14 -16 -41 -26q-14 -6 -37 -11q-37 -8 -92 -16q-104 -12 -156 -12q-256 4 -381 129q-117 117 -88 282q27 154 164 255.5t322 68.5q70 -14 127 -43q-16 55 -39 98q-82 168 -250 170q-96 2 -154 -39q-43 -31 -119 -133 q-14 -20 -37.5 -23t-44 11t-23.5 38t11 44zM442 1411q12 -43 32 -71.5t33 -37t25 -10.5q6 0 16.5 5.5t27 34t26.5 77.5q4 23 24.5 37t44 9t38 -25.5t8.5 -45.5q-18 -94 -67.5 -153.5t-123.5 -56.5q-68 4 -120 59t-78 141q-6 25 5 46.5t34.5 28.5t45 -4t29.5 -34z" />
<glyph unicode="&#x104;" horiz-adv-x="1224" d="M674 649l-10 29q-25 63 -74 221q-45 139 -76 215l-27 64q-121 -489 -141 -562q55 6 164 16.5t164 16.5zM1042 -111q-31 -27 -43 -53t-10 -42.5t10 -26.5q14 -20 46 -25.5t96 20.5q20 10 43.5 3t35 -28.5t4.5 -45t-30 -35.5q-84 -43 -164 -32t-127 71q-41 57 -30.5 129 t69.5 133q-31 88 -65 182l-86 217q-51 123 -72 179q-72 -8 -209 -23l-199 -18q-12 -39 -42.5 -127t-48 -150.5t-27.5 -124.5q-4 -25 -25 -39t-45.5 -10t-38.5 24.5t-10 45.5q18 96 106 362q-25 -2 -44 12.5t-22 39t11 44t39 23.5l55 8q41 141 104.5 403.5t82.5 331.5l4 13 l-13 26q-84 176 -121 269q-8 23 1.5 46t32 31.5t46 -1t31.5 -31.5q31 -80 117 -263q84 -178 121 -268q33 -78 77 -223q49 -156 72 -217l21 -55q150 20 266 51q23 6 44 -6.5t27.5 -36t-6 -45t-36.5 -27.5q-109 -29 -250 -49q193 -487 225 -590q12 -33 -10 -57q-7 -9 -13 -15z " />
<glyph unicode="&#x105;" horiz-adv-x="1146" d="M862 131l-4 12q-6 41 -10 86t-7 105.5t-5 81.5q-2 39 -7 73l-2 3q-55 92 -182 114q-133 25 -231.5 -46t-116.5 -179q-18 -106 53 -178q94 -92 299 -94q45 0 142 12zM965 25q-31 -27 -43.5 -53.5t-10.5 -43t11 -26.5q14 -20 45.5 -25.5t95.5 21.5q20 10 43.5 3t35 -29 t4.5 -45.5t-30 -35.5q-84 -43 -164 -31.5t-127 70.5q-55 78 -20 172q-104 -12 -156 -12q-256 4 -381 129q-117 117 -88 282q27 154 164 255.5t322 68.5q70 -14 127 -43q-16 55 -39 98q-82 168 -250 170q-96 2 -154 -39q-43 -31 -119 -133q-14 -20 -37.5 -23t-44 11 t-23.5 37.5t11 44.5q86 119 146 160q88 63 221 61q242 -2 356 -235q76 -152 94 -410q2 -31 4 -84q4 -57 7.5 -97t11.5 -79q2 -2 8 -19q16 -43 0 -75q0 -27 -20 -45z" />
<glyph unicode="&#x106;" horiz-adv-x="1300" d="M1237 1194q-2 -4 -2 -6v-8v-21q-8 -68 -64 -80q-23 -6 -43 4q-8 4 -14 11q-8 6 -18 16q-14 12 -37 37l-33 39l-10 14q-43 35 -166 68q-205 55 -313 43q-139 -16 -232 -146q-88 -123 -96 -217q-29 -299 86 -475q53 -80 148.5 -146.5t207.5 -99.5q111 -35 218.5 -22.5 t183.5 74.5q47 39 74.5 89t60.5 140q8 23 29.5 33t45 2t34 -29.5t1.5 -46.5q-23 -63 -38 -101t-50.5 -90.5t-83.5 -91.5q-70 -55 -158.5 -80.5t-174.5 -20.5t-177 30q-129 39 -241.5 117.5t-177.5 177.5q-139 211 -107 553q12 127 117 274q123 172 317 192q133 16 359 -45 q145 -41 207 -92q6 -4 26 -26l17 -19q25 35 63 23q25 -8 36 -29.5t5 -44.5zM594 1575q78 135 131 219q12 20 36.5 25.5t45 -8t26 -38t-9.5 -44.5q-51 -80 -127 -211q-12 -23 -35.5 -29t-45 6t-27.5 36t6 44z" />
<glyph unicode="&#x107;" horiz-adv-x="894" d="M774 813q-106 100 -221 117q-168 29 -248 -84q-70 -100 -78 -299q-4 -55 -2 -100.5t17 -75.5q51 -104 127.5 -169t154.5 -77t145.5 34t112.5 163q8 23 31 33t45.5 1.5t32.5 -31t2 -44.5q-57 -152 -159.5 -222.5t-225.5 -50.5q-113 16 -213 101q-98 84 -160 208 q-27 53 -29 125q-4 70 3 109q8 233 100 364q121 172 364 134q147 -25 283 -150q18 -16 18 -40.5t-16 -43t-41 -18.5t-43 16zM399 1214q35 45 201 306q14 23 38 27.5t45.5 -8.5t26.5 -36.5t-8 -44.5q-156 -246 -208 -317q-14 -18 -39 -21.5t-44.5 11t-22.5 39t11 44.5z" />
<glyph unicode="&#x108;" horiz-adv-x="1300" d="M1237 1194q-2 -4 -2 -6v-8v-21q-8 -68 -64 -80q-23 -6 -43 4q-8 4 -14 11q-8 6 -18 16q-14 12 -37 37l-33 39l-10 14q-43 35 -166 68q-205 55 -313 43q-139 -16 -232 -146q-88 -123 -96 -217q-29 -299 86 -475q53 -80 148.5 -146.5t207.5 -99.5q111 -35 218.5 -22.5 t183.5 74.5q47 39 74.5 89t60.5 140q8 23 29.5 33t45 2t34 -29.5t1.5 -46.5q-23 -63 -38 -101t-50.5 -90.5t-83.5 -91.5q-70 -55 -158.5 -80.5t-174.5 -20.5t-177 30q-129 39 -241.5 117.5t-177.5 177.5q-139 211 -107 553q12 127 117 274q123 172 317 192q133 16 359 -45 q145 -41 207 -92q6 -4 26 -26l17 -19q25 35 63 23q25 -8 36 -29.5t5 -44.5zM496 1534l96 166q37 63 63 98q14 23 27 35q10 10 18 16q20 14 43 15q29 -2 54 -25q12 -12 26 -31q20 -29 51 -75q27 -43 76 -131q12 -20 6 -44t-27.5 -36.5t-45 -6t-35.5 28.5l-74 125l-31 47 q-20 -29 -51 -78l-94 -161q-12 -23 -35.5 -29t-45 6t-27.5 36t6 44z" />
<glyph unicode="&#x109;" horiz-adv-x="894" d="M774 813q-106 100 -221 117q-168 29 -248 -84q-70 -100 -78 -299q-4 -55 -2 -100.5t17 -75.5q51 -104 127.5 -169t154.5 -77t145.5 34t112.5 163q8 23 31 33t45.5 1.5t32.5 -31t2 -44.5q-57 -152 -159.5 -222.5t-225.5 -50.5q-113 16 -213 101q-98 84 -160 208 q-27 53 -29 125q-4 70 3 109q8 233 100 364q121 172 364 134q147 -25 283 -150q18 -16 18 -40.5t-16 -43t-41 -18.5t-43 16zM283 1192q59 121 94 174q53 80 110 94q70 18 142 -49q49 -49 121 -162q14 -23 9 -46t-26.5 -36.5t-45 -8.5t-36.5 26q-66 102 -104 141 q-20 18 -31 21q-14 -4 -41 -46q-31 -47 -86 -161q-10 -20 -33.5 -28.5t-45 1.5t-29.5 33.5t2 46.5z" />
<glyph unicode="&#x10a;" horiz-adv-x="1300" d="M1237 1194q-2 -4 -2 -6v-8v-21q-8 -68 -64 -80q-23 -6 -43 4q-8 4 -14 11q-8 6 -18 16q-14 12 -37 37l-33 39l-10 14q-43 35 -166 68q-205 55 -313 43q-139 -16 -232 -146q-88 -123 -96 -217q-29 -299 86 -475q53 -80 148.5 -146.5t207.5 -99.5q111 -35 218.5 -22.5 t183.5 74.5q47 39 74.5 89t60.5 140q8 23 29.5 33t45 2t34 -29.5t1.5 -46.5q-23 -63 -38 -101t-50.5 -90.5t-83.5 -91.5q-70 -55 -158.5 -80.5t-174.5 -20.5t-177 30q-129 39 -241.5 117.5t-177.5 177.5q-139 211 -107 553q12 127 117 274q123 172 317 192q133 16 359 -45 q145 -41 207 -92q6 -4 26 -26l17 -19q25 35 63 23q25 -8 36 -29.5t5 -44.5zM633 1624l31 62q10 23 33.5 29.5t46 -3.5t29.5 -33.5t-3 -46.5l-31 -61q-10 -23 -33.5 -30t-46 3t-29.5 33.5t3 46.5z" />
<glyph unicode="&#x10b;" horiz-adv-x="894" d="M774 813q-106 100 -221 117q-168 29 -248 -84q-70 -100 -78 -299q-4 -55 -2 -100.5t17 -75.5q51 -104 127.5 -169t154.5 -77t145.5 34t112.5 163q8 23 31 33t45.5 1.5t32.5 -31t2 -44.5q-57 -152 -159.5 -222.5t-225.5 -50.5q-113 16 -213 101q-98 84 -160 208 q-27 53 -29 125q-4 70 3 109q8 233 100 364q121 172 364 134q147 -25 283 -150q18 -16 18 -40.5t-16 -43t-41 -18.5t-43 16zM449 1260v69q0 25 17 42.5t41.5 17.5t42 -17.5t17.5 -42.5v-69q0 -25 -17.5 -42.5t-42 -17.5t-41.5 17.5t-17 42.5z" />
<glyph unicode="&#x10c;" horiz-adv-x="1300" d="M1237 1194q-2 -4 -2 -6v-8v-21q-8 -68 -64 -80q-23 -6 -43 4q-8 4 -14 11q-8 6 -18 16q-14 12 -37 37l-33 39l-10 14q-43 35 -166 68q-205 55 -313 43q-139 -16 -232 -146q-88 -123 -96 -217q-29 -299 86 -475q53 -80 148.5 -146.5t207.5 -99.5q111 -35 218.5 -22.5 t183.5 74.5q47 39 74.5 89t60.5 140q8 23 29.5 33t45 2t34 -29.5t1.5 -46.5q-23 -63 -38 -101t-50.5 -90.5t-83.5 -91.5q-70 -55 -158.5 -80.5t-174.5 -20.5t-177 30q-129 39 -241.5 117.5t-177.5 177.5q-139 211 -107 553q12 127 117 274q123 172 317 192q133 16 359 -45 q145 -41 207 -92q6 -4 26 -26l17 -19q25 35 63 23q25 -8 36 -29.5t5 -44.5zM958 1905q-2 -4 -32 -93q-27 -84 -52 -141q-37 -84 -75 -125q-70 -76 -148 -37q-37 18 -47 66q-4 14 -4 20v2q-29 57 -137 258q-12 23 -5 46.5t28.5 35t45 4t33.5 -27.5q111 -199 142 -266 q4 -6 6 -19q25 29 53 92q20 49 47 129q31 92 35 101q10 23 32.5 32t45 -0.5t31.5 -31.5t1 -45z" />
<glyph unicode="&#x10d;" horiz-adv-x="894" d="M774 813q-106 100 -221 117q-168 29 -248 -84q-70 -100 -78 -299q-4 -55 -2 -100.5t17 -75.5q51 -104 127.5 -169t154.5 -77t145.5 34t112.5 163q8 23 31 33t45.5 1.5t32.5 -31t2 -44.5q-57 -152 -159.5 -222.5t-225.5 -50.5q-113 16 -213 101q-98 84 -160 208 q-27 53 -29 125q-4 70 3 109q8 233 100 364q121 172 364 134q147 -25 283 -150q18 -16 18 -40.5t-16 -43t-41 -18.5t-43 16zM756 1556q-2 -4 -33 -92q-27 -84 -51 -141q-37 -84 -76 -125q-70 -76 -147 -37q-37 18 -48 66q-4 14 -4 20v2q-29 57 -137 258q-12 23 -5 46.5 t28.5 34.5t45 4t33.5 -27q111 -199 142 -267q4 -6 6 -18q25 29 53 92q20 49 47 129q31 92 35 101q10 23 32.5 31.5t45 -0.5t32 -31.5t1.5 -45.5z" />
<glyph unicode="&#x10e;" horiz-adv-x="1425" d="M485 74l15 2h26q25 -2 49.5 1t44 5t47 13t42 15.5t45.5 20.5l41 21q10 6 43.5 28.5t41 26.5t46.5 31l45 30q197 133 281.5 328t43.5 377q-39 184 -198 303q-162 119 -430 115q-207 -2 -469 -66q135 -561 213 -950l39 -178q16 -66 28 -103q2 -12 6 -20zM78 1362 q-2 23 10 41t35 24q303 80 545 82q307 4 501.5 -139t243.5 -373q47 -219 -51 -446t-326 -381q-2 -2 -51 -36t-59 -40l-58 -35q-45 -29 -64.5 -36t-62.5 -26.5t-72.5 -25.5t-69.5 -11t-77 -3h-14q-16 -2 -23 -2q-41 0 -69 16q-20 12 -35 45q-8 16 -16 43q-10 37 -29 109 q-18 78 -39 182q-82 395 -221 975q-4 19 2 37zM737 1925q-2 -6 -32 -92q-27 -86 -52 -139q-37 -84 -75 -125q-70 -74 -148 -37q-35 16 -47 63q-4 14 -4 21q-35 72 -137 260q-12 23 -5 46.5t28.5 34.5t45 4t33.5 -28q106 -190 141 -264q4 -8 7 -18q25 27 53 90q23 51 47 129 q31 90 35 100q10 23 32.5 32t45 0t31.5 -31.5t1 -45.5z" />
<glyph unicode="&#x10f;" horiz-adv-x="1261" d="M752 680q-6 23 -17 14q4 0 6 -8q-4 4 -10 8l-33 23l-57 37q-100 63 -201.5 70t-181.5 -56q-76 -68 -78 -223q-2 -150 144 -221q123 -61 319 -62q20 0 55 -1t50 -1q0 25 2 59v31v217q0 62 2 113zM918 1337q27 -106 2 -256q-4 -20 -23 -118q-12 -66 -16 -111 q-8 -84 -11 -184q12 -70 9 -193q-2 -33 -5.5 -89t-5.5 -69v-32l9 4q23 10 46 3t34.5 -28.5t4 -45t-27.5 -36.5q-47 -25 -100 -32l-13 -5q-8 -2 -16 0q-14 -2 -162 -2q-225 0 -373 74q-211 104 -209 328q2 211 119 313q74 66 174.5 80t186.5 -10.5t161 -71.5l56 -37l4 45 q6 47 18 121q18 96 23 115q20 127 0 209q-6 25 6 45t36.5 26t45.5 -6t27 -37zM1096 1698q94 -14 137 -72q41 -53 31 -129q-12 -106 -101 -223q-14 -18 -38.5 -21.5t-44 11t-22.5 39t11 45.5q70 90 78 161q2 31 -8 45q-14 18 -60 25q-25 4 -39 23.5t-11 44t22.5 39t44.5 12.5 z" />
<glyph unicode="&#x110;" horiz-adv-x="1425" d="M219 715q-57 258 -143 610q-4 18 2 37q-2 23 10 41t35 24q303 80 545 82q307 4 501.5 -139t243.5 -373q47 -219 -51 -446t-326 -381q-2 -2 -51 -36t-59 -40l-58 -35q-45 -29 -64.5 -36t-62.5 -26.5t-72.5 -25.5t-69.5 -11t-77 -3h-14q-16 -2 -23 -2q-41 0 -69 16 q-20 12 -35 45q-8 16 -16 43q-10 37 -29 109q-18 78 -39 182l-53 246q-80 -35 -146 -70q-20 -10 -43.5 -3t-35 28.5t-4 45.5t29.5 36q74 39 174 82zM670 780q-68 -33 -291 -125l-23 -10l56 -270l39 -178q16 -66 28 -103q2 -12 6 -20l15 2h26q25 -2 49.5 1t44 5t47 13 t42 15.5t45.5 20.5l41 21q10 6 43.5 28.5t41 26.5t46.5 31l45 30q197 133 281.5 328t43.5 377q-39 184 -198 303q-162 119 -430 115q-207 -2 -469 -66l131 -563l4 2q219 92 287 123q23 10 45 2t32.5 -30.5t2.5 -45.5t-31 -33z" />
<glyph unicode="&#x111;" horiz-adv-x="1110" d="M752 680q-6 23 -17 14q4 0 6 -8q-4 4 -10 8l-33 23l-57 37q-100 63 -201.5 70t-181.5 -56q-76 -68 -78 -223q-2 -150 144 -221q123 -61 319 -62q20 0 55 -1t50 -1q0 25 2 59v31v217q0 62 2 113zM918 1337q16 -68 14 -147q66 -14 137 -35q23 -6 35 -27.5t6 -45t-27.5 -36 t-46.5 -6.5q-55 16 -118 31q-2 -16 -21 -108q-12 -66 -16 -111q-8 -84 -11 -184q12 -70 9 -193q-2 -33 -5.5 -89t-5.5 -69v-32l9 4q23 10 46 3t34.5 -28.5t4 -45t-27.5 -36.5q-47 -25 -100 -32l-13 -5q-8 -2 -16 0q-14 -2 -162 -2q-225 0 -373 74q-211 104 -209 328 q2 211 119 313q74 66 174.5 80t186.5 -10.5t161 -71.5l56 -37l4 45q6 47 18 121q18 94 21 111q-63 12 -281 49q-25 4 -39 24.5t-10 45t24.5 39t45.5 10.5q172 -29 272 -50q0 51 -10 95q-6 25 6 45t36.5 26t45.5 -6t27 -37z" />
<glyph unicode="&#x112;" horiz-adv-x="1212" d="M260 1077l-10 -4q-35 -12 -62 -14q-66 -4 -90 47q-20 41 8 108q16 39 72 66q39 20 101 39q102 31 272 63l280 50q170 29 179 30q25 6 45 -7t26 -36.5t-7 -44t-36 -26.5q-33 -8 -186 -33q-180 -31 -279 -49q-147 -29 -237 -54q55 -121 98 -360q6 -39 12 -84q199 66 336 80 q25 2 44.5 -13.5t21.5 -40t-13.5 -44t-39.5 -21.5q-129 -12 -330 -80q12 -84 24 -196q12 -102 -20 -201q92 12 215 16q137 6 278.5 0t202.5 -16q25 -4 39.5 -24.5t10 -45t-25 -39t-44.5 -10.5q-55 10 -189.5 16.5t-267.5 0.5q-160 -4 -256 -27q-18 -2 -35 -8 q-23 -25 -51 -43q-23 -16 -41 -21q-23 -6 -41 0q-31 10 -41 39q-6 20 2 43q18 45 76 74q12 4 25 10q59 100 45 223q-12 113 -23 191q-18 12 -24 33q-12 33 10 57q-8 57 -19 110q-26 148 -55 246zM854 1522q-102 0 -225 -18.5t-206 -38t-226 -56.5q-23 -6 -44.5 6t-27.5 36 t6 45.5t37 27.5q145 39 228 58.5t216 38.5t242 19q25 0 42 -17t17 -42t-17 -42t-42 -17z" />
<glyph unicode="&#x113;" d="M358 590q119 4 236 18q119 16 194.5 41t90.5 47q51 82 -78 170q-61 45 -135 65.5t-115 10.5q-37 -8 -78 -61.5t-74 -139.5q-27 -73 -41 -151zM229 475h-6q-25 4 -40 23.5t-12 43t22.5 39t42.5 13.5h2q16 96 51 188q92 242 233 275q72 16 170.5 -10.5t175.5 -81.5 q41 -27 72 -62t53.5 -78t19.5 -93t-36 -101q-37 -57 -152 -94q-88 -29 -215 -45q-131 -18 -260 -21q0 -8 2 -14q10 -70 59.5 -139.5t116.5 -118.5q154 -102 283 -33q23 10 41 25.5t25.5 22.5t31.5 38l37 43q16 18 41 20t43.5 -14t20.5 -40.5t-15 -43.5l-26 -33 q-18 -23 -29.5 -35t-29 -29.5t-38 -31.5t-45.5 -29q-68 -35 -142.5 -38t-139 17.5t-123.5 63.5q-88 59 -149.5 148.5t-80.5 185.5q-2 19 -4 39zM772 1155q-223 -29 -465 -29q-25 0 -42 17.5t-17 42t17.5 42t41.5 17.5q236 0 449 29q25 2 44 -12.5t22 -39t-11 -44t-39 -23.5z " />
<glyph unicode="&#x114;" horiz-adv-x="1212" d="M260 1077l-10 -4q-35 -12 -62 -14q-66 -4 -90 47q-20 41 8 108q16 39 72 66q39 20 101 39q102 31 272 63l280 50q170 29 179 30q25 6 45 -7t26 -36.5t-7 -44t-36 -26.5q-33 -8 -186 -33q-180 -31 -279 -49q-147 -29 -237 -54q55 -121 98 -360q6 -39 12 -84q199 66 336 80 q25 2 44.5 -13.5t21.5 -40t-13.5 -44t-39.5 -21.5q-129 -12 -330 -80q12 -84 24 -196q12 -102 -20 -201q92 12 215 16q137 6 278.5 0t202.5 -16q25 -4 39.5 -24.5t10 -45t-25 -39t-44.5 -10.5q-55 10 -189.5 16.5t-267.5 0.5q-160 -4 -256 -27q-18 -2 -35 -8 q-23 -25 -51 -43q-23 -16 -41 -21q-23 -6 -41 0q-31 10 -41 39q-6 20 2 43q18 45 76 74q12 4 25 10q59 100 45 223q-12 113 -23 191q-18 12 -24 33q-12 33 10 57q-8 57 -19 110q-26 148 -55 246zM317 1702q61 -86 150 -119q92 -35 162 23q20 16 49 63q10 16 26.5 48t24.5 44 q12 20 37 26.5t45 -6t26.5 -37t-6.5 -44.5q-8 -12 -25.5 -43t-25.5 -47q-41 -68 -78 -99q-121 -96 -276 -38q-125 45 -207 163q-14 18 -9 43t24.5 39.5t44 9t38.5 -25.5z" />
<glyph unicode="&#x115;" d="M358 590q119 4 236 18q119 16 194.5 41t90.5 47q51 82 -78 170q-61 45 -135 65.5t-115 10.5q-37 -8 -78 -61.5t-74 -139.5q-27 -73 -41 -151zM229 475h-6q-25 4 -40 23.5t-12 43t22.5 39t42.5 13.5h2q16 96 51 188q92 242 233 275q72 16 170.5 -10.5t175.5 -81.5 q41 -27 72 -62t53.5 -78t19.5 -93t-36 -101q-37 -57 -152 -94q-88 -29 -215 -45q-131 -18 -260 -21q0 -8 2 -14q10 -70 59.5 -139.5t116.5 -118.5q154 -102 283 -33q23 10 41 25.5t25.5 22.5t31.5 38l37 43q16 18 41 20t43.5 -14t20.5 -40.5t-15 -43.5l-26 -33 q-18 -23 -29.5 -35t-29 -29.5t-38 -31.5t-45.5 -29q-68 -35 -142.5 -38t-139 17.5t-123.5 63.5q-88 59 -149.5 148.5t-80.5 185.5q-2 19 -4 39zM305 1505l43 -55q31 -41 37 -45q74 -47 162 -57q92 -10 139 28q14 12 64 111q10 20 33.5 28.5t45 -2t29.5 -34t-2 -45.5 q0 -2 -9 -21.5t-16 -32.5l-20 -32q-10 -18 -22.5 -35t-24.5 -27q-88 -74 -232 -57q-115 14 -208 74q-27 16 -70 73l-43 60q-14 18 -11 42.5t22.5 39t44 11t38.5 -23.5z" />
<glyph unicode="&#x116;" horiz-adv-x="1212" d="M260 1077l-10 -4q-35 -12 -62 -14q-66 -4 -90 47q-20 41 8 108q16 39 72 66q39 20 101 39q102 31 272 63l280 50q170 29 179 30q25 6 45 -7t26 -36.5t-7 -44t-36 -26.5q-33 -8 -186 -33q-180 -31 -279 -49q-147 -29 -237 -54q55 -121 98 -360q6 -39 12 -84q199 66 336 80 q25 2 44.5 -13.5t21.5 -40t-13.5 -44t-39.5 -21.5q-129 -12 -330 -80q12 -84 24 -196q12 -102 -20 -201q92 12 215 16q137 6 278.5 0t202.5 -16q25 -4 39.5 -24.5t10 -45t-25 -39t-44.5 -10.5q-55 10 -189.5 16.5t-267.5 0.5q-160 -4 -256 -27q-18 -2 -35 -8 q-23 -25 -51 -43q-23 -16 -41 -21q-23 -6 -41 0q-31 10 -41 39q-6 20 2 43q18 45 76 74q12 4 25 10q59 100 45 223q-12 113 -23 191q-18 12 -24 33q-12 33 10 57q-8 57 -19 110q-26 148 -55 246zM465 1645q6 -66 10 -125q2 -25 -14.5 -43.5t-41 -20.5t-43 14.5t-20.5 40.5 q-4 59 -10 121q-2 25 13.5 44.5t40 21.5t44 -13t21.5 -40z" />
<glyph unicode="&#x117;" d="M358 590q119 4 236 18q119 16 194.5 41t90.5 47q51 82 -78 170q-61 45 -135 65.5t-115 10.5q-37 -8 -78 -61.5t-74 -139.5q-27 -73 -41 -151zM229 475h-6q-25 4 -40 23.5t-12 43t22.5 39t42.5 13.5h2q16 96 51 188q92 242 233 275q72 16 170.5 -10.5t175.5 -81.5 q41 -27 72 -62t53.5 -78t19.5 -93t-36 -101q-37 -57 -152 -94q-88 -29 -215 -45q-131 -18 -260 -21q0 -8 2 -14q10 -70 59.5 -139.5t116.5 -118.5q154 -102 283 -33q23 10 41 25.5t25.5 22.5t31.5 38l37 43q16 18 41 20t43.5 -14t20.5 -40.5t-15 -43.5l-26 -33 q-18 -23 -29.5 -35t-29 -29.5t-38 -31.5t-45.5 -29q-68 -35 -142.5 -38t-139 17.5t-123.5 63.5q-88 59 -149.5 148.5t-80.5 185.5q-2 19 -4 39zM578 1364l2 -68q0 -25 -16.5 -43t-41 -18t-43 16.5t-18.5 40.5l-2 68q0 25 16.5 43t41 18t43 -16t18.5 -41z" />
<glyph unicode="&#x118;" horiz-adv-x="1212" d="M821 115q-94 -39 -126.5 -114t-6.5 -142q16 -41 50 -68t93 -33q61 -6 142 31q23 10 45 2t32.5 -30.5t2 -45t-30.5 -32.5q-164 -68 -281.5 -27t-162.5 160q-33 80 -12.5 173t91.5 161q-139 -6 -225 -27q-18 -2 -35 -8q-23 -25 -51 -43q-23 -16 -41 -21q-23 -6 -41 0 q-31 10 -41 39q-6 20 2 43q18 45 76 74q12 4 25 10q59 100 45 223q-12 113 -23 191q-18 12 -24 33q-12 33 10 57q-8 57 -19 110q-27 147 -55 246l-10 -4q-35 -12 -62 -14q-66 -4 -90 47q-20 41 8 108q16 39 72 66q39 20 101 39q102 31 272 63l280 50q170 29 179 30 q25 6 45 -7t26 -36.5t-7 -44t-36 -26.5q-33 -8 -186 -33q-180 -31 -279 -49q-147 -29 -237 -54q55 -121 98 -360q6 -39 12 -84q199 66 336 80q25 2 44.5 -13.5t21.5 -40t-13.5 -44t-39.5 -21.5q-129 -12 -330 -80q12 -84 24 -196q12 -102 -20 -201q92 12 215 16 q137 6 278.5 0t202.5 -16q25 -4 39.5 -24.5t10 -45t-25 -39t-44.5 -10.5q-88 16 -289 19q-8 -27 -35 -37z" />
<glyph unicode="&#x119;" d="M358 590q119 4 236 18q119 16 194.5 41t90.5 47q51 82 -78 170q-61 45 -135 65.5t-115 10.5q-37 -8 -78 -61.5t-74 -139.5q-27 -73 -41 -151zM229 475h-6q-25 4 -40 23.5t-12 43t22.5 39t42.5 13.5h2q16 96 51 188q92 242 233 275q72 16 170.5 -10.5t175.5 -81.5 q41 -27 72 -62t53.5 -78t19.5 -93t-36 -101q-37 -57 -152 -94q-88 -29 -215 -45q-131 -18 -260 -21q0 -8 2 -14q10 -70 59.5 -139.5t116.5 -118.5q82 -55 164 -60q16 4 31 0q47 4 88 27q23 10 41 25.5t25.5 22.5t31.5 38l37 43q16 18 41 20t43.5 -14t20.5 -40.5t-15 -43.5 l-26 -33q-18 -23 -29.5 -35t-29 -29.5t-38 -31.5t-45.5 -29q-66 -33 -137 -39q-100 -102 -123 -147q-16 -29 -10 -41q8 -18 66 -33q82 -20 165 21q23 10 46.5 2t34 -29.5t2 -45t-28.5 -34.5q-123 -59 -248 -28q-113 27 -146 98q-29 63 13 145q27 49 84 113q-63 20 -123 61 q-88 59 -149.5 148.5t-80.5 185.5q-2 19 -4 39z" />
<glyph unicode="&#x11a;" horiz-adv-x="1212" d="M260 1077l-10 -4q-35 -12 -62 -14q-66 -4 -90 47q-20 41 8 108q16 39 72 66q39 20 101 39q102 31 272 63l280 50q170 29 179 30q25 6 45 -7t26 -36.5t-7 -44t-36 -26.5q-33 -8 -186 -33q-180 -31 -279 -49q-147 -29 -237 -54q55 -121 98 -360q6 -39 12 -84q199 66 336 80 q25 2 44.5 -13.5t21.5 -40t-13.5 -44t-39.5 -21.5q-129 -12 -330 -80q12 -84 24 -196q12 -102 -20 -201q92 12 215 16q137 6 278.5 0t202.5 -16q25 -4 39.5 -24.5t10 -45t-25 -39t-44.5 -10.5q-55 10 -189.5 16.5t-267.5 0.5q-160 -4 -256 -27q-18 -2 -35 -8 q-23 -25 -51 -43q-23 -16 -41 -21q-23 -6 -41 0q-31 10 -41 39q-6 20 2 43q18 45 76 74q12 4 25 10q59 100 45 223q-12 113 -23 191q-18 12 -24 33q-12 33 10 57q-8 57 -19 110q-26 148 -55 246zM731 1874q-2 -4 -33 -92q-27 -82 -51 -140q-37 -84 -76 -126 q-70 -74 -147 -35q-37 18 -47 65q-4 16 -4 21q-27 55 -137 258q-12 23 -5 46t28.5 34.5t45 4.5t33.5 -28q115 -207 141 -262q4 -8 6 -21q25 29 54 91q20 51 47 129q33 92 35 100q10 23 32.5 32t45 0t31.5 -31.5t1 -45.5z" />
<glyph unicode="&#x11b;" d="M358 590q119 4 236 18q119 16 194.5 41t90.5 47q51 82 -78 170q-61 45 -135 65.5t-115 10.5q-37 -8 -78 -61.5t-74 -139.5q-27 -73 -41 -151zM229 475h-6q-25 4 -40 23.5t-12 43t22.5 39t42.5 13.5h2q16 96 51 188q92 242 233 275q72 16 170.5 -10.5t175.5 -81.5 q41 -27 72 -62t53.5 -78t19.5 -93t-36 -101q-37 -57 -152 -94q-88 -29 -215 -45q-131 -18 -260 -21q0 -8 2 -14q10 -70 59.5 -139.5t116.5 -118.5q154 -102 283 -33q23 10 41 25.5t25.5 22.5t31.5 38l37 43q16 18 41 20t43.5 -14t20.5 -40.5t-15 -43.5l-26 -33 q-18 -23 -29.5 -35t-29 -29.5t-38 -31.5t-45.5 -29q-68 -35 -142.5 -38t-139 17.5t-123.5 63.5q-88 59 -149.5 148.5t-80.5 185.5q-2 19 -4 39zM731 1524q-2 -4 -33 -92q-27 -84 -51 -142q-37 -84 -76 -125q-70 -76 -147 -37q-37 18 -47 66q-4 14 -4 20v3q-29 57 -137 258 q-12 23 -5 46t28.5 34.5t45 4t33.5 -27.5q111 -199 141 -266q4 -6 6 -19q25 29 54 92q20 49 47 129q31 92 35 101q10 23 32.5 32t45 -0.5t31.5 -31.5t1 -45z" />
<glyph unicode="&#x11c;" horiz-adv-x="1404" d="M823 725q121 18 273 29q100 6 161 4q39 -2 66 -6q43 -10 61 -35q35 -41 19 -111q-4 -25 -21 -57q-16 -29 -18 -35q-59 -160 -74 -371q-2 -25 -20.5 -41t-43 -14t-41 20.5t-14.5 43.5v8q-31 -23 -61 -35q-109 -47 -225.5 -34t-219 63.5t-190.5 132.5 q-135 127 -204.5 292.5t-34.5 323.5q57 260 163 379q135 147 389 148q4 0 31 1t38 0t33.5 -4.5t43 -10.5t41.5 -19q35 -18 72 -72q25 -37 51 -90l4 -4q31 70 39 82q10 23 34.5 29t46 -5.5t27.5 -36t-6 -45.5q-4 -10 -45 -98l-27 -61l-10 -19q-2 -6 -4 -9t-4 -5q-2 -4 -6 -8 q-2 -2 -6 -5t-16.5 -8.5t-24.5 -5.5q-23 2 -39 19q-4 4 -8 10q-4 4 -8.5 12t-12.5 27l-39 76q-25 49 -45 77q-20 31 -30 37q-12 6 -21.5 9.5t-24 5.5t-20.5 2h-29h-35q-201 0 -301 -111q-88 -94 -137 -321q-25 -121 31.5 -258.5t173.5 -245.5q119 -111 252 -150t258 11 q10 4 20 10l21 12q8 6 22 18l21 19q6 4 23.5 20.5t21.5 22.5q23 117 59 217q4 14 23 49q10 18 12 27v6q-14 2 -35 2q-55 2 -149 -4q-147 -10 -264 -29q-25 -2 -44.5 12.5t-22.5 39t11 44t39 23.5zM528 1538q4 6 37 89t60 136q41 82 80 121q74 70 147 29q35 -18 45 -68 q2 -14 2 -20q2 0 2 -2q35 -84 125 -260q10 -23 3 -45.5t-29.5 -33.5t-45 -4t-34.5 29q-92 180 -129 269l-7 18q-25 -27 -55 -88q-18 -37 -53 -125q-35 -86 -41 -98q-10 -20 -33.5 -28.5t-45 1.5t-30 33.5t1.5 46.5z" />
<glyph unicode="&#x11d;" horiz-adv-x="1005" d="M840 846q-66 68 -146 97.5t-153.5 21t-141.5 -46.5q-111 -66 -162 -190t-8 -271q45 -156 131 -215q160 -106 277 -11q111 90 160 299q25 104 39 258q2 19 4 58zM885 406q-63 -176 -172 -267q-86 -72 -189.5 -74t-228.5 78q-123 82 -180 281q-53 188 13.5 350t211.5 246 q111 70 255 63.5t265 -98.5l10 10q31 20 62 4q10 -6 18 -14t11 -14l2 -4q2 -6 2 -13q12 -47 6 -139q-4 -86 0 -115l6 -47q12 -98 18 -154.5t11.5 -162t-3 -179t-32.5 -159.5q-23 -86 -66 -152q-84 -127 -209 -206q-129 -80 -264 -86q-147 -8 -265 72.5t-173 250.5 q-6 25 5 46.5t34.5 28.5t45 -4t30.5 -34q41 -131 125.5 -189.5t189.5 -52.5q106 6 209.5 69.5t173.5 170.5q103 158 78 494zM338 1239q2 4 37 92q35 86 61 137q41 82 82 121q74 72 148 29q35 -20 45 -68q2 -12 4 -20v-2q29 -70 121 -268q10 -20 1.5 -44t-30 -34.5t-45 -2 t-33.5 30.5q-96 201 -125 273q-2 8 -6 18q-25 -25 -57 -88q-25 -49 -56 -127q-37 -90 -41 -96q-10 -23 -32.5 -31t-45 2t-30.5 32.5t2 45.5z" />
<glyph unicode="&#x11e;" horiz-adv-x="1404" d="M823 725q121 18 273 29q100 6 161 4q39 -2 66 -6q43 -10 61 -35q35 -41 19 -111q-4 -25 -21 -57q-16 -29 -18 -35q-59 -160 -74 -371q-2 -25 -20.5 -41t-43 -14t-41 20.5t-14.5 43.5v8q-31 -23 -61 -35q-109 -47 -225.5 -34t-219 63.5t-190.5 132.5 q-135 127 -204.5 292.5t-34.5 323.5q57 260 163 379q135 147 389 148q4 0 31 1t38 0t33.5 -4.5t43 -10.5t41.5 -19q35 -18 72 -72q25 -37 51 -90l4 -4q31 70 39 82q10 23 34.5 29t46 -5.5t27.5 -36t-6 -45.5q-4 -10 -45 -98l-27 -61l-10 -19q-2 -6 -4 -9t-4 -5q-2 -4 -6 -8 q-2 -2 -6 -5t-16.5 -8.5t-24.5 -5.5q-23 2 -39 19q-4 4 -8 10q-4 4 -8.5 12t-12.5 27l-39 76q-25 49 -45 77q-20 31 -30 37q-12 6 -21.5 9.5t-24 5.5t-20.5 2h-29h-35q-201 0 -301 -111q-88 -94 -137 -321q-25 -121 31.5 -258.5t173.5 -245.5q119 -111 252 -150t258 11 q10 4 20 10l21 12q8 6 22 18l21 19q6 4 23.5 20.5t21.5 22.5q23 117 59 217q4 14 23 49q10 18 12 27v6q-14 2 -35 2q-55 2 -149 -4q-147 -10 -264 -29q-25 -2 -44.5 12.5t-22.5 39t11 44t39 23.5zM569 1724q152 -133 254 -139q111 -4 209 150q14 23 38 27.5t45.5 -8.5 t26.5 -36.5t-7 -44.5q-135 -215 -316 -207q-145 8 -327 168q-18 16 -20.5 41t14 43.5t41 20t42.5 -14.5z" />
<glyph unicode="&#x11f;" horiz-adv-x="1005" d="M840 846q-66 68 -146 97.5t-153.5 21t-141.5 -46.5q-111 -66 -162 -190t-8 -271q45 -156 131 -215q160 -106 277 -11q111 90 160 299q25 104 39 258q2 19 4 58zM885 406q-63 -176 -172 -267q-86 -72 -189.5 -74t-228.5 78q-123 82 -180 281q-53 188 13.5 350t211.5 246 q111 70 255 63.5t265 -98.5l10 10q31 20 62 4q10 -6 18 -14t11 -14l2 -4q2 -6 2 -13q12 -47 6 -139q-4 -86 0 -115l6 -47q12 -98 18 -154.5t11.5 -162t-3 -179t-32.5 -159.5q-23 -86 -66 -152q-84 -127 -209 -206q-129 -80 -264 -86q-147 -8 -265 72.5t-173 250.5 q-6 25 5 46.5t34.5 28.5t45 -4t30.5 -34q41 -131 125.5 -189.5t189.5 -52.5q106 6 209.5 69.5t173.5 170.5q103 158 78 494zM375 1397q76 -129 200 -105q59 10 111.5 54.5t81.5 113.5q10 23 33.5 31t46 -1t31 -32.5t0.5 -46.5q-41 -92 -116 -155.5t-165 -79.5 q-94 -18 -181 22.5t-145 140.5q-12 20 -6 44t27.5 36.5t45.5 6.5t36 -29z" />
<glyph unicode="&#x120;" horiz-adv-x="1404" d="M823 725q121 18 273 29q100 6 161 4q39 -2 66 -6q43 -10 61 -35q35 -41 19 -111q-4 -25 -21 -57q-16 -29 -18 -35q-59 -160 -74 -371q-2 -25 -20.5 -41t-43 -14t-41 20.5t-14.5 43.5v8q-31 -23 -61 -35q-109 -47 -225.5 -34t-219 63.5t-190.5 132.5 q-135 127 -204.5 292.5t-34.5 323.5q57 260 163 379q135 147 389 148q4 0 31 1t38 0t33.5 -4.5t43 -10.5t41.5 -19q35 -18 72 -72q25 -37 51 -90l4 -4q31 70 39 82q10 23 34.5 29t46 -5.5t27.5 -36t-6 -45.5q-4 -10 -45 -98l-27 -61l-10 -19q-2 -6 -4 -9t-4 -5q-2 -4 -6 -8 q-2 -2 -6 -5t-16.5 -8.5t-24.5 -5.5q-23 2 -39 19q-4 4 -8 10q-4 4 -8.5 12t-12.5 27l-39 76q-25 49 -45 77q-20 31 -30 37q-12 6 -21.5 9.5t-24 5.5t-20.5 2h-29h-35q-201 0 -301 -111q-88 -94 -137 -321q-25 -121 31.5 -258.5t173.5 -245.5q119 -111 252 -150t258 11 q10 4 20 10l21 12q8 6 22 18l21 19q6 4 23.5 20.5t21.5 22.5q23 117 59 217q4 14 23 49q10 18 12 27v6q-14 2 -35 2q-55 2 -149 -4q-147 -10 -264 -29q-25 -2 -44.5 12.5t-22.5 39t11 44t39 23.5zM678 1573q0 14 -2 43v14q0 2 -2 12l-8 44q-6 25 8 45t37.5 25t44 -9 t24.5 -37l11 -41q2 -16 3 -25.5t1 -25.5q2 -27 2 -41q0 -25 -16.5 -43t-41 -18t-43 16t-18.5 41z" />
<glyph unicode="&#x121;" horiz-adv-x="1005" d="M840 846q-66 68 -146 97.5t-153.5 21t-141.5 -46.5q-111 -66 -162 -190t-8 -271q45 -156 131 -215q160 -106 277 -11q111 90 160 299q25 104 39 258q2 19 4 58zM885 406q-63 -176 -172 -267q-86 -72 -189.5 -74t-228.5 78q-123 82 -180 281q-53 188 13.5 350t211.5 246 q111 70 255 63.5t265 -98.5l10 10q31 20 62 4q10 -6 18 -14t11 -14l2 -4q2 -6 2 -13q12 -47 6 -139q-4 -86 0 -115l6 -47q12 -98 18 -154.5t11.5 -162t-3 -179t-32.5 -159.5q-23 -86 -66 -152q-84 -127 -209 -206q-129 -80 -264 -86q-147 -8 -265 72.5t-173 250.5 q-6 25 5 46.5t34.5 28.5t45 -4t30.5 -34q41 -131 125.5 -189.5t189.5 -52.5q106 6 209.5 69.5t173.5 170.5q103 158 78 494zM422 1204q2 37 4 51v17v2q0 2 -1 5t-2 8t-3 16l-4 24q-6 25 8 45.5t37.5 25.5t44 -9.5t24.5 -36.5q14 -68 15 -76v-29l-4 -51q-2 -25 -20.5 -41 t-43 -14t-41 20t-14.5 43z" />
<glyph unicode="&#x122;" horiz-adv-x="1404" d="M823 725q121 18 273 29q100 6 161 4q39 -2 66 -6q43 -10 61 -35q35 -41 19 -111q-4 -25 -21 -57q-16 -29 -18 -35q-59 -160 -74 -371q-2 -25 -20.5 -41t-43 -14t-41 20.5t-14.5 43.5v8q-31 -23 -61 -35q-109 -47 -225.5 -34t-219 63.5t-190.5 132.5 q-135 127 -204.5 292.5t-34.5 323.5q57 260 163 379q135 147 389 148q4 0 31 1t38 0t33.5 -4.5t43 -10.5t41.5 -19q35 -18 72 -72q25 -37 51 -90l4 -4q31 70 39 82q10 23 34.5 29t46 -5.5t27.5 -36t-6 -45.5q-4 -10 -45 -98l-27 -61l-10 -19q-2 -6 -4 -9t-4 -5q-2 -4 -6 -8 q-2 -2 -6 -5t-16.5 -8.5t-24.5 -5.5q-23 2 -39 19q-4 4 -8 10q-4 4 -8.5 12t-12.5 27l-39 76q-25 49 -45 77q-20 31 -30 37q-12 6 -21.5 9.5t-24 5.5t-20.5 2h-29h-35q-201 0 -301 -111q-88 -94 -137 -321q-25 -121 31.5 -258.5t173.5 -245.5q119 -111 252 -150t258 11 q10 4 20 10l21 12q8 6 22 18l21 19q6 4 23.5 20.5t21.5 22.5q23 117 59 217q4 14 23 49q10 18 12 27v6q-14 2 -35 2q-55 2 -149 -4q-147 -10 -264 -29q-25 -2 -44.5 12.5t-22.5 39t11 44t39 23.5zM844 -207q-47 55 -56 70q-25 41 -14 78q14 51 76 61q61 8 98 -53 q20 -33 33 -84q25 -100 12 -154q-10 -53 -46 -107.5t-61.5 -81t-70.5 -69.5q-18 -16 -42.5 -16t-41 18.5t-16.5 43t18 40.5q63 59 98 103.5t48 93.5q0 8 -2 39q-21 4 -33 18z" />
<glyph unicode="&#x123;" horiz-adv-x="1005" d="M840 846q-66 68 -146 97.5t-153.5 21t-141.5 -46.5q-111 -66 -162 -190t-8 -271q45 -156 131 -215q160 -106 277 -11q111 90 160 299q25 104 39 258q2 19 4 58zM885 406q-63 -176 -172 -267q-86 -72 -189.5 -74t-228.5 78q-123 82 -180 281q-53 188 13.5 350t211.5 246 q111 70 255 63.5t265 -98.5l10 10q31 20 62 4q10 -6 18 -14t11 -14l2 -4q2 -6 2 -13q12 -47 6 -139q-4 -86 0 -115l6 -47q12 -98 18 -154.5t11.5 -162t-3 -179t-32.5 -159.5q-23 -86 -66 -152q-84 -127 -209 -206q-129 -80 -264 -86q-147 -8 -265 72.5t-173 250.5 q-6 25 5 46.5t34.5 28.5t45 -4t30.5 -34q41 -131 125.5 -189.5t189.5 -52.5q106 6 209.5 69.5t173.5 170.5q103 158 78 494zM553 1221q0 -2 -1 -2t-3 -2l-4 -5l-10 -10q-45 -37 -91 -18q-78 33 -86 157q-6 84 17 144q33 90 162 209q18 16 42.5 15t41 -18.5t15.5 -42 t-18 -40.5q-109 -100 -133 -164q-12 -37 -8 -96q0 -18 4 -33q8 6 15 8q20 12 43.5 6t36 -27.5t6.5 -45t-29 -35.5z" />
<glyph unicode="&#x124;" horiz-adv-x="1191" d="M1135 1360q12 -135 -23 -442q-8 -74 -12 -119h2q25 -4 39 -23.5t12 -44.5q-4 -23 -21.5 -37t-39.5 -14q-4 -98 6 -178q8 -78 49 -252q37 -168 47 -264q2 -25 -13.5 -44.5t-40 -21.5t-44 13.5t-21.5 39.5q-8 86 -45 250q-41 180 -51 262q-10 96 -6 209q-127 14 -225 13 q-35 0 -74 -5l-86 -10q-47 -4 -74 -6q-88 -8 -154 -4q45 -328 -22 -565q-6 -25 -27.5 -36t-46 -5t-36 27.5t-5.5 46.5q63 223 15 559q-29 23 -21 57q2 10 6 18q-2 25 -17.5 107t-21.5 121l-12 104q-10 68 -14 124t-4 112q0 25 17 42t42 17t42 -17.5t17 -41.5 q0 -53 4.5 -106.5t12.5 -116t14 -102.5t19.5 -116.5t19.5 -107.5q63 -6 162 2q31 2 76 6l88 10q41 4 75 4q106 2 238 -12q4 43 14 119q33 287 21 416q-2 25 13 44t40 21t44.5 -13t21.5 -40zM481 1475q39 37 90 112q55 84 80 107q31 27 66 32q41 6 80 -20q55 -35 121 -156 q12 -20 6 -44.5t-28 -36t-46.5 -5.5t-34.5 29q-51 92 -82 113h-2q-14 -14 -61 -84q-59 -88 -103 -133q-18 -16 -42.5 -16.5t-42 17t-17.5 42.5t16 43z" />
<glyph unicode="&#x125;" horiz-adv-x="1019" d="M207 1343q10 -39 14 -81.5t6 -94t4 -73.5q4 -55 18.5 -160t16.5 -135q8 2 67.5 28.5t84.5 36.5l74 25q45 14 81 20q162 27 265 -88q78 -86 118 -256q27 -113 43 -293q20 -215 23 -231q4 -25 -11.5 -45.5t-39 -24.5t-44 11.5t-24.5 37.5q-4 29 -22 240q-16 174 -41 279 q-33 139 -90 202q-59 66 -156 50q-49 -8 -98 -25q-49 -18 -115 -48t-102 -44q0 -18 5 -108.5t9 -120t12 -95t23.5 -113t38.5 -92.5q10 -23 1.5 -46t-30 -33.5t-45 -2t-33.5 28.5q-35 74 -56.5 166t-27.5 156.5t-12 172t-10 150.5q-4 55 -19.5 171t-21.5 177q-2 31 -4.5 79 t-5.5 82t-11 69q-6 25 6.5 45t37 26.5t45 -6t26.5 -37.5zM338 1481q70 111 108 153q115 123 220 62l12 -10l4 -5l12 -12l31 -35l53 -57q18 -18 16.5 -43t-19 -42t-42 -15t-41.5 18l-53 59l-31 33l-4 4l-6 6l-2 2q0 -8 4 -8q-37 -6 -65 -37q-29 -33 -95 -135 q-14 -23 -37.5 -28t-45 8.5t-26.5 37.5t7 44z" />
<glyph unicode="&#x126;" horiz-adv-x="1255" d="M1010 1059q-449 23 -711 -4q6 -47 23 -137l20 -115q63 -6 162 2q31 2 76 6l88 10q41 4 75 4q106 2 238 -12q4 43 14 119zM1135 1360q8 -86 2 -189l65 -4q25 -2 41.5 -20.5t14 -43t-20.5 -40.5t-43 -14l-66 4q-4 -37 -16 -135q-8 -74 -12 -119h2q25 -4 39 -23.5t12 -44.5 q-4 -23 -21.5 -37t-39.5 -14q-4 -98 6 -178q8 -78 49 -252q37 -168 47 -264q2 -25 -13.5 -44.5t-40 -21.5t-44 13.5t-21.5 39.5q-8 86 -45 250q-41 180 -51 262q-10 96 -6 209q-127 14 -225 13q-35 0 -74 -5l-86 -10q-47 -4 -74 -6q-88 -8 -154 -4q45 -328 -22 -565 q-6 -25 -27.5 -36t-46 -5t-36 27.5t-5.5 46.5q63 223 15 559q-29 23 -21 57q2 10 6 18q0 8 -17.5 106.5t-25.5 149.5l-12 -2q-23 -4 -43.5 11.5t-24.5 39t11.5 44t40.5 24.5l14 2q-12 102 -12 193q0 25 17 42t42 17t42 -17.5t17 -41.5q0 -82 11 -178q274 29 735 4 q6 94 -2 170q-2 25 13 44t40 21t44.5 -13t21.5 -40z" />
<glyph unicode="&#x127;" horiz-adv-x="1019" d="M106 1217q-4 55 -14 98q-6 25 6.5 45t37 26.5t45 -6t26.5 -37.5q10 -43 16 -96q168 43 221 60q23 6 44.5 -5.5t28.5 -35t-4 -45t-36 -29.5q-39 -12 -248 -66q0 -18 2 -32q4 -55 18.5 -160t16.5 -135q8 2 67.5 28.5t84.5 36.5l74 25q45 14 81 20q162 27 265 -88 q78 -86 118 -256q27 -113 43 -293q20 -215 23 -231q4 -25 -11.5 -45.5t-39 -24.5t-44 11.5t-24.5 37.5q-4 29 -22 240q-16 174 -41 279q-33 139 -90 202q-59 66 -156 50q-49 -8 -98 -25q-49 -18 -115 -48t-102 -44q0 -18 5 -108.5t9 -120t12 -95t23.5 -113t38.5 -92.5 q10 -23 1.5 -46t-30 -33.5t-45 -2t-33.5 28.5q-35 74 -56.5 166t-27.5 156.5t-12 172t-10 150.5q-4 55 -19.5 171t-21.5 177v11q-68 -20 -121 -43q-23 -8 -45.5 1t-31.5 31.5t0 45t32 32.5q69 29 159 54z" />
<glyph unicode="&#x128;" horiz-adv-x="1036" d="M983 117q-96 -8 -330 -47q-225 -37 -340 -47q-25 -2 -44 14t-21 39.5t14.5 43t38.5 21.5q84 8 158 19q-16 43 -21 123q-4 100 -8 110q-31 176 -59 510q-25 295 -39 410q-111 -18 -226 -21q-25 0 -43 16.5t-18 41t16.5 43t40.5 18.5q113 2 220 19q12 37 49 43q33 4 55 -23 q172 39 289 109q20 12 44.5 6t37 -26.5t6.5 -45.5t-27 -37q-133 -80 -325 -123q14 -117 38 -420q27 -322 60 -499q2 -18 8 -123q4 -68 14 -92l9 -9l10 -10l43 8q223 37 342 48q23 2 42 -14.5t21 -40t-14 -43t-41 -21.5zM4 1567q66 127 174 149q61 12 172 -18q78 -20 103 -15 q33 8 53 80q8 25 29.5 36t45 4t35 -28.5t5.5 -43.5q-43 -137 -140 -162q-53 -14 -162 14q-84 23 -118 16q-51 -10 -90 -86q-12 -23 -36 -29.5t-45.5 4.5t-28.5 35t3 44z" />
<glyph unicode="&#x129;" horiz-adv-x="724" d="M317 1067q0 -66 2.5 -80t-3 -87t-7.5 -91l-10 -92q-8 -74 -10 -90q-29 -285 2 -404q14 -53 50 -86t79 -39q92 -14 123 88q8 25 29.5 36t45 4t35 -28.5t4.5 -43.5q-29 -96 -99.5 -141.5t-154.5 -32.5q-80 12 -142 69t-85 146q-35 139 -4 444q2 18 9 92t9.5 90.5t7.5 85 t3 78.5t-2 74q-2 25 14 43t41 20t43 -14t20 -41zM33 1303q72 164 164 210q80 41 182 -2q25 -10 70 -34l55 -29q41 -16 61 -2q8 8 21 37q6 12 11 25.5t9 25.5t6 16q10 23 33 32t45.5 0t31.5 -31.5t1 -45.5q-2 -4 -6 -18l-12 -25q-4 -14 -11 -26q-29 -66 -59 -88 q-76 -51 -176 -11q-23 10 -68 35q-39 20 -57 29q-51 23 -84 6q-53 -27 -107 -154q-10 -23 -32.5 -31t-46 1.5t-31.5 32t0 47.5z" />
<glyph unicode="&#x12a;" horiz-adv-x="1036" d="M983 117q-96 -8 -330 -47q-225 -37 -340 -47q-25 -2 -44 14t-21 39.5t14.5 43t38.5 21.5q84 8 158 19q-16 43 -21 123q-4 100 -8 110q-31 176 -59 510q-25 295 -39 410q-111 -18 -226 -21q-25 0 -43 16.5t-18 41t16.5 43t40.5 18.5q113 2 220 19q12 37 49 43q33 4 55 -23 q172 39 289 109q20 12 44.5 6t37 -26.5t6.5 -45.5t-27 -37q-133 -80 -325 -123q14 -117 38 -420q27 -322 60 -499q2 -18 8 -123q4 -68 14 -92l9 -9l10 -10l43 8q223 37 342 48q23 2 42 -14.5t21 -40t-14 -43t-41 -21.5zM590 1624q-250 -96 -518 -104q-25 0 -43.5 16 t-18.5 41t16.5 43t41.5 18q248 6 481 97q23 8 45 -1.5t30.5 -33t-0.5 -46t-34 -30.5z" />
<glyph unicode="&#x12b;" horiz-adv-x="657" d="M317 1067q0 -66 2.5 -80t-3 -87t-7.5 -91l-10 -92q-8 -74 -10 -90q-29 -285 2 -404q14 -53 50 -86t79 -39q92 -14 123 88q8 25 29.5 36t45 4t35 -28.5t4.5 -43.5q-29 -96 -99.5 -141.5t-154.5 -32.5q-80 12 -142 69t-85 146q-35 139 -4 444q2 18 9 92t9.5 90.5t7.5 85 t3 78.5t-2 74q-2 25 14 43t41 20t43 -14t20 -41zM104 1354q59 0 120 4t149 13t119 13q25 2 44 -13t21 -39.5t-13.5 -44t-39.5 -21.5q-29 -2 -122 -12.5t-155.5 -14.5t-122.5 -4q-25 0 -42 17.5t-17 42t17 42t42 17.5z" />
<glyph unicode="&#x12c;" horiz-adv-x="1036" d="M983 117q-96 -8 -330 -47q-225 -37 -340 -47q-25 -2 -44 14t-21 39.5t14.5 43t38.5 21.5q84 8 158 19q-16 43 -21 123q-4 100 -8 110q-31 176 -59 510q-25 295 -39 410q-111 -18 -226 -21q-25 0 -43 16.5t-18 41t16.5 43t40.5 18.5q113 2 220 19q12 37 49 43q33 4 55 -23 q172 39 289 109q20 12 44.5 6t37 -26.5t6.5 -45.5t-27 -37q-133 -80 -325 -123q14 -117 38 -420q27 -322 60 -499q2 -18 8 -123q4 -68 14 -92l9 -9l10 -10l43 8q223 37 342 48q23 2 42 -14.5t21 -40t-14 -43t-41 -21.5zM100 1700q150 -104 197 -103q57 4 129 144 q12 23 35.5 30t45 -4.5t29 -35t-3.5 -43.5q-51 -100 -105 -152.5t-124 -56.5q-41 -2 -91 17.5t-85 41.5l-96 64q-18 14 -23.5 38.5t9 44t39 24.5t44.5 -9z" />
<glyph unicode="&#x12d;" horiz-adv-x="657" d="M317 1067q0 -66 2.5 -80t-3 -87t-7.5 -91l-10 -92q-8 -74 -10 -90q-29 -285 2 -404q14 -53 50 -86t79 -39q92 -14 123 88q8 25 29.5 36t45 4t35 -28.5t4.5 -43.5q-29 -96 -99.5 -141.5t-154.5 -32.5q-80 12 -142 69t-85 146q-35 139 -4 444q2 18 9 92t9.5 90.5t7.5 85 t3 78.5t-2 74q-2 25 14 43t41 20t43 -14t20 -41zM74 1468q104 -145 194 -139q90 4 191 154q14 20 37.5 25t44 -9t25.5 -37.5t-9 -44.5q-133 -199 -281 -207q-158 -10 -301 189q-14 20 -10 44.5t24.5 39t45.5 10t39 -24.5z" />
<glyph unicode="&#x12e;" horiz-adv-x="1036" d="M666 68q-10 -16 -35 -54l-47 -67q-20 -33 -33 -62q-16 -39 -12 -53q2 -12 39 -20q68 -12 170 16q25 6 46 -5t27 -36t-5 -46.5t-36 -27.5q-131 -37 -227 -16q-102 20 -127 98q-18 57 16 137q18 47 66 115q-113 -16 -195 -24q-25 -2 -44 14t-21 39.5t14.5 43t38.5 21.5 q84 8 158 19q-16 43 -21 123q-4 100 -8 110q-31 176 -59 510q-25 295 -39 410q-111 -18 -226 -21q-25 0 -43 16.5t-18 41t16.5 43t40.5 18.5q113 2 220 19q12 37 49 43q33 4 55 -23q172 39 289 109q20 12 44.5 6t37 -26.5t6.5 -45.5t-27 -37q-133 -80 -325 -123 q14 -117 38 -420q27 -322 60 -499q2 -18 8 -123q4 -68 14 -92l9 -9l10 -10l43 8q223 37 342 48q23 2 42 -14.5t21 -40t-14 -43t-41 -21.5q-111 -10 -313 -43q-2 -2 -4 -6z" />
<glyph unicode="&#x12f;" horiz-adv-x="657" d="M317 1067q0 -66 2.5 -80t-3 -87t-7.5 -91l-10 -92q-8 -74 -10 -90q-29 -285 2 -404q14 -53 50 -86t79 -39q92 -14 123 88q8 25 29.5 36t45 4t35 -28.5t4.5 -43.5q-29 -96 -99.5 -141.5t-154.5 -32.5q-25 4 -49 12l-39 -51q-37 -47 -49 -78q-29 -70 -22 -103q2 -8 10 -12 q55 -16 180 47q23 10 46.5 3t33.5 -29.5t3 -46t-30 -33.5q-166 -84 -266 -54q-80 23 -94 103q-12 68 29 170q18 47 65 106l33 43q-57 55 -78 138q-35 139 -4 444q2 18 9 92t9.5 90.5t7.5 85t3 78.5t-2 74q-2 25 14 43t41 20t43 -14t20 -41zM203 1348q47 37 84 45q27 6 51 -2 q31 -12 43 -45q14 -37 -10 -82q-18 -35 -52 -64q-18 -16 -42.5 -14t-40.5 20q-14 16 -15 37q-18 6 -28 21q-14 20 -11 45t21 39z" />
<glyph unicode="&#x130;" horiz-adv-x="1036" d="M983 117q-96 -8 -330 -47q-225 -37 -340 -47q-25 -2 -44 14t-21 39.5t14.5 43t38.5 21.5q84 8 158 19q-16 43 -21 123q-4 100 -8 110q-31 176 -59 510q-25 295 -39 410q-111 -18 -226 -21q-25 0 -43 16.5t-18 41t16.5 43t40.5 18.5q113 2 220 19q12 37 49 43q33 4 55 -23 q172 39 289 109q20 12 44.5 6t37 -26.5t6.5 -45.5t-27 -37q-133 -80 -325 -123q14 -117 38 -420q27 -322 60 -499q2 -18 8 -123q4 -68 14 -92l9 -9l10 -10l43 8q223 37 342 48q23 2 42 -14.5t21 -40t-14 -43t-41 -21.5zM248 1559v65q0 25 17.5 42t42 17t42 -17t17.5 -42v-65 q0 -25 -17.5 -42.5t-42 -17.5t-42 17.5t-17.5 42.5z" />
<glyph unicode="&#x131;" horiz-adv-x="657" d="M317 1067q0 -66 2.5 -80t-3 -87t-7.5 -91l-10 -92q-8 -74 -10 -90q-29 -285 2 -404q14 -53 50 -86t79 -39q92 -14 123 88q8 25 29.5 36t45 4t35 -28.5t4.5 -43.5q-29 -96 -99.5 -141.5t-154.5 -32.5q-80 12 -142 69t-85 146q-35 139 -4 444q2 18 9 92t9.5 90.5t7.5 85 t3 78.5t-2 74q-2 25 14 43t41 20t43 -14t20 -41z" />
<glyph unicode="&#x132;" horiz-adv-x="1869" d="M1061 1460q74 6 184 41q158 47 199 55q53 12 115.5 18.5t138.5 10.5t108 8q25 2 44.5 -13t21.5 -39.5t-13.5 -44t-39.5 -21.5q-43 -4 -116 -7.5t-128 -9.5t-107 -16l-8 -2q18 -10 29 -29q43 -86 99.5 -292t88.5 -417q39 -250 29 -417q-16 -221 -125 -283 q-106 -51 -237.5 -26.5t-235.5 102.5q-45 31 -78 69q-14 -29 -47 -30q-96 -8 -330 -47q-225 -37 -340 -47q-25 -2 -44 14t-21 39.5t14.5 43t38.5 21.5q84 8 158 19q-16 43 -21 123q-4 100 -8 110q-31 176 -59 510q-25 295 -39 410q-111 -18 -226 -21q-25 0 -43 16.5t-18 41 t16.5 43t40.5 18.5q113 2 220 19q12 37 49 43q33 4 55 -23q172 39 289 109q20 12 44.5 6t37 -26.5t6.5 -45.5t-27 -37q-133 -80 -325 -123q14 -117 38 -420q27 -322 60 -499q2 -18 8 -123q4 -68 14 -92l9 -9l10 -10l43 8q225 37 342 48q-10 20 -14 43q-31 137 86 260 q16 18 40.5 18t43 -16.5t18.5 -41t-16 -42.5q-74 -76 -56 -152q14 -70 101 -131q84 -63 188 -82.5t158 12.5q53 31 63 189q10 154 -28 391q-31 205 -85.5 401.5t-91.5 272.5q-16 33 7 61l-109 -33q-123 -37 -207 -45q-25 -2 -44 13.5t-21 40t13 44t40 21.5z" />
<glyph unicode="&#x133;" horiz-adv-x="1351" d="M825 125q-78 -59 -139 -131q-31 -39 -38 -106.5t16 -125.5q18 -51 47 -65q25 -12 63 12q45 31 60 137q10 76 0 197q-3 41 -9 82zM203 1348q47 37 84 45q27 6 51 -2q31 -12 43 -45q14 -37 -10 -82q-18 -35 -52 -64q-18 -16 -42.5 -14t-40.5 20q-14 16 -15 37q-18 6 -28 21 q-14 20 -11 45t21 39zM768 1198l10 -135q6 -80 15 -129q8 -59 88 -434q23 -106 34 -183l3 2q6 2 116 43q61 20 92 46q14 10 26.5 24t20 24.5t18.5 34t15 32.5t17.5 42t15.5 41q10 23 32.5 32t45 0t32 -31.5t1.5 -45.5q-2 -6 -15 -37l-18 -45q-6 -14 -19.5 -42.5t-25.5 -46 t-31.5 -39t-40.5 -38.5q-47 -35 -125 -63l-108 -41q-16 -6 -31 -12q10 -76 16 -146q10 -131 -2 -219q-18 -162 -110 -221q-96 -63 -185 -19q-70 35 -104 132q-25 61 -23 144t33 148q-70 -49 -158 -36q-80 12 -142 69t-85 146q-35 139 -4 444q2 18 9 92t9.5 90.5t7.5 85 t3 78.5t-2 74q-2 25 14 43t41 20t43 -14t20 -41q0 -66 2.5 -80t-3 -87t-7.5 -91l-10 -92q-8 -74 -10 -90q-29 -285 2 -404q14 -53 50 -86t79 -39q92 -14 123 88q8 25 29.5 36t45 4t35 -28.5t4.5 -43.5q-4 -14 -10 -27q74 74 160 131q-16 88 -43 217q-88 430 -90 438 q-8 53 -15 140q-8 109 -10 133t13.5 43.5t40 21.5t44 -13t21.5 -40zM680 1374q-68 90 -49 168q10 39 45 49q49 16 78 -32q14 -29 16 -86q0 -8 -2 -17q4 -4 6 -8q14 -20 11 -45t-22.5 -39t-44 -11t-38.5 21z" />
<glyph unicode="&#x134;" horiz-adv-x="933" d="M125 1376q74 6 184 41q158 47 199 56q53 12 115.5 18t138.5 10t108 8q25 2 44.5 -13t21.5 -39.5t-13.5 -44t-39.5 -21.5q-43 -4 -125 -8.5t-123 -8.5q43 -106 91 -293.5t79 -375.5q39 -250 29 -418q-16 -221 -125 -283q-106 -51 -237.5 -26.5t-235.5 102.5 q-121 88 -148 201q-31 137 86 260q16 18 41 18t43 -16.5t18 -41t-16 -42.5q-74 -76 -55 -152q14 -70 100 -131q84 -63 188.5 -82.5t157.5 12.5q53 31 64 189q10 150 -29 391q-33 207 -84 391q-51 195 -88 275q-27 -6 -170 -49q-123 -37 -207 -46q-25 -2 -44 13.5t-21 40 t13 44t40 21.5zM160 1550q33 47 76 125q41 72 65 90q57 41 133 -12q41 -29 133 -125q16 -18 16.5 -42.5t-18 -41t-43 -16.5t-41.5 18q-84 88 -116 111l-3 2l-22 -41q-45 -84 -86 -137q-14 -20 -37.5 -24.5t-44 11t-24.5 39t12 43.5z" />
<glyph unicode="&#x135;" horiz-adv-x="940" d="M414 127q-78 -59 -140 -131q-31 -39 -38 -106.5t16 -125.5q18 -51 47 -65q25 -12 63 12q45 31 60 137q10 76 0 197q-2 41 -8 82zM356 1200l11 -135q6 -80 14 -129q8 -59 88 -434q23 -106 35 -183l2 3q6 2 117 43q61 20 92 45q14 10 26.5 24.5t19.5 24.5t18.5 33.5 t15.5 33t17 42t15 40.5q10 23 33 32t45.5 0t31.5 -31.5t1 -45.5q-2 -6 -14 -37l-19 -45q-6 -14 -19.5 -42.5t-25.5 -46t-31.5 -39t-40.5 -38.5q-47 -35 -124 -63l-109 -41q-16 -6 -31 -12q10 -76 17 -146q10 -131 -2 -219q-18 -162 -111 -221q-96 -63 -184 -19 q-70 35 -105 132q-31 74 -20.5 176t65.5 168q88 111 211 190q-16 88 -43 217q-88 430 -90 438q-8 53 -14 140q-8 109 -10 133t13 43.5t39.5 21.5t44 -13t21.5 -40zM59 1333l39 99q27 68 39 96q45 104 92 131q43 27 90 8q35 -12 72 -53q57 -63 144 -230q10 -20 2.5 -43.5 t-29 -35t-45 -4t-35.5 29.5q-78 152 -125 205q-10 10 -18 16q-16 -20 -39 -71q-12 -29 -37 -95l-39 -98q-10 -23 -32.5 -32t-45 0.5t-32 31.5t-1.5 45z" />
<glyph unicode="&#x136;" horiz-adv-x="1259" d="M537 938q-16 -14 -50 -47l-63 -60q-29 -27 -57 -49l4 -65q6 -154 12 -238t29.5 -203.5t66.5 -212.5q8 -23 0 -46t-30.5 -32.5t-46 -1t-33.5 30.5q-45 104 -72 236.5t-33 217.5t-12 241q-49 -23 -100 -33q-25 -6 -45.5 7t-25.5 37.5t8 45t38 25.5q63 14 119 49 q-18 336 -103 522q-10 23 -1.5 45.5t31 32.5t45 2t32.5 -31q86 -188 108 -479l109 104l10 11q-4 37 27 57q23 16 51 8q4 4 74.5 61.5t105.5 88.5q18 16 66.5 64t93.5 85t92 62q23 10 46.5 2.5t33.5 -30t3 -46t-30 -33.5q-41 -20 -73.5 -48t-77.5 -73q-43 -45 -76 -74 l-104 -86q-68 -57 -80 -65q27 -49 59 -125q63 -137 88 -184q51 -88 156.5 -251t188.5 -305.5t136 -275.5q8 -23 -1 -45t-31.5 -31.5t-45 0t-32.5 31.5q-51 129 -130 264t-181 295q-98 152 -162 260q-31 51 -94 193q-25 57 -43 92zM621 -125q106 0 156 -51t36 -133 q-18 -106 -125 -215q-18 -16 -42.5 -16.5t-42 17t-17.5 42t16 43.5q82 80 94 151q4 20 -2 27q-16 16 -73 16q-25 0 -42.5 17.5t-17.5 42t17.5 42t42.5 17.5z" />
<glyph unicode="&#x137;" horiz-adv-x="1286" d="M393 614l-92 -118q4 -29 25.5 -166t31.5 -211q2 -25 -12 -44.5t-38.5 -22.5t-44 11.5t-23.5 38.5q-2 27 -52 344q-2 0 -4 3q-16 14 -19 37.5t11 41.5l-12 90q-8 68 -21.5 219.5t-29 261t-39.5 210.5q-6 25 6 45t36.5 26t45 -6t26.5 -37q25 -100 40.5 -205.5t30.5 -268.5 t20 -201l71 92q4 39 41 51h2q125 147 244 213q20 12 44 6t36 -27.5t6 -45t-29 -36.5q-102 -59 -213 -190q70 -205 150 -395q61 -143 110 -238q55 -104 90 -133q119 -100 390 -68q25 2 44 -13t22 -38.5t-12 -43t-38 -23.5q-324 -39 -483 96q-51 43 -117 168q-53 98 -115 248 q-66 151 -129 329zM430 -96q2 0 16 6l25 8q10 2 28.5 4t34 0t35 -9t37.5 -22q129 -100 12 -294q-18 -29 -43.5 -64t-46.5 -57l-43 -51q-25 -29 -30 -35q-16 -18 -40 -20.5t-43.5 14t-21.5 40t15 44.5q2 2 40.5 46t64.5 77.5t46 66.5q61 104 16 139q-4 4 -5 4t-3 2t-4 1 t-5 -1t-8 -1t-10 -3t-14.5 -5t-19.5 -5q-25 -6 -46.5 5t-27.5 36t5 46.5t36 27.5z" />
<glyph unicode="&#x138;" horiz-adv-x="970" d="M238 1042q10 -182 6 -491q184 119 311 215t221 209q14 18 39 20t44.5 -13t21.5 -39.5t-15 -45.5q-100 -121 -262 -244q94 -152 361 -630q12 -20 6 -45t-27.5 -36.5t-46.5 -5t-35 28.5q-262 471 -354 619q-82 -57 -266 -174q-2 -233 2 -377q0 -25 -16.5 -43.5t-41 -18.5 t-43 16.5t-18.5 41.5q-4 141 -2 362q-4 4 -6 8q-27 41 8 76v60q4 322 -6 499q-2 25 14.5 43.5t41 20.5t43 -14.5t20.5 -41.5z" />
<glyph unicode="&#x139;" horiz-adv-x="1021" d="M242 1393q14 -92 18 -203t1 -188.5t-10 -205.5t-9 -186q0 -27 -4.5 -94t-5.5 -101t2.5 -84t13.5 -89q12 -47 49 -76q104 -76 305 -70q41 2 92 7.5t87 10.5t91 13l84 14q25 2 44.5 -12t22.5 -38.5t-11.5 -44t-38.5 -23.5q-23 -2 -80 -11l-94 -16q-39 -6 -93.5 -11 t-99.5 -8q-242 -8 -379 95q-72 53 -94 141q-12 45 -16 105.5t-3 98.5t5 108.5t4 88.5q2 63 9 190.5t10 201t-1 177t-18 189.5q-4 25 10 45.5t39 24.5t45.5 -10t24.5 -39zM158 1583q29 43 71.5 88t94 91t71.5 67q16 18 41 18t43.5 -16t18.5 -41t-17 -43q-20 -20 -105 -99 t-120 -130q-12 -20 -36.5 -25.5t-45 7.5t-25.5 38t9 45z" />
<glyph unicode="&#x13a;" horiz-adv-x="487" d="M317 111q-8 6 -16 -5h2h4zM340 1432q6 -96 9 -283.5t3 -208.5q2 -55 10.5 -182t9.5 -191.5t-5 -191.5q-2 -8 -5 -29l-8 -41q-12 -63 -18 -106q-8 -51 -8 -82h2q68 37 82 43q25 6 46 -5.5t28.5 -35t-4 -45t-33.5 -29.5q-4 0 -62 -33q-63 -33 -115 -20q-41 10 -55 55 q-8 20 -8 53q-2 43 8 115l21 113l8 41q2 14 2 18q6 121 5 179.5t-9 181t-11 188.5q0 25 -3 208t-9 279q-2 25 14.5 43.5t41 20.5t43 -14t20.5 -41zM199 1645q119 90 176 145q18 16 42.5 16t41 -18.5t16.5 -43t-18 -40.5q-61 -59 -189 -154q-18 -14 -42.5 -11t-39 22.5 t-11 44.5t23.5 39z" />
<glyph unicode="&#x13b;" horiz-adv-x="1021" d="M242 1393q14 -92 18 -203t1 -188.5t-10 -205.5t-9 -186q0 -27 -4.5 -94t-5.5 -101t2.5 -84t13.5 -89q12 -47 49 -76q104 -76 305 -70q41 2 92 7.5t87 10.5t91 13l84 14q25 2 44.5 -12t22.5 -38.5t-11.5 -44t-38.5 -23.5q-23 -2 -80 -11l-94 -16q-39 -6 -93.5 -11 t-99.5 -8q-242 -8 -379 95q-72 53 -94 141q-12 45 -16 105.5t-3 98.5t5 108.5t4 88.5q2 63 9 190.5t10 201t-1 177t-18 189.5q-4 25 10 45.5t39 24.5t45.5 -10t24.5 -39zM588 -143q102 -33 139 -109q31 -68 6 -151q-33 -121 -149 -240q-18 -16 -43 -16t-42.5 17t-17.5 42 t17 43q96 94 120 184q12 43 0 68q-14 31 -67 47q-23 8 -34 29.5t-4 45t28.5 35t46.5 5.5z" />
<glyph unicode="&#x13c;" horiz-adv-x="487" d="M317 111q-8 6 -16 -5h2h4zM340 1432q6 -96 9 -283.5t3 -208.5q2 -55 10.5 -182t9.5 -191.5t-5 -191.5q-2 -8 -5 -29l-8 -41q-12 -63 -18 -106q-8 -51 -8 -82h2q68 37 82 43q25 6 46 -5.5t28.5 -35t-4 -45t-33.5 -29.5q-4 0 -62 -33q-63 -33 -115 -20q-41 10 -55 55 q-8 20 -8 53q-2 43 8 115l21 113l8 41q2 14 2 18q6 121 5 179.5t-9 181t-11 188.5q0 25 -3 208t-9 279q-2 25 14.5 43.5t41 20.5t43 -14t20.5 -41zM203 -106q129 20 180 -52q41 -57 12 -157q-20 -66 -63 -138q-45 -70 -84 -114q-16 -18 -41 -18.5t-43.5 16t-18.5 41t17 43.5 q31 33 67.5 93t51.5 111q12 41 6 54q-12 10 -64 2q-25 -4 -45 11t-24 38.5t11 44.5t38 25z" />
<glyph unicode="&#x13d;" horiz-adv-x="1021" d="M242 1393q14 -92 18 -203t1 -188.5t-10 -205.5t-9 -186q0 -27 -4.5 -94t-5.5 -101t2.5 -84t13.5 -89q12 -47 49 -76q104 -76 305 -70q41 2 92 7.5t87 10.5t91 13l84 14q25 2 44.5 -12t22.5 -38.5t-11.5 -44t-38.5 -23.5q-23 -2 -80 -11l-94 -16q-39 -6 -93.5 -11 t-99.5 -8q-242 -8 -379 95q-72 53 -94 141q-12 45 -16 105.5t-3 98.5t5 108.5t4 88.5q2 63 9 190.5t10 201t-1 177t-18 189.5q-4 25 10 45.5t39 24.5t45.5 -10t24.5 -39zM815 1391q98 -18 143 -80q41 -55 33 -137q-2 -20 -8 -44t-11 -41.5t-15.5 -46t-15.5 -39t-18.5 -40 t-13.5 -33.5q-10 -23 -33.5 -31t-46 1t-30.5 32.5t0 46.5q70 154 73 205q4 37 -10 55q-16 25 -67 33q-25 6 -39.5 25.5t-9 44t24.5 39t44 10.5z" />
<glyph unicode="&#x13e;" horiz-adv-x="704" d="M317 111q-8 6 -16 -5h2h4zM340 1432q6 -96 9 -283.5t3 -208.5q2 -55 10.5 -182t9.5 -191.5t-5 -191.5q-2 -8 -5 -29l-8 -41q-12 -63 -18 -106q-8 -51 -8 -82h2q68 37 82 43q25 6 46 -5.5t28.5 -35t-4 -45t-33.5 -29.5q-4 0 -62 -33q-63 -33 -115 -20q-41 10 -55 55 q-8 20 -8 53q-2 43 8 115l21 113l8 41q2 14 2 18q6 121 5 179.5t-9 181t-11 188.5q0 25 -3 208t-9 279q-2 25 14.5 43.5t41 20.5t43 -14t20.5 -41zM528 1458q4 -2 13 -2l20 -2q35 -2 60 -14q61 -35 79 -115q12 -55 5 -133q-18 -129 -70 -221q-10 -23 -35 -29t-46.5 5 t-27.5 36t6 45q39 72 54 180q8 55 0 90q-8 29 -23 35q-2 2 -12 4h-6h-6h-7q-14 2 -24 2q-25 4 -39 24.5t-10 45.5t24 39t45 10z" />
<glyph unicode="&#x13f;" horiz-adv-x="1021" d="M242 1393q14 -92 18 -203t1 -188.5t-10 -205.5t-9 -186q0 -27 -4.5 -94t-5.5 -101t2.5 -84t13.5 -89q12 -47 49 -76q104 -76 305 -70q41 2 92 7.5t87 10.5t91 13l84 14q25 2 44.5 -12t22.5 -38.5t-11.5 -44t-38.5 -23.5q-23 -2 -80 -11l-94 -16q-39 -6 -93.5 -11 t-99.5 -8q-242 -8 -379 95q-72 53 -94 141q-12 45 -16 105.5t-3 98.5t5 108.5t4 88.5q2 63 9 190.5t10 201t-1 177t-18 189.5q-4 25 10 45.5t39 24.5t45.5 -10t24.5 -39zM727 856q4 -39 6 -111.5t4 -99.5q2 -25 -14 -43t-41 -20t-43 14t-21 41q-2 27 -4 98.5t-6 112.5 q-2 25 14.5 43t41 20t43 -14t20.5 -41z" />
<glyph unicode="&#x140;" horiz-adv-x="671" d="M317 111q-8 6 -16 -5h2h4zM340 1432q6 -96 9 -283.5t3 -208.5q2 -55 10.5 -182t9.5 -191.5t-5 -191.5q-2 -8 -5 -29l-8 -41q-12 -63 -18 -106q-8 -51 -8 -82h2q68 37 82 43q25 6 46 -5.5t28.5 -35t-4 -45t-33.5 -29.5q-4 0 -62 -33q-63 -33 -115 -20q-41 10 -55 55 q-8 20 -8 53q-2 43 8 115l21 113l8 41q2 14 2 18q6 121 5 179.5t-9 181t-11 188.5q0 25 -3 208t-9 279q-2 25 14.5 43.5t41 20.5t43 -14t20.5 -41zM657 819l15 -63q6 -23 -7.5 -44.5t-37 -26.5t-45 8.5t-25.5 37.5l-14 64q-6 23 7 44t36.5 26t45 -8t25.5 -38z" />
<glyph unicode="&#x141;" horiz-adv-x="1021" d="M242 1393q31 -190 14 -494q180 104 367 172q23 8 45 -2t30.5 -32.5t-2 -45t-32.5 -30.5q-211 -80 -416 -205q-4 -90 -6 -146q0 -27 -4.5 -94t-5.5 -101t2.5 -84t13.5 -89q12 -47 49 -76q104 -76 305 -70q41 2 92 7.5t87 10.5t91 13l84 14q25 2 44.5 -12t22.5 -38.5 t-11.5 -44t-38.5 -23.5q-23 -2 -80 -11l-94 -16q-39 -6 -93.5 -11t-99.5 -8q-242 -8 -379 95q-72 53 -94 141q-12 45 -16 105.5t-3 98.5t5 108.5t4 88.5q2 29 2 60q-82 -59 -158 -123q-18 -16 -42.5 -14t-41 20t-14.5 43t20 41q115 96 244 182q20 362 -10 549q-4 25 10 45.5 t39 24.5t45.5 -10t24.5 -39z" />
<glyph unicode="&#x142;" horiz-adv-x="526" d="M317 111q-8 6 -16 -5h2h4zM236 864q-2 39 -3 72q0 25 -3 208t-9 279q-2 25 14.5 43.5t41 20.5t43 -14.5t20.5 -40.5q6 -96 9 -283.5t3 -206.5l82 57q20 16 44 12.5t39 -24t11 -44t-24 -38.5l-146 -102q20 -301 9 -428q-2 -8 -5 -29l-8 -41q-12 -63 -18 -106 q-8 -51 -8 -82h2q68 37 82 43q25 6 46 -5.5t28.5 -35t-4 -45t-33.5 -29.5q-4 0 -62 -33q-63 -33 -115 -20q-41 10 -55 55q-8 20 -8 53q-2 43 8 115l21 113l8 41q2 14 2 18q12 119 -2 342q-117 -74 -236 -139q-20 -12 -43.5 -6t-36 27.5t-6.5 45t29 35.5q146 82 283 172z" />
<glyph unicode="&#x143;" horiz-adv-x="1593" d="M137 221q72 113 99 330q8 68 18 190q10 129 18 189q37 262 39 270q10 70 21 107q8 25 16 40t21 23q27 20 57 12q37 -10 68 -57q20 -29 41 -74q14 -29 31.5 -71.5t19.5 -49.5q47 -102 116.5 -222t116.5 -193l142 -213q37 -55 114 -158l33 -43q4 23 6 49q10 109 12 295 q2 121 -6 506q-2 100 0 147q2 55 10 91q14 61 54 84q23 10 53 8q18 -2 45 -6q37 -8 100 -27q162 -47 164 -47q25 -4 39 -24.5t10 -45t-24.5 -39t-44.5 -10.5q-10 2 -176 51q-59 18 -93 25q-6 2 -12 2q-4 -23 -6 -68q-2 -39 0 -137q8 -377 6 -512q-2 -190 -12 -305 q-8 -70 -19 -113q-14 -63 -45 -88q-25 -18 -55 -10q-10 4 -18 10q-8 4 -17 13q-10 10 -28 30q-27 33 -70 92q-82 109 -119 164l-141 215q-49 74 -121 199t-121 231q-4 6 -20.5 46t-28.5 67l-2 -12q-2 -8 -37 -269q-8 -63 -18 -186q-10 -125 -19 -190q-31 -242 -114 -377 q-14 -20 -38 -26.5t-44.5 7t-26.5 37t6 43.5zM655 1495q12 23 25.5 44.5t34.5 45.5l28 37l35 43q27 33 31 37q14 18 38.5 20t44 -13t21.5 -39.5t-14 -45.5q-111 -131 -141 -186q-12 -23 -36 -29t-45.5 6t-27.5 36t6 44z" />
<glyph unicode="&#x144;" horiz-adv-x="1361" d="M133 246q12 55 29 160q16 117 28 169q29 139 70 242l16 45q14 53 17 56q23 78 55 118q47 59 111 68q55 6 112 -33q80 -53 166 -197q109 -182 191 -413l10 -27q6 -23 10 -37q16 -51 33 -88q20 -43 37 -61q25 20 55 84q35 78 72 211q20 68 59 233q33 137 43 174 q8 23 29.5 34t45.5 4t35 -28.5t5 -46.5q-6 -18 -41 -163q-37 -154 -61 -238q-39 -143 -80 -229q-55 -123 -125 -152q-66 -27 -123 35q-31 33 -60 96q-18 41 -36 98l-11 35q-6 20 -8 25q-80 221 -182 393q-72 121 -129 160q-20 14 -33.5 13t-30.5 -23q-18 -25 -36 -80 q0 -2 -17 -54q-10 -35 -18 -57q-37 -92 -66 -221q-8 -45 -26 -162q-16 -111 -31 -172q-6 -25 -26.5 -37t-45 -6t-37 26.5t-6.5 45.5zM848 1241q29 47 94 113q59 59 78 90q14 23 37.5 28t45 -8.5t27 -37t-7.5 -44.5q-29 -45 -96 -112q-55 -55 -76 -90q-12 -20 -36.5 -26.5 t-45 5.5t-26.5 37t6 45z" />
<glyph unicode="&#x145;" horiz-adv-x="1593" d="M137 221q72 113 99 330q8 68 18 190q10 129 18 189q37 262 39 270q10 70 21 107q8 25 16 40t21 23q27 20 57 12q37 -10 68 -57q20 -29 41 -74q14 -29 31.5 -71.5t19.5 -49.5q47 -102 116.5 -222t116.5 -193l142 -213q37 -55 114 -158l33 -43q4 23 6 49q10 109 12 295 q2 121 -6 506q-2 100 0 147q2 55 10 91q14 61 54 84q23 10 53 8q18 -2 45 -6q37 -8 100 -27q162 -47 164 -47q25 -4 39 -24.5t10 -45t-24.5 -39t-44.5 -10.5q-10 2 -176 51q-59 18 -93 25q-6 2 -12 2q-4 -23 -6 -68q-2 -39 0 -137q8 -377 6 -512q-2 -190 -12 -305 q-8 -70 -19 -113q-14 -63 -45 -88q-25 -18 -55 -10q-10 4 -18 10q-8 4 -17 13q-10 10 -28 30q-27 33 -70 92q-82 109 -119 164l-141 215q-49 74 -121 199t-121 231q-4 6 -20.5 46t-28.5 67l-2 -12q-2 -8 -37 -269q-8 -63 -18 -186q-10 -125 -19 -190q-31 -242 -114 -377 q-14 -20 -38 -26.5t-44.5 7t-26.5 37t6 43.5zM543 -152q102 66 170 15q49 -39 53 -135q4 -63 -11.5 -139t-35.5 -117q-10 -20 -33.5 -28.5t-45.5 1.5t-30 33.5t2 46.5q12 27 24.5 88t10.5 111q0 31 -6 40q-12 -2 -33 -14q-20 -14 -44.5 -9t-38 25.5t-8 45t25.5 36.5z" />
<glyph unicode="&#x146;" horiz-adv-x="1361" d="M133 246q12 55 29 160q16 117 28 169q29 139 70 242l16 45q14 53 17 56q23 78 55 118q47 59 111 68q55 6 112 -33q80 -53 166 -197q109 -182 191 -413l10 -27q6 -23 10 -37q16 -51 33 -88q20 -43 37 -61q25 20 55 84q35 78 72 211q20 68 59 233q33 137 43 174 q8 23 29.5 34t45.5 4t35 -28.5t5 -46.5q-6 -18 -41 -163q-37 -154 -61 -238q-39 -143 -80 -229q-55 -123 -125 -152q-66 -27 -123 35q-31 33 -60 96q-18 41 -36 98l-11 35q-6 20 -8 25q-80 221 -182 393q-72 121 -129 160q-20 14 -33.5 13t-30.5 -23q-18 -25 -36 -80 q0 -2 -17 -54q-10 -35 -18 -57q-37 -92 -66 -221q-8 -45 -26 -162q-16 -111 -31 -172q-6 -25 -26.5 -37t-45 -6t-37 26.5t-6.5 45.5zM598 16q123 -8 162 -102q29 -70 4 -176q-31 -121 -129 -293q-12 -23 -36 -29t-45.5 6.5t-27.5 36t6 43.5q90 160 115 265q18 68 4 100 q-12 29 -61 31q-25 2 -41.5 20.5t-14 43t20.5 40.5t43 14z" />
<glyph unicode="&#x147;" horiz-adv-x="1593" d="M137 221q72 113 99 330q8 68 18 190q10 129 18 189q37 262 39 270q10 70 21 107q8 25 16 40t21 23q27 20 57 12q37 -10 68 -57q20 -29 41 -74q14 -29 31.5 -71.5t19.5 -49.5q47 -102 116.5 -222t116.5 -193l142 -213q37 -55 114 -158l33 -43q4 23 6 49q10 109 12 295 q2 121 -6 506q-2 100 0 147q2 55 10 91q14 61 54 84q23 10 53 8q18 -2 45 -6q37 -8 100 -27q162 -47 164 -47q25 -4 39 -24.5t10 -45t-24.5 -39t-44.5 -10.5q-10 2 -176 51q-59 18 -93 25q-6 2 -12 2q-4 -23 -6 -68q-2 -39 0 -137q8 -377 6 -512q-2 -190 -12 -305 q-8 -70 -19 -113q-14 -63 -45 -88q-25 -18 -55 -10q-10 4 -18 10q-8 4 -17 13q-10 10 -28 30q-27 33 -70 92q-82 109 -119 164l-141 215q-49 74 -121 199t-121 231q-4 6 -20.5 46t-28.5 67l-2 -12q-2 -8 -37 -269q-8 -63 -18 -186q-10 -125 -19 -190q-31 -242 -114 -377 q-14 -20 -38 -26.5t-44.5 7t-26.5 37t6 43.5zM1034 1677q-4 -6 -32.5 -92t-51.5 -139q-39 -84 -76 -127q-70 -74 -147 -35q-37 18 -47 66q-4 14 -4 20v2q-37 76 -137 256q-12 20 -6 44t27.5 36t45 6t35.5 -28q104 -184 141 -265q4 -6 6 -18q25 29 54 90q16 41 47 129 q31 90 35 100q10 23 32.5 32t45 0t31.5 -31.5t1 -45.5z" />
<glyph unicode="&#x148;" horiz-adv-x="1361" d="M133 246q12 55 29 160q16 117 28 169q29 139 70 242l16 45q14 53 17 56q23 78 55 118q47 59 111 68q55 6 112 -33q80 -53 166 -197q109 -182 191 -413l10 -27q6 -23 10 -37q16 -51 33 -88q20 -43 37 -61q25 20 55 84q35 78 72 211q20 68 59 233q33 137 43 174 q8 23 29.5 34t45.5 4t35 -28.5t5 -46.5q-6 -18 -41 -163q-37 -154 -61 -238q-39 -143 -80 -229q-55 -123 -125 -152q-66 -27 -123 35q-31 33 -60 96q-18 41 -36 98l-11 35q-6 20 -8 25q-80 221 -182 393q-72 121 -129 160q-20 14 -33.5 13t-30.5 -23q-18 -25 -36 -80 q0 -2 -17 -54q-10 -35 -18 -57q-37 -92 -66 -221q-8 -45 -26 -162q-16 -111 -31 -172q-6 -25 -26.5 -37t-45 -6t-37 26.5t-6.5 45.5zM1161 1483q-2 -4 -33 -92q-27 -84 -51 -142q-37 -84 -76 -125q-70 -76 -147 -37q-37 18 -47 66q-4 14 -4 21v2q-29 57 -137 258 q-12 23 -5 46t28.5 34.5t45 4t33.5 -27.5q111 -199 141 -266q4 -6 6 -19q25 29 54 92q20 49 47 129q31 92 35 101q10 23 32.5 32t45 -0.5t31.5 -31.5t1 -45z" />
<glyph unicode="&#x149;" horiz-adv-x="1361" d="M133 246q12 55 29 160q16 117 28 169q29 139 70 242l16 45q14 53 17 56q23 78 55 118q47 59 111 68q55 6 112 -33q80 -53 166 -197q109 -182 191 -413l10 -27q6 -23 10 -37q16 -51 33 -88q20 -43 37 -61q25 20 55 84q35 78 72 211q20 68 59 233q33 137 43 174 q8 23 29.5 34t45.5 4t35 -28.5t5 -46.5q-6 -18 -41 -163q-37 -154 -61 -238q-39 -143 -80 -229q-55 -123 -125 -152q-66 -27 -123 35q-31 33 -60 96q-18 41 -36 98l-11 35q-6 20 -8 25q-80 221 -182 393q-72 121 -129 160q-20 14 -33.5 13t-30.5 -23q-18 -25 -36 -80 q0 -2 -17 -54q-10 -35 -18 -57q-37 -92 -66 -221q-8 -45 -26 -162q-16 -111 -31 -172q-6 -25 -26.5 -37t-45 -6t-37 26.5t-6.5 45.5zM63 1597q57 29 99 31q61 4 90 -41q23 -35 14 -84q-6 -33 -22 -73q-10 -27 -25.5 -58t-31 -58.5t-27.5 -47.5l-25 -41q-10 -16 -12 -17 q-12 -23 -36 -28.5t-45.5 6.5t-27.5 35.5t6 44.5q0 2 26 43t49.5 84t37.5 82q8 16 10 28q-12 -4 -30 -12q-23 -10 -45.5 -2t-32.5 30.5t-2.5 45t30.5 32.5z" />
<glyph unicode="&#x14a;" horiz-adv-x="1593" d="M137 221q72 113 99 330q8 68 18 190q10 129 18 189q37 262 39 270q10 70 21 107q8 25 16 40t21 23q27 20 57 12q37 -10 68 -57q20 -29 41 -74q14 -29 31.5 -71.5t19.5 -49.5q47 -102 116.5 -222t116.5 -193l142 -213q37 -55 114 -158l33 -43q4 23 6 49q10 109 12 295 q2 121 -6 506q-2 100 0 147q2 55 10 91q14 61 54 84q23 10 53 8q18 -2 45 -6q37 -8 100 -27q162 -47 164 -47q25 -4 39 -24.5t10 -45t-24.5 -39t-44.5 -10.5q-10 2 -176 51q-59 18 -93 25q-6 2 -12 2q-4 -23 -6 -68q-2 -39 0 -137q8 -377 6 -512q-2 -190 -12 -305 q-8 -70 -18.5 -113t-26.5 -65q55 -152 43 -258q-10 -86 -66.5 -145.5t-163.5 -78.5q-25 -4 -45 10.5t-24 39t10 45t39 24.5q68 10 97.5 41t35.5 78q10 88 -51 238q-4 8 -4 18l-8 8q-27 33 -70 92q-82 109 -119 164l-141 215q-49 74 -121 199t-121 231q-4 6 -20.5 46 t-28.5 67l-2 -12q-2 -8 -37 -269q-8 -63 -18 -186q-10 -125 -19 -190q-31 -242 -114 -377q-14 -20 -38 -26.5t-44.5 7t-26.5 37t6 43.5z" />
<glyph unicode="&#x14b;" horiz-adv-x="1361" d="M133 246q12 55 29 160q16 117 28 169q29 139 70 242l16 45q14 53 17 56q23 78 55 118q47 59 111 68q55 6 112 -33q80 -53 166 -197q109 -182 191 -413l10 -27q6 -23 10 -37q16 -51 33 -88q20 -43 37 -61q25 20 55 84q35 78 72 211q20 68 59 233q33 137 43 174 q8 23 29.5 34t45.5 4t35 -28.5t5 -46.5q-6 -18 -41 -163q-37 -154 -61 -238q-39 -143 -80 -229q-43 -94 -93 -131q-68 -129 -167 -242q-72 -80 -134 -113q-96 -51 -170 0q-27 18 -43 53q-2 8 -4 14.5t-4 8.5l-2 6q-12 20 -6 44t27.5 36t45 6t36.5 -28q2 -2 18 -39q0 -2 2 -4 q14 -6 45 8q43 25 98 86q61 70 121 162q-10 6 -18 16q-31 33 -60 96q-18 41 -36 98l-11 35q-6 20 -8 25q-80 221 -182 393q-72 121 -129 160q-20 14 -33.5 13t-30.5 -23q-18 -25 -36 -80q0 -2 -17 -54q-10 -35 -18 -57q-37 -92 -66 -221q-8 -45 -26 -162q-16 -111 -31 -172 q-6 -25 -26.5 -37t-45 -6t-37 26.5t-6.5 45.5z" />
<glyph unicode="&#x14c;" horiz-adv-x="1392" d="M893 1356q-6 -6 -10 -8q-2 -2 -6.5 -5.5t-15.5 -7.5t-23 -4q-43 2 -54 43q-2 6 -2 12q-180 -14 -313 -160.5t-172 -351.5q-43 -242 68 -421q127 -201 417 -248q139 -23 275 80q133 102 188 252q59 164 6 446q-41 217 -207 320q-100 61 -151 53zM1171 1356 q156 -131 199 -352q57 -313 -14 -508q-31 -84 -89.5 -162t-134 -139.5t-173 -92t-193.5 -16.5q-346 53 -502 305q-135 219 -84 506q25 127 87.5 243.5t153.5 206t218 132.5t264 22q18 -4 33 -16q35 0 84 -2q133 -6 174 -8q25 -2 41 -20.5t14 -43.5t-20.5 -41t-42.5 -14h-15z M963 1559q-53 39 -222 34q-129 -4 -268 -30q-25 -6 -45 8t-25.5 37.5t9 44t37.5 24.5q152 31 288 35q209 6 295 -55q20 -14 24.5 -39t-10 -45.5t-39 -24t-44.5 10.5z" />
<glyph unicode="&#x14d;" horiz-adv-x="937" d="M395 950q-55 -23 -94 -96q-53 -100 -57 -242q-2 -145 54 -255.5t163 -141.5q174 -53 272 33q90 78 88 229q0 104 -44 199.5t-141 172.5t-230 97q-7 2 -11 4zM506 1047q139 -41 239.5 -134.5t147.5 -205t47 -228.5q0 -209 -129 -321q-147 -127 -383 -58q-106 33 -178 119 t-99.5 186.5t-25.5 210.5q4 168 72 293q78 147 206 166q31 4 64 -12q10 -4 16 -7t11 -3q6 -2 12 -6zM684 1231q-86 -18 -245.5 -41t-215.5 -33q-25 -4 -45 10.5t-24 39t10 45t39 24.5l213 31q158 23 243 39q25 6 45.5 -7.5t25.5 -38t-8 -45t-38 -24.5z" />
<glyph unicode="&#x14e;" horiz-adv-x="1392" d="M893 1356q-6 -6 -10 -8q-2 -2 -6.5 -5.5t-15.5 -7.5t-23 -4q-43 2 -54 43q-2 6 -2 12q-180 -14 -313 -160.5t-172 -351.5q-43 -242 68 -421q127 -201 417 -248q139 -23 275 80q133 102 188 252q59 164 6 446q-41 217 -207 320q-100 61 -151 53zM1171 1356 q156 -131 199 -352q57 -313 -14 -508q-31 -84 -89.5 -162t-134 -139.5t-173 -92t-193.5 -16.5q-346 53 -502 305q-135 219 -84 506q25 127 87.5 243.5t153.5 206t218 132.5t264 22q18 -4 33 -16q35 0 84 -2q133 -6 174 -8q25 -2 41 -20.5t14 -43.5t-20.5 -41t-42.5 -14h-15z M475 1696q154 -63 230 -51q86 12 169 133q14 20 39 24t45.5 -10t24.5 -38.5t-10 -45.5q-115 -160 -250 -180q-109 -18 -293 57q-23 10 -32 32.5t0.5 45.5t31.5 32t45 1z" />
<glyph unicode="&#x14f;" horiz-adv-x="937" d="M395 950q-55 -23 -94 -96q-53 -100 -57 -242q-2 -145 54 -255.5t163 -141.5q174 -53 272 33q90 78 88 229q0 104 -44 199.5t-141 172.5t-230 97q-7 2 -11 4zM506 1047q139 -41 239.5 -134.5t147.5 -205t47 -228.5q0 -209 -129 -321q-147 -127 -383 -58q-106 33 -178 119 t-99.5 186.5t-25.5 210.5q4 168 72 293q78 147 206 166q31 4 64 -12q10 -4 16 -7t11 -3q6 -2 12 -6zM246 1520q29 -27 78 -88q39 -51 65 -74q88 -76 172 -35q72 37 166 162q14 18 39 21t44 -11t22.5 -38.5t-11.5 -45.5q-111 -145 -207 -192q-156 -78 -303 49q-35 31 -82 90 q-45 57 -65 76q-18 16 -18.5 40.5t16 43t41.5 18.5t43 -16z" />
<glyph unicode="&#x150;" horiz-adv-x="1392" d="M893 1356q-6 -6 -10 -8q-2 -2 -6.5 -5.5t-15.5 -7.5t-23 -4q-43 2 -54 43q-2 6 -2 12q-180 -14 -313 -160.5t-172 -351.5q-43 -242 68 -421q127 -201 417 -248q139 -23 275 80q133 102 188 252q59 164 6 446q-41 217 -207 320q-100 61 -151 53zM1171 1356 q156 -131 199 -352q57 -313 -14 -508q-31 -84 -89.5 -162t-134 -139.5t-173 -92t-193.5 -16.5q-346 53 -502 305q-135 219 -84 506q25 127 87.5 243.5t153.5 206t218 132.5t264 22q18 -4 33 -16q35 0 84 -2q133 -6 174 -8q25 -2 41 -20.5t14 -43.5t-20.5 -41t-42.5 -14h-15z M582 1640q29 47 77 111l80 100q14 20 38 23.5t44.5 -11t23.5 -38t-11 -43.5q-4 -4 -80 -103q-45 -57 -70 -100q-12 -20 -35.5 -26.5t-45 6t-27.5 35.5t6 46zM848 1628q20 31 45 64l39 51q12 16 51 59t43 47q16 18 41 20.5t43 -14t20.5 -41t-14.5 -42.5l-37 -43l-39 -41 q-12 -14 -30.5 -37t-32.5 -43.5t-27 -40.5q-14 -20 -37.5 -26.5t-44 7t-26.5 37t6 43.5z" />
<glyph unicode="&#x151;" horiz-adv-x="937" d="M395 950q-55 -23 -94 -96q-53 -100 -57 -242q-2 -145 54 -255.5t163 -141.5q174 -53 272 33q90 78 88 229q0 104 -44 199.5t-141 172.5t-230 97q-7 2 -11 4zM506 1047q139 -41 239.5 -134.5t147.5 -205t47 -228.5q0 -209 -129 -321q-147 -127 -383 -58q-106 33 -178 119 t-99.5 186.5t-25.5 210.5q4 168 72 293q78 147 206 166q31 4 64 -12q10 -4 16 -7t11 -3q6 -2 12 -6zM281 1315q31 39 86 121q59 86 96 131q14 18 38.5 20t44 -13t21.5 -40t-14 -45q-33 -39 -88 -121q-59 -86 -94 -127q-14 -20 -39 -22t-44.5 13t-21 40t14.5 43zM559 1300 l92 140q59 90 107 143q16 18 40.5 20.5t43 -14t20.5 -41t-14 -43.5q-41 -49 -96 -131q-88 -129 -99 -143q-14 -20 -38.5 -23.5t-44 11t-22.5 39t11 42.5z" />
<glyph unicode="&#x152;" horiz-adv-x="1841" d="M807 193q72 61 135 155q82 121 121 301t16 344q-25 176 -122 280.5t-273 108.5q-254 6 -358 -190q-84 -158 -84 -453q0 -94 1 -133t8 -110.5t24.5 -122.5t48.5 -99q33 -47 87 -83.5t115 -53.5q135 -33 211 45q31 29 70 11zM1772 1358q-289 59 -574 -8q0 -18 2 -43 q2 -131 4 -142q23 -221 25 -374q59 6 188 22q158 23 242 29q25 2 43 -14.5t20 -41t-14 -43t-41 -20.5q-88 -8 -233 -27q-139 -18 -207 -26v-6q-2 -70 -19.5 -234t-15.5 -252q315 -47 522 -24q25 2 44.5 -13.5t21.5 -40t-13.5 -44t-40.5 -21.5q-217 -23 -528 22 q-10 -37 -49 -43q-25 -2 -44.5 12.5t-23.5 39.5q-14 115 -2 280q-18 -35 -39 -63q-98 -145 -209 -222q-158 -111 -311 -55q-14 4 -24 17q-82 20 -155 69t-116 117q-47 72 -71.5 170t-27.5 160.5t-3 171.5v28q0 328 98 510q139 260 467 252q254 -6 393 -190q-2 72 -18 116 q-8 25 2 46.5t33.5 29.5t45 -2t30.5 -33l2 -2q307 72 620 7q25 -4 38 -25t8 -45.5t-25 -37.5t-45 -7z" />
<glyph unicode="&#x153;" horiz-adv-x="1673" d="M852 453q0 57 8 114l4 21q-35 131 -135 217q-115 98 -242 82q-141 -16 -231 -174q-20 -35 -25.5 -79t-5.5 -122q0 -102 52.5 -202.5t136.5 -162.5q53 -39 108.5 -52t116.5 5.5t117 75.5q18 16 41 49q25 35 28 47q8 27 10.5 78t4.5 74q2 17 12 29zM915 176 q-16 -29 -34 -57q-12 -20 -37 -25l-2 -4q-80 -78 -171 -104.5t-172 -7t-157 74.5q-104 76 -170 202t-66 257q0 59 1.5 86t12.5 81t34 95q121 207 319 232q180 23 334 -111q63 -55 108 -129q53 123 134 203q84 82 184 104.5t227 -24.5q92 -41 120 -130.5t5 -183.5 q-23 -90 -81 -163.5t-138 -96.5q-88 -25 -238 2l-133 29q4 -80 -14 -160q14 -80 53 -135q98 -137 316 -94q12 4 24 7t27 11l24 12q10 4 26.5 14.5t25.5 16.5l26 19q18 14 24.5 19t27 20.5t24.5 19.5q20 14 45 11t39 -22.5t11 -44t-21 -38.5q-4 -2 -31 -22.5t-36 -29 t-35.5 -26.5t-43.5 -27l-41 -24q-25 -12 -47 -19.5t-45 -11.5q-147 -31 -257.5 7t-178.5 132q-13 17 -23 35zM993 627q152 -31 156 -33q123 -20 184 -4q43 12 82 60t55 114q14 66 -1 111t-58 63q-154 68 -278 -55q-97 -92 -140 -256z" />
<glyph unicode="&#x154;" horiz-adv-x="1673" d="M831 684q-133 -70 -219 -88q-127 -29 -321 -31q0 -4 16 -262q10 -174 27 -280q2 -25 -12.5 -44.5t-39 -22.5t-44 11.5t-23.5 38.5q-14 102 -27 291q-16 258 -16 268q-23 2 -38 19.5t-15 40.5q0 45 43 57l-53 645h-7q-25 2 -42 19.5t-15 42t19.5 42t41.5 15.5h5 q16 27 46.5 29t49.5 -21q25 4 59 12q158 39 176 43q14 2 31 7q-18 0 -33 10q-20 14 -24 38.5t10 45.5q43 61 119 143q100 109 119 131q16 18 39.5 20.5t43 -14t21.5 -40t-14 -44.5l-121 -133q-70 -78 -109 -133q-12 -16 -30 -22q125 16 262 -9q168 -29 295 -118 q68 -49 129 -124t71 -151q10 -90 -77 -190q-66 -74 -183 -150l-55 -35q43 -53 86 -123.5t68 -115.5l69 -140q45 -94 60 -120q94 -186 189 -308t237 -196q20 -12 27 -36t-4 -45.5t-34.5 -28.5t-46.5 3q-84 47 -156.5 109.5t-131 140.5t-99.5 145.5t-88 159.5q-14 31 -63 131 l-74 142q-20 41 -62.5 108.5t-81.5 116.5zM752 776q-10 35 14 60q16 18 40.5 18t43.5 -16l6 -7q37 20 72 43q102 68 157 132q51 59 48 94q-4 43 -50.5 98t-101.5 94q-104 76 -245.5 100.5t-272.5 -1.5q-16 -2 -168 -41q-37 -8 -68 -15l54 -651q193 2 307 27q60 14 164 65z " />
<glyph unicode="&#x155;" horiz-adv-x="860" d="M188 1130q39 -59 60 -192q8 -55 12 -127q61 139 152 221q96 90 204 86q123 -4 232 -127q16 -18 14 -42.5t-20.5 -41t-43 -14.5t-40.5 20q-74 84 -146 86q-59 2 -120.5 -54t-106.5 -150q-47 -94 -61 -187q-23 -139 -23 -332v-112q0 -4 2 -19l2 -26q2 -20 0 -31.5t-6 -19.5 q-20 -41 -63 -35q-25 4 -39 24l-9 13q-18 35 -16 92q0 49 -2 57q-6 47 -10 119t-8 186q-2 109 -5 160q-6 150 -18 238q-14 106 -39 143q-14 20 -9 45t25.5 38t45 7.5t36.5 -25.5zM242 1294q47 33 108 113q92 115 119 143q18 16 43 16.5t42 -17t17 -42t-16 -43.5 q-25 -23 -111 -131q-76 -96 -137 -137q-20 -14 -43.5 -9t-38 25.5t-9 44t25.5 37.5z" />
<glyph unicode="&#x156;" horiz-adv-x="1673" d="M831 684q-133 -70 -219 -88q-127 -29 -321 -31q0 -4 16 -262q10 -174 27 -280q2 -25 -12.5 -44.5t-39 -22.5t-44 11.5t-23.5 38.5q-14 102 -27 291q-16 258 -16 268q-23 2 -38 19.5t-15 40.5q0 45 43 57l-53 645h-7q-25 2 -42 19.5t-15 42t19.5 42t41.5 15.5h5 q16 27 46.5 29t49.5 -21q25 4 59 12q158 39 176 43q145 29 313.5 0.5t295.5 -118.5q68 -49 129 -124t71 -151q10 -90 -77 -190q-66 -74 -183 -150l-55 -35q43 -53 86 -123.5t68 -115.5l69 -140q45 -94 60 -120q94 -186 189 -308t237 -196q20 -12 27 -36t-4 -45.5 t-34.5 -28.5t-46.5 3q-84 47 -156.5 109.5t-131 140.5t-99.5 145.5t-88 159.5q-14 31 -63 131l-74 142q-20 41 -62.5 108.5t-81.5 116.5zM752 776q-10 35 14 60q16 18 40.5 18t43.5 -16l6 -7q37 20 72 43q102 68 157 132q51 59 48 94q-4 43 -50.5 98t-101.5 94 q-104 76 -245.5 100.5t-272.5 -1.5q-16 -2 -168 -41q-37 -8 -68 -15l54 -651q193 2 307 27q60 14 164 65zM643 -147h4h8l17 4q43 6 71 -13q90 -55 62 -198q-23 -113 -82 -166q-12 -10 -31.5 -22.5t-40 -22.5t-22.5 -13q-20 -12 -45 -6t-37 26.5t-6 45.5t26 37q16 10 41 22.5 t37 22.5q29 25 43 98q10 49 -4 70q-27 -4 -41 -4q-25 0 -42 17.5t-17 42t17 42t42 17.5z" />
<glyph unicode="&#x157;" horiz-adv-x="860" d="M188 1130q39 -59 60 -192q8 -55 12 -127q61 139 152 221q96 90 204 86q123 -4 232 -127q16 -18 14 -42.5t-20.5 -41t-43 -14.5t-40.5 20q-74 84 -146 86q-59 2 -120.5 -54t-106.5 -150q-47 -94 -61 -187q-23 -139 -23 -332v-112q0 -4 2 -19l2 -26q2 -20 0 -31.5t-6 -19.5 q-20 -41 -63 -35q-25 4 -39 24l-9 13q-18 35 -16 92q0 49 -2 57q-6 47 -10 119t-8 186q-2 109 -5 160q-6 150 -18 238q-14 106 -39 143q-14 20 -9 45t25.5 38t45 7.5t36.5 -25.5zM240 -127h4h8q6 0 14 -2q47 -4 72 -35q49 -66 16 -194q-29 -106 -78 -162 q-16 -16 -40.5 -18.5t-42 15t-19.5 42t16 43.5q29 31 50 108q12 53 8 84q-25 0 -37 4q-25 6 -37 26.5t-6 45.5t26.5 37t45.5 6z" />
<glyph unicode="&#x158;" horiz-adv-x="1673" d="M831 684q-133 -70 -219 -88q-127 -29 -321 -31q0 -4 16 -262q10 -174 27 -280q2 -25 -12.5 -44.5t-39 -22.5t-44 11.5t-23.5 38.5q-14 102 -27 291q-16 258 -16 268q-23 2 -38 19.5t-15 40.5q0 45 43 57l-53 645h-7q-25 2 -42 19.5t-15 42t19.5 42t41.5 15.5h5 q16 27 46.5 29t49.5 -21q25 4 59 12q158 39 176 43q145 29 313.5 0.5t295.5 -118.5q68 -49 129 -124t71 -151q10 -90 -77 -190q-66 -74 -183 -150l-55 -35q43 -53 86 -123.5t68 -115.5l69 -140q45 -94 60 -120q94 -186 189 -308t237 -196q20 -12 27 -36t-4 -45.5 t-34.5 -28.5t-46.5 3q-84 47 -156.5 109.5t-131 140.5t-99.5 145.5t-88 159.5q-14 31 -63 131l-74 142q-20 41 -62.5 108.5t-81.5 116.5zM752 776q-10 35 14 60q16 18 40.5 18t43.5 -16l6 -7q37 20 72 43q102 68 157 132q51 59 48 94q-4 43 -50.5 98t-101.5 94 q-104 76 -245.5 100.5t-272.5 -1.5q-16 -2 -168 -41q-37 -8 -68 -15l54 -651q193 2 307 27q60 14 164 65zM260 1733q18 -10 66 -47q18 -14 24 -17q4 0 10 6q16 14 35 45q16 31 54 123q10 23 32.5 32t45 0t31.5 -31.5t1 -45.5q-39 -98 -61 -135q-27 -49 -58 -76 q-49 -43 -104 -37q-41 6 -86 43q-37 29 -43 33q-23 10 -30 33.5t3 46.5t33.5 30t46.5 -3z" />
<glyph unicode="&#x159;" horiz-adv-x="860" d="M188 1130q39 -59 60 -192q8 -55 12 -127q61 139 152 221q96 90 204 86q123 -4 232 -127q16 -18 14 -42.5t-20.5 -41t-43 -14.5t-40.5 20q-74 84 -146 86q-59 2 -120.5 -54t-106.5 -150q-47 -94 -61 -187q-23 -139 -23 -332v-112q0 -4 2 -19l2 -26q2 -20 0 -31.5t-6 -19.5 q-20 -41 -63 -35q-25 4 -39 24l-9 13q-18 35 -16 92q0 49 -2 57q-6 47 -10 119t-8 186q-2 109 -5 160q-6 150 -18 238q-14 106 -39 143q-14 20 -9 45t25.5 38t45 7.5t36.5 -25.5zM135 1516q90 -53 168 -134l25 -22l20 -23l8 -8q6 6 13 14q33 37 129 193q14 23 37.5 28 t45 -8.5t26.5 -37t-7 -43.5q-104 -164 -141 -207q-31 -37 -58 -51q-41 -20 -82 -3q-25 10 -53 37q-8 6 -23.5 23.5t-23.5 23.5q-68 68 -145 115q-20 12 -26.5 37t6 45.5t37 26.5t44.5 -6z" />
<glyph unicode="&#x15a;" horiz-adv-x="1222" d="M903 1200q-16 41 -45 55q-25 14 -94 25q-201 33 -318 -31q-123 -68 -129 -256q0 -16 -2 -39.5t-2 -28.5t2 -24q20 -86 105 -117q57 -20 233 -34q59 -4 94 -8.5t94.5 -15.5t101.5 -28.5t90 -45t86 -70.5t69 -101q23 -43 33 -100t-2 -115q-35 -115 -183 -246 q-88 -78 -190.5 -113.5t-198.5 -29.5q-98 4 -194 43q-139 55 -252 168q-111 113 -168 256q-8 23 1 45.5t31.5 31.5t45 0t32.5 -32q49 -121 143.5 -217t209.5 -141q109 -49 233.5 -32t228.5 112q121 109 146 188q6 20 -1 60t-22 69q-31 59 -75.5 99t-108 60.5t-115.5 28.5 q-49 8 -139 15q-190 14 -264 43q-143 51 -178 198q-6 20 -6 44t2 53l2 28q8 254 190 357q152 84 395 45q88 -14 131 -39q68 -35 99 -115q8 -25 -1 -47t-33 -30.5t-46.5 0.5t-30.5 32zM530 1612q135 88 273 248q16 18 40.5 20t43 -14.5t20.5 -41t-14 -42.5 q-147 -172 -297 -269q-20 -14 -45 -9t-38 25.5t-8 45.5t25 37z" />
<glyph unicode="&#x15b;" horiz-adv-x="1032" d="M647 1026q-49 -2 -109.5 -47t-101.5 -113q-39 -72 -39 -120t35 -72q43 -29 123 -35q29 -2 82 -2q61 -2 86 -2q111 -6 176 -45q88 -55 117 -180q29 -123 14 -187q-31 -147 -207 -237q-160 -82 -303 -58q-68 12 -108 43l-21 21l-26 24l-23 23q-18 16 -18 40.5t16 43 t41 18.5t43 -16q16 -14 35 -33q16 -18 26 -24q16 -14 56 -21q104 -18 227 45q127 63 147 156q8 39 -14 133q-18 78 -65 106q-39 25 -119 29q-23 0 -82 2q-55 0 -88 2q-113 8 -180 55q-61 41 -79 108t-2.5 127t50.5 118q51 88 135 151.5t172 65.5q25 0 43.5 -16.5t18.5 -41 t-16.5 -43t-41.5 -18.5zM438 1262q182 195 183 313q0 25 17 42t42 17t42 -17.5t17 -41.5q0 -166 -215 -395q-16 -18 -40.5 -18.5t-43 16t-18.5 41.5t16 43z" />
<glyph unicode="&#x15c;" horiz-adv-x="1222" d="M903 1200q-16 41 -45 55q-25 14 -94 25q-201 33 -318 -31q-123 -68 -129 -256q0 -16 -2 -39.5t-2 -28.5t2 -24q20 -86 105 -117q57 -20 233 -34q59 -4 94 -8.5t94.5 -15.5t101.5 -28.5t90 -45t86 -70.5t69 -101q23 -43 33 -100t-2 -115q-35 -115 -183 -246 q-88 -78 -190.5 -113.5t-198.5 -29.5q-98 4 -194 43q-139 55 -252 168q-111 113 -168 256q-8 23 1 45.5t31.5 31.5t45 0t32.5 -32q49 -121 143.5 -217t209.5 -141q109 -49 233.5 -32t228.5 112q121 109 146 188q6 20 -1 60t-22 69q-31 59 -75.5 99t-108 60.5t-115.5 28.5 q-49 8 -139 15q-190 14 -264 43q-143 51 -178 198q-6 20 -6 44t2 53l2 28q8 254 190 357q152 84 395 45q88 -14 131 -39q68 -35 99 -115q8 -25 -1 -47t-33 -30.5t-46.5 0.5t-30.5 32zM369 1569l135 157q29 35 45 50q33 27 65 28q35 2 70 -22q18 -14 47 -47q10 -10 35 -39 l49 -58q29 -31 59 -61q16 -18 16.5 -43t-18 -41t-43 -16t-41.5 18q-31 31 -59 61l-51 62q-25 27 -33 37l-24 24q-8 -8 -25 -28q-106 -127 -141 -164q-16 -16 -41 -17.5t-42.5 15t-18 41.5t15.5 43z" />
<glyph unicode="&#x15d;" horiz-adv-x="1032" d="M647 1026q-49 -2 -109.5 -47t-101.5 -113q-39 -72 -39 -120t35 -72q43 -29 123 -35q29 -2 82 -2q61 -2 86 -2q111 -6 176 -45q88 -55 117 -180q29 -123 14 -187q-31 -147 -207 -237q-160 -82 -303 -58q-68 12 -108 43l-21 21l-26 24l-23 23q-18 16 -18 40.5t16 43 t41 18.5t43 -16q16 -14 35 -33q16 -18 26 -24q16 -14 56 -21q104 -18 227 45q127 63 147 156q8 39 -14 133q-18 78 -65 106q-39 25 -119 29q-23 0 -82 2q-55 0 -88 2q-113 8 -180 55q-61 41 -79 108t-2.5 127t50.5 118q51 88 135 151.5t172 65.5q25 0 43.5 -16.5t18.5 -41 t-16.5 -43t-41.5 -18.5zM283 1208q2 4 26 68q25 61 45 102q33 63 68 95q27 23 59 28q39 4 74 -18q37 -27 74 -80l26 -39q12 -20 23 -31q16 -18 14 -42.5t-20.5 -41t-43 -14.5t-40.5 20q-14 16 -31 41l-25 39q-20 29 -36 43q-16 -16 -35 -55q-18 -33 -41 -92l-31 -76 q-10 -20 -33.5 -28.5t-45 2t-29.5 33.5t2 46z" />
<glyph unicode="&#x15e;" horiz-adv-x="1222" d="M903 1200q-16 41 -45 55q-25 14 -94 25q-201 33 -318 -31q-123 -68 -129 -256q0 -16 -2 -39.5t-2 -28.5t2 -24q20 -86 105 -117q57 -20 233 -34q59 -4 94 -8.5t94.5 -15.5t101.5 -28.5t90 -45t86 -70.5t69 -101q23 -43 33 -100t-2 -115q-35 -115 -183 -246 q-170 -152 -387 -143l-37 -45q4 2 11 2q4 0 31.5 1t39.5 1q53 0 82 -18q76 -47 74 -148q0 -96 -72 -143q-66 -45 -172 -39q-53 2 -149 25q-25 4 -38 24.5t-8 45t25.5 37.5t44.5 7q88 -18 131 -20q68 -4 101 18q18 12 18 47q2 31 -16 43q-8 2 -23 2q-12 0 -35.5 -1t-27.5 -1 q-51 -2 -82 6q-59 16 -78 70q-6 23 4 49q4 10 12 23l27 37q-31 8 -59 20q-139 55 -251 168t-169 256q-8 23 1 45.5t31.5 31.5t45 0t32.5 -32q49 -121 143.5 -217t209.5 -141q109 -49 233.5 -32t228.5 112q121 109 146 188q6 20 -1 60t-22 69q-31 59 -75.5 99t-108 60.5 t-115.5 28.5q-49 8 -139 15q-190 14 -264 43q-143 51 -178 198q-6 20 -6 44t2 53l2 28q8 254 190 357q152 84 395 45q88 -14 131 -39q68 -35 99 -115q8 -25 -1 -47t-33 -30.5t-46.5 0.5t-30.5 32z" />
<glyph unicode="&#x15f;" horiz-adv-x="1032" d="M647 1026q-49 -2 -109.5 -47t-101.5 -113q-39 -72 -39 -120t35 -72q43 -29 123 -35q29 -2 82 -2q61 -2 86 -2q111 -6 176 -45q88 -55 117 -180q29 -123 14 -187q-31 -147 -207 -237q-102 -51 -209 -60q-8 -20 -22 -47q25 8 43 12q90 16 137 -20q66 -49 33 -168 q-8 -31 -51 -80q-8 -8 -109 -100q-18 -18 -42.5 -16.5t-42 19t-15.5 42t18 41.5q98 88 101 92q25 29 26 35q8 27 6 41q-14 2 -39 -2q-16 -4 -100 -29q-33 -10 -51 -12q-47 -8 -74 20q-18 18 -16 45q0 8 2 17q2 4 5 11t9 17l27 43q18 29 28 50q-43 12 -75 34l-21 21l-26 24 l-23 23q-18 16 -18 40.5t16 43t41 18.5t43 -16q16 -14 35 -33q16 -18 26 -24q16 -14 56 -21q104 -18 227 45q127 63 147 156q8 39 -14 133q-18 78 -65 106q-39 25 -119 29q-23 0 -82 2q-55 0 -88 2q-113 8 -180 55q-61 41 -79 108t-2.5 127t50.5 118q51 88 135 151.5 t172 65.5q25 0 43.5 -16.5t18.5 -41t-16.5 -43t-41.5 -18.5z" />
<glyph unicode="&#x160;" horiz-adv-x="1222" d="M903 1200q-16 41 -45 55q-25 14 -94 25q-201 33 -318 -31q-123 -68 -129 -256q0 -16 -2 -39.5t-2 -28.5t2 -24q20 -86 105 -117q57 -20 233 -34q59 -4 94 -8.5t94.5 -15.5t101.5 -28.5t90 -45t86 -70.5t69 -101q23 -43 33 -100t-2 -115q-35 -115 -183 -246 q-88 -78 -190.5 -113.5t-198.5 -29.5q-98 4 -194 43q-139 55 -252 168q-111 113 -168 256q-8 23 1 45.5t31.5 31.5t45 0t32.5 -32q49 -121 143.5 -217t209.5 -141q109 -49 233.5 -32t228.5 112q121 109 146 188q6 20 -1 60t-22 69q-31 59 -75.5 99t-108 60.5t-115.5 28.5 q-49 8 -139 15q-190 14 -264 43q-143 51 -178 198q-6 20 -6 44t2 53l2 28q8 254 190 357q152 84 395 45q88 -14 131 -39q68 -35 99 -115q8 -25 -1 -47t-33 -30.5t-46.5 0.5t-30.5 32zM825 1855q-2 -4 -32 -92q-27 -82 -52 -139q-37 -84 -75 -127q-70 -74 -148 -35 q-37 18 -47 66q-4 16 -4 20q-27 55 -137 258q-12 23 -5 46.5t28.5 34.5t45 4t33.5 -27q115 -207 141 -262q4 -8 7 -21q25 29 53 90q20 51 47 129q33 92 35 101q10 23 32.5 32t45 -0.5t31.5 -32t1 -45.5z" />
</font>
</defs>
</svg>
